<svg width="132" height="72" viewBox="0 0 132 72" fill="none" xmlns="http://www.w3.org/2000/svg">
<path fill-rule="evenodd" clip-rule="evenodd" d="M65.9948 8.3021C67.386 8.3021 68.7355 8.46815 70.0326 8.78985L70.1477 13.6051C69.9384 13.6777 69.7605 13.8334 69.6559 14.0306L62.9614 12.9201C62.9404 12.7852 62.8881 12.6503 62.8044 12.5466L65.9425 8.3021C65.9425 8.3021 65.9739 8.3021 65.9948 8.3021ZM62.0826 12.7126C62.2709 12.7126 62.4279 12.8683 62.4279 13.0551C62.4279 13.2419 62.2709 13.3975 62.0826 13.3975C61.8943 13.3975 61.7374 13.2419 61.7374 13.0551C61.7374 12.8683 61.8943 12.7126 62.0826 12.7126ZM70.4404 14.1032C70.6287 14.1032 70.7857 14.2589 70.7857 14.4457C70.7857 14.6325 70.6287 14.7881 70.4404 14.7881C70.2522 14.7881 70.0953 14.6325 70.0953 14.4457C70.0953 14.2589 70.2522 14.1032 70.4404 14.1032ZM65.179 23.2148C65.3672 23.2148 65.5241 23.3704 65.5241 23.5572C65.5241 23.744 65.3672 23.8997 65.179 23.8997C64.9907 23.8997 64.8337 23.744 64.8337 23.5572C64.8337 23.3704 64.9907 23.2148 65.179 23.2148ZM75.0431 21.2534C75.2313 21.2534 75.3883 21.409 75.3883 21.5958C75.3883 21.7826 75.2313 21.9383 75.0431 21.9383C74.8548 21.9383 74.6979 21.7826 74.6979 21.5958C74.6979 21.409 74.8548 21.2534 75.0431 21.2534ZM74.8548 31.2159C75.0431 31.2159 75.2 31.3716 75.2 31.5584C75.2 31.7452 75.0431 31.9008 74.8548 31.9008C74.6665 31.9008 74.5096 31.7452 74.5096 31.5584C74.5096 31.3716 74.6665 31.2159 74.8548 31.2159ZM69.4363 37.2557C69.6246 37.2557 69.7816 37.4114 69.7816 37.5982C69.7816 37.785 69.6246 37.9406 69.4363 37.9406C69.248 37.9406 69.0911 37.785 69.0911 37.5982C69.0911 37.4114 69.248 37.2557 69.4363 37.2557ZM61.0889 36.7783C61.2772 36.7783 61.434 36.934 61.434 37.1208C61.434 37.3076 61.2772 37.4632 61.0889 37.4632C60.9006 37.4632 60.7438 37.3076 60.7438 37.1208C60.7438 36.934 60.9006 36.7783 61.0889 36.7783ZM64.5199 30.3961C64.8547 30.3961 65.1266 30.6659 65.1266 30.998C65.1266 31.3301 64.8547 31.5999 64.5199 31.5999C64.1852 31.5999 63.9132 31.3301 63.9132 30.998C63.9132 30.6659 64.1852 30.3961 64.5199 30.3961ZM56.5804 30.7697C56.8419 30.7697 57.0512 30.9772 57.0512 31.2367C57.0512 31.4961 56.8419 31.7037 56.5804 31.7037C56.3189 31.7037 56.1097 31.4961 56.1097 31.2367C56.1097 30.9772 56.3189 30.7697 56.5804 30.7697ZM56.706 20.4751C57.114 20.4751 57.4487 20.8071 57.4487 21.2119C57.4487 21.6166 57.114 21.9487 56.706 21.9487C56.2981 21.9487 55.9633 21.6166 55.9633 21.2119C55.9633 20.8071 56.2981 20.4751 56.706 20.4751ZM85.3465 25.8403C84.7189 25.8403 84.2169 25.3422 84.2169 24.7195C84.2169 24.0969 84.7189 23.5987 85.3465 23.5987C85.8905 23.5987 87.5014 24.0346 88.129 24.1591L90.9115 24.7195L88.129 25.2799C87.5014 25.4044 85.8905 25.8403 85.3465 25.8403ZM85.1897 22.0732C84.583 22.1977 83.9868 21.8034 83.8612 21.1911C83.7357 20.5892 84.1332 19.9977 84.7503 19.8732C85.2838 19.7694 86.947 19.8732 87.5851 19.8732H90.4199L87.8048 20.9732C87.2086 21.2223 85.7127 21.9591 85.1897 22.0628V22.0732ZM84.3005 18.4099C83.7252 18.6486 83.0663 18.3788 82.8257 17.808C82.5851 17.2372 82.857 16.5835 83.4323 16.3448C83.9344 16.1372 85.5872 15.9297 86.2148 15.8051L88.9973 15.2655L86.6437 16.8429C86.1103 17.1957 84.7923 18.2127 84.2901 18.4203L84.3005 18.4099ZM82.7001 14.9853C83.1499 14.6843 84.2482 13.439 84.698 12.9824L86.696 10.9795L84.0704 12.0484C83.4742 12.2871 81.8946 12.8164 81.4448 13.1173C80.9323 13.4598 80.7859 14.1551 81.1311 14.6636C81.4763 15.1721 82.1771 15.3174 82.6897 14.9749L82.7001 14.9853ZM80.4616 11.9343C80.0223 12.3701 79.3109 12.3701 78.8716 11.9343C78.4323 11.4984 78.4323 10.7927 78.8716 10.3569C79.2586 9.9729 80.7022 9.15307 81.2357 8.80023L83.5997 7.24359L82.0307 9.58893C81.675 10.1182 80.8486 11.5607 80.4616 11.9343ZM77.6686 9.371C77.972 8.92476 78.5055 7.35774 78.7461 6.76622L79.8235 4.16143L77.8151 6.14356C77.3548 6.5898 76.0995 7.67945 75.8066 8.12568C75.4614 8.63419 75.5975 9.32949 76.1205 9.67195C76.6331 10.0144 77.3339 9.8795 77.6791 9.36062L77.6686 9.371ZM74.4259 7.40963C74.1853 7.9804 73.5263 8.25022 72.951 8.01153C72.3756 7.77284 72.1037 7.11905 72.3443 6.54828C72.5535 6.05016 73.5682 4.74258 73.9238 4.21332L75.5034 1.87835L74.9594 4.6388C74.8339 5.26146 74.6247 6.9115 74.4155 7.39925L74.4259 7.40963ZM70.8589 6.11242C70.7334 6.71433 70.1476 7.10868 69.5304 6.99452C68.9237 6.86999 68.5262 6.28884 68.6413 5.67656C68.7459 5.1473 69.4886 3.6633 69.7397 3.08216L70.8379 0.487748V3.30009C70.8484 3.9435 70.9635 5.59354 70.8589 6.11242ZM64.8651 43.9181C64.8651 43.2955 65.3671 42.7973 65.9948 42.7973C66.6224 42.7973 67.1246 43.2955 67.1246 43.9181C67.1246 44.4578 66.6852 46.0559 66.5597 46.6786L65.9948 49.439L65.43 46.6786C65.3045 46.0559 64.8651 44.4578 64.8651 43.9181ZM68.6622 43.7728C68.5367 43.1709 68.9342 42.5794 69.5513 42.4549C70.158 42.3304 70.7543 42.7247 70.8798 43.337C70.9844 43.8662 70.8798 45.5163 70.8798 46.1493V48.9617L69.7711 46.3673C69.52 45.7757 68.7773 44.2917 68.6727 43.7728H68.6622ZM72.3548 42.8907C72.1142 42.32 72.3861 41.6662 72.9614 41.4275C73.5368 41.1888 74.1958 41.4586 74.4364 42.0294C74.6456 42.5275 74.8548 44.1672 74.9804 44.7899L75.5243 47.5503L73.9343 45.2153C73.5787 44.6861 72.5535 43.3785 72.3443 42.8804L72.3548 42.8907ZM75.8066 41.303C76.11 41.7492 77.3653 42.8389 77.8256 43.2851L79.8445 45.2672L78.767 42.6624C78.5264 42.0709 77.9929 40.5039 77.6896 40.0577C77.3444 39.5491 76.6435 39.4039 76.131 39.7463C75.6184 40.0888 75.4719 40.7841 75.8171 41.2926L75.8066 41.303ZM78.8821 39.0822C78.4427 38.6463 78.4427 37.9406 78.8821 37.5048C79.3214 37.0689 80.0327 37.0689 80.4721 37.5048C80.8591 37.8887 81.6855 39.3208 82.0411 39.8501L83.6102 42.1954L81.2461 40.6388C80.7127 40.286 79.2586 39.4661 78.8821 39.0822ZM81.4658 36.3113C81.9156 36.6123 83.4951 37.1415 84.0913 37.3802L86.7169 38.4491L84.7189 36.4566C84.2691 36 83.1709 34.7547 82.7211 34.4641C82.2085 34.1216 81.5076 34.2566 81.1624 34.7754C80.8172 35.2839 80.9532 35.9792 81.4762 36.3217L81.4658 36.3113ZM83.4428 33.0943C82.8675 32.8556 82.5955 32.2018 82.8361 31.631C83.0767 31.0602 83.7356 30.7904 84.311 31.0291C84.8131 31.2367 86.1311 32.2433 86.6646 32.5961L89.0182 34.1632L86.2358 33.6235C85.6081 33.499 83.9449 33.2914 83.4533 33.0839L83.4428 33.0943ZM84.7503 29.5555C84.1436 29.431 83.7462 28.8498 83.8612 28.2375C83.9868 27.6356 84.5726 27.2413 85.1897 27.3554C85.7232 27.4592 87.2191 28.196 87.8048 28.4451L90.4199 29.5347H87.5851C86.9365 29.5451 85.2734 29.6593 84.7503 29.5555ZM46.643 23.6091C47.2706 23.6091 47.7728 24.1072 47.7728 24.7299C47.7728 25.3526 47.2706 25.8507 46.643 25.8507C46.0991 25.8507 44.4883 25.4148 43.8606 25.2903L41.0781 24.7299L43.8606 24.1695C44.4883 24.045 46.0991 23.6091 46.643 23.6091ZM46.7895 27.3762C47.3962 27.2517 47.9924 27.646 48.118 28.2583C48.2435 28.8602 47.846 29.4517 47.2289 29.5762C46.6954 29.68 45.0322 29.5762 44.3941 29.5762H41.5593L44.1744 28.4762C44.7706 28.2272 46.2664 27.4903 46.7895 27.3866V27.3762ZM47.6787 31.0395C48.254 30.8008 48.9129 31.0706 49.1535 31.6414C49.3941 32.2122 49.1222 32.866 48.5469 33.1046C48.0448 33.3122 46.392 33.5197 45.7644 33.6443L42.9819 34.1839L45.3355 32.6065C45.8689 32.2537 47.1869 31.2367 47.689 31.0291L47.6787 31.0395ZM49.2791 34.4641C48.8293 34.7651 47.731 36.0104 47.2812 36.467L45.2832 38.4699L47.9088 37.401C48.505 37.1623 50.0846 36.633 50.5344 36.3321C51.0469 35.9896 51.1933 35.2943 50.8481 34.7858C50.5029 34.2773 49.8021 34.132 49.2895 34.4745L49.2791 34.4641ZM51.5176 37.5151C51.9569 37.0793 52.6683 37.0793 53.1076 37.5151C53.5469 37.951 53.5469 38.6567 53.1076 39.0925C52.7206 39.4765 51.277 40.2963 50.7435 40.6492L48.3795 42.2058L49.9485 39.8605C50.3042 39.3312 51.1306 37.8887 51.5176 37.5151ZM54.3106 40.068C54.0072 40.5143 53.4737 42.0813 53.2331 42.6728L52.1557 45.2776L54.1641 43.2955C54.6244 42.8492 55.8797 41.7596 56.1726 41.3133C56.5177 40.8048 56.3817 40.1095 55.8587 39.7671C55.3461 39.4246 54.6453 39.5595 54.3001 40.0784L54.3106 40.068ZM57.5533 42.0398C57.7939 41.469 58.4529 41.1992 59.0282 41.4379C59.6036 41.6766 59.8755 42.3303 59.6349 42.9011C59.4257 43.3992 58.411 44.7068 58.0554 45.2361L56.4758 47.5711L57.0198 44.8106C57.1453 44.188 57.3545 42.5379 57.5637 42.0502L57.5533 42.0398ZM61.1203 43.337C61.2458 42.7351 61.8316 42.3407 62.4488 42.4549C63.0555 42.5794 63.453 43.1606 63.3379 43.7728C63.2333 44.3021 62.4906 45.7861 62.2395 46.3673L61.1413 48.9617V46.1493C61.1308 45.5059 61.0157 43.8559 61.1203 43.337ZM67.1141 5.5209C67.1141 6.14356 66.6121 6.64168 65.9844 6.64168C65.3568 6.64168 64.8546 6.14356 64.8546 5.5209C64.8546 4.98126 65.294 3.38311 65.4195 2.76045L65.9844 0L66.5492 2.76045C66.6747 3.38311 67.1141 4.98126 67.1141 5.5209ZM63.317 5.67656C63.4425 6.27847 63.045 6.86999 62.4279 6.99452C61.8212 7.11905 61.2249 6.7247 61.0994 6.11242C60.9948 5.58316 61.0994 3.93312 61.0994 3.30009V0.487748L62.2081 3.08216C62.4592 3.67368 63.2019 5.15768 63.3065 5.67656H63.317ZM59.6244 6.55866C59.865 7.12943 59.5931 7.78322 59.0178 8.02191C58.4424 8.26059 57.7834 7.99077 57.5428 7.42C57.3336 6.92188 57.1244 5.28221 56.9988 4.65956L56.4549 1.89911L58.0449 4.23407C58.4005 4.76333 59.4257 6.07091 59.6349 6.56904L59.6244 6.55866ZM56.1726 8.14644C55.8692 7.7002 54.6139 6.61055 54.1536 6.16431L52.1347 4.18219L53.2122 6.78697C53.4528 7.37849 53.9863 8.94552 54.2896 9.39175C54.6348 9.90026 55.3357 10.0455 55.8482 9.70308C56.3608 9.36062 56.5073 8.66532 56.1621 8.15682L56.1726 8.14644ZM53.0971 10.3569C53.5365 10.7927 53.5365 11.4984 53.0971 11.9343C52.6578 12.3701 51.9465 12.3701 51.5071 11.9343C51.1201 11.5503 50.2937 10.1182 49.9381 9.58893L48.369 7.24359L50.7331 8.80023C51.2665 9.15307 52.7206 9.9729 53.0971 10.3569ZM50.5239 13.1381C50.0741 12.8371 48.4946 12.3079 47.8983 12.0692L45.2728 11.0003L47.2707 12.9928C47.7205 13.4494 48.8188 14.6947 49.2686 14.9853C49.7811 15.3278 50.482 15.1929 50.8272 14.674C51.1724 14.1655 51.0365 13.4702 50.5134 13.1277L50.5239 13.1381ZM48.5364 16.3551C49.1117 16.5938 49.3837 17.2476 49.1431 17.8184C48.9025 18.3892 48.2436 18.659 47.6682 18.4203C47.1661 18.2127 45.8481 17.2061 45.3146 16.8533L42.9611 15.2862L45.7434 15.8259C46.3711 15.9504 48.0343 16.158 48.5259 16.3655L48.5364 16.3551ZM47.2289 19.8939C47.8356 20.0184 48.233 20.5996 48.118 21.2119C47.9924 21.8138 47.4066 22.2081 46.7895 22.094C46.256 21.9902 44.7601 21.2534 44.1744 21.0043L41.5593 19.9147H44.3941C45.0427 19.9043 46.7058 19.7901 47.2289 19.8939ZM69.7606 15.0579C69.6456 14.9334 69.5722 14.7777 69.5409 14.6013L62.8463 13.4909C62.7835 13.6155 62.6789 13.7296 62.5639 13.8022L65.179 22.6025C65.179 22.6025 65.2731 22.6025 65.3254 22.6232L69.7502 15.0579H69.7606ZM65.6287 24.2837C65.5555 24.3355 65.4613 24.3667 65.3776 24.3874L64.9384 29.8461C65.3463 29.981 65.6705 30.3338 65.7437 30.7697L73.9761 31.2055L65.6392 24.2837H65.6287ZM63.704 31.8697C63.5785 31.7452 63.4738 31.5999 63.4111 31.4338L57.3963 31.6206C57.2708 31.8905 57.0094 32.0876 56.706 32.1291L55.7122 37.5878C56.5386 38.2312 57.4173 38.802 58.3587 39.2897L60.2415 37.4632C60.1997 37.3595 60.1684 37.2349 60.1684 37.1104C60.1684 36.6123 60.5763 36.2076 61.0784 36.2076C61.1098 36.2076 61.1307 36.2076 61.1621 36.2076L63.6935 31.8593L63.704 31.8697ZM57.4696 31.0395L63.3379 30.8527C63.4007 30.3131 63.8191 29.8876 64.3525 29.7942L64.7919 24.3355C64.7919 24.3355 64.7395 24.3044 64.7082 24.294L57.4068 30.8631C57.4277 30.915 57.4487 30.9668 57.4592 31.0291L57.4696 31.0395ZM55.9737 30.5621L49.6034 26.9715C49.5406 26.5045 49.4883 26.0375 49.4674 25.5705L55.6077 22.1562C55.8064 22.3949 56.0888 22.561 56.4027 22.6232L56.2981 30.3753C56.1726 30.4168 56.0679 30.4791 55.9737 30.5621ZM58.0136 21.8657C57.8149 22.26 57.4382 22.5506 56.9779 22.6336L56.8733 30.3857C56.8733 30.3857 56.9675 30.4272 57.0198 30.448L64.3211 23.8789C64.2793 23.7855 64.248 23.6818 64.248 23.5676L58.0136 21.8657ZM55.9006 20.0081C56.1307 19.8524 56.413 19.7694 56.7164 19.7694C56.9047 19.7694 57.0825 19.8005 57.2499 19.8732L61.3399 13.6362C61.2249 13.4909 61.1517 13.3041 61.1413 13.1069L56.0261 11.6126C54.3943 12.8371 52.9925 14.3523 51.9151 16.0853L55.9006 20.0081ZM62.0199 13.9787C61.9571 13.9787 61.8839 13.9683 61.8315 13.9475L57.7416 20.1845C58.0136 20.4439 58.1809 20.8175 58.1809 21.2119C58.1809 21.243 58.1809 21.2741 58.1809 21.3053L64.4154 23.0072C64.4781 22.9138 64.5618 22.8308 64.6455 22.7685L62.0304 13.9683L62.0199 13.9787ZM71.2983 14.8089L79.583 15.3589C79.9282 15.8466 80.2419 16.3655 80.5348 16.8844L75.5138 20.8279C75.3674 20.7345 75.2001 20.6826 75.0118 20.6826C74.9385 20.6826 74.8652 20.6826 74.792 20.7138L71.1518 15.0372C71.2041 14.9749 71.2564 14.8919 71.2878 14.8193L71.2983 14.8089ZM74.1121 21.4609L65.953 23.0591C65.9216 23.0072 65.8903 22.9553 65.8484 22.9138L70.2732 15.3485C70.3359 15.3589 70.3882 15.3693 70.4509 15.3693C70.5241 15.3693 70.5975 15.3693 70.6707 15.3381L74.3109 21.0147C74.2063 21.1392 74.133 21.2949 74.1121 21.4609ZM75.5451 22.3119C75.4614 22.3638 75.3778 22.4157 75.2836 22.4468L75.1373 30.6867C75.3988 30.7801 75.6079 30.9876 75.7021 31.2574L81.1624 31.3093C81.7482 29.9914 82.1561 28.5904 82.3758 27.1271L75.5556 22.3119H75.5451ZM74.3528 30.7697L66.0052 23.8374C66.0366 23.7752 66.0471 23.7025 66.0576 23.6299L74.2168 22.0317C74.3214 22.2185 74.4992 22.3638 74.6979 22.4364L74.5514 30.6763C74.4782 30.697 74.4155 30.7282 74.3528 30.7697ZM74.9489 32.4405C74.9489 32.4405 74.8757 32.4405 74.8339 32.4405C74.7084 32.4405 74.5829 32.4197 74.4783 32.3678L70.2103 37.1208C70.2836 37.2557 70.3254 37.4114 70.3254 37.567C70.3254 37.9614 70.0639 38.3038 69.7083 38.4284L69.7292 40.7114C72.5326 40.068 75.064 38.7189 77.1142 36.8717L74.9489 32.4301V32.4405ZM68.5681 37.2557L61.999 36.9755C61.9676 36.7679 61.8629 36.5915 61.7165 36.4566L64.2166 32.1603C64.3212 32.1914 64.4363 32.2122 64.5514 32.2122C64.7187 32.2122 64.8756 32.181 65.0116 32.1188L68.6727 37.0585C68.6309 37.1208 68.5995 37.183 68.5681 37.2557ZM65.7124 31.3508L73.9553 31.7867C73.9762 31.8593 74.0075 31.932 74.0389 31.9942L69.7711 36.7472C69.6665 36.7057 69.5409 36.6745 69.4153 36.6745C69.3212 36.6745 69.227 36.6849 69.1434 36.7161L65.4822 31.7763C65.5868 31.6518 65.6601 31.5065 65.7124 31.3508ZM69.1538 40.8464L69.1329 38.4387C68.8505 38.3453 68.6204 38.117 68.5367 37.8265L61.8944 37.5463C61.7375 37.8265 61.4341 38.0236 61.0889 38.0236C60.9215 38.0236 60.775 37.9821 60.639 37.9095L58.9237 39.5803C61.068 40.5869 63.4634 41.1473 65.9948 41.1473C67.0722 41.1473 68.1287 41.0435 69.1538 40.8464ZM55.2102 37.1727L56.1411 32.0254C55.8587 31.8697 55.6703 31.5688 55.6703 31.2367C55.6703 31.1744 55.6704 31.1225 55.6913 31.0602L49.7289 27.6979C50.4298 31.4546 52.4172 34.7651 55.2206 37.1623L55.2102 37.1727ZM49.4465 24.9167L55.3147 21.6477C55.2729 21.5128 55.2416 21.3572 55.2416 21.2015C55.2416 20.9109 55.3252 20.6307 55.4821 20.4024L51.6014 16.5835C50.2206 18.9807 49.436 21.7515 49.436 24.7091C49.436 24.7714 49.436 24.844 49.436 24.9063L49.4465 24.9167ZM56.6223 11.1871L61.3085 12.5466C61.4759 12.3079 61.748 12.1626 62.0618 12.1626C62.1559 12.1626 62.2499 12.173 62.3336 12.2041L65.2102 8.32286C62.0303 8.46815 59.091 9.50591 56.6328 11.1871H56.6223ZM70.6078 8.95589L70.7124 13.5947C71.0158 13.6881 71.246 13.9268 71.3192 14.2277L79.1226 14.7466C76.9992 12.0069 74.0284 9.94177 70.5974 8.95589H70.6078ZM80.8068 17.4033L75.8695 21.2741C75.9008 21.3675 75.9218 21.4713 75.9218 21.5751C75.9218 21.6685 75.9113 21.7515 75.8799 21.8345L82.4386 26.463C82.5014 25.8922 82.5327 25.3007 82.5327 24.7091C82.5327 22.0836 81.9051 19.593 80.7963 17.3929L80.8068 17.4033ZM80.8905 31.8801C80.0537 33.5924 78.9239 35.1387 77.564 36.4566L75.472 32.181C75.5661 32.0876 75.6498 31.9631 75.6916 31.8282L80.8905 31.8697V31.8801Z" fill="url(#paint0_linear_217_1692)"/>
<path fill-rule="evenodd" clip-rule="evenodd" d="M5.95198 64.5593H8.21146L4.39339 59.6507L7.84531 55.8006H5.73235L1.76781 60.2007V55.8006H0V64.5697H1.76781V62.5875L3.21135 60.979L5.95198 64.58V64.5593ZM20.7848 64.5593H22.6678L18.8497 55.7902H17.1969L13.3684 64.5593H15.2618L15.994 62.8055H20.0631L20.7953 64.5593H20.7848ZM16.6321 61.2488L18.0233 57.8968L19.4145 61.2488H16.6321ZM31.0151 62.9611L35.555 56.6204V55.8006H28.421V57.3987H32.9712L28.2327 63.7395V64.5593H35.6282V62.9611H31.0256H31.0151ZM48.62 64.5593H50.5029L46.6848 55.7902H45.0321L41.2036 64.5593H43.097L43.8292 62.8055H47.8983L48.6304 64.5593H48.62ZM44.4672 61.2488L45.8584 57.8968L47.2497 61.2488H44.4672ZM62.3859 64.5593H64.6454L60.8273 59.6507L64.2793 55.8006H62.1663L58.2018 60.2007V55.8006H56.434V64.5697H58.2018V62.5875L59.6453 60.979L62.3859 64.58V64.5593ZM76.1936 55.7902V59.4639H72.1142V55.7902H70.3463V64.5593H72.1142V61.0932H76.1936V64.5593H77.9615V55.7902H76.1936ZM88.0139 55.6345C85.9951 55.6345 84.6562 56.7138 84.6562 58.395C84.6562 59.7441 85.4197 60.6262 87.177 60.9583L88.6102 61.2281C89.5621 61.3941 89.7818 61.7988 89.7818 62.1828C89.7818 62.8055 89.2273 63.1479 88.244 63.1479C87.0202 63.1479 86.2043 62.5772 86.0578 61.6639H84.3004C84.426 63.5423 85.9532 64.7046 88.129 64.7046C90.3047 64.7046 91.581 63.6253 91.581 61.9545C91.581 60.512 90.5977 59.8582 88.8613 59.5054L87.8257 59.2978C86.9784 59.1318 86.5182 58.862 86.5182 58.2289C86.5182 57.5025 87.1562 57.1289 88.129 57.1289C89.2482 57.1289 89.7713 57.627 89.8864 58.4469H91.6437C91.4344 56.2053 89.4993 55.6241 88.0035 55.6241L88.0139 55.6345ZM104.887 55.7902H97.1144V57.4195H100.117V64.5593H101.884V57.4195H104.887V55.7902ZM116.257 64.5593H118.14L114.322 55.7902H112.669L108.841 64.5593H110.734L111.466 62.8055H115.535L116.268 64.5593H116.257ZM112.094 61.2488L113.485 57.8968L114.876 61.2488H112.094ZM130.211 55.7902V61.446L125.378 55.7902H124.071V64.5593H125.839V59.0591L130.619 64.5593H131.979V55.7902H130.211Z" fill="#040A13"/>
<path fill-rule="evenodd" clip-rule="evenodd" d="M2.16531 71.2321C1.4017 71.2321 0.836884 70.6821 0.836884 69.8622C0.836884 69.0424 1.4017 68.4924 2.16531 68.4924C2.78248 68.4924 3.19044 68.8348 3.34734 69.4471H4.20511C4.01682 68.399 3.22181 67.7244 2.16531 67.7244C0.962366 67.7244 0 68.6169 0 69.8622C0 71.1075 0.972826 72 2.16531 72C3.22181 72 4.01682 71.3255 4.20511 70.2773H3.34734C3.19044 70.8896 2.78248 71.2321 2.16531 71.2321ZM7.02943 67.7244C5.82648 67.7244 4.86412 68.6688 4.86412 69.8622C4.86412 71.0556 5.83694 72 7.02943 72C8.22192 72 9.19474 71.0556 9.19474 69.8622C9.19474 68.6688 8.22192 67.7244 7.02943 67.7244ZM7.02943 71.2321C6.26582 71.2321 5.70094 70.6198 5.70094 69.8622C5.70094 69.1047 6.26582 68.4924 7.02943 68.4924C7.79304 68.4924 8.35792 69.1047 8.35792 69.8622C8.35792 70.6198 7.79304 71.2321 7.02943 71.2321ZM14.2994 67.7971H13.7136L12.1341 70.2981L10.5546 67.7971H9.9688V71.9274H10.8056V69.5924L11.8935 71.3151H12.3956L13.4835 69.6132V71.9274H14.3203V67.7971H14.2994ZM16.7576 67.7971H15.1467V71.9274H15.9835V70.7755H16.6321C17.7095 70.7755 18.4208 70.1632 18.4208 69.2396C18.4208 68.3678 17.7618 67.7971 16.7576 67.7971ZM16.7263 70.0179H15.9835V68.5546H16.7263C17.2493 68.5546 17.5944 68.8348 17.5944 69.2396C17.5944 69.7066 17.2493 70.0075 16.7263 70.0075V70.0179ZM21.9983 68.565V67.7971H18.9334V71.9274H21.9983V71.1594H19.7702V70.2669H21.7577V69.499H19.7702V68.5546H21.9983V68.565ZM25.9314 67.7971H22.2703V68.565H23.6824V71.9377H24.5192V68.565H25.9314V67.7971ZM26.4649 67.7971V71.9274H27.3017V67.7971H26.4649ZM31.4963 67.7971H27.8352V68.565H29.2473V71.9377H30.0842V68.565H31.4963V67.7971ZM32.0298 67.7971V71.9274H32.8667V67.7971H32.0298ZM37.0194 67.7971L35.67 70.8273L34.3311 67.7971H33.4106L35.2935 71.9585H36.057L37.9295 67.7971H37.0194ZM41.4965 68.565V67.7971H38.4315V71.9274H41.4965V71.1594H39.2684V70.2669H41.2559V69.499H39.2684V68.5546H41.4965V68.565ZM45.3773 67.7971H43.7663V71.9274H44.6032V70.7755H45.2518C46.3292 70.7755 47.0404 70.1632 47.0404 69.2396C47.0404 68.3678 46.3815 67.7971 45.3773 67.7971ZM45.3459 70.0179H44.6032V68.5546H45.3459C45.8689 68.5546 46.2142 68.8348 46.2142 69.2396C46.2142 69.7066 45.8689 70.0075 45.3459 70.0075V70.0179ZM50.1995 71.9377H51.2143L50.1263 70.4641C50.618 70.2358 50.9423 69.8 50.9423 69.2188C50.9423 68.3678 50.2518 67.8075 49.3104 67.8075H47.5531V71.9377H48.3899V70.6198H49.2477L50.1995 71.9377ZM48.3794 68.565H49.279C49.7392 68.565 50.1159 68.8141 50.1159 69.2084C50.1159 69.6028 49.7392 69.8518 49.279 69.8518H48.3794V68.565ZM53.641 67.7244C52.4381 67.7244 51.4758 68.6688 51.4758 69.8622C51.4758 71.0556 52.4485 72 53.641 72C54.8335 72 55.8063 71.0556 55.8063 69.8622C55.8063 68.6688 54.8335 67.7244 53.641 67.7244ZM53.641 71.2321C52.8774 71.2321 52.3125 70.6198 52.3125 69.8622C52.3125 69.1047 52.8774 68.4924 53.641 68.4924C54.4046 68.4924 54.9695 69.1047 54.9695 69.8622C54.9695 70.6198 54.4046 71.2321 53.641 71.2321ZM58.5678 69.6339V70.4019H59.8022C59.6348 70.8896 59.2374 71.2321 58.6307 71.2321C57.8147 71.2321 57.3126 70.6094 57.3126 69.9245C57.3126 69.0424 57.8879 68.4924 58.6829 68.4924C59.0595 68.4924 59.5826 68.6273 59.8022 69.2292H60.7018C60.4403 68.181 59.5615 67.7141 58.6724 67.7141C57.4485 67.7141 56.4757 68.6065 56.4757 69.9141C56.4757 71.0453 57.3859 71.9896 58.6411 71.9896C59.3001 71.9896 59.7604 71.7302 60.0428 71.3255L60.0951 71.917H60.7437V69.6132H58.5783L58.5678 69.6339ZM64.3734 71.9377H65.388L64.3001 70.4641C64.7918 70.2358 65.1161 69.8 65.1161 69.2188C65.1161 68.3678 64.4257 67.8075 63.4843 67.8075H61.7269V71.9377H62.5638V70.6198H63.4215L64.3734 71.9377ZM62.5533 68.565H63.4529C63.9131 68.565 64.2898 68.8141 64.2898 69.2084C64.2898 69.6028 63.9131 69.8518 63.4529 69.8518H62.5533V68.565ZM69.112 71.9377H70.0011L68.202 67.8075H67.4279L65.6181 71.9377H66.5177L66.863 71.1075H68.7772L69.1225 71.9377H69.112ZM67.1559 70.3707L67.8149 68.7933L68.4739 70.3707H67.1664H67.1559ZM74.886 67.7971H74.3003L72.7208 70.2981L71.1413 67.7971H70.5555V71.9274H71.3923V69.5924L72.4802 71.3151H72.9823L74.0702 69.6132V71.9274H74.907V67.7971H74.886ZM80.085 67.7971H79.4991L77.9196 70.2981L76.3401 67.7971H75.7543V71.9274H76.5911V69.5924L77.679 71.3151H78.1811L79.269 69.6132V71.9274H80.1059V67.7971H80.085ZM80.9427 67.7971V71.9274H81.7795V67.7971H80.9427ZM85.5348 67.7971V70.4641L83.2544 67.7971H82.6373V71.9274H83.4741V69.333L85.7336 71.9274H86.3822V67.7971H85.5453H85.5348ZM89.2274 69.6339V70.4019H90.4616C90.2943 70.8896 89.8968 71.2321 89.2901 71.2321C88.4741 71.2321 87.972 70.6094 87.972 69.9245C87.972 69.0424 88.5474 68.4924 89.3424 68.4924C89.719 68.4924 90.242 68.6273 90.4616 69.2292H91.3612C91.0997 68.181 90.2211 67.7141 89.3319 67.7141C88.1081 67.7141 87.1353 68.6065 87.1353 69.9141C87.1353 71.0453 88.0453 71.9896 89.3005 71.9896C89.9595 71.9896 90.4199 71.7302 90.7023 71.3255L90.7545 71.917H91.4031V69.6132H89.2378L89.2274 69.6339ZM96.8426 68.565V67.7971H93.8195V71.9274H94.6562V70.3915H96.5706V69.6235H94.6562V68.5546H96.8426V68.565ZM100.462 68.565V67.7971H97.3969V71.9274H100.462V71.1594H98.2338V70.2669H100.221V69.499H98.2338V68.5546H100.462V68.565ZM102.753 67.7971H101.152V71.9274H102.753C104.029 71.9274 104.981 71.0349 104.981 69.8415C104.981 68.648 104.029 67.7971 102.753 67.7971ZM102.753 71.1698H101.989V68.565H102.753C103.516 68.565 104.133 69.1358 104.133 69.8518C104.133 70.5679 103.516 71.1698 102.753 71.1698ZM108.799 68.565V67.7971H105.734V71.9274H108.799V71.1594H106.571V70.2669H108.558V69.499H106.571V68.5546H108.799V68.565ZM112.136 71.9377H113.15L112.062 70.4641C112.554 70.2358 112.878 69.8 112.878 69.2188C112.878 68.3678 112.188 67.8075 111.246 67.8075H109.489V71.9377H110.326V70.6198H111.184L112.136 71.9377ZM110.316 68.565H111.215C111.675 68.565 112.052 68.8141 112.052 69.2084C112.052 69.6028 111.675 69.8518 111.215 69.8518H110.316V68.565ZM116.874 71.9377H117.763L115.964 67.8075H115.19L113.38 71.9377H114.28L114.625 71.1075H116.539L116.885 71.9377H116.874ZM114.918 70.3707L115.577 68.7933L116.236 70.3707H114.929H114.918ZM121.038 67.7971V68.565H119.625V71.9377H118.788V68.565H117.376V67.7971H121.038ZM121.571 67.7971V71.9274H122.408V67.7971H121.571ZM125.326 67.7244C124.123 67.7244 123.161 68.6688 123.161 69.8622C123.161 71.0556 124.134 72 125.326 72C126.519 72 127.492 71.0556 127.492 69.8622C127.492 68.6688 126.519 67.7244 125.326 67.7244ZM125.326 71.2321C124.563 71.2321 123.998 70.6198 123.998 69.8622C123.998 69.1047 124.563 68.4924 125.326 68.4924C126.09 68.4924 126.655 69.1047 126.655 69.8622C126.655 70.6198 126.09 71.2321 125.326 71.2321ZM131.153 67.7971V70.4641L128.872 67.7971H128.255V71.9274H129.092V69.333L131.351 71.9274H132V67.7971H131.163H131.153Z" fill="#040A13"/>
<defs>
<linearGradient id="paint0_linear_217_1692" x1="48.5469" y1="42.0294" x2="83.1552" y2="7.14502" gradientUnits="userSpaceOnUse">
<stop stop-color="#3AABC4"/>
<stop offset="1" stop-color="#F5C81B"/>
</linearGradient>
</defs>
</svg>
