<svg width="141" height="56" viewBox="0 0 141 56" fill="none" xmlns="http://www.w3.org/2000/svg">
<path fill-rule="evenodd" clip-rule="evenodd" d="M28.3128 0C35.9771 0 42.9164 3.13424 47.9391 8.20125C52.962 13.2681 56.069 20.2683 56.069 28C56.069 35.7316 52.962 42.7318 47.9391 47.7987C42.9164 52.8657 35.9771 56 28.3128 56C20.6485 56 13.7092 52.8657 8.68648 47.7987C3.66359 42.7318 0.556641 35.7316 0.556641 28C0.556641 20.2685 3.66359 13.2681 8.68648 8.20125C13.7092 3.13424 20.6485 0 28.3128 0ZM20.4406 51.3525C3.7135 32.0022 28.983 27.813 37.1144 32.1282C38.9523 33.1034 39.1226 33.752 39.8794 34.2451C41.2019 32.6422 42.6054 26.9397 39.181 23.9159C38.5008 23.3154 37.3041 22.3603 36.2228 22.0734C36.6423 18.9183 34.8995 17.6491 33.0661 16.5165C26.4778 12.4461 14.5144 12.4381 6.29611 15.3341C8.15871 12.0472 10.7238 9.21737 13.7849 7.05291V9.28293C13.3577 9.63704 13.0852 10.1741 13.0852 10.7754C13.0852 11.8415 13.9421 12.7058 14.9991 12.7058C16.0561 12.7058 16.9128 11.8415 16.9128 10.7754C16.9128 10.1805 16.646 9.64852 16.2267 9.29428V5.52514C19.8191 3.55502 23.9363 2.43572 28.3128 2.43572L28.3714 2.43612V3.62307L21.7177 5.86775V9.03049C21.2931 9.38474 21.0225 9.92004 21.0225 10.5193C21.0225 11.5854 21.8792 12.4498 22.9363 12.4498C23.9933 12.4498 24.8502 11.5854 24.8502 10.5193C24.8502 9.9199 24.5795 9.3846 24.1548 9.03036V7.60646L30.8085 5.36192V2.55855C31.8144 2.65772 32.8033 2.8161 33.7712 3.03064V11.6373C33.3332 11.9911 33.0525 12.5349 33.0525 13.145C33.0525 14.2113 33.9093 15.0757 34.9663 15.0757C36.0232 15.0757 36.88 14.2113 36.88 13.145C36.88 12.5349 36.5995 11.9911 36.1614 11.6373V3.68628C37.641 4.17193 39.0609 4.79148 40.407 5.53026V19.1868C39.9792 19.5408 39.706 20.0783 39.706 20.6803C39.706 21.7466 40.5627 22.611 41.6198 22.611C42.6768 22.611 43.5335 21.7466 43.5335 20.6803C43.5335 20.0783 43.2604 19.5408 42.8326 19.1868V7.04584C44.378 8.13762 45.7973 9.3987 47.0636 10.8029V19.489C46.634 19.8431 46.3598 20.3815 46.3598 20.9847C46.3598 22.051 47.2167 22.9153 48.2736 22.9153C49.3305 22.9153 50.1874 22.051 50.1874 20.9847C50.1874 20.3815 49.9131 19.8431 49.4835 19.489V13.9473C52.1191 17.9797 53.6545 22.8086 53.6545 28C53.6545 36.6708 49.3739 44.3318 42.8296 48.954V44.4125C43.2592 44.0584 43.5335 43.5199 43.5335 42.9166C43.5335 41.8504 42.6768 40.9859 41.6198 40.9859C40.5627 40.9859 39.706 41.8504 39.706 42.9166C39.706 43.5199 39.9804 44.0584 40.41 44.4125V50.4665C39.0667 51.2043 37.6498 51.8231 36.1735 52.3087V42.3307L49.4807 34.1289V27.7347C49.9118 27.3807 50.1874 26.8411 50.1874 26.2367C50.1874 25.1703 49.3305 24.306 48.2736 24.306C47.2167 24.306 46.3598 25.1703 46.3598 26.2367C46.3598 26.8411 46.6351 27.3807 47.0664 27.7347V32.7699L33.7591 40.9715V52.9711C32.387 53.2745 30.973 53.4656 29.5274 53.5345V51.9328C29.9544 51.5786 30.2267 51.0418 30.2267 50.4407C30.2267 49.3745 29.3697 48.5101 28.3127 48.5101C27.2558 48.5101 26.3991 49.3745 26.3991 50.4407C26.3991 51.0417 26.6712 51.5785 27.0979 51.9325V53.5352C25.6564 53.4659 24.2466 53.2746 22.8777 52.9728V49.6756L29.5312 47.431V35.3749C29.956 35.0208 30.2267 34.4853 30.2267 33.886C30.2267 32.8198 29.3697 31.9553 28.3127 31.9553C27.2558 31.9553 26.3991 32.8198 26.3991 33.886C26.3991 34.4852 26.6697 35.0207 27.0941 35.3748V45.6923L20.4406 47.9368V51.3525ZM22.8487 36.9208V42.7249C23.29 43.0786 23.5731 43.6248 23.5731 44.2376C23.5731 45.3037 22.7162 46.168 21.6592 46.168C20.6023 46.168 19.7454 45.3037 19.7454 44.2376C19.7454 43.6248 20.0284 43.0788 20.4697 42.7251V36.9207C20.0284 36.5671 19.7454 36.0211 19.7454 35.4084C19.7454 34.3421 20.6023 33.4778 21.6592 33.4778C22.7162 33.4778 23.5731 34.3421 23.5731 35.4084C23.5731 36.0211 23.29 36.5671 22.8487 36.9208ZM29.5898 7.5398C30.6468 7.5398 31.5037 8.40417 31.5037 9.47049C31.5037 10.5367 30.6468 11.4009 29.5898 11.4009C28.5329 11.4009 27.6762 10.5367 27.6762 9.47049C27.6762 8.40417 28.5329 7.5398 29.5898 7.5398ZM34.9663 33.4672C36.0232 33.4672 36.88 34.3315 36.88 35.3979C36.88 36.4641 36.0232 37.3283 34.9663 37.3283C33.9093 37.3283 33.0525 36.4641 33.0525 35.3979C33.0525 34.3315 33.9093 33.4672 34.9663 33.4672ZM48.2594 36.9139C49.3163 36.9139 50.1733 37.7784 50.1733 38.8447C50.1733 39.9108 49.3163 40.7751 48.2594 40.7751C47.2025 40.7751 46.3457 39.9108 46.3457 38.8447C46.3457 37.7784 47.2025 36.9139 48.2594 36.9139Z" fill="#00227E"/>
<path fill-rule="evenodd" clip-rule="evenodd" d="M67.6159 11.6182H64.9703V3.00193C65.9664 3.00193 68.8143 2.90399 69.6327 3.17856C70.1454 3.3505 70.3639 3.53171 70.5654 3.99149C71.0459 5.08824 71.0621 9.48509 70.5284 10.5912C70.0776 11.5262 68.9428 11.6182 67.6159 11.6182ZM61.6445 14.4394H69.3544C73.3004 14.4394 74.275 12.0043 74.2676 8.72071C74.2594 5.04024 75.0789 0.104361 69.1276 0.104361H61.6445V14.4394Z" fill="#00227E"/>
<path fill-rule="evenodd" clip-rule="evenodd" d="M90.8208 0.0281915C88.7318 0.0312346 85.7687 -0.301431 84.1762 1.25525C82.7126 2.68591 82.7331 4.91636 82.7331 7.57698C82.7331 10.7899 82.7141 13.7775 86.4683 14.4077C88.2034 14.6992 92.4014 14.7779 93.8899 13.8755C95.0288 13.1852 95.5072 11.9669 95.5072 10.1695V6.58563H89.0824V8.94941H92.1814L92.1869 9.78723C92.112 11.5431 91.3582 11.7708 89.0824 11.7708C86.3361 11.7708 86.1345 11.0444 86.1345 8.33942C86.1345 2.86532 85.9079 2.84941 90.2918 2.84941C91.5124 2.84941 92.078 3.26618 92.1057 4.52685H95.2804C95.5632 4.52685 95.4563 4.39612 95.4388 4.07536C95.2785 1.13698 94.246 0.0230736 90.8208 0.0281915Z" fill="#00227E"/>
<path fill-rule="evenodd" clip-rule="evenodd" d="M79.5586 25.4958C79.5586 26.4288 79.5141 27.1255 79.7741 28.0232C79.9219 28.5332 80.0781 28.8157 80.3968 29.149L80.5913 29.3339C81.7038 30.3268 84.5607 30.2621 86.0548 30.3801C87.4926 30.4936 88.0997 30.4705 88.0997 31.977C88.0997 34.0802 86.6122 33.6546 84.0937 33.6546C83.5259 33.6546 83.135 33.4731 82.92 33.0848C82.7718 32.8173 82.6576 31.9854 82.6576 31.5958C78.6962 31.5958 79.5479 31.3736 79.5612 32.5079C79.6115 36.8072 82.8793 36.3234 86.8905 36.3234C90.9582 36.3234 91.35 34.4505 91.35 31.2908C91.35 27.3478 87.9144 27.877 84.9887 27.5666C83.3717 27.3952 82.8844 27.6146 82.8844 25.7244C82.8844 24.4411 84.2251 24.352 85.4543 24.352C87.6164 24.352 87.7975 24.7405 87.7975 26.2582H90.9721L90.9732 25.1916C90.902 23.1826 89.9473 22.1863 87.9534 21.9072C86.3659 21.6847 82.7228 21.6211 81.2448 22.3169C80.67 22.5873 80.2858 22.9501 79.9997 23.5008C79.7397 24.0009 79.5586 24.7625 79.5586 25.4958Z" fill="#00227E"/>
<path fill-rule="evenodd" clip-rule="evenodd" d="M64.5925 32.2058C64.5925 31.3085 64.3982 29.6896 65.6507 29.6896C65.8921 29.6896 67.4987 31.1531 67.8108 31.3992L69.8836 33.1971C69.222 34.1078 65.8311 33.8694 65.1797 33.5197C64.798 33.3147 64.5925 32.7733 64.5925 32.2058ZM63.0051 25.4196C63.0051 27.6338 63.5582 27.4035 64.0633 28.1646C63.1758 28.239 62.4617 28.5992 62.0812 29.215C61.1756 30.6805 61.2272 34.2597 62.7334 35.4537C63.2116 35.8329 63.6854 35.9959 64.3965 36.1397C65.6124 36.3853 69.5822 36.4976 70.6917 35.9948C71.6159 35.576 71.5782 35.3119 71.9998 35.0271C72.408 35.3028 73.1634 36.2114 73.5872 36.247C73.6594 35.9742 74.0419 35.625 74.2353 35.3758C74.4939 35.0425 74.7222 34.8332 74.9477 34.4933L74.063 33.7082C73.7305 33.4274 73.4839 33.1287 73.1337 32.892C73.531 32.0567 73.5117 30.1416 73.5117 29.0033H70.7906V30.8334C70.6376 30.73 70.3119 30.4628 70.166 30.3195L66.9886 27.501C66.171 26.8036 66.0286 26.7629 66.0286 25.6483C66.0286 24.4187 67.0559 24.5046 67.9938 24.5046C69.693 24.5046 69.5057 25.3807 69.5057 26.5633H72.3779C72.3779 25.3833 72.3829 23.7531 71.4907 22.9595C70.5297 22.1048 69.2912 22.1365 68.0685 22.0644L66.1352 22.0957C65.423 22.1985 64.9553 22.2518 64.4388 22.5195C63.3782 23.0693 63.0051 24.1704 63.0051 25.4196Z" fill="#00227E"/>
<path fill-rule="evenodd" clip-rule="evenodd" d="M110.625 24.5045L112.665 31.1383H108.584L110.625 24.5045ZM103.595 36.2469H107.072C107.078 35.9643 107.711 33.9 107.828 33.6545H113.421C113.457 34.0884 114.029 35.6058 114.177 36.2469H117.579C117.508 35.9418 117.417 35.709 117.32 35.3641L113.556 23.5293C113.478 23.2428 113.132 21.8357 112.817 21.8357H108.281C107.955 21.8357 107.76 22.9221 107.572 23.4844C106.501 26.7027 105.524 30.2134 104.456 33.4553L103.595 36.2469Z" fill="#00227E"/>
<path fill-rule="evenodd" clip-rule="evenodd" d="M122.114 2.77315C122.394 2.98021 123.48 6.95822 123.729 7.70074L124.23 9.40693H120.148L120.875 6.93733C120.977 6.62859 121.05 6.4272 121.131 6.12815C121.276 5.59505 121.454 5.04771 121.633 4.49898L122.114 2.77315ZM115.16 14.4394H118.637C118.67 14.0366 119.249 12.468 119.393 11.8469H124.986C125.023 12.2933 125.587 13.7671 125.742 14.4394H129.143C128.994 13.7947 128.794 13.2638 128.586 12.6383L124.608 0.104361H119.619C119.586 0.509644 118.215 4.573 117.972 5.45812C117.801 6.08375 117.614 6.6416 117.418 7.26281C116.974 8.67507 115.382 13.4775 115.16 14.4394Z" fill="#00227E"/>
<path fill-rule="evenodd" clip-rule="evenodd" d="M97.7747 29.2319H95.6585V24.6569H99.0598C100.569 24.6569 100.723 25.4707 100.723 27.0206C100.723 29.0652 100.249 29.2319 97.7747 29.2319ZM92.3326 22.0643V36.0182C92.3326 36.1939 92.3852 36.2469 92.5593 36.2469H95.6585V32.1294L100.043 32.0534C101.149 32.0564 101.908 31.8705 102.584 31.4142C103.306 30.9259 103.594 30.4322 103.838 29.4773C104.237 27.9168 104.33 24.288 102.973 22.9202C101.989 21.9275 100.723 21.9041 99.21 21.9128C98.6223 21.9163 98.321 21.833 97.6995 21.8354L92.5593 21.8356C92.3852 21.8356 92.3326 21.8888 92.3326 22.0643Z" fill="#00227E"/>
<path fill-rule="evenodd" clip-rule="evenodd" d="M117.352 27.4783C117.352 29.4263 117.171 32.8281 118.138 34.4629C119.058 36.0189 120.754 36.3233 122.492 36.3233C124.811 36.3233 128.35 36.7563 129.326 34.144C129.662 33.2444 129.597 31.9042 129.597 30.9096C125.369 30.9096 126.536 30.6486 126.33 32.1123C126.145 33.4241 124.959 33.502 123.399 33.502C122.36 33.502 121.411 33.315 121.084 32.5586C120.648 31.5504 120.658 27.1754 120.894 26.0192C121.08 25.1058 121.629 24.8394 122.577 24.7429C123.671 24.6313 125.766 24.4333 126.093 25.5225C126.184 25.8257 126.244 26.5383 126.271 26.8682H129.521C129.521 25.2645 129.522 23.7796 128.37 22.6921C127.415 21.791 125.773 21.7596 124.155 21.7596C119.337 21.7596 117.352 22.709 117.352 27.4783Z" fill="#00227E"/>
<path fill-rule="evenodd" clip-rule="evenodd" d="M130.428 36.2469H140.557V33.5019H133.754V30.1469H140.028V27.7069H133.754V24.6569H140.254C140.428 24.6569 140.481 24.6039 140.481 24.4281V22.0643C140.481 21.8888 140.428 21.8357 140.254 21.8357H130.428V36.2469Z" fill="#00227E"/>
<path fill-rule="evenodd" clip-rule="evenodd" d="M103.293 3.00193H107.148V14.4394H110.473V3.00193H114.479V0.104361H103.293V3.00193Z" fill="#00227E"/>
<path fill-rule="evenodd" clip-rule="evenodd" d="M61.569 55.8433H63.005V45.6259C63.005 45.2426 62.9372 45.2844 62.9296 44.9395C63.1317 45.1743 63.3922 45.9531 63.5125 46.2577L65.1992 50.3514C65.5931 51.2503 65.936 52.1911 66.3329 53.0964L67.1837 55.1357C67.2886 55.3809 67.3621 55.6277 67.4648 55.8433H68.9008L69.9918 53.1315C70.1705 52.6796 73.1845 45.1438 73.3604 44.9395V55.8433H74.7209V43.7195C72.3146 43.7195 72.4183 43.5032 72.1387 44.2409C71.1863 46.754 69.7609 50.1402 68.7061 52.6731C68.527 53.1026 68.3238 53.5665 68.2206 54.0133C67.9558 53.8176 67.264 51.8704 67.1295 51.5302C66.7711 50.6233 66.4271 49.8378 66.0714 48.9377L64.484 45.0489C64.3645 44.7466 64.0089 43.9746 63.9877 43.7195H61.569V55.8433Z" fill="#00227E"/>
<path fill-rule="evenodd" clip-rule="evenodd" d="M130.882 14.4394H140.481V11.5419H134.207V0.104361H130.882V14.4394Z" fill="#00227E"/>
<path fill-rule="evenodd" clip-rule="evenodd" d="M81.7505 55.8432H83.1111V45.0158C83.2854 45.1446 83.8154 46.1087 83.9665 46.3642L89.3804 55.2377C89.8616 56.0596 89.5956 55.8432 92.0304 55.8432V43.7194H90.5942V54.6232L90.3806 54.3051C90.3023 54.1762 90.2684 54.1125 90.1835 53.9701C90.0341 53.719 89.934 53.5522 89.7866 53.3029C89.4958 52.8109 89.2467 52.4236 88.9556 51.93C88.8058 51.6759 88.6925 51.5161 88.5491 51.2727C88.4092 51.0354 88.2722 50.8131 88.1146 50.5671C87.8165 50.1019 87.5819 49.6608 87.2831 49.1946L84.8259 45.1158C84.6307 44.7836 84.1006 44.0308 84.0182 43.7194H81.7505V55.8432Z" fill="#00227E"/>
<path fill-rule="evenodd" clip-rule="evenodd" d="M124.306 49.8196H121.131V44.9394H125.288C127.649 44.9394 127.556 45.8383 127.556 47.837C127.556 48.6725 127.279 49.283 126.675 49.5411C126.166 49.7586 125.028 49.8196 124.306 49.8196ZM119.695 43.9482V55.8432H121.131V51.0394H125.742C126.862 51.0394 127.405 51.812 127.405 52.9458V55.8432H128.841C128.841 54.7952 128.943 52.2917 128.562 51.4731C128.34 50.9963 127.828 50.5203 127.178 50.5058V50.3532C127.98 50.286 128.561 49.7443 128.777 48.9921C129.002 48.2043 129.003 47.17 128.906 46.246C128.824 45.4637 128.485 44.6881 127.846 44.2654C127.27 43.8842 126.306 43.7194 125.364 43.7194H119.922C119.747 43.7194 119.695 43.7724 119.695 43.9482Z" fill="#00227E"/>
<path fill-rule="evenodd" clip-rule="evenodd" d="M98.0015 14.4394H101.327V0.104361H98.0015V14.4394Z" fill="#00227E"/>
<path fill-rule="evenodd" clip-rule="evenodd" d="M76.8374 14.4394H80.1632V0.104361H76.8374V14.4394Z" fill="#00227E"/>
<path fill-rule="evenodd" clip-rule="evenodd" d="M98.6063 46.7695C98.6063 47.8066 98.638 48.9106 99.5001 49.6041C101.104 50.8943 105.306 49.8311 105.968 51.0098C106.36 51.7087 106.364 53.7043 105.773 54.3043C105.118 54.9698 102.273 54.7829 101.257 54.6947C100.809 54.6557 100.61 54.5757 100.359 54.3036C99.8434 53.7432 99.9952 53.2835 99.9671 52.7167C99.9502 52.3756 99.8985 52.44 99.8912 52.1071H98.5306C98.5306 53.285 98.6346 54.464 99.1896 55.1023C100.068 56.1128 101.9 55.9959 103.293 55.9959C106.855 55.9959 107.601 55.3738 107.601 52.0309C107.601 48.2753 104.276 49.4014 101.206 48.8744C99.4843 48.5789 99.8971 45.9401 100.438 45.3391C101.029 44.6835 103.153 44.8633 104.2 44.8633C105.719 44.8633 106.014 45.562 106.014 47.0747H107.374C107.374 43.3373 105.655 43.6433 101.932 43.6433C99.7892 43.6433 98.6063 44.5232 98.6063 46.7695Z" fill="#00227E"/>
<path fill-rule="evenodd" clip-rule="evenodd" d="M134.661 50.9632V55.8432H136.021V51.0394C136.021 50.7055 137.341 48.7729 137.669 48.2794L139.423 45.5494C139.623 45.2464 139.779 45.006 139.984 44.6667C140.154 44.3846 140.481 44.0047 140.557 43.7194H138.894C138.836 43.9679 138.225 44.8873 138.047 45.1529C137.733 45.6229 137.471 46.0724 137.17 46.5555C136.972 46.8719 135.599 49.1881 135.341 49.362C135.269 49.0894 133.008 45.5685 132.739 45.1242C132.446 44.6387 132.119 44.2056 131.864 43.7194H130.277L131.366 45.518C132.32 46.9862 133.486 49.032 134.435 50.4282C134.55 50.5965 134.661 50.6837 134.661 50.9632Z" fill="#00227E"/>
<path fill-rule="evenodd" clip-rule="evenodd" d="M108.81 43.9482V45.0158H112.741V55.8432H114.101V45.0158H118.032V43.7194H109.037C108.863 43.7194 108.81 43.7724 108.81 43.9482Z" fill="#00227E"/>
<path fill-rule="evenodd" clip-rule="evenodd" d="M77.5934 55.8432H78.9539V43.7194H77.5934V55.8432Z" fill="#00227E"/>
<path fill-rule="evenodd" clip-rule="evenodd" d="M94.8271 55.8432H96.1876V43.7194H94.8271V55.8432Z" fill="#00227E"/>
</svg>
