<svg width="188" height="56" viewBox="0 0 188 56" fill="none" xmlns="http://www.w3.org/2000/svg">
<g clip-path="url(#clip0_217_2125)">
<path d="M24.1983 55.8963C24.1983 55.8963 0 48.7493 0 13.4961V0H48.404V13.4961C48.404 47.489 24.1983 55.8963 24.1983 55.8963Z" fill="#4FB84F"/>
<path d="M61.8467 27.0715V7.99249H73.5347V9.39432C73.5335 9.73471 73.4652 10.0727 73.3346 10.3862C73.2028 10.701 73.0113 10.9865 72.771 11.2268C72.5294 11.4672 72.2427 11.6587 71.9279 11.788C71.6131 11.9186 71.2764 11.9857 70.9348 11.9857H66.5438V15.9935H72.3366V17.3478C72.3378 17.6979 72.2695 18.0444 72.1365 18.3665C72.0023 18.6898 71.8059 18.9826 71.5594 19.2303C71.3118 19.4768 71.0177 19.672 70.6944 19.805C70.3711 19.9367 70.0246 20.0038 69.6745 20.0026H66.5438V27.0484L61.8467 27.0715Z" fill="black"/>
<path fill-rule="evenodd" clip-rule="evenodd" d="M76.1724 27.0715V7.99249H82.8192C83.1315 7.97785 83.445 7.97541 83.7574 7.98761C84.0709 7.99859 84.3833 8.02299 84.6944 8.06203C85.0043 8.09985 85.3141 8.15109 85.6204 8.21454C85.9266 8.2792 86.2304 8.35728 86.5293 8.44756C86.7928 8.54517 87.0478 8.66351 87.2918 8.80138C87.5358 8.94046 87.7689 9.09785 87.9873 9.27354C88.2069 9.448 88.4118 9.64077 88.5997 9.84818C88.7888 10.0568 88.9596 10.2789 89.1134 10.5143C89.2732 10.773 89.4135 11.0438 89.5331 11.3244C89.6526 11.605 89.7514 11.893 89.8295 12.1882C89.9064 12.4822 89.9625 12.7824 89.9955 13.085C90.0296 13.3887 90.0406 13.6925 90.0296 13.9975C90.0272 14.2623 90.0089 14.5283 89.9747 14.7906C89.9405 15.0541 89.8893 15.3152 89.8234 15.5714C89.7575 15.8288 89.677 16.0814 89.5794 16.329C89.483 16.5755 89.372 16.8171 89.2463 17.0501C89.1341 17.2807 89.0036 17.5003 88.8572 17.7089C88.7095 17.9175 88.546 18.114 88.3667 18.297C88.1886 18.48 87.9958 18.6471 87.7896 18.7996C87.5846 18.9509 87.3675 19.0863 87.1405 19.2035V19.251C87.2064 19.3426 87.2699 19.4365 87.3333 19.5304C87.3955 19.6244 87.4578 19.7195 87.5175 19.8159C87.5773 19.9111 87.6359 20.0087 87.6932 20.1063C87.7506 20.2039 87.8067 20.3015 87.8604 20.4016L91.5949 27.0715H86.389L82.9985 20.6443H80.8146V27.0715H76.1724ZM80.8695 16.6353H82.8972C83.0583 16.645 83.2205 16.6389 83.3804 16.617C83.5402 16.595 83.6976 16.5572 83.8501 16.506C84.0026 16.4535 84.149 16.3864 84.2893 16.3059C84.4296 16.2253 84.5602 16.1314 84.6822 16.0253C84.7932 15.9118 84.892 15.7873 84.9762 15.6531C85.0616 15.5189 85.1324 15.3774 85.1873 15.2286C85.2422 15.0797 85.2812 14.926 85.3044 14.7686C85.3276 14.6124 85.3337 14.4526 85.3239 14.2952C85.352 14.089 85.3471 13.8804 85.3093 13.6755C85.2714 13.4717 85.2007 13.2741 85.1006 13.0923C85.0006 12.9105 84.8725 12.7458 84.72 12.6043C84.5675 12.4627 84.3942 12.3456 84.2051 12.259C84.0636 12.2102 83.9209 12.1663 83.7757 12.1297C83.6305 12.0943 83.4841 12.065 83.3365 12.0418C83.1888 12.0199 83.04 12.0052 82.8911 11.9967C82.7423 11.9881 82.5922 11.9869 82.4434 11.993H80.8781L80.8695 16.6353Z" fill="black"/>
<path d="M93.7324 27.0715V7.99249H105.686V11.993H98.3979V15.4616H104.215V19.4694H98.3979V23.071H106.055V27.0715H93.7324Z" fill="black"/>
<path d="M109.045 27.0715V7.99249H120.999V11.993H113.719V15.4616H119.528V19.4694H113.719V23.071H121.343V27.0715H109.045Z" fill="black"/>
<path fill-rule="evenodd" clip-rule="evenodd" d="M124.358 27.0715V7.99249H131.138C134.159 7.99249 136.555 8.8331 138.324 10.5143C140.093 12.1943 140.98 14.5197 140.986 17.4893C140.986 20.4796 140.099 22.8282 138.324 24.5351C136.55 26.2419 134.154 27.0923 131.138 27.0874L124.358 27.0715ZM129.055 23.071H130.973C131.323 23.0905 131.676 23.0735 132.022 23.021C132.37 22.9673 132.71 22.8782 133.039 22.755C133.368 22.6318 133.683 22.4732 133.979 22.2853C134.274 22.0962 134.55 21.8766 134.801 21.6301C135.044 21.3471 135.259 21.0409 135.442 20.7163C135.626 20.3906 135.779 20.049 135.896 19.6951C136.014 19.3401 136.097 18.9765 136.145 18.6057C136.192 18.236 136.203 17.8614 136.179 17.4893C136.203 17.1209 136.192 16.7512 136.145 16.3864C136.096 16.0204 136.013 15.6605 135.895 15.3115C135.775 14.9614 135.623 14.6259 135.438 14.3062C135.253 13.9866 135.037 13.6877 134.793 13.4107C134.54 13.1691 134.263 12.9532 133.968 12.769C133.672 12.5835 133.357 12.4286 133.03 12.3066C132.702 12.1858 132.363 12.0979 132.017 12.0455C131.672 11.9918 131.322 11.9747 130.973 11.993H129.055V23.071Z" fill="black"/>
<path fill-rule="evenodd" clip-rule="evenodd" d="M142.982 17.4112C142.965 16.7683 143.014 16.1253 143.127 15.4921C143.241 14.8589 143.42 14.2391 143.66 13.6437C143.901 13.0471 144.202 12.4762 144.558 11.9418C144.916 11.4074 145.326 10.9096 145.784 10.4594C146.757 9.57002 147.885 8.86971 149.113 8.39268C150.341 7.91686 151.647 7.67163 152.963 7.67163C154.281 7.67163 155.586 7.91686 156.814 8.39268C158.042 8.86971 159.171 9.57002 160.142 10.4594C160.599 10.9108 161.008 11.4086 161.364 11.9442C161.719 12.4786 162.019 13.0496 162.26 13.645C162.499 14.2416 162.677 14.8613 162.791 15.4933C162.905 16.1265 162.954 16.7683 162.937 17.4112C162.955 18.0664 162.909 18.7216 162.795 19.3682C162.683 20.0148 162.506 20.6468 162.266 21.258C162.027 21.8681 161.727 22.4537 161.369 23.0039C161.013 23.5542 160.602 24.0666 160.142 24.5351C159.182 25.444 158.057 26.1626 156.827 26.6531C155.597 27.1423 154.287 27.3936 152.963 27.3936C151.641 27.3936 150.329 27.1423 149.1 26.6531C147.871 26.1626 146.746 25.444 145.784 24.5351C145.324 24.0678 144.912 23.5554 144.553 23.0051C144.196 22.4549 143.894 21.8705 143.654 21.2593C143.414 20.6492 143.237 20.016 143.123 19.3694C143.01 18.7228 142.964 18.0664 142.982 17.4112ZM147.879 18.5178C147.937 18.8838 148.028 19.2437 148.151 19.5927C148.276 19.9416 148.433 20.2783 148.62 20.598C148.808 20.9176 149.025 21.219 149.269 21.4972C149.737 22.0096 150.308 22.4195 150.945 22.6989C151.581 22.9795 152.269 23.1235 152.963 23.1235C153.659 23.1235 154.345 22.9795 154.982 22.6989C155.618 22.4195 156.189 22.0096 156.659 21.4972C156.905 21.219 157.123 20.9189 157.314 20.5992C157.503 20.2808 157.661 19.944 157.788 19.5951C157.914 19.2462 158.008 18.8863 158.067 18.519C158.125 18.153 158.149 17.7821 158.139 17.4112C158.151 17.0538 158.129 16.6963 158.073 16.3437C158.017 15.9911 157.925 15.6458 157.802 15.3103C157.677 14.976 157.521 14.6539 157.334 14.3489C157.148 14.0451 156.932 13.7584 156.69 13.4961C156.21 13.0032 155.635 12.6116 154.999 12.3432C154.365 12.076 153.683 11.9381 152.995 11.9381C152.305 11.9381 151.625 12.076 150.989 12.3432C150.355 12.6116 149.78 13.0032 149.299 13.4961C149.054 13.7572 148.834 14.0415 148.644 14.3453C148.454 14.6491 148.294 14.9712 148.167 15.3054C148.04 15.641 147.946 15.9874 147.886 16.3413C147.827 16.6939 147.802 17.0525 147.812 17.4112C147.8 17.7809 147.822 18.1518 147.879 18.5178Z" fill="black"/>
<path d="M165.185 27.0715L166.75 7.99249H171.823L174.579 16.0484L175.542 19.1803H175.596C175.949 17.8968 176.27 16.8317 176.552 16.0484L179.331 7.99249H184.404L185.969 27.0715H181.272L180.685 18.4605C180.646 18.0371 180.63 17.5601 180.63 17.0269C180.63 16.495 180.63 16.0643 180.63 15.7434V15.2664H180.575C180.145 16.5962 179.792 17.6613 179.51 18.4605L177.506 23.9873H173.561L171.557 18.4605L170.492 15.2664H170.437C170.455 15.5311 170.469 15.7971 170.477 16.0643C170.486 16.3303 170.491 16.5962 170.491 16.8634C170.491 17.1294 170.486 17.3954 170.477 17.6613C170.469 17.9285 170.455 18.1945 170.437 18.4592L169.85 27.0715H165.185Z" fill="black"/>
<path d="M62.0649 47.4804V36.0742H64.8527V40.6384H69.0021V36.0742H71.796V47.4804H69.0021V43.0578H64.8527V47.5194L62.0649 47.4804Z" fill="black"/>
<path fill-rule="evenodd" clip-rule="evenodd" d="M73.5898 41.7108C73.5801 41.329 73.6106 40.9483 73.6777 40.5725C73.746 40.1968 73.8509 39.8295 73.9924 39.4757C74.134 39.1207 74.3109 38.7815 74.5207 38.4631C74.7306 38.1447 74.9721 37.847 75.2418 37.5773C75.8237 37.043 76.4996 36.6208 77.2365 36.3341C77.9735 36.0474 78.7567 35.8998 79.5473 35.8998C80.3379 35.8998 81.1212 36.0474 81.8581 36.3341C82.5938 36.6208 83.2709 37.043 83.8528 37.5773C84.1273 37.8482 84.3726 38.1459 84.5861 38.4668C84.7996 38.7864 84.9789 39.128 85.1229 39.4855C85.2669 39.843 85.373 40.2139 85.4413 40.5933C85.5097 40.9727 85.5389 41.357 85.528 41.7426C85.5389 42.1342 85.5109 42.5258 85.4426 42.9126C85.3755 43.2993 85.2681 43.6776 85.1253 44.0423C84.9814 44.4071 84.8008 44.7573 84.5873 45.0855C84.3738 45.4149 84.1273 45.7211 83.8528 46.0005C83.277 46.5471 82.6011 46.9778 81.8642 47.2718C81.1273 47.5646 80.3403 47.7159 79.5473 47.7159C78.7531 47.7159 77.9674 47.5646 77.2292 47.2718C76.4923 46.9778 75.8176 46.5471 75.2418 46.0005C74.9673 45.7175 74.722 45.4088 74.5098 45.0757C74.2975 44.7439 74.1193 44.3925 73.9778 44.024C73.8363 43.6568 73.7326 43.2762 73.6667 42.887C73.602 42.499 73.5752 42.1049 73.5898 41.7108ZM76.4777 41.7108C76.4704 41.9317 76.4838 42.1525 76.5179 42.3709C76.5521 42.5881 76.607 42.8028 76.6802 43.0114C76.7546 43.2188 76.8486 43.4189 76.9608 43.6092C77.0718 43.7996 77.2012 43.9789 77.3476 44.1461C77.627 44.4535 77.9686 44.7 78.3492 44.8683C78.7311 45.0367 79.1423 45.1233 79.5583 45.1233C79.9755 45.1233 80.3867 45.0367 80.7674 44.8683C81.148 44.7 81.4896 44.4535 81.7702 44.1461C81.9154 43.9789 82.0447 43.7996 82.157 43.6092C82.2692 43.4189 82.3619 43.2188 82.4364 43.0114C82.5108 42.8028 82.5657 42.5881 82.5999 42.3709C82.6328 42.1525 82.6462 41.9317 82.6389 41.7108C82.6474 41.4973 82.634 41.2826 82.5999 41.0703C82.5657 40.8593 82.5108 40.6518 82.4364 40.4505C82.3619 40.2505 82.268 40.0565 82.157 39.8735C82.0447 39.6917 81.9154 39.5197 81.7702 39.3623C81.4823 39.067 81.1382 38.834 80.7588 38.6729C80.3782 38.5131 79.9707 38.4314 79.5583 38.4314C79.1471 38.4314 78.7384 38.5131 78.359 38.6729C77.9796 38.834 77.6355 39.067 77.3476 39.3623C77.1999 39.5184 77.0682 39.6892 76.9547 39.8722C76.84 40.054 76.7449 40.2468 76.668 40.4481C76.5924 40.6494 76.535 40.8568 76.4996 41.0691C76.4643 41.2814 76.4484 41.4961 76.4545 41.7108H76.4777Z" fill="black"/>
<path d="M87.2734 47.4804V36.0742H90.0686V45.0928H94.7657V47.4414L87.2734 47.4804Z" fill="black"/>
<path fill-rule="evenodd" clip-rule="evenodd" d="M96.0811 47.4805V36.0743H100.136C100.524 36.0523 100.915 36.0694 101.302 36.1231C101.687 36.178 102.067 36.2707 102.434 36.3988C102.802 36.5281 103.156 36.6916 103.492 36.8905C103.827 37.0881 104.143 37.3175 104.433 37.5774C104.703 37.8506 104.942 38.1508 105.148 38.4729C105.353 38.795 105.525 39.139 105.66 39.4977C105.795 39.8552 105.891 40.2273 105.949 40.6055C106.005 40.9849 106.022 41.368 106 41.7499C106.023 42.1342 106.006 42.521 105.95 42.9016C105.893 43.2823 105.796 43.6568 105.662 44.018C105.528 44.3791 105.356 44.7244 105.15 45.0501C104.943 45.3759 104.703 45.6784 104.433 45.9542C104.144 46.2153 103.83 46.4471 103.494 46.6472C103.159 46.846 102.805 47.012 102.436 47.1425C102.069 47.273 101.688 47.3658 101.303 47.4219C100.916 47.4768 100.526 47.4939 100.136 47.4731L96.0811 47.4805ZM98.8762 45.1319H100.027C100.235 45.1441 100.446 45.1343 100.654 45.1026C100.861 45.0709 101.064 45.0172 101.26 44.9428C101.457 44.8696 101.644 44.7756 101.821 44.6622C101.998 44.5487 102.163 44.4181 102.312 44.2705C102.457 44.1009 102.585 43.9179 102.695 43.7239C102.805 43.5299 102.895 43.3262 102.966 43.1139C103.035 42.9028 103.085 42.6845 103.113 42.4636C103.141 42.2428 103.149 42.0195 103.134 41.7975C103.15 41.5767 103.143 41.3558 103.115 41.1362C103.087 40.9166 103.037 40.7019 102.965 40.492C102.894 40.2834 102.802 40.0809 102.691 39.8906C102.58 39.699 102.451 39.5197 102.304 39.355C102.154 39.2098 101.99 39.0805 101.813 38.9694C101.637 38.8584 101.449 38.7657 101.254 38.6937C101.059 38.6205 100.856 38.568 100.65 38.5375C100.444 38.507 100.234 38.4973 100.027 38.5095H98.8762V45.1319Z" fill="black"/>
<path d="M107.847 47.4804V36.0742H110.634V47.4804H107.847Z" fill="black"/>
<path d="M113.03 47.4804V36.0742H115.864L118.995 41.4058C119.12 41.6242 119.262 41.8987 119.425 42.1879C119.59 42.4782 119.707 42.7832 119.81 42.9711L119.95 43.292C119.864 42.4697 119.825 41.8206 119.825 41.3424V36.0742H122.612V47.4804H119.81L116.631 42.1732C116.506 41.9463 116.357 41.6718 116.201 41.3899C116.043 41.1081 115.91 40.7946 115.816 40.6067L115.676 40.2858C115.694 40.4481 115.71 40.6103 115.725 40.7726C115.74 40.9337 115.753 41.0971 115.763 41.2594C115.774 41.4217 115.782 41.5839 115.788 41.7474C115.794 41.9097 115.798 42.072 115.801 42.2354V47.5426L113.03 47.4804Z" fill="black"/>
<path d="M124.475 41.7584C124.464 41.3717 124.493 40.9849 124.56 40.6043C124.629 40.2236 124.736 39.8503 124.88 39.4916C125.025 39.1329 125.206 38.7901 125.421 38.4692C125.635 38.1471 125.883 37.8482 126.159 37.5773C126.438 37.2992 126.745 37.0503 127.076 36.8343C127.407 36.6172 127.758 36.4354 128.125 36.2902C128.493 36.1462 128.873 36.0389 129.262 35.9705C129.65 35.9022 130.046 35.8742 130.44 35.8864C130.836 35.8717 131.234 35.8937 131.626 35.9522C132.017 36.0108 132.404 36.1047 132.779 36.2341C133.153 36.3634 133.515 36.5281 133.86 36.7245C134.205 36.9209 134.529 37.1491 134.832 37.4053L133.486 39.4952C133.392 39.4111 133.296 39.3318 133.196 39.2561C133.095 39.1805 132.991 39.1109 132.884 39.045C132.777 38.9792 132.668 38.9182 132.554 38.8633C132.442 38.8071 132.327 38.7571 132.21 38.712C132.093 38.668 131.973 38.629 131.853 38.5948C131.732 38.5619 131.61 38.5326 131.487 38.5094C131.362 38.4875 131.239 38.4692 131.113 38.457C130.989 38.446 130.863 38.4387 130.737 38.4387C130.297 38.3899 129.85 38.4375 129.43 38.5802C129.009 38.7217 128.624 38.9548 128.303 39.2622C127.983 39.5684 127.732 39.9418 127.571 40.3554C127.41 40.769 127.342 41.2131 127.371 41.6559C127.36 41.8865 127.371 42.1183 127.407 42.3465C127.442 42.5746 127.502 42.7991 127.582 43.0151C127.664 43.231 127.768 43.4384 127.891 43.6336C128.014 43.8288 128.158 44.0106 128.319 44.1765C128.471 44.3327 128.638 44.473 128.818 44.5938C128.999 44.7146 129.192 44.8171 129.393 44.8988C129.594 44.9793 129.804 45.0403 130.019 45.0782C130.232 45.116 130.45 45.1318 130.668 45.1245C130.879 45.1245 131.09 45.1062 131.3 45.0708C131.509 45.0355 131.713 44.9818 131.914 44.9122C132.112 44.8415 132.306 44.7536 132.491 44.6499C132.676 44.5462 132.852 44.4279 133.016 44.2937V43.4177H131.404V41.0691H135.435V47.5121H133.086V46.7289C132.988 46.8094 132.886 46.885 132.78 46.9558C132.674 47.0266 132.565 47.0912 132.453 47.151C132.341 47.2108 132.225 47.2657 132.108 47.3133C131.989 47.3621 131.87 47.4048 131.748 47.4414C131.613 47.4865 131.478 47.5256 131.34 47.5597C131.204 47.5939 131.064 47.6219 130.925 47.6451C130.785 47.6683 130.645 47.6854 130.504 47.6976C130.363 47.7086 130.221 47.7147 130.08 47.7159C129.717 47.7171 129.356 47.6842 129 47.6146C128.644 47.5451 128.296 47.4402 127.961 47.3023C127.626 47.1644 127.305 46.9936 127.004 46.7923C126.703 46.5898 126.422 46.3592 126.166 46.103C125.882 45.8212 125.627 45.5101 125.407 45.1745C125.187 44.8402 125.004 44.4828 124.858 44.1094C124.713 43.7373 124.608 43.3494 124.543 42.9541C124.479 42.5588 124.455 42.1574 124.475 41.7584Z" fill="black"/>
<path d="M141.111 41.7584C141.101 41.3717 141.131 40.9849 141.2 40.6042C141.268 40.2248 141.375 39.8515 141.52 39.4928C141.664 39.1353 141.845 38.7925 142.058 38.4704C142.273 38.1483 142.52 37.8494 142.794 37.5773C143.076 37.2992 143.386 37.0503 143.719 36.8343C144.051 36.6184 144.405 36.4366 144.774 36.2926C145.143 36.1487 145.526 36.0425 145.916 35.9754C146.308 35.9083 146.703 35.8815 147.1 35.8937C147.3 35.8937 147.499 35.9022 147.698 35.9193C147.898 35.9364 148.095 35.962 148.292 35.9961C148.488 36.0303 148.683 36.073 148.877 36.123C149.07 36.1743 149.26 36.2341 149.448 36.3012C149.63 36.3646 149.808 36.4378 149.983 36.5208C150.156 36.6037 150.325 36.6964 150.489 36.7977C150.652 36.899 150.811 37.0088 150.962 37.1271C151.115 37.2455 151.26 37.3724 151.398 37.5066L150.106 39.6124C150.005 39.5233 149.901 39.4391 149.792 39.3586C149.685 39.2781 149.574 39.2024 149.459 39.1304C149.346 39.0597 149.229 38.9926 149.109 38.9303C148.99 38.8681 148.868 38.812 148.744 38.7595C148.625 38.7083 148.503 38.6632 148.38 38.6241C148.256 38.5851 148.131 38.5521 148.004 38.5253C147.877 38.4985 147.75 38.4777 147.621 38.4631C147.491 38.4484 147.362 38.4399 147.233 38.4387C147.011 38.4228 146.787 38.4326 146.568 38.4667C146.347 38.5009 146.131 38.5595 145.925 38.6412C145.717 38.7229 145.52 38.8266 145.336 38.9523C145.151 39.078 144.982 39.2232 144.829 39.3854C144.697 39.5453 144.58 39.7173 144.48 39.8978C144.379 40.0796 144.295 40.2687 144.228 40.4652C144.161 40.6616 144.112 40.8629 144.081 41.0679C144.052 41.2728 144.04 41.4802 144.047 41.6876C144.039 41.9036 144.05 42.1183 144.08 42.3331C144.109 42.5466 144.158 42.7576 144.224 42.9626C144.291 43.1676 144.375 43.3664 144.477 43.5568C144.579 43.7471 144.696 43.9289 144.829 44.0985C144.976 44.2693 145.14 44.4242 145.321 44.5572C145.501 44.6902 145.697 44.8024 145.903 44.8915C146.109 44.9805 146.325 45.0452 146.547 45.0842C146.768 45.1233 146.994 45.1367 147.217 45.1245C147.504 45.116 147.789 45.0794 148.067 45.0135C148.347 44.9476 148.619 44.8537 148.877 44.7329C149.137 44.6121 149.385 44.4645 149.614 44.2937C149.845 44.1229 150.056 43.9289 150.247 43.7154L151.687 45.7577C151.393 46.0688 151.067 46.347 150.716 46.5898C150.363 46.8326 149.988 47.0375 149.592 47.2022C149.198 47.367 148.787 47.4902 148.367 47.5707C147.946 47.65 147.519 47.6854 147.092 47.6768C146.299 47.722 145.506 47.6012 144.763 47.3206C144.022 47.04 143.346 46.6069 142.781 46.0493C142.217 45.4917 141.775 44.8207 141.486 44.0814C141.197 43.342 141.067 42.5502 141.103 41.7584H141.111Z" fill="black"/>
<path fill-rule="evenodd" clip-rule="evenodd" d="M152.22 41.7108C152.212 41.329 152.242 40.9459 152.312 40.5701C152.38 40.1943 152.487 39.8259 152.631 39.4708C152.775 39.117 152.955 38.7779 153.167 38.4594C153.379 38.1422 153.623 37.8457 153.895 37.5773C154.477 37.043 155.154 36.6208 155.89 36.3341C156.627 36.0474 157.41 35.8998 158.201 35.8998C158.991 35.8998 159.775 36.0474 160.512 36.3341C161.247 36.6208 161.924 37.043 162.506 37.5773C162.78 37.8482 163.025 38.1471 163.238 38.4668C163.451 38.7876 163.63 39.1292 163.774 39.4867C163.918 39.8442 164.025 40.2151 164.094 40.5933C164.162 40.9727 164.191 41.357 164.181 41.7426C164.192 42.1342 164.163 42.5258 164.095 42.9126C164.027 43.2981 163.919 43.6763 163.776 44.0411C163.632 44.4059 163.453 44.7561 163.24 45.0855C163.026 45.4137 162.781 45.7211 162.506 46.0005C161.93 46.5471 161.256 46.9778 160.518 47.2718C159.781 47.5646 158.994 47.7159 158.201 47.7159C157.408 47.7159 156.621 47.5646 155.884 47.2718C155.146 46.9778 154.471 46.5471 153.895 46.0005C153.618 45.7199 153.371 45.4112 153.156 45.0794C152.941 44.7475 152.761 44.3962 152.617 44.0277C152.473 43.6605 152.367 43.2786 152.301 42.8894C152.234 42.5002 152.207 42.1049 152.22 41.7108ZM155.148 42.3709C155.182 42.5881 155.237 42.8028 155.311 43.0114C155.385 43.2188 155.479 43.4189 155.591 43.6092C155.702 43.7996 155.831 43.9789 155.978 44.1461C156.257 44.4535 156.599 44.7 156.98 44.8683C157.361 45.0367 157.773 45.1233 158.189 45.1233C158.606 45.1233 159.017 45.0367 159.398 44.8683C159.778 44.7 160.12 44.4535 160.401 44.1461C160.546 43.9789 160.675 43.7996 160.787 43.6092C160.9 43.4189 160.992 43.2188 161.067 43.0114C161.141 42.8028 161.196 42.5881 161.23 42.3709C161.263 42.1525 161.277 41.9317 161.269 41.7108C161.278 41.4973 161.264 41.2826 161.23 41.0703C161.196 40.8593 161.141 40.6518 161.067 40.4505C160.992 40.2505 160.898 40.0565 160.787 39.8735C160.675 39.6917 160.546 39.5197 160.401 39.3623C160.113 39.067 159.769 38.834 159.389 38.6729C159.008 38.5131 158.601 38.4314 158.189 38.4314C157.777 38.4314 157.369 38.5131 156.989 38.6729C156.61 38.834 156.266 39.067 155.978 39.3623C155.833 39.5197 155.703 39.6917 155.591 39.8735C155.479 40.0565 155.386 40.2505 155.312 40.4505C155.237 40.6518 155.182 40.8593 155.148 41.0703C155.114 41.2826 155.101 41.4973 155.108 41.7108C155.101 41.9317 155.114 42.1525 155.148 42.3709Z" fill="black"/>
<path fill-rule="evenodd" clip-rule="evenodd" d="M165.966 47.4805V36.0743H169.881C170.068 36.0657 170.255 36.0645 170.441 36.0718C170.628 36.0791 170.815 36.0938 171 36.117C171.186 36.1401 171.37 36.1706 171.553 36.2097C171.736 36.2475 171.918 36.2939 172.097 36.3488C172.256 36.4049 172.411 36.4757 172.558 36.5574C172.707 36.6391 172.847 36.7343 172.98 36.8392C173.113 36.9442 173.238 37.0588 173.351 37.1845C173.466 37.3089 173.57 37.4432 173.662 37.5847C173.758 37.7408 173.843 37.9019 173.915 38.069C173.987 38.2374 174.047 38.4094 174.094 38.5851C174.141 38.762 174.175 38.9414 174.196 39.1219C174.216 39.3025 174.224 39.4855 174.219 39.6673C174.22 39.8247 174.213 39.9833 174.196 40.1394C174.18 40.2956 174.153 40.4518 174.117 40.6055C174.082 40.7592 174.037 40.9105 173.983 41.0581C173.93 41.2058 173.866 41.351 173.795 41.4913C173.728 41.6291 173.65 41.7597 173.562 41.8841C173.473 42.0098 173.376 42.1269 173.268 42.2355C173.162 42.3441 173.046 42.4441 172.923 42.5344C172.801 42.6259 172.67 42.7064 172.535 42.776C172.574 42.8309 172.613 42.8858 172.651 42.9419C172.689 42.998 172.727 43.0554 172.762 43.1127C172.797 43.17 172.833 43.2286 172.867 43.2872C172.901 43.3457 172.934 43.4043 172.966 43.4641L175.181 47.4487H172.049L170.022 43.6056H168.715V47.4487L165.966 47.4805ZM168.761 41.218H169.975C170.071 41.2241 170.167 41.2204 170.262 41.2082C170.358 41.196 170.452 41.174 170.543 41.1435C170.634 41.1118 170.722 41.0728 170.805 41.0252C170.889 40.9764 170.967 40.9203 171.039 40.8581C171.106 40.7885 171.165 40.7141 171.215 40.6336C171.266 40.5518 171.308 40.4664 171.341 40.3774C171.374 40.2883 171.398 40.1956 171.411 40.1016C171.425 40.0065 171.43 39.9113 171.424 39.8161C171.441 39.6941 171.438 39.5685 171.415 39.4477C171.393 39.3257 171.352 39.2086 171.292 39.0988C171.232 38.9902 171.155 38.8926 171.065 38.8084C170.975 38.7242 170.871 38.6547 170.757 38.6034C170.673 38.5729 170.588 38.5485 170.5 38.5266C170.413 38.5058 170.326 38.4875 170.236 38.4753C170.149 38.4619 170.06 38.4534 169.969 38.4485C169.88 38.4436 169.79 38.4424 169.701 38.446H168.761V41.218Z" fill="black"/>
<path fill-rule="evenodd" clip-rule="evenodd" d="M176.426 47.4804V36.0742H181.171C181.419 36.0645 181.67 36.0828 181.915 36.1267C182.161 36.1706 182.402 36.2401 182.632 36.3353C182.863 36.4305 183.084 36.55 183.289 36.6916C183.495 36.8331 183.684 36.9966 183.855 37.1784C184.029 37.3675 184.184 37.5724 184.318 37.792C184.452 38.0116 184.565 38.2435 184.653 38.4838C184.742 38.7254 184.806 38.9743 184.845 39.2292C184.884 39.483 184.899 39.7392 184.888 39.9967C184.899 40.2553 184.884 40.5152 184.844 40.7714C184.805 41.0276 184.74 41.2789 184.651 41.5229C184.563 41.7657 184.451 42.0012 184.318 42.2232C184.184 42.4453 184.029 42.6539 183.855 42.8455C183.685 43.0297 183.496 43.1932 183.291 43.3359C183.085 43.4799 182.865 43.5994 182.635 43.6946C182.403 43.791 182.162 43.8618 181.916 43.9057C181.67 43.9496 181.419 43.9667 181.171 43.9581H179.221V47.4804H176.426ZM179.221 41.562H180.591C180.691 41.5693 180.791 41.5644 180.89 41.5485C180.99 41.5327 181.086 41.5071 181.179 41.4692C181.273 41.4326 181.362 41.3851 181.444 41.3277C181.527 41.2716 181.602 41.2057 181.671 41.1313C181.735 41.0532 181.793 40.9678 181.842 40.8787C181.892 40.7897 181.932 40.6957 181.964 40.5994C181.996 40.5018 182.02 40.4029 182.033 40.3017C182.047 40.2004 182.051 40.0979 182.047 39.9967C182.051 39.8966 182.048 39.7966 182.033 39.6977C182.02 39.5989 181.998 39.5013 181.966 39.4062C181.934 39.311 181.895 39.2195 181.846 39.1316C181.799 39.045 181.743 38.9621 181.679 38.8852C181.613 38.8132 181.54 38.7498 181.461 38.6949C181.38 38.64 181.295 38.5948 181.206 38.5582C181.116 38.5228 181.022 38.4972 180.927 38.4826C180.831 38.4667 180.734 38.4631 180.637 38.4692H179.221V41.562Z" fill="black"/>
<path d="M185.272 46.1884C185.272 46.0176 185.307 45.8468 185.371 45.6882C185.437 45.5296 185.534 45.3856 185.656 45.2648C185.776 45.1428 185.92 45.0464 186.079 44.9805C186.238 44.9147 186.408 44.8817 186.579 44.8817C186.751 44.8817 186.921 44.9147 187.079 44.9805C187.239 45.0464 187.383 45.1428 187.504 45.2648C187.626 45.3856 187.722 45.5296 187.787 45.6882C187.853 45.8468 187.887 46.0176 187.887 46.1884C187.887 46.3604 187.853 46.53 187.787 46.6886C187.722 46.8472 187.626 46.9924 187.504 47.1132C187.383 47.2352 187.239 47.3303 187.079 47.3962C186.921 47.4621 186.751 47.4963 186.579 47.4963C186.407 47.4975 186.238 47.4645 186.078 47.3987C185.919 47.334 185.774 47.2376 185.653 47.1156C185.531 46.9936 185.435 46.8496 185.37 46.6898C185.304 46.5312 185.271 46.3604 185.272 46.1884Z" fill="black"/>
<path d="M48.4038 3.31976V13.4961C48.4038 47.489 24.6825 56.0781 24.1982 55.9122C23.7138 55.745 23.2344 55.5645 22.7598 55.3693C22.2864 55.1741 21.8191 54.9642 21.3579 54.7409C20.8967 54.5165 20.4417 54.2785 19.9951 54.0284C19.5486 53.7771 19.1094 53.5124 18.6787 53.2342V38.4546H27.9474C36.606 38.4387 38.1726 33.8587 38.1726 28.183V24.8011H18.6787V13.5986H38.1726C45.8906 13.4961 48.4038 9.00273 48.4038 3.31976Z" fill="#045433"/>
</g>
<defs>
<clipPath id="clip0_217_2125">
<rect width="187.887" height="56" fill="white"/>
</clipPath>
</defs>
</svg>
