<svg width="116" height="75" viewBox="0 0 116 75" fill="none" xmlns="http://www.w3.org/2000/svg">
<path d="M31.1485 26.5599C38.2462 26.6036 44.8225 29.7413 48.4343 33.365C49.8843 30.8469 50.7162 29.1536 50.7352 26.1017C50.7968 16.041 42.0294 8.01248 31.1515 7.94556C20.2735 7.8801 11.4051 15.8009 11.3436 25.8617C11.3245 29.0184 12.1755 30.7698 13.687 33.3679C17.4365 29.6061 23.878 26.5148 31.15 26.5585L31.1485 26.5599Z" fill="#FDBA12"/>
<path d="M42.9184 49.4511C43.8367 44.8048 46.7601 40.3374 50.8362 35.3289C55.9728 40.4523 59.069 47.5454 59.069 54.6429C59.069 56.3056 58.905 57.98 58.5813 59.6355L42.2358 59.4289C42.438 55.7921 42.3808 52.8493 42.9169 49.4496L42.9184 49.4511Z" fill="#B22C1B"/>
<path d="M19.8356 59.4289L3.49017 59.6355C3.16648 57.98 3.00244 56.3056 3.00244 54.6429C3.00244 47.544 6.0987 40.4523 11.2352 35.3289C15.3128 40.3374 18.2348 44.8048 19.1531 49.4511C19.6892 52.8507 19.632 55.7936 19.8342 59.4303L19.8356 59.4289Z" fill="#4C83C3"/>
<path d="M14.0827 46.2479C14.0827 45.6951 13.6316 45.2485 13.0765 45.2485C12.5214 45.2485 12.0703 45.6965 12.0703 46.2479C12.0703 46.7992 12.5214 47.2472 13.0765 47.2472C13.6316 47.2472 14.0827 46.7992 14.0827 46.2479Z" fill="#004275"/>
<path d="M12.0688 42.5806C12.0688 43.1333 12.52 43.5799 13.0751 43.5799C13.6302 43.5799 14.0813 43.1319 14.0813 42.5806C14.0813 42.0292 13.6302 41.5812 13.0751 41.5812C12.52 41.5812 12.0688 42.0292 12.0688 42.5806Z" fill="#004275"/>
<path d="M50.337 35.067L56.8605 25.3671L54.9287 24.0855L51.2729 29.5217C51.2788 29.3224 51.2978 29.126 51.2978 28.9267C51.2978 18.2914 42.9508 9.51665 32.2106 8.87804V2.36389H29.8876V8.87222C19.1752 9.47592 10.7945 18.2681 10.7945 28.9253C10.7945 29.1202 10.8135 29.3137 10.8194 29.5086L7.17095 24.084L5.23908 25.3656L11.7538 35.051C6.71398 40.1076 3.94287 46.7672 3.94287 53.9025C3.94287 55.8561 4.16257 57.8258 4.5961 59.7591L4.79822 60.6625H22.7826L22.7211 59.4507C22.5263 55.5783 22.3476 52.5656 21.8145 49.0205C20.9357 44.3349 18.4253 40.2952 14.6773 35.4743C19.2016 31.4812 24.9649 29.2948 31.0608 29.2948C37.1567 29.2948 42.8908 31.4783 47.4136 35.4569C43.6568 40.2865 41.142 44.332 40.2559 49.0612C39.73 52.5642 39.5499 55.5768 39.3551 59.4493L39.2936 60.661H57.278L57.4801 59.7577C57.9136 57.8244 58.1333 55.8547 58.1333 53.901C58.1333 46.773 55.3666 40.1177 50.3356 35.0627L50.337 35.067ZM30.0268 11.1706H32.004C41.5213 11.6696 48.9749 19.4697 48.9749 28.9267C48.9749 30.4076 48.7903 31.8681 48.43 33.2865C46.4498 31.631 44.2661 30.2811 41.9387 29.2613L45.1844 19.2544L42.9728 18.5474L39.7711 28.419C37.3529 27.6015 34.8118 27.1258 32.212 27.0167V16.9967H29.8891V27.0182C27.2849 27.1287 24.7482 27.6059 22.3359 28.4219L19.1327 18.5474L16.9211 19.2544L20.1668 29.2628C17.8365 30.284 15.6513 31.6354 13.6696 33.2981C13.3078 31.8769 13.1189 30.4134 13.1189 28.9282C13.1189 19.4712 20.5739 11.6711 30.0282 11.1721L30.0268 11.1706ZM20.3381 58.3568H6.67883C6.40494 56.8803 6.2658 55.3877 6.2658 53.9054C6.2658 47.576 8.64585 41.651 12.9988 37.0818C16.4539 41.5463 18.7461 45.2616 19.5238 49.4045C19.9778 52.4347 20.1668 55.1142 20.3381 58.3568ZM55.3974 58.3568H41.7381C41.9094 55.1142 42.0969 52.4405 42.5466 49.4453C43.3301 45.2659 45.6238 41.5477 49.0789 37.0818C53.4303 41.651 55.8104 47.576 55.8104 53.9054C55.8104 55.3877 55.6713 56.8803 55.3974 58.3568Z" fill="#004275"/>
<path d="M49.987 46.2479C49.987 45.6951 49.5359 45.2485 48.9808 45.2485C48.4257 45.2485 47.9746 45.6965 47.9746 46.2479C47.9746 46.7992 48.4257 47.2472 48.9808 47.2472C49.5359 47.2472 49.987 46.7992 49.987 46.2479Z" fill="#004275"/>
<path d="M47.9746 42.5806C47.9746 43.1333 48.4257 43.5799 48.9808 43.5799C49.5359 43.5799 49.987 43.1319 49.987 42.5806C49.987 42.0292 49.5359 41.5812 48.9808 41.5812C48.4257 41.5812 47.9746 42.0292 47.9746 42.5806Z" fill="#004275"/>
<path d="M13.0822 49.5136L9.48211 47.5294L7.17822 52.1132L10.5498 54.0145L11.7377 51.6099L10.2364 50.8781L9.8307 51.6986L9.38252 51.4469L10.1983 49.8235L12.2444 50.9523V56.6577H12.2459H13.9156H13.9185V50.9523L15.9661 49.8235L16.7819 51.4469L16.3337 51.6986L15.928 50.8781L14.4253 51.6099L15.6146 54.0145L18.9862 52.1132L16.6809 47.5294L13.0822 49.5136Z" fill="#004275"/>
<path d="M52.5866 47.5294L48.9865 49.5136L45.3879 47.5294L43.084 52.1132L46.4556 54.0145L47.6434 51.6099L46.1407 50.8781L45.735 51.6986L45.2883 51.4469L46.1041 49.8235L48.1502 50.9523V56.6577H48.1517H49.8214H49.8228V50.9523L51.8704 49.8235L52.6877 51.4469L52.2395 51.6986L51.8338 50.8781L50.3311 51.6099L51.5203 54.0145L54.892 52.1132L52.5866 47.5294Z" fill="#004275"/>
<path d="M64.4429 57.0606L70.2473 54.8684V56.2344L66.1023 57.6876L70.2473 59.1467V60.5068L64.4429 58.3146V57.0621V57.0606Z" fill="#004275"/>
<path d="M112.98 58.3131L107.175 60.5054V59.1452L111.325 57.6861L107.175 56.2329V54.8669L112.98 57.0694V58.3117V58.3131Z" fill="#004275"/>
<path d="M67.5479 26.5338H64.374V11.3467H67.5479V26.5338Z" fill="#004275"/>
<path d="M72.0095 12.9352C73.2544 11.6856 74.8377 11.0601 76.7608 11.0601C79.3327 11.0601 81.2148 11.898 82.4041 13.5738C83.0617 14.515 83.4147 15.4591 83.463 16.4076H80.2672C80.0606 15.6802 79.7941 15.1303 79.4689 14.7594C78.8875 14.1004 78.0277 13.7702 76.8853 13.7702C75.7429 13.7702 74.807 14.2357 74.1361 15.1667C73.4653 16.0977 73.1299 17.4142 73.1299 19.1177C73.1299 20.8211 73.4844 22.0969 74.1933 22.945C74.9022 23.7931 75.8029 24.2179 76.8955 24.2179C77.9882 24.2179 78.8699 23.8542 79.4572 23.1254C79.7824 22.7341 80.0519 22.1464 80.2657 21.3637H83.4293C83.1525 23.0192 82.4451 24.3648 81.3085 25.402C80.172 26.4392 78.7132 26.9571 76.9365 26.9571C74.7381 26.9571 73.0084 26.2573 71.7502 24.855C70.4906 23.4469 69.8623 21.5165 69.8623 19.0653C69.8623 16.4148 70.5771 14.371 72.0095 12.9352Z" fill="#004275"/>
<path d="M92.3605 21.0742H89.1133V26.5352H85.9395V11.3481H92.5992C94.1341 11.3481 95.3586 11.7394 96.2711 12.5235C97.1835 13.3061 97.6405 14.5194 97.6405 16.1603C97.6405 17.9525 97.1835 19.2195 96.2711 19.9629C95.3586 20.7047 94.0551 21.0757 92.3605 21.0757V21.0742ZM92.091 13.9855H89.1148V18.4572H92.091C92.8453 18.4572 93.4311 18.2754 93.85 17.9117C94.2674 17.548 94.4769 16.9705 94.4769 16.1806C94.4769 15.3907 94.2674 14.8278 93.85 14.4903C93.4311 14.1542 92.8453 13.9855 92.091 13.9855Z" fill="#004275"/>
<path d="M101.521 12.9352C102.766 11.6856 104.349 11.0601 106.272 11.0601C108.844 11.0601 110.726 11.898 111.915 13.5738C112.573 14.515 112.926 15.4591 112.974 16.4076H109.778C109.572 15.6802 109.305 15.1303 108.98 14.7594C108.399 14.1004 107.539 13.7702 106.397 13.7702C105.254 13.7702 104.318 14.2357 103.647 15.1667C102.977 16.0977 102.641 17.4142 102.641 19.1177C102.641 20.8211 102.996 22.0969 103.704 22.945C104.413 23.7931 105.314 24.2179 106.407 24.2179C107.499 24.2179 108.381 23.8542 108.968 23.1254C109.294 22.7341 109.563 22.1464 109.777 21.3637H112.941C112.664 23.0192 111.956 24.3648 110.82 25.402C109.683 26.4392 108.224 26.9571 106.448 26.9571C104.249 26.9571 102.52 26.2573 101.261 24.855C100.002 23.4469 99.3735 21.5165 99.3735 19.0653C99.3735 16.4148 100.088 14.371 101.521 12.9352Z" fill="#004275"/>
<path d="M65.7552 28.5252L67.5538 36.2322L69.7097 28.5252H71.1129L73.2688 36.2322L75.0674 28.5252H76.4823L73.9762 37.9997H72.6185L70.4172 30.1443L68.2026 37.9997H66.8449L64.3506 28.5252H65.7537H65.7552Z" fill="#004275"/>
<path d="M85.537 29.8796C86.1682 30.7175 86.4846 31.791 86.4846 33.0974C86.4846 34.5128 86.1228 35.6882 85.4008 36.625C84.5513 37.7262 83.3415 38.2761 81.7699 38.2761C80.3023 38.2761 79.1482 37.7946 78.3089 36.8316C77.5605 35.9035 77.1855 34.7295 77.1855 33.3097C77.1855 32.0282 77.5063 30.9328 78.1464 30.0207C78.9695 28.8511 80.1851 28.2663 81.7963 28.2663C83.4074 28.2663 84.727 28.8045 85.537 29.8796ZM85.1591 33.1177C85.1591 32.0049 84.8662 31.1073 84.2788 30.428C83.6915 29.7486 82.8903 29.4082 81.8724 29.4082C80.8545 29.4082 80.0797 29.7443 79.4572 30.4178C78.8347 31.0913 78.5228 32.0834 78.5228 33.3941C78.5228 34.443 78.7908 35.3274 79.3254 36.0475C79.86 36.7676 80.7271 37.1283 81.9266 37.1283C83.1262 37.1283 83.8892 36.7225 84.3975 35.9122C84.9057 35.1019 85.1605 34.1695 85.1605 33.1163L85.1591 33.1177Z" fill="#004275"/>
<path d="M88.1792 28.5252H92.5951C93.323 28.5252 93.9221 28.6299 94.3937 28.8409C95.2901 29.2453 95.7382 29.9915 95.7382 31.0782C95.7382 31.6455 95.6196 32.1096 95.3838 32.4718C95.148 32.8326 94.817 33.1235 94.3937 33.3432C94.7657 33.4945 95.0469 33.6923 95.2344 33.9367C95.4233 34.1811 95.5273 34.5797 95.5493 35.1295L95.5947 36.401C95.6079 36.7617 95.6372 37.0308 95.6855 37.2069C95.7631 37.508 95.9023 37.7015 96.1015 37.7873V37.9997H94.5167C94.4728 37.9182 94.4391 37.812 94.4127 37.684C94.3864 37.5545 94.3644 37.3058 94.3483 36.9363L94.2707 35.3565C94.2399 34.7368 94.0085 34.3222 93.575 34.1113C93.3289 33.9949 92.9408 33.9367 92.412 33.9367H89.471V37.9997H88.1792V28.5252ZM92.4589 32.866C93.0653 32.866 93.5442 32.7453 93.8972 32.5053C94.2502 32.2652 94.4259 31.8317 94.4259 31.2048C94.4259 30.5312 94.1799 30.0716 93.6863 29.8272C93.4226 29.6977 93.0697 29.6337 92.6273 29.6337H89.471V32.8646H92.4589V32.866Z" fill="#004275"/>
<path d="M97.6274 28.5252H98.9193V36.8708H103.751V37.9997H97.6274V28.5252Z" fill="#004275"/>
<path d="M105.083 28.5252H108.946C110.259 28.5252 111.275 28.9878 111.999 29.9115C112.643 30.7451 112.967 31.8143 112.967 33.1177C112.967 34.1244 112.776 35.0335 112.395 35.8467C111.725 37.2825 110.571 38.0011 108.935 38.0011H105.084V28.5267L105.083 28.5252ZM108.687 36.9043C109.123 36.9043 109.484 36.8592 109.765 36.769C110.267 36.6017 110.677 36.2802 110.998 35.8031C111.253 35.4205 111.438 34.9317 111.55 34.3338C111.615 33.9774 111.647 33.6472 111.647 33.3417C111.647 32.1692 111.413 31.2586 110.943 30.6098C110.472 29.961 109.717 29.6366 108.672 29.6366H106.38V36.9057H108.686L108.687 36.9043Z" fill="#004275"/>
<path d="M64.4795 39.8675H71.6445V41.1244H65.8797V44.2389H70.9488V45.4608H65.8797V50.1261H64.481V39.8675H64.4795Z" fill="#004275"/>
<path d="M73.458 39.8675H74.8714V50.1261H73.458V39.8675Z" fill="#004275"/>
<path d="M77.1431 39.8675H78.7952L84.0123 48.1782V39.8675H85.3407V50.1261H83.7735L78.4788 41.8226V50.1261H77.1431V39.8675Z" fill="#004275"/>
<path d="M90.5444 39.8675H92.1262L95.8743 50.1261H94.3422L93.295 47.0537H89.2101L88.0926 50.1261H86.6572L90.5459 39.8675H90.5444ZM92.8439 45.922L91.2767 41.3891L89.61 45.922H92.8439Z" fill="#004275"/>
<path d="M97.147 39.8675H98.5457V48.9041H103.777V50.1261H97.147V39.8675Z" fill="#004275"/>
<path d="M106.07 46.8152C106.103 47.397 106.241 47.8698 106.484 48.232C106.948 48.9114 107.766 49.2518 108.939 49.2518C109.463 49.2518 109.942 49.1776 110.373 49.0292C111.207 48.7397 111.625 48.2233 111.625 47.4785C111.625 46.9199 111.449 46.5213 111.098 46.2842C110.742 46.0514 110.184 45.8492 109.425 45.6761L108.025 45.3619C107.111 45.1568 106.464 44.9313 106.084 44.684C105.428 44.2563 105.1 43.6148 105.1 42.7638C105.1 41.8415 105.421 41.0851 106.064 40.4945C106.705 39.9039 107.615 39.6071 108.792 39.6071C109.875 39.6071 110.796 39.8675 111.552 40.3854C112.309 40.9047 112.687 41.7339 112.687 42.8744H111.372C111.301 42.3245 111.152 41.9041 110.922 41.6102C110.496 41.0749 109.771 40.8072 108.748 40.8072C107.924 40.8072 107.331 40.9789 106.97 41.3237C106.609 41.6684 106.428 42.0685 106.428 42.5252C106.428 43.0286 106.639 43.3952 107.061 43.6279C107.338 43.7777 107.963 43.9639 108.939 44.1865L110.387 44.5153C111.086 44.6738 111.625 44.8906 112.004 45.1655C112.66 45.6441 112.989 46.3409 112.989 47.253C112.989 48.3891 112.573 49.2009 111.741 49.6896C110.909 50.1784 109.942 50.4228 108.841 50.4228C107.556 50.4228 106.551 50.097 105.823 49.4453C105.097 48.7979 104.741 47.9207 104.754 46.8122H106.07V46.8152Z" fill="#004275"/>
<path d="M3.05811 67.7731V65.2928H3.57513V66.2383H4.55058V65.2928H5.06907V67.7731H4.55058V66.666H3.57513V67.7731H3.05811Z" fill="#004275"/>
<path d="M7.48996 67.5519C7.30102 67.7454 7.0286 67.8414 6.67123 67.8414C6.31385 67.8414 6.04143 67.7454 5.85249 67.5519C5.5991 67.3148 5.47314 66.9744 5.47314 66.5278C5.47314 66.0812 5.5991 65.7321 5.85249 65.5037C6.04143 65.3102 6.31385 65.2142 6.67123 65.2142C7.0286 65.2142 7.30102 65.3102 7.48996 65.5037C7.74188 65.7321 7.86784 66.0725 7.86784 66.5278C7.86784 66.9831 7.74188 67.3148 7.48996 67.5519ZM7.34496 66.5293C7.34496 66.2514 7.28491 66.0361 7.16335 65.8834C7.04178 65.7321 6.87774 65.655 6.67123 65.655C6.46471 65.655 6.29921 65.7307 6.17617 65.8819C6.05314 66.0332 5.99163 66.2485 5.99163 66.5278C5.99163 66.8071 6.05314 67.0224 6.17617 67.1737C6.29921 67.325 6.46471 67.4006 6.67123 67.4006C6.87774 67.4006 7.04178 67.325 7.16335 67.1737C7.28491 67.0224 7.34496 66.8071 7.34496 66.5278V66.5293Z" fill="#004275"/>
<path d="M8.643 67.0064C8.65911 67.1199 8.68987 67.2043 8.73674 67.261C8.82169 67.3628 8.96669 67.4138 9.17174 67.4138C9.29477 67.4138 9.39436 67.4007 9.47199 67.373C9.61699 67.3221 9.69022 67.2261 9.69022 67.085C9.69022 67.0035 9.65361 66.9395 9.58184 66.8944C9.51007 66.8508 9.39583 66.8115 9.24204 66.778L8.9784 66.7184C8.71916 66.6602 8.53901 66.5962 8.43941 66.5278C8.27098 66.4129 8.18749 66.234 8.18749 65.9911C8.18749 65.7685 8.26951 65.5837 8.43209 65.4368C8.59467 65.2899 8.8334 65.2157 9.1483 65.2157C9.41194 65.2157 9.63603 65.2855 9.82204 65.4237C10.008 65.5619 10.1047 65.7641 10.1135 66.0274H9.6126C9.60381 65.8776 9.5379 65.7729 9.41633 65.7088C9.33431 65.6667 9.23325 65.6463 9.11315 65.6463C8.9784 65.6463 8.87148 65.6739 8.79093 65.7278C8.71037 65.7816 8.67083 65.8572 8.67083 65.9532C8.67083 66.042 8.71037 66.1074 8.78946 66.1525C8.84073 66.1816 8.94911 66.2165 9.11462 66.2558L9.54522 66.3591C9.73416 66.4042 9.87623 66.4638 9.97143 66.5395C10.1208 66.6559 10.1955 66.8246 10.1955 67.0457C10.1955 67.2668 10.1076 67.4603 9.93335 67.6101C9.75906 67.76 9.513 67.8342 9.19371 67.8342C8.87441 67.8342 8.61224 67.76 8.42623 67.613C8.24022 67.4661 8.14648 67.2625 8.14648 67.005H8.64446L8.643 67.0064Z" fill="#004275"/>
<path d="M12.3938 65.2913V65.7306H11.6468V67.773H11.121V65.7306H10.3711V65.2913H12.3938Z" fill="#004275"/>
<path d="M14.5452 65.7306H13.2241V66.2572H14.4368V66.6878H13.2241V67.325H14.6067V67.7716H12.7144V65.2913H14.5452V65.7306Z" fill="#004275"/>
<path d="M16.4744 65.3451C16.6487 65.4019 16.7908 65.5066 16.8992 65.6593C16.9856 65.783 17.0456 65.9168 17.0764 66.0594C17.1071 66.202 17.1233 66.3401 17.1233 66.4696C17.1233 66.7998 17.0559 67.0791 16.9241 67.3075C16.7439 67.6159 16.4642 67.7701 16.0877 67.7701H15.0127V65.2899H16.0877C16.243 65.2928 16.3719 65.3102 16.4744 65.3437V65.3451ZM15.5195 65.7219V67.341H15.9999C16.2459 67.341 16.4173 67.2202 16.5154 66.9788C16.5682 66.8464 16.5945 66.6893 16.5945 66.506C16.5945 66.2529 16.555 66.0594 16.4759 65.9241C16.3968 65.7888 16.2386 65.7219 16.0013 65.7219H15.5209H15.5195Z" fill="#004275"/>
<path d="M20.3528 65.5561C20.4289 65.6608 20.4685 65.7874 20.4685 65.9343C20.4685 66.0812 20.4304 66.2078 20.3528 66.2994C20.3103 66.3503 20.2459 66.3984 20.1624 66.4405C20.2898 66.4871 20.3865 66.5598 20.4509 66.6587C20.5154 66.7577 20.549 66.8799 20.549 67.0224C20.549 67.165 20.5124 67.3017 20.4377 67.4181C20.3909 67.4952 20.3308 67.5607 20.2605 67.613C20.1799 67.6741 20.0862 67.7149 19.9764 67.7381C19.868 67.7599 19.7493 67.7716 19.6219 67.7716H18.4897V65.2913H19.7025C20.0086 65.2957 20.2254 65.3844 20.3528 65.5561ZM18.9877 65.7219V66.2689H19.6014C19.7113 66.2689 19.7991 66.2485 19.868 66.2078C19.9368 66.1671 19.9705 66.0943 19.9705 65.9896C19.9705 65.8747 19.9251 65.7976 19.8343 65.7612C19.7567 65.735 19.6571 65.7219 19.5355 65.7219H18.9863H18.9877ZM18.9877 66.6806V67.3424H19.6014C19.7113 67.3424 19.7962 67.3279 19.8577 67.2988C19.969 67.245 20.0232 67.1417 20.0232 66.989C20.0232 66.8595 19.969 66.7708 19.8621 66.7228C19.8021 66.6951 19.7186 66.682 19.6102 66.6806H18.9892H18.9877Z" fill="#004275"/>
<path d="M22.4119 65.2913H23.0036L22.1688 66.8391V67.7716H21.6473V66.8391L20.7832 65.2913H21.3984L21.9168 66.3722L22.4134 65.2913H22.4119Z" fill="#004275"/>
<path d="M3.15771 69.0503H3.83585V70.4003L5.11009 69.0503H6.00059L4.64873 70.4003L6.0709 72.3292H5.18479L4.16539 70.8963L3.83585 71.2323V72.3292H3.15771V69.0503Z" fill="#004275"/>
<path d="M7.40219 70.8541C7.52083 70.8396 7.60431 70.8207 7.65558 70.7988C7.74638 70.761 7.79179 70.6999 7.79179 70.6185C7.79179 70.5195 7.75664 70.4497 7.6878 70.4119C7.61896 70.3741 7.51643 70.3552 7.38169 70.3552C7.23083 70.3552 7.12391 70.3915 7.06093 70.4657C7.01553 70.521 6.98623 70.5952 6.97159 70.6883H6.35643C6.36962 70.4759 6.42967 70.3013 6.53512 70.166C6.70356 69.9522 6.99356 69.846 7.40366 69.846C7.67022 69.846 7.90749 69.8984 8.11547 70.0046C8.32345 70.1093 8.42598 70.3086 8.42598 70.601V71.7138C8.42598 71.7909 8.42744 71.884 8.43037 71.9946C8.43477 72.0775 8.44795 72.1343 8.46845 72.1633C8.48896 72.1924 8.52118 72.2172 8.56219 72.2361V72.3292H7.86795C7.84891 72.2797 7.83573 72.2346 7.82694 72.191C7.81815 72.1473 7.81376 72.0993 7.80936 72.0441C7.72148 72.1386 7.62042 72.2201 7.50472 72.287C7.36704 72.3655 7.21179 72.4048 7.03896 72.4048C6.8178 72.4048 6.63618 72.3423 6.49118 72.2172C6.34765 72.0921 6.27441 71.9146 6.27441 71.6847C6.27441 71.3865 6.39012 71.1712 6.62154 71.0374C6.74896 70.9647 6.93497 70.9123 7.18103 70.8818L7.3978 70.8556L7.40219 70.8541ZM7.79032 71.1509C7.75078 71.1756 7.70977 71.196 7.66876 71.212C7.62775 71.228 7.57209 71.2425 7.50032 71.2556L7.35679 71.2818C7.22204 71.3051 7.12684 71.3342 7.06825 71.3691C6.97012 71.4273 6.92032 71.516 6.92032 71.6382C6.92032 71.7458 6.95108 71.8244 7.01113 71.8724C7.07118 71.9204 7.14441 71.9451 7.23083 71.9451C7.3685 71.9451 7.49446 71.9044 7.60871 71.8244C7.72441 71.7444 7.78446 71.5975 7.78886 71.3865V71.1509H7.79032Z" fill="#004275"/>
<path d="M8.89208 70.4206V69.9042H10.8708V70.4308L9.63319 71.8084H10.9133V72.3292H8.80566V71.8346L10.0579 70.4191H8.89061L8.89208 70.4206Z" fill="#004275"/>
<path d="M12.3192 70.8541C12.4378 70.8396 12.5213 70.8207 12.5726 70.7988C12.6634 70.761 12.7088 70.6999 12.7088 70.6185C12.7088 70.5195 12.6736 70.4497 12.6048 70.4119C12.536 70.3741 12.4334 70.3552 12.2987 70.3552C12.1478 70.3552 12.0409 70.3915 11.9779 70.4657C11.9325 70.521 11.9032 70.5952 11.8886 70.6883H11.2734C11.2866 70.4759 11.3467 70.3013 11.4521 70.166C11.6205 69.9522 11.9105 69.846 12.3206 69.846C12.5872 69.846 12.8245 69.8984 13.0325 70.0046C13.2404 70.1093 13.343 70.3086 13.343 70.601V71.7138C13.343 71.7909 13.3444 71.884 13.3474 71.9946C13.3518 72.0775 13.3649 72.1343 13.3854 72.1633C13.406 72.1924 13.4382 72.2172 13.4792 72.2361V72.3292H12.7849C12.7659 72.2797 12.7527 72.2346 12.7439 72.191C12.7351 72.1473 12.7307 72.0993 12.7264 72.0441C12.6385 72.1386 12.5374 72.2201 12.4217 72.287C12.284 72.3655 12.1288 72.4048 11.956 72.4048C11.7348 72.4048 11.5532 72.3423 11.4082 72.2172C11.2646 72.0921 11.1914 71.9146 11.1914 71.6847C11.1914 71.3865 11.3071 71.1712 11.5385 71.0374C11.666 70.9647 11.852 70.9123 12.098 70.8818L12.3148 70.8556L12.3192 70.8541ZM12.7059 71.1509C12.6663 71.1756 12.6253 71.196 12.5843 71.212C12.5433 71.228 12.4876 71.2425 12.4158 71.2556L12.2723 71.2818C12.1376 71.3051 12.0424 71.3342 11.9838 71.3691C11.8856 71.4273 11.8358 71.516 11.8358 71.6382C11.8358 71.7458 11.8666 71.8244 11.9267 71.8724C11.9867 71.9204 12.0599 71.9451 12.1464 71.9451C12.284 71.9451 12.41 71.9044 12.5242 71.8244C12.6399 71.7444 12.7 71.5975 12.7044 71.3865V71.1509H12.7059Z" fill="#004275"/>
<path d="M13.9404 69.0605H14.5673V70.8265L15.3626 69.9144H16.1535L15.3011 70.8425L16.1872 72.3292H15.4168L14.8324 71.292L14.5688 71.5654V72.3292H13.9419V69.0605H13.9404Z" fill="#004275"/>
<path d="M18.5949 70.1573C18.6623 70.2475 18.7033 70.3406 18.718 70.4366C18.7326 70.5326 18.7399 70.6883 18.7399 70.905V72.3292H18.0882V70.8541C18.0882 70.7232 18.0662 70.6184 18.0208 70.5384C17.9622 70.425 17.8524 70.3697 17.6898 70.3697C17.5272 70.3697 17.3925 70.425 17.306 70.537C17.2182 70.649 17.1757 70.809 17.1757 71.017V72.3292H16.54V69.0605H17.1757V70.2199C17.268 70.0787 17.3749 69.9813 17.4965 69.9245C17.618 69.8693 17.7454 69.8416 17.8802 69.8416C18.031 69.8416 18.1673 69.8678 18.2918 69.9202C18.4148 69.9726 18.5158 70.0511 18.5949 70.1588V70.1573Z" fill="#004275"/>
<path d="M19.8695 71.5553C19.8827 71.6673 19.912 71.7487 19.9574 71.7953C20.0365 71.8797 20.183 71.9218 20.3968 71.9218C20.5228 71.9218 20.6224 71.9029 20.6956 71.8666C20.7688 71.8302 20.8069 71.7735 20.8069 71.6993C20.8069 71.6251 20.7776 71.5742 20.7176 71.5363C20.6575 71.4985 20.4364 71.436 20.0526 71.3443C19.7758 71.276 19.581 71.1916 19.4682 71.0883C19.3554 70.9879 19.2983 70.8424 19.2983 70.6519C19.2983 70.4279 19.3862 70.2358 19.5634 70.0744C19.7407 69.9129 19.9896 69.8329 20.3104 69.8329C20.6312 69.8329 20.8626 69.894 21.0544 70.0147C21.2463 70.1355 21.3562 70.3449 21.3854 70.6417H20.7469C20.7381 70.5602 20.7146 70.4962 20.678 70.4482C20.6077 70.3624 20.4891 70.3188 20.3192 70.3188C20.18 70.3188 20.0819 70.3406 20.0219 70.3828C19.9633 70.4264 19.934 70.4759 19.934 70.5341C19.934 70.6068 19.9647 70.6592 20.0277 70.6926C20.0907 70.7275 20.3119 70.7857 20.6912 70.8686C20.9446 70.9283 21.135 71.017 21.261 71.1378C21.3855 71.2599 21.4484 71.4112 21.4484 71.5931C21.4484 71.8331 21.3591 72.0295 21.1789 72.1822C20.9988 72.3335 20.722 72.4106 20.3456 72.4106C19.9691 72.4106 19.6791 72.3306 19.4961 72.1691C19.313 72.0077 19.2222 71.8026 19.2222 71.5538H19.8695V71.5553Z" fill="#004275"/>
<path d="M21.709 70.3784V69.9275H22.0488V69.251H22.68V69.9275H23.077V70.3784H22.68V71.66C22.68 71.7589 22.6932 71.8215 22.7181 71.8462C22.743 71.871 22.8207 71.8826 22.951 71.8826C22.97 71.8826 22.9905 71.8826 23.0125 71.8826C23.0345 71.8826 23.055 71.8811 23.077 71.8797V72.3539L22.7752 72.3656C22.4735 72.3757 22.267 72.3234 22.1572 72.2099C22.0854 72.1372 22.0502 72.0252 22.0502 71.8739V70.3813H21.7104L21.709 70.3784Z" fill="#004275"/>
<path d="M24.4818 70.8541C24.6004 70.8396 24.6839 70.8207 24.7352 70.7988C24.826 70.761 24.8714 70.6999 24.8714 70.6185C24.8714 70.5195 24.8362 70.4497 24.7674 70.4119C24.6986 70.3741 24.596 70.3552 24.4613 70.3552C24.3104 70.3552 24.2035 70.3915 24.1405 70.4657C24.0951 70.521 24.0658 70.5952 24.0512 70.6883H23.436C23.4492 70.4759 23.5093 70.3013 23.6147 70.166C23.7831 69.9522 24.0731 69.846 24.4832 69.846C24.7498 69.846 24.9871 69.8984 25.1951 70.0046C25.403 70.1093 25.5056 70.3086 25.5056 70.601V71.7138C25.5056 71.7909 25.507 71.884 25.51 71.9946C25.5144 72.0775 25.5275 72.1343 25.548 72.1633C25.5685 72.1924 25.6008 72.2172 25.6418 72.2361V72.3292H24.9475C24.9285 72.2797 24.9153 72.2346 24.9065 72.191C24.8977 72.1473 24.8933 72.0993 24.889 72.0441C24.8011 72.1386 24.7 72.2201 24.5843 72.287C24.4466 72.3655 24.2914 72.4048 24.1185 72.4048C23.8974 72.4048 23.7158 72.3423 23.5708 72.2172C23.4272 72.0921 23.354 71.9146 23.354 71.6847C23.354 71.3865 23.4697 71.1712 23.7011 71.0374C23.8286 70.9647 24.0146 70.9123 24.2606 70.8818L24.4774 70.8556L24.4818 70.8541ZM24.8699 71.1509C24.8304 71.1756 24.7894 71.196 24.7483 71.212C24.7073 71.228 24.6517 71.2425 24.5799 71.2556L24.4364 71.2818C24.3016 71.3051 24.2064 71.3342 24.1478 71.3691C24.0497 71.4273 23.9999 71.516 23.9999 71.6382C23.9999 71.7458 24.0307 71.8244 24.0907 71.8724C24.1508 71.9204 24.224 71.9451 24.3104 71.9451C24.4481 71.9451 24.5741 71.9044 24.6883 71.8244C24.804 71.7444 24.8641 71.5975 24.8684 71.3865V71.1509H24.8699Z" fill="#004275"/>
<path d="M28.3234 70.697V72.3306H27.6702V70.8555C27.6702 70.7275 27.6526 70.6301 27.6189 70.5617C27.556 70.4366 27.4373 70.3755 27.2601 70.3755C27.0433 70.3755 26.8954 70.4671 26.8148 70.649C26.7724 70.745 26.7519 70.8686 26.7519 71.0185V72.3306H26.1162V69.91H26.7314V70.2635C26.8134 70.1384 26.891 70.0496 26.9642 69.9944C27.0961 69.8969 27.2616 69.8474 27.4637 69.8474C27.7156 69.8474 27.9221 69.9129 28.0832 70.0438C28.2443 70.1748 28.3234 70.393 28.3234 70.697Z" fill="#004275"/>
<path d="M30.6318 69.3921C30.8998 69.1216 31.2425 68.9877 31.657 68.9877C32.2121 68.9877 32.6178 69.1681 32.8756 69.5303C33.0177 69.734 33.0938 69.9377 33.1041 70.1428H32.4142C32.3688 69.9857 32.3117 69.8664 32.2414 69.7864C32.1155 69.6438 31.9309 69.5725 31.6834 69.5725C31.4359 69.5725 31.2352 69.6729 31.0902 69.8736C30.9452 70.0744 30.8734 70.3595 30.8734 70.7276C30.8734 71.0956 30.9496 71.3705 31.1034 71.5538C31.2557 71.7371 31.4505 71.8288 31.6863 71.8288C31.9221 71.8288 32.1125 71.7502 32.24 71.5931C32.3103 71.5087 32.3688 71.3822 32.4142 71.212H33.0968C33.0367 71.5698 32.8844 71.8608 32.6383 72.0848C32.3923 72.3088 32.0788 72.4208 31.6951 72.4208C31.2206 72.4208 30.8471 72.2695 30.5761 71.967C30.3052 71.6629 30.1689 71.2454 30.1689 70.7159C30.1689 70.1428 30.3227 69.702 30.6318 69.3921Z" fill="#004275"/>
<path d="M34.7049 72.4135C34.286 72.4135 33.9726 72.287 33.7661 72.0338C33.5596 71.7807 33.457 71.4767 33.457 71.1203C33.457 70.7639 33.5596 70.4671 33.7661 70.2097C33.9726 69.9536 34.2846 69.8242 34.7049 69.8242C35.1253 69.8242 35.4372 69.9522 35.6437 70.2097C35.8503 70.4657 35.9528 70.7697 35.9528 71.1203C35.9528 71.4709 35.8503 71.7807 35.6437 72.0338C35.4372 72.287 35.1253 72.4135 34.7049 72.4135ZM35.2834 71.1218C35.2834 70.8788 35.2336 70.6912 35.1341 70.5602C35.0345 70.4293 34.8909 70.3639 34.7034 70.3639C34.516 70.3639 34.3739 70.4293 34.2728 70.5602C34.1718 70.6912 34.122 70.8788 34.122 71.1218C34.122 71.3647 34.1718 71.5523 34.2728 71.6847C34.3739 71.8171 34.5174 71.8826 34.7034 71.8826C34.8895 71.8826 35.033 71.8171 35.1341 71.6847C35.2336 71.5523 35.2834 71.3647 35.2834 71.1218Z" fill="#004275"/>
<path d="M39.7754 70.1311C39.8443 70.2155 39.8897 70.3188 39.9146 70.4424C39.9292 70.5239 39.9365 70.6432 39.9365 70.8003L39.9321 72.3292H39.2789V70.7843C39.2789 70.6926 39.2643 70.617 39.2335 70.5573C39.1764 70.4439 39.0724 70.3886 38.9201 70.3886C38.7443 70.3886 38.6228 70.4613 38.5554 70.6068C38.5217 70.6839 38.5041 70.777 38.5041 70.8846V72.3292H37.8611V70.8846C37.8611 70.7406 37.8465 70.6359 37.8157 70.5704C37.7615 70.4526 37.6561 70.3944 37.4994 70.3944C37.3178 70.3944 37.1947 70.4526 37.1317 70.5704C37.0981 70.6373 37.0805 70.7363 37.0805 70.8686V72.3277H36.4331V69.9071H37.0527V70.2606C37.1317 70.134 37.2064 70.0453 37.2767 69.9915C37.4012 69.8969 37.5609 69.8489 37.7586 69.8489C37.9446 69.8489 38.0955 69.8896 38.2112 69.9711C38.3035 70.0467 38.3738 70.1442 38.4221 70.262C38.5056 70.1195 38.6096 70.0147 38.7326 69.9478C38.8644 69.8809 39.0109 69.8474 39.172 69.8474C39.2789 69.8474 39.3858 69.8678 39.4898 69.91C39.5938 69.9522 39.689 70.0249 39.774 70.1282L39.7754 70.1311Z" fill="#004275"/>
<path d="M42.8996 71.0854C42.8996 71.5131 42.8029 71.8375 42.6096 72.0615C42.4163 72.2855 42.1673 72.3975 41.8626 72.3975C41.6678 72.3975 41.5067 72.3495 41.3793 72.2521C41.309 72.1982 41.2401 72.1212 41.1728 72.0179V73.282H40.5415V69.9027H41.1523V70.2606C41.2211 70.1558 41.2943 70.0729 41.372 70.0118C41.514 69.9027 41.6825 69.8489 41.8787 69.8489C42.1643 69.8489 42.406 69.9536 42.6037 70.1631C42.8015 70.3726 42.9011 70.6795 42.9011 71.0839L42.8996 71.0854ZM41.6956 70.4046C41.4642 70.4046 41.3046 70.5137 41.2182 70.7319C41.1728 70.8483 41.1508 70.9952 41.1508 71.1727C41.1508 71.4549 41.2255 71.6527 41.3764 71.7662C41.4657 71.8331 41.5726 71.8666 41.6942 71.8666C41.8714 71.8666 42.0076 71.7982 42.0999 71.6615C42.1936 71.5247 42.2405 71.3429 42.2405 71.116C42.2405 70.9283 42.198 70.7639 42.1116 70.6199C42.0252 70.4759 41.8861 70.4046 41.6942 70.4046H41.6956Z" fill="#004275"/>
<path d="M45.3117 70.3115C45.4069 70.4555 45.4699 70.6228 45.4977 70.8119C45.5139 70.9225 45.5212 71.0839 45.5182 71.292H43.8485C43.8573 71.5349 43.935 71.7066 44.0785 71.804C44.1664 71.8651 44.2718 71.8957 44.3963 71.8957C44.5281 71.8957 44.6351 71.8593 44.7171 71.7851C44.7625 71.7444 44.802 71.6891 44.8357 71.6178H45.4875C45.4714 71.7618 45.3952 71.9073 45.2619 72.0557C45.0525 72.2913 44.761 72.4092 44.3846 72.4092C44.0741 72.4092 43.8002 72.3103 43.5629 72.111C43.3257 71.9117 43.207 71.5887 43.207 71.1407C43.207 70.7217 43.314 70.3988 43.5278 70.1748C43.7416 69.9507 44.0199 69.8387 44.3612 69.8387C44.5648 69.8387 44.7464 69.8765 44.9104 69.9522C45.073 70.0278 45.2077 70.1471 45.3132 70.31L45.3117 70.3115ZM43.8632 70.8745H44.8548C44.8445 70.7072 44.7932 70.5792 44.701 70.4933C44.6087 70.406 44.4959 70.3639 44.3597 70.3639C44.2118 70.3639 44.0975 70.4104 44.0155 70.5021C43.9335 70.5937 43.8837 70.7188 43.8617 70.8759L43.8632 70.8745Z" fill="#004275"/>
<path d="M45.7334 70.3784V69.9275H46.0732V69.251H46.7045V69.9275H47.1014V70.3784H46.7045V71.66C46.7045 71.7589 46.7176 71.8215 46.7425 71.8462C46.7674 71.871 46.8451 71.8826 46.9754 71.8826C46.9945 71.8826 47.015 71.8826 47.0369 71.8826C47.0589 71.8826 47.0794 71.8811 47.1014 71.8797V72.3539L46.7997 72.3656C46.4979 72.3757 46.2914 72.3234 46.1816 72.2099C46.1098 72.1372 46.0747 72.0252 46.0747 71.8739V70.3813H45.7349L45.7334 70.3784Z" fill="#004275"/>
<path d="M47.8779 69.6016C47.8237 69.6016 47.7739 69.5943 47.7285 69.5812C47.6831 69.5682 47.6435 69.5492 47.6099 69.526C47.5762 69.5027 47.5498 69.4736 47.5308 69.4416C47.5117 69.4096 47.5029 69.3732 47.5029 69.3354C47.5029 69.2932 47.5132 69.2554 47.5322 69.219C47.5513 69.1841 47.5776 69.1521 47.6113 69.1274C47.645 69.1012 47.6845 69.0808 47.73 69.0663C47.7754 69.0517 47.8237 69.0445 47.8764 69.0445C47.9291 69.0445 47.9804 69.0517 48.0273 69.0663C48.0741 69.0808 48.1152 69.1012 48.1488 69.1274C48.1825 69.1536 48.2089 69.1841 48.2279 69.219C48.247 69.2554 48.2572 69.2932 48.2572 69.3354C48.2572 69.3732 48.2484 69.4096 48.2294 69.4416C48.2104 69.4736 48.184 69.5027 48.1503 69.526C48.1166 69.5492 48.0771 69.5682 48.0287 69.5812C47.9819 69.5943 47.9306 69.6016 47.875 69.6016H47.8779ZM47.5571 69.9042H48.2045V72.3292H47.5571V69.9042Z" fill="#004275"/>
<path d="M48.6089 70.3784V69.9275H48.9487V69.251H49.5799V69.9275H49.9769V70.3784H49.5799V71.66C49.5799 71.7589 49.5931 71.8215 49.618 71.8462C49.6429 71.871 49.7206 71.8826 49.8509 71.8826C49.8699 71.8826 49.8905 71.8826 49.9124 71.8826C49.9344 71.8826 49.9549 71.8811 49.9769 71.8797V72.3539L49.6751 72.3656C49.3734 72.3757 49.1669 72.3234 49.0571 72.2099C48.9853 72.1372 48.9501 72.0252 48.9501 71.8739V70.3813H48.6104L48.6089 70.3784Z" fill="#004275"/>
<path d="M50.7529 69.6016C50.6987 69.6016 50.6489 69.5943 50.6035 69.5812C50.5581 69.5682 50.5185 69.5492 50.4849 69.526C50.4512 69.5027 50.4248 69.4736 50.4058 69.4416C50.3867 69.4096 50.3779 69.3732 50.3779 69.3354C50.3779 69.2932 50.3882 69.2554 50.4072 69.219C50.4263 69.1841 50.4526 69.1521 50.4863 69.1274C50.52 69.1012 50.5595 69.0808 50.605 69.0663C50.6504 69.0517 50.6987 69.0445 50.7514 69.0445C50.8041 69.0445 50.8554 69.0517 50.9023 69.0663C50.9491 69.0808 50.9902 69.1012 51.0238 69.1274C51.0575 69.1536 51.0839 69.1841 51.1029 69.219C51.122 69.2554 51.1322 69.2932 51.1322 69.3354C51.1322 69.3732 51.1234 69.4096 51.1044 69.4416C51.0854 69.4736 51.059 69.5027 51.0253 69.526C50.9916 69.5492 50.9521 69.5682 50.9037 69.5812C50.8569 69.5943 50.8056 69.6016 50.75 69.6016H50.7529ZM50.4321 69.9042H51.0795V72.3292H50.4321V69.9042Z" fill="#004275"/>
<path d="M53.2385 69.9042H53.924L53.0437 72.3292H52.37L51.4941 69.9042H52.2104L52.7186 71.6935L53.2385 69.9042Z" fill="#004275"/>
<path d="M56.2351 70.3115C56.3303 70.4555 56.3933 70.6228 56.4211 70.8119C56.4372 70.9225 56.4445 71.0839 56.4416 71.292H54.7719C54.7807 71.5349 54.8583 71.7066 55.0018 71.804C55.0897 71.8651 55.1952 71.8957 55.3197 71.8957C55.4515 71.8957 55.5584 71.8593 55.6404 71.7851C55.6858 71.7444 55.7254 71.6891 55.7591 71.6178H56.4108C56.3947 71.7618 56.3186 71.9073 56.1853 72.0557C55.9758 72.2913 55.6844 72.4092 55.3079 72.4092C54.9974 72.4092 54.7236 72.3103 54.4863 72.111C54.249 71.9117 54.1304 71.5887 54.1304 71.1407C54.1304 70.7217 54.2373 70.3988 54.4511 70.1748C54.665 69.9507 54.9433 69.8387 55.2845 69.8387C55.4881 69.8387 55.6697 69.8765 55.8338 69.9522C55.9963 70.0278 56.1311 70.1471 56.2365 70.31L56.2351 70.3115ZM54.7865 70.8745H55.7781C55.7678 70.7072 55.7166 70.5792 55.6243 70.4933C55.532 70.406 55.4193 70.3639 55.2831 70.3639C55.1351 70.3639 55.0209 70.4104 54.9389 70.5021C54.8568 70.5937 54.807 70.7188 54.7851 70.8759L54.7865 70.8745Z" fill="#004275"/>
<path d="M59.6727 71.1509H58.9711V72.3306H58.2856V69.0517H59.7225C60.0535 69.0517 60.3186 69.1361 60.5148 69.3048C60.7126 69.4736 60.8107 69.7354 60.8107 70.0904C60.8107 70.4773 60.7126 70.7508 60.5148 70.9108C60.3171 71.0709 60.0359 71.1509 59.6712 71.1509H59.6727ZM59.6141 69.6191H58.9711V70.585H59.6141C59.7767 70.585 59.9026 70.5457 59.9934 70.4672C60.0842 70.3886 60.1296 70.2635 60.1296 70.0933C60.1296 69.9231 60.0842 69.8009 59.9934 69.7282C59.9026 69.6554 59.7767 69.6191 59.6141 69.6191Z" fill="#004275"/>
<path d="M62.7249 69.8504V70.5006C62.6839 70.4962 62.6487 70.4933 62.618 70.4919C62.5872 70.4919 62.5609 70.489 62.5418 70.489C62.2855 70.489 62.1127 70.5719 62.0248 70.7377C61.975 70.8308 61.9516 70.9748 61.9516 71.1698V72.3292H61.3086V69.9042H61.9179V70.3275C62.016 70.166 62.1024 70.0555 62.1757 69.9958C62.2958 69.8969 62.451 69.8474 62.6414 69.8474C62.6531 69.8474 62.6634 69.8474 62.6722 69.8474C62.681 69.8474 62.6985 69.8489 62.7278 69.8504H62.7249Z" fill="#004275"/>
<path d="M64.2337 72.4135C63.8148 72.4135 63.5014 72.287 63.2949 72.0338C63.0884 71.7807 62.9858 71.4767 62.9858 71.1203C62.9858 70.7639 63.0884 70.4671 63.2949 70.2097C63.5014 69.9536 63.8134 69.8242 64.2337 69.8242C64.6541 69.8242 64.966 69.9522 65.1726 70.2097C65.3791 70.4657 65.4816 70.7697 65.4816 71.1203C65.4816 71.4709 65.3791 71.7807 65.1726 72.0338C64.966 72.287 64.6541 72.4135 64.2337 72.4135ZM64.8108 71.1218C64.8108 70.8788 64.761 70.6912 64.6614 70.5602C64.5618 70.4293 64.4183 70.3639 64.2308 70.3639C64.0433 70.3639 63.9012 70.4293 63.8002 70.5602C63.6991 70.6912 63.6493 70.8788 63.6493 71.1218C63.6493 71.3647 63.6991 71.5523 63.8002 71.6847C63.9012 71.8171 64.0448 71.8826 64.2308 71.8826C64.4168 71.8826 64.5603 71.8171 64.6614 71.6847C64.7625 71.5523 64.8108 71.3647 64.8108 71.1218Z" fill="#004275"/>
<path d="M67.1834 69.9013C67.3387 69.9653 67.4646 70.0817 67.5598 70.2533V69.9042H68.1794V72.2055C68.1794 72.5183 68.1266 72.7539 68.0212 72.9125C67.8396 73.186 67.4895 73.3213 66.9725 73.3213C66.6605 73.3213 66.4057 73.2602 66.2094 73.1394C66.0132 73.0187 65.9033 72.8369 65.8828 72.5939H66.577C66.5946 72.6681 66.6239 72.7219 66.6649 72.7539C66.7338 72.8121 66.8495 72.8412 67.012 72.8412C67.242 72.8412 67.3958 72.7641 67.4734 72.6114C67.5247 72.5139 67.5496 72.3495 67.5496 72.1168V71.9611C67.4881 72.0644 67.4221 72.143 67.3518 72.1953C67.2244 72.2914 67.0604 72.3394 66.8568 72.3394C66.5434 72.3394 66.2929 72.2303 66.1054 72.0106C65.918 71.7909 65.8242 71.4956 65.8242 71.1218C65.8242 70.7479 65.915 70.4584 66.0952 70.2126C66.2753 69.9667 66.5316 69.8445 66.8627 69.8445C66.9857 69.8445 67.0911 69.8635 67.1834 69.8998V69.9013ZM67.554 71.1058C67.554 70.8759 67.5056 70.7014 67.4075 70.5806C67.3094 70.4599 67.179 70.4002 67.015 70.4002C66.7909 70.4002 66.6371 70.505 66.5507 70.7145C66.5053 70.825 66.4833 70.9632 66.4833 71.1261C66.4833 71.2672 66.5067 71.3923 66.5551 71.5014C66.6415 71.7066 66.7967 71.8084 67.0208 71.8084C67.1702 71.8084 67.2962 71.7531 67.3987 71.6411C67.5012 71.5291 67.554 71.3502 67.554 71.1058Z" fill="#004275"/>
<path d="M70.2225 69.8504V70.5006C70.1815 70.4962 70.1463 70.4933 70.1155 70.4919C70.0848 70.4919 70.0584 70.489 70.0394 70.489C69.7831 70.489 69.6102 70.5719 69.5224 70.7377C69.4726 70.8308 69.4491 70.9748 69.4491 71.1698V72.3292H68.8062V69.9042H69.4154V70.3275C69.5136 70.166 69.6 70.0555 69.6732 69.9958C69.7933 69.8969 69.9486 69.8474 70.139 69.8474C70.1507 69.8474 70.161 69.8474 70.1697 69.8474C70.1785 69.8474 70.1961 69.8489 70.2254 69.8504H70.2225Z" fill="#004275"/>
<path d="M71.5907 70.8541C71.7093 70.8396 71.7928 70.8207 71.8441 70.7988C71.9349 70.761 71.9803 70.6999 71.9803 70.6185C71.9803 70.5195 71.9451 70.4497 71.8763 70.4119C71.8074 70.3741 71.7049 70.3552 71.5702 70.3552C71.4193 70.3552 71.3124 70.3915 71.2494 70.4657C71.204 70.521 71.1747 70.5952 71.1601 70.6883H70.5449C70.5581 70.4759 70.6181 70.3013 70.7236 70.166C70.892 69.9522 71.182 69.846 71.5921 69.846C71.8587 69.846 72.0974 69.8984 72.304 70.0046C72.5119 70.1093 72.6159 70.3086 72.6159 70.601V71.7138C72.6159 71.7909 72.6159 71.884 72.6203 71.9946C72.6247 72.0775 72.6379 72.1343 72.6584 72.1633C72.6789 72.1924 72.7111 72.2172 72.7521 72.2361V72.3292H72.0579C72.0389 72.2797 72.0257 72.2346 72.0183 72.191C72.011 72.1473 72.0052 72.0993 72.0008 72.0441C71.9129 72.1386 71.8118 72.2201 71.6961 72.287C71.5584 72.3655 71.4032 72.4048 71.2304 72.4048C71.0092 72.4048 70.8276 72.3423 70.6826 72.2172C70.5376 72.0921 70.4673 71.9146 70.4673 71.6847C70.4673 71.3865 70.583 71.1712 70.8144 71.0374C70.9418 70.9647 71.1278 70.9123 71.3739 70.8818L71.5907 70.8556V70.8541ZM71.9788 71.1509C71.9393 71.1756 71.8982 71.196 71.8572 71.212C71.8162 71.228 71.7606 71.2425 71.6888 71.2556L71.5453 71.2818C71.4105 71.3051 71.3153 71.3342 71.2567 71.3691C71.1586 71.4273 71.1088 71.516 71.1088 71.6382C71.1088 71.7458 71.1396 71.8244 71.1996 71.8724C71.2597 71.9204 71.3329 71.9451 71.4193 71.9451C71.557 71.9451 71.6829 71.9044 71.7972 71.8244C71.9129 71.7444 71.9729 71.5975 71.9773 71.3865V71.1509H71.9788Z" fill="#004275"/>
<path d="M76.5498 70.1311C76.6187 70.2155 76.6655 70.3188 76.689 70.4424C76.7036 70.5239 76.711 70.6432 76.711 70.8003L76.7066 72.3292H76.0533V70.7843C76.0533 70.6926 76.0387 70.617 76.0079 70.5573C75.9508 70.4439 75.8468 70.3886 75.6945 70.3886C75.5187 70.3886 75.3972 70.4613 75.3298 70.6068C75.2961 70.6839 75.2785 70.777 75.2785 70.8846V72.3292H74.6355V70.8846C74.6355 70.7406 74.6209 70.6359 74.5901 70.5704C74.536 70.4526 74.432 70.3944 74.2738 70.3944C74.0922 70.3944 73.9691 70.4526 73.9062 70.5704C73.8725 70.6373 73.8549 70.7363 73.8549 70.8686V72.3277H73.2075V69.9071H73.8271V70.2606C73.9062 70.134 73.9809 70.0453 74.0512 69.9915C74.1757 69.8969 74.3353 69.8489 74.533 69.8489C74.719 69.8489 74.8699 69.8896 74.9856 69.9711C75.0779 70.0467 75.1482 70.1442 75.1965 70.262C75.28 70.1195 75.384 70.0147 75.507 69.9478C75.6388 69.8809 75.7853 69.8474 75.9464 69.8474C76.0533 69.8474 76.1603 69.8678 76.2642 69.91C76.3682 69.9522 76.4634 70.0249 76.5484 70.1282L76.5498 70.1311Z" fill="#004275"/>
<path d="M80.6641 70.1311C80.7329 70.2155 80.7798 70.3188 80.8032 70.4424C80.8179 70.5239 80.8252 70.6432 80.8252 70.8003L80.8208 72.3292H80.1676V70.7843C80.1676 70.6926 80.1529 70.617 80.1222 70.5573C80.0651 70.4439 79.9611 70.3886 79.8088 70.3886C79.633 70.3886 79.5114 70.4613 79.444 70.6068C79.4104 70.6839 79.3928 70.777 79.3928 70.8846V72.3292H78.7498V70.8846C78.7498 70.7406 78.7352 70.6359 78.7044 70.5704C78.6502 70.4526 78.5462 70.3944 78.388 70.3944C78.2064 70.3944 78.0834 70.4526 78.0204 70.5704C77.9867 70.6373 77.9692 70.7363 77.9692 70.8686V72.3277H77.3218V69.9071H77.9413V70.2606C78.0204 70.134 78.0951 70.0453 78.1654 69.9915C78.2899 69.8969 78.4496 69.8489 78.6473 69.8489C78.8333 69.8489 78.9842 69.8896 79.0999 69.9711C79.1921 70.0467 79.2624 70.1442 79.3108 70.262C79.3943 70.1195 79.4982 70.0147 79.6213 69.9478C79.7531 69.8809 79.8996 69.8474 80.0607 69.8474C80.1676 69.8474 80.2745 69.8678 80.3785 69.91C80.4825 69.9522 80.5777 70.0249 80.6626 70.1282L80.6641 70.1311Z" fill="#004275"/>
<path d="M81.7773 69.6016C81.7231 69.6016 81.6733 69.5943 81.6279 69.5812C81.5825 69.5682 81.5429 69.5492 81.5093 69.526C81.4756 69.5027 81.4492 69.4736 81.4302 69.4416C81.4111 69.4096 81.4023 69.3732 81.4023 69.3354C81.4023 69.2932 81.4126 69.2554 81.4316 69.219C81.4507 69.1841 81.477 69.1521 81.5107 69.1274C81.5444 69.1012 81.584 69.0808 81.6294 69.0663C81.6748 69.0517 81.7231 69.0445 81.7758 69.0445C81.8286 69.0445 81.8798 69.0517 81.9267 69.0663C81.9735 69.0808 82.0146 69.1012 82.0482 69.1274C82.0819 69.1536 82.1083 69.1841 82.1273 69.219C82.1464 69.2554 82.1566 69.2932 82.1566 69.3354C82.1566 69.3732 82.1478 69.4096 82.1288 69.4416C82.1098 69.4736 82.0834 69.5027 82.0497 69.526C82.016 69.5492 81.9765 69.5682 81.9281 69.5812C81.8798 69.5943 81.83 69.6016 81.7744 69.6016H81.7773ZM81.458 69.9042H82.1054V72.3292H81.458V69.9042Z" fill="#004275"/>
<path d="M84.9714 70.697V72.3306H84.3181V70.8555C84.3181 70.7275 84.3006 70.6301 84.2669 70.5617C84.2039 70.4366 84.0853 70.3755 83.908 70.3755C83.6913 70.3755 83.5433 70.4671 83.4628 70.649C83.4203 70.745 83.3998 70.8686 83.3998 71.0185V72.3306H82.7642V69.91H83.3808V70.2635C83.4628 70.1384 83.5404 70.0496 83.6137 69.9944C83.7455 69.8969 83.911 69.8474 84.1131 69.8474C84.365 69.8474 84.5715 69.9129 84.7326 70.0438C84.8938 70.1748 84.9728 70.393 84.9728 70.697H84.9714Z" fill="#004275"/>
<path d="M86.8065 69.9013C86.9617 69.9653 87.0877 70.0817 87.1829 70.2533V69.9042H87.8024V72.2055C87.8024 72.5183 87.7497 72.7539 87.6442 72.9125C87.4626 73.186 87.1126 73.3213 86.5955 73.3213C86.2836 73.3213 86.0287 73.2602 85.8325 73.1394C85.6362 73.0187 85.5264 72.8369 85.5058 72.5939H86.2001C86.2177 72.6681 86.247 72.7219 86.288 72.7539C86.3568 72.8121 86.4725 72.8412 86.6351 72.8412C86.865 72.8412 87.0188 72.7641 87.0964 72.6114C87.1477 72.5139 87.1726 72.3495 87.1726 72.1168V71.9611C87.1111 72.0644 87.0452 72.143 86.9749 72.1953C86.8475 72.2914 86.6834 72.3394 86.4798 72.3394C86.1664 72.3394 85.9159 72.2303 85.7285 72.0106C85.541 71.7909 85.4473 71.4956 85.4473 71.1218C85.4473 70.7479 85.5381 70.4584 85.7182 70.2126C85.8984 69.9667 86.1547 69.8445 86.4857 69.8445C86.6087 69.8445 86.7142 69.8635 86.8065 69.8998V69.9013ZM87.1785 71.1058C87.1785 70.8759 87.1301 70.7014 87.032 70.5806C86.9339 70.4599 86.8035 70.4002 86.6395 70.4002C86.4154 70.4002 86.2616 70.505 86.1752 70.7145C86.1298 70.825 86.1078 70.9632 86.1078 71.1261C86.1078 71.2672 86.1313 71.3923 86.1796 71.5014C86.266 71.7066 86.4213 71.8084 86.6453 71.8084C86.7947 71.8084 86.9207 71.7531 87.0232 71.6411C87.1257 71.5291 87.1785 71.3502 87.1785 71.1058Z" fill="#004275"/>
<path d="M89.7974 69.0546H92.1379V69.6307H90.4828V70.3842H91.9314V70.9545H90.4828V72.3292H89.7974V69.0546Z" fill="#004275"/>
<path d="M94.4978 70.3115C94.593 70.4555 94.6559 70.6228 94.6838 70.8119C94.6999 70.9225 94.7072 71.0839 94.7043 71.292H93.0346C93.0434 71.5349 93.121 71.7066 93.2645 71.804C93.3524 71.8651 93.4593 71.8957 93.5824 71.8957C93.7142 71.8957 93.8211 71.8593 93.9031 71.7851C93.9485 71.7444 93.9881 71.6891 94.0218 71.6178H94.6735C94.6574 71.7618 94.5812 71.9073 94.448 72.0557C94.2385 72.2913 93.9471 72.4092 93.5706 72.4092C93.2601 72.4092 92.9862 72.3103 92.749 72.111C92.5117 71.9117 92.3931 71.5887 92.3931 71.1407C92.3931 70.7217 92.5 70.3988 92.7138 70.1748C92.9277 69.9507 93.2059 69.8387 93.5487 69.8387C93.7523 69.8387 93.9339 69.8765 94.0979 69.9522C94.2605 70.0278 94.3952 70.1471 94.5007 70.31L94.4978 70.3115ZM93.0492 70.8745H94.0408C94.0305 70.7072 93.9793 70.5792 93.887 70.4933C93.7947 70.4075 93.682 70.3639 93.5457 70.3639C93.3978 70.3639 93.2836 70.4104 93.2016 70.5021C93.1195 70.5937 93.0683 70.7188 93.0478 70.8759L93.0492 70.8745Z" fill="#004275"/>
<path d="M96.7444 70.2111V69.0546H97.3918V72.3292H96.7708V71.9931C96.68 72.1371 96.576 72.2419 96.4603 72.3073C96.3445 72.3728 96.1995 72.4048 96.0253 72.4048C95.7396 72.4048 95.5009 72.2899 95.3046 72.0615C95.1099 71.8316 95.0117 71.5378 95.0117 71.1799C95.0117 70.7654 95.1084 70.441 95.2988 70.2038C95.4892 69.9667 95.747 69.8474 96.0677 69.8474C96.2157 69.8474 96.3475 69.8794 96.4617 69.9449C96.576 70.0089 96.6697 70.0991 96.7415 70.2126L96.7444 70.2111ZM96.7634 71.1523C96.7634 70.8555 96.6887 70.6432 96.5379 70.5151C96.4456 70.438 96.3372 70.4002 96.2157 70.4002C96.0296 70.4002 95.892 70.47 95.8056 70.6112C95.7177 70.7508 95.6752 70.9254 95.6752 71.1334C95.6752 71.3574 95.7191 71.5363 95.8085 71.6702C95.8978 71.804 96.0326 71.8709 96.2127 71.8709C96.3929 71.8709 96.5306 71.804 96.6243 71.6702C96.718 71.5363 96.7649 71.3632 96.7649 71.1523H96.7634Z" fill="#004275"/>
<path d="M99.9226 70.3115C100.018 70.4555 100.081 70.6228 100.109 70.8119C100.125 70.9225 100.132 71.0839 100.129 71.292H98.4594C98.4682 71.5349 98.5458 71.7066 98.6893 71.804C98.7772 71.8651 98.8841 71.8957 99.0072 71.8957C99.139 71.8957 99.2459 71.8593 99.3279 71.7851C99.3733 71.7444 99.4129 71.6891 99.4466 71.6178H100.098C100.082 71.7618 100.006 71.9073 99.8728 72.0557C99.6633 72.2913 99.3719 72.4092 98.9955 72.4092C98.6849 72.4092 98.4111 72.3103 98.1738 72.111C97.9365 71.9117 97.8179 71.5887 97.8179 71.1407C97.8179 70.7217 97.9248 70.3988 98.1386 70.1748C98.3525 69.9507 98.6308 69.8387 98.9735 69.8387C99.1771 69.8387 99.3587 69.8765 99.5227 69.9522C99.6853 70.0278 99.82 70.1471 99.9255 70.31L99.9226 70.3115ZM98.474 70.8745H99.4656C99.4553 70.7072 99.4041 70.5792 99.3118 70.4933C99.2195 70.4075 99.1068 70.3639 98.9705 70.3639C98.8226 70.3639 98.7084 70.4104 98.6264 70.5021C98.5443 70.5937 98.4931 70.7188 98.4726 70.8759L98.474 70.8745Z" fill="#004275"/>
<path d="M102.007 69.8504V70.5006C101.966 70.4962 101.93 70.4933 101.9 70.4919C101.869 70.4919 101.843 70.489 101.824 70.489C101.567 70.489 101.394 70.5719 101.307 70.7377C101.257 70.8308 101.233 70.9748 101.233 71.1698V72.3292H100.59V69.9042H101.2V70.3275C101.298 70.166 101.384 70.0555 101.457 69.9958C101.578 69.8969 101.733 69.8474 101.923 69.8474C101.935 69.8474 101.945 69.8474 101.954 69.8474C101.963 69.8474 101.98 69.8489 102.01 69.8504H102.007Z" fill="#004275"/>
<path d="M103.375 70.8541C103.493 70.8396 103.577 70.8207 103.628 70.7988C103.719 70.761 103.764 70.6999 103.764 70.6185C103.764 70.5195 103.729 70.4497 103.66 70.4119C103.592 70.3741 103.489 70.3552 103.354 70.3552C103.203 70.3552 103.097 70.3915 103.034 70.4657C102.988 70.521 102.959 70.5952 102.944 70.6883H102.329C102.342 70.4759 102.402 70.3013 102.508 70.166C102.676 69.9522 102.966 69.846 103.376 69.846C103.643 69.846 103.882 69.8984 104.088 70.0046C104.296 70.1093 104.4 70.3086 104.4 70.601V71.7138C104.4 71.7909 104.4 71.884 104.404 71.9946C104.409 72.0775 104.422 72.1343 104.443 72.1633C104.463 72.1924 104.495 72.2172 104.536 72.2361V72.3292H103.842C103.823 72.2797 103.81 72.2346 103.803 72.191C103.795 72.1473 103.789 72.0993 103.785 72.0441C103.697 72.1386 103.596 72.2201 103.48 72.287C103.343 72.3655 103.187 72.4048 103.015 72.4048C102.793 72.4048 102.612 72.3423 102.467 72.2172C102.322 72.0921 102.251 71.9146 102.251 71.6847C102.251 71.3865 102.367 71.1712 102.599 71.0374C102.726 70.9647 102.912 70.9123 103.158 70.8818L103.375 70.8556V70.8541ZM103.763 71.1509C103.723 71.1756 103.682 71.196 103.641 71.212C103.6 71.228 103.545 71.2425 103.473 71.2556L103.329 71.2818C103.195 71.3051 103.099 71.3342 103.041 71.3691C102.943 71.4273 102.893 71.516 102.893 71.6382C102.893 71.7458 102.924 71.8244 102.984 71.8724C103.044 71.9204 103.117 71.9451 103.203 71.9451C103.341 71.9451 103.467 71.9044 103.581 71.8244C103.697 71.7444 103.757 71.5975 103.762 71.3865V71.1509H103.763Z" fill="#004275"/>
<path d="M104.753 70.3784V69.9275H105.093V69.251H105.724V69.9275H106.121V70.3784H105.724V71.66C105.724 71.7589 105.737 71.8215 105.762 71.8462C105.787 71.871 105.865 71.8826 105.995 71.8826C106.014 71.8826 106.034 71.8826 106.056 71.8826C106.078 71.8826 106.099 71.8811 106.121 71.8797V72.3539L105.819 72.3656C105.517 72.3757 105.311 72.3234 105.201 72.2099C105.129 72.1372 105.094 72.0252 105.094 71.8739V70.3813H104.754L104.753 70.3784Z" fill="#004275"/>
<path d="M106.897 69.6016C106.843 69.6016 106.793 69.5943 106.748 69.5812C106.703 69.5682 106.663 69.5492 106.629 69.526C106.596 69.5027 106.569 69.4736 106.55 69.4416C106.531 69.4096 106.522 69.3732 106.522 69.3354C106.522 69.2932 106.533 69.2554 106.552 69.219C106.571 69.1841 106.597 69.1521 106.631 69.1274C106.665 69.1012 106.704 69.0808 106.749 69.0663C106.795 69.0517 106.843 69.0445 106.896 69.0445C106.949 69.0445 107 69.0517 107.047 69.0663C107.094 69.0808 107.135 69.1012 107.168 69.1274C107.202 69.1536 107.228 69.1841 107.247 69.219C107.267 69.2554 107.277 69.2932 107.277 69.3354C107.277 69.3732 107.268 69.4096 107.249 69.4416C107.23 69.4736 107.204 69.5027 107.17 69.526C107.136 69.5492 107.097 69.5682 107.048 69.5812C107 69.5943 106.95 69.6016 106.894 69.6016H106.897ZM106.577 69.9042H107.224V72.3292H106.577V69.9042Z" fill="#004275"/>
<path d="M108.975 72.4135C108.557 72.4135 108.243 72.287 108.037 72.0338C107.83 71.7807 107.728 71.4767 107.728 71.1203C107.728 70.7639 107.83 70.4671 108.037 70.2097C108.243 69.9536 108.555 69.8242 108.975 69.8242C109.396 69.8242 109.708 69.9522 109.914 70.2097C110.121 70.4657 110.223 70.7697 110.223 71.1203C110.223 71.4709 110.121 71.7807 109.914 72.0338C109.708 72.287 109.396 72.4135 108.975 72.4135ZM109.554 71.1218C109.554 70.8788 109.504 70.6912 109.405 70.5602C109.305 70.4293 109.161 70.3639 108.974 70.3639C108.786 70.3639 108.644 70.4293 108.543 70.5602C108.442 70.6912 108.392 70.8788 108.392 71.1218C108.392 71.3647 108.442 71.5523 108.543 71.6847C108.644 71.8171 108.788 71.8826 108.974 71.8826C109.16 71.8826 109.303 71.8171 109.405 71.6847C109.506 71.5523 109.554 71.3647 109.554 71.1218Z" fill="#004275"/>
<path d="M112.928 70.697V72.3306H112.275V70.8555C112.275 70.7275 112.258 70.6301 112.224 70.5617C112.161 70.4366 112.042 70.3755 111.865 70.3755C111.648 70.3755 111.5 70.4671 111.42 70.649C111.377 70.745 111.357 70.8686 111.357 71.0185V72.3306H110.721V69.91H111.338V70.2635C111.42 70.1384 111.497 70.0496 111.571 69.9944C111.703 69.8969 111.868 69.8474 112.07 69.8474C112.322 69.8474 112.529 69.9129 112.69 70.0438C112.851 70.1748 112.93 70.393 112.93 70.697H112.928Z" fill="#004275"/>
<path d="M73.78 54.4247H75.2388L77.4269 60.5635H76.0267L75.6284 59.3023H73.3523L72.9246 60.5635H71.5742L73.78 54.4247ZM73.6994 58.2433H75.2681L74.4962 55.8285L73.6994 58.2433Z" fill="#4C83C3"/>
<path d="M79.078 58.6681C79.1175 58.9488 79.1937 59.1583 79.3079 59.2965C79.5174 59.5496 79.8762 59.6762 80.3859 59.6762C80.6905 59.6762 80.9381 59.6427 81.1285 59.5758C81.4888 59.4478 81.6689 59.2107 81.6689 58.863C81.6689 58.6608 81.5796 58.5037 81.4009 58.3931C81.2222 58.2855 80.941 58.1895 80.5587 58.1051L79.904 57.9596C79.261 57.8156 78.8158 57.6585 78.5712 57.4898C78.1552 57.2061 77.9458 56.7639 77.9458 56.1616C77.9458 55.6118 78.1464 55.155 78.5492 54.7913C78.952 54.4276 79.5422 54.2458 80.3229 54.2458C80.9747 54.2458 81.5298 54.4174 81.9897 54.7608C82.4496 55.1041 82.6898 55.6016 82.7132 56.2533H81.4727C81.4507 55.8838 81.2881 55.6219 80.9864 55.4663C80.7857 55.3645 80.5353 55.3121 80.2365 55.3121C79.904 55.3121 79.6389 55.379 79.4397 55.5114C79.2405 55.6452 79.1424 55.83 79.1424 56.07C79.1424 56.2896 79.2405 56.4526 79.4353 56.5617C79.5613 56.6344 79.8293 56.7188 80.2409 56.8162L81.3057 57.0708C81.7729 57.1814 82.1244 57.3312 82.3617 57.516C82.7308 57.8054 82.9153 58.2229 82.9153 58.7699C82.9153 59.3169 82.7 59.7969 82.268 60.1664C81.8359 60.5374 81.2266 60.7221 80.4372 60.7221C79.6477 60.7221 78.9989 60.5388 78.5375 60.1751C78.0761 59.81 77.8462 59.3081 77.8462 58.6695H79.0794L79.078 58.6681Z" fill="#4C83C3"/>
<path d="M88.2918 54.4247V55.5114H86.4434V60.5621H85.1443V55.5114H83.2871V54.4247H88.2933H88.2918Z" fill="#4C83C3"/>
<path d="M90.114 54.4247H91.5727L93.7609 60.5635H92.3607L91.9623 59.3023H89.6863L89.2586 60.5635H87.9082L90.114 54.4247ZM90.0349 58.2433H91.6035L90.8316 55.8285L90.0349 58.2433Z" fill="#4C83C3"/>
<path d="M94.4565 54.4247H95.8113L98.272 58.7103V54.4247H99.4759V60.5635H98.1841L95.6605 56.2038V60.5635H94.4565V54.4247Z" fill="#4C83C3"/>
<path d="M102.379 54.4247H103.837L106.026 60.5635H104.625L104.227 59.3023H101.951L101.523 60.5635H100.173L102.379 54.4247ZM102.3 58.2433H103.868L103.096 55.8285L102.3 58.2433Z" fill="#4C83C3"/>
</svg>
