<svg width="81" height="82" viewBox="0 0 81 82" fill="none" xmlns="http://www.w3.org/2000/svg">
<path d="M25.0611 68.4117V76.075C25.0611 78.2518 23.9895 79.4133 22.0424 79.4133C20.0842 79.4133 19.0062 78.2183 19.0062 75.9821V68.42H16.3123V76.075C16.3123 79.8415 18.388 81.9999 22.0069 81.9999C25.66 81.9999 27.755 79.8002 27.755 75.9646V68.4117H25.0611ZM34.9725 68.4117L29.1216 81.7913H31.8714L33.0008 79.2001L33.0816 79.0058H39.1599L40.352 81.7913H43.1766L37.3801 68.4909L37.328 68.4116L34.9725 68.4117ZM50.9901 68.4117L47.9752 77.6177L45.0403 68.4185H42.1734L46.8012 81.7997H49.032L52.053 73.0094L55.0718 81.7997H57.3215L61.938 68.4185H59.1444L56.2034 77.6177L53.1877 68.4117H50.9901ZM77.3528 68.4117V81.7799H80.0112V68.4117H77.3528ZM1.10303 68.4125V81.7989H3.79769V76.3621H9.88202V81.7989H12.5774V68.4125H9.88202V73.8127H3.79769V68.4125H1.10303ZM64.1106 68.4215V81.7897H74.1399V79.3523H66.7691V76.0377H71.6703V73.5995H66.7691V70.859H73.883V68.4215H64.1106ZM36.114 71.7993L38.0351 76.2813H38.0283L38.159 76.5905H34.0834L34.2125 76.2813L36.114 71.7993Z" fill="#232527"/>
<path d="M34.6586 -0.00031559C33.5898 0.094978 30.7015 0.757646 30.7015 0.757646C24.1913 2.45376 22.6514 8.40867 22.6514 8.40867C22.3334 9.41002 22.189 10.4362 22.1466 11.4031V12.719C22.2329 14.7521 22.6815 16.2702 22.6815 16.2702C24.8561 25.9896 35.5484 41.9601 37.8463 45.315C38.0094 45.478 38.1399 45.4191 38.1399 45.4191C38.388 45.3501 38.3685 45.1103 38.3685 45.1103L38.3732 45.1115C41.9127 9.45188 34.6586 -0.00031559 34.6586 -0.00031559ZM46.3536 -0.00031559C46.3536 -0.00031559 39.0679 9.45688 42.61 45.1372H42.6147C42.6421 45.3637 42.8016 45.4109 42.8016 45.4109C43.0386 45.5035 43.1602 45.274 43.1602 45.274L43.1613 45.2762C45.5182 41.8357 56.1495 25.9522 58.3145 16.27C58.3145 16.27 59.4884 11.5838 58.3552 8.40848C58.3552 8.40848 56.7458 2.36136 50.2274 0.763327C50.2274 0.763327 48.3488 0.282826 46.3536 -0.00031559ZM12.7481 10.7048C12.7481 10.7048 6.54509 16.6391 6.23678 22.9305H6.23925V23.8838C6.24397 23.9555 6.24756 24.0282 6.25205 24.1013C6.51925 29.1744 10.3055 32.1769 10.3055 32.1769C16.406 38.1699 31.1775 45.7363 34.61 47.4531C34.6581 47.4713 34.8355 47.5297 34.9396 47.397C34.9396 47.397 34.9938 47.3556 35.0185 47.2811V47.1231C35.016 47.1141 35.0113 47.105 35.0068 47.0951C25.6068 26.3965 12.7481 10.7048 12.7481 10.7048ZM68.2491 10.7048C68.2491 10.7048 55.4281 26.3474 46.0322 47.004L46.0358 47.0028C46.0358 47.0028 45.9248 47.2423 46.1043 47.397C46.1043 47.397 46.1578 47.4378 46.2319 47.4543H46.3619C46.3852 47.4475 46.4103 47.4385 46.435 47.4215C49.9607 45.6577 64.6179 38.1432 70.6896 32.1779C70.6896 32.1779 74.5347 29.0655 74.7361 24.0684C75.1801 17.1279 68.2491 10.7048 68.2491 10.7048ZM79.7886 31.254C79.7886 31.254 58.8866 42.5605 48.0792 49.9084L48.0829 49.9119C48.0829 49.9119 47.8868 50.0413 47.9552 50.2733C47.9552 50.2733 48.0578 50.4605 48.2071 50.4605C52.0781 50.4673 66.7262 50.485 67.0934 50.416C67.0934 50.416 68.9875 50.3397 71.3279 49.4334C71.3279 49.4334 76.5382 47.7637 79.2445 41.8012C79.2445 41.8012 80.4811 39.3079 80.499 35.8053V35.6568C80.49 34.306 80.301 32.8106 79.7886 31.254ZM1.20273 31.3068C-0.699041 37.2411 1.86122 42.0228 1.86536 42.0306C4.53347 47.713 9.62646 49.4347 9.62646 49.4347C11.9779 50.4085 14.3298 50.4758 14.3298 50.4758C14.697 50.5435 28.9549 50.4826 32.7752 50.4645C32.9369 50.4633 33.0258 50.2995 33.0258 50.2995C33.0371 50.2813 33.0469 50.2632 33.0514 50.2467V50.0982C33.0197 49.9989 32.9353 49.9287 32.9353 49.9287L32.9378 49.9275C22.1359 42.582 1.20273 31.3068 1.20273 31.3068ZM32.3388 52.2888L7.75001 53.1579C10.4166 57.9493 14.9074 61.673 19.5855 60.5294C22.8138 59.7158 30.1275 54.5738 32.5419 52.8362L32.5338 52.8295C32.7216 52.6595 32.6545 52.523 32.6545 52.523C32.5928 52.3005 32.3389 52.3007 32.3389 52.3007L32.3388 52.2888ZM48.6246 52.3069L48.6222 52.316C48.6222 52.316 48.4063 52.3436 48.346 52.5066C48.346 52.5066 48.2935 52.7293 48.4388 52.8399L48.4363 52.8422C50.7905 54.5438 57.9269 59.5728 61.365 60.5493C61.365 60.5493 61.8858 60.7279 62.7587 60.7598H63.2832C65.5866 60.6784 69.5994 59.4856 73.2457 53.1708L48.6246 52.3069Z" fill="#CF0A2C"/>
</svg>
