<svg width="106" height="80" viewBox="0 0 106 80" fill="none" xmlns="http://www.w3.org/2000/svg">
<g clip-path="url(#clip0_217_2031)">
<path d="M17.5358 59.108C17.2195 59.0487 16.894 59.0598 16.5824 59.1402C16.2708 59.221 15.9809 59.3695 15.7332 59.5748C15.4854 59.7802 15.2861 60.0379 15.1492 60.3291C15.0124 60.6206 14.9414 60.9381 14.9414 61.2602C14.9414 61.5819 15.0124 61.8998 15.1492 62.1913C15.2861 62.4825 15.4854 62.7402 15.7332 62.9456C15.9809 63.1509 16.2708 63.2994 16.5824 63.3802C16.894 63.4606 17.2195 63.4717 17.5358 63.4124C17.8522 63.4717 18.1778 63.461 18.4894 63.3802C18.8011 63.2998 19.0912 63.1513 19.339 62.946C19.5868 62.7402 19.7862 62.4829 19.9231 62.1913C20.06 61.9002 20.131 61.5823 20.131 61.2602C20.131 60.9381 20.06 60.6202 19.9231 60.3291C19.7862 60.0375 19.5868 59.7798 19.339 59.5744C19.0912 59.3691 18.8011 59.2206 18.4894 59.1402C18.1778 59.0594 17.8522 59.0487 17.5358 59.108ZM17.5358 62.5839C16.5616 62.5839 15.7697 61.9897 15.7697 61.2602C15.7697 60.5307 16.5616 59.9348 17.5358 59.9348C18.51 59.9348 19.3031 60.5295 19.3031 61.2602C19.3031 61.9909 18.51 62.5839 17.5358 62.5839Z" fill="#4C83C3"/>
<path d="M14.0065 62.8825C13.9142 62.3674 13.6228 61.9101 13.1954 61.6087C12.7681 61.3072 12.2392 61.1864 11.7233 61.2722C11.2009 61.292 10.7072 61.5167 10.3493 61.8978C9.99134 62.2788 9.79802 62.7856 9.81118 63.3081C9.85905 63.5559 9.95658 63.7909 10.0979 63.9996C10.2391 64.2087 10.4213 64.3864 10.6332 64.5229C10.8452 64.6594 11.0826 64.7514 11.3312 64.7938C11.5797 64.8359 11.8342 64.8272 12.0793 64.7683C13.2946 64.6458 14.1052 63.8516 14.0065 62.8825ZM12.0031 64.0227C11.3624 64.0874 10.6455 63.8664 10.5805 63.2309C10.614 62.9196 10.7534 62.6297 10.9752 62.4091C11.197 62.1885 11.4878 62.0507 11.7991 62.019C12.1102 61.9872 12.4229 62.0635 12.6847 62.2347C12.9465 62.4058 13.1415 62.6619 13.2371 62.9596C13.3021 63.598 12.6426 63.9575 12.0031 64.0227Z" fill="#4C83C3"/>
<path d="M6.4554 62.8857C5.3163 62.8857 4.60938 63.4218 4.60938 64.2837C4.60938 65.1451 5.3163 65.6812 6.4554 65.6812C7.59445 65.6812 8.30014 65.1464 8.30014 64.2837C8.30014 63.4206 7.59321 62.8857 6.4554 62.8857ZM6.45412 64.9393C5.94331 64.9393 5.33255 64.8268 5.33255 64.2837C5.33255 63.7426 5.94331 63.6292 6.45412 63.6292C6.96748 63.6292 7.5782 63.7426 7.5782 64.2837C7.5782 64.8268 6.96748 64.9393 6.45412 64.9393Z" fill="#4C83C3"/>
<path d="M33.4273 47.2552C33.3014 46.4466 32.9873 45.6787 32.5102 45.014C32.0331 44.3488 31.4065 43.8053 30.6808 43.4272C30.657 43.4111 30.6371 43.3959 30.6146 43.3798L30.6046 43.3724L30.5172 43.3159V44.555C30.5571 44.5802 30.6183 44.6227 30.6808 44.6676C31.1253 44.9538 31.5067 45.3278 31.8016 45.767C32.0964 46.2058 32.2986 46.7006 32.3956 47.2202C32.3919 47.8622 32.2342 48.494 31.9358 49.0622C31.6374 49.6305 31.2071 50.1187 30.6808 50.4866C30.6658 50.5014 30.652 50.515 30.6358 50.5291L30.5172 50.6338L30.4347 50.7051L30.5172 50.7373L30.6808 50.8025L30.682 50.8037C30.7007 50.8111 32.4968 51.5695 31.6412 54.226C31.1837 55.4928 30.3296 56.5781 29.2059 57.3212C28.0821 58.0639 26.7487 58.4243 25.4038 58.3488H25.3614C22.8391 58.28 20.3803 57.5427 18.236 56.2132L18.1248 56.1517L18.0361 56.2429C16.9154 57.388 15.421 58.0932 13.8245 58.2301C13.7958 58.2363 11.8337 58.3798 10.5572 55.8045L10.4923 55.6746L10.3561 55.722C10.3399 55.727 8.8661 56.2157 8.08173 55.4775C8.02899 55.4276 7.98054 55.374 7.93687 55.3163H7.71955V55.3138H6.96392V55.3163H6.79443L6.80565 55.3575L6.82689 55.4124C6.83439 55.4326 6.8419 55.4511 6.85311 55.4775C7.01798 55.8721 7.71992 57.1286 9.9668 56.8449C10.3634 57.527 10.9235 58.0998 11.5965 58.5117C12.2696 58.9237 13.0345 59.1616 13.8224 59.2041H13.8237C15.4805 59.1757 17.0668 58.5286 18.2713 57.3909C20.3831 58.5064 22.7035 59.1715 25.0857 59.3443C25.3486 59.3443 25.6113 59.3295 25.8726 59.3006C27.2702 59.2655 28.6294 58.8354 29.7929 58.0606C30.9564 57.2853 31.8766 56.1967 32.4472 54.9204C32.7826 54.2284 32.9128 53.4552 32.8226 52.6919C32.7322 51.9286 32.4252 51.207 31.9376 50.6128C32.4052 50.1868 32.7791 49.6684 33.0356 49.0907C33.2921 48.5126 33.4252 47.8878 33.4273 47.2552Z" fill="#4C83C3"/>
<path d="M1.4433 63.9175C0.233038 63.9175 0 64.6149 0 64.9485C0 65.2821 0.233038 65.9794 1.4433 65.9794C2.35755 65.9794 2.8866 65.619 2.8866 64.9485C2.8866 64.278 2.35755 63.9175 1.4433 63.9175ZM1.4433 65.3163C0.766351 65.3163 0.663208 65.092 0.663208 64.9485C0.663208 64.805 0.766351 64.5806 1.4433 64.5806C1.52823 64.5806 2.26804 64.5806 2.26804 64.9485C2.26804 65.3163 1.52823 65.3163 1.4433 65.3163Z" fill="#4C83C3"/>
<path d="M30.4194 44.5872L30.2907 44.5159C28.571 42.9464 26.377 41.9946 24.0558 41.812C23.7208 41.8115 23.3864 41.8412 23.0566 41.9006C22.3554 42.0375 21.6882 42.3113 21.0933 42.7072C20.4985 43.1027 19.9878 43.6124 19.5907 44.2062L19.2185 44.8359L19.1086 44.1126C18.8201 42.2293 17.8734 42.1043 17.8547 42.1019C17.7864 42.0878 17.7169 42.0812 17.6473 42.0816C16.6169 42.0816 15.2518 43.4507 15.2368 43.4656L14.9158 43.7905L14.7997 43.3505C14.074 40.6529 12.248 40.5967 12.1793 40.5955C10.905 40.5941 9.67706 41.0736 8.74085 41.9381C8.3919 42.381 8.22275 42.9394 8.2672 43.5014C8.31166 44.0635 8.56642 44.588 8.98065 44.9707L9.2392 45.2416L8.89446 45.3917C5.42733 46.8965 5.62588 48.1695 5.62964 48.1905C5.74955 49.1047 7.76667 50.0326 9.01063 50.4012L9.36535 50.5085L9.14679 50.807C7.1559 53.5188 7.75166 54.8602 7.89405 55.0998L7.93776 55.2173H26.2303C27.3433 55.2136 28.4094 54.7691 29.1948 53.9802C29.9802 53.1917 30.4206 52.1237 30.4194 51.0107V44.5872Z" fill="#4C83C3"/>
<path d="M26.2311 31.0558H4.18907C3.07766 31.0575 2.01234 31.5002 1.22695 32.2865C0.441567 33.0729 0.00029644 34.1388 0 35.2503V51.0235C0.000329027 52.1353 0.441584 53.2009 1.22694 53.9877C2.01229 54.7741 3.07759 55.2169 4.18907 55.219H6.64705L6.62957 55.1778C6.48206 54.4866 6.47699 53.7728 6.61464 53.08C6.75229 52.3868 7.02977 51.7295 7.43019 51.1472C5.48429 50.3415 4.47386 49.3786 4.42639 48.287C4.35394 46.6009 6.58713 45.2272 7.40396 44.7823C7.18915 44.3732 7.06202 43.9237 7.03064 43.4627C6.99922 43.0017 7.06429 42.539 7.22161 42.1048C7.68623 41.1259 8.51497 40.3675 9.53097 39.9914C10.2664 39.6319 11.0707 39.4355 11.889 39.4156C12.3816 39.413 12.87 39.5068 13.3266 39.6916C14.2638 40.1022 15.0265 40.8296 15.4811 41.746C16.1216 41.2755 16.8846 41.0002 17.6781 40.9531C17.9137 40.9529 18.1479 40.9891 18.3725 41.0605C18.967 41.2743 19.4572 41.7072 19.7426 42.271C20.8819 41.2421 22.3668 40.6801 23.9017 40.6971C26.2588 40.8604 28.5173 41.7068 30.4014 43.1324L30.4201 43.1464V35.2503C30.4195 34.139 29.9781 33.0734 29.1928 32.2871C28.4075 31.5008 27.3424 31.0578 26.2311 31.0558Z" fill="#4C83C3"/>
<path d="M68.2507 23.4091L61.3184 26.8746L61.7612 27.7606L68.6936 24.2951L68.2507 23.4091Z" fill="#FDBA12"/>
<path d="M65.1311 18.4872L58.9097 24.0159L59.5678 24.7566L65.7893 19.228L65.1311 18.4872Z" fill="#FDBA12"/>
<path d="M59.1375 14.4702L55.8525 22.073L56.7622 22.4662L60.0472 14.8634L59.1375 14.4702Z" fill="#FDBA12"/>
<path d="M53.0513 12.9289H52.0596V21.4332H53.0513V12.9289Z" fill="#FDBA12"/>
<path d="M45.9743 14.4701L45.0625 14.8635L48.2823 22.3149L48.3499 22.4661L49.2592 22.0726L46.039 14.6199L45.9743 14.4701Z" fill="#FDBA12"/>
<path d="M39.3223 19.2286L45.5434 24.7566L46.2028 24.0159L39.9792 18.4867L39.3223 19.2286Z" fill="#FDBA12"/>
<path d="M36.858 23.4125L36.416 24.299L43.3519 27.7572L43.794 26.8707L36.858 23.4125Z" fill="#FDBA12"/>
<path d="M63.5761 31.0567H62.0702L62.0636 31.2191C62.0561 32.4633 61.8021 33.6937 61.3159 34.8392C60.8302 35.9846 60.1217 37.0224 59.2322 37.8924C58.4982 38.6399 57.6058 39.2131 56.6207 39.5698L55.9176 44.4408H49.0619L48.4611 39.6085C43.304 37.6313 43.1081 32.2133 43.0504 31.1454L43.0454 31.0567H41.5341C40.4213 31.0607 39.3552 31.5059 38.5699 32.2947C37.7846 33.0835 37.3442 34.1515 37.3452 35.2645V51.0829C37.3461 52.0903 37.7094 53.0635 38.3686 53.8252C39.0279 54.5868 39.9392 55.0858 40.936 55.2305H64.1757C65.1724 55.0854 66.0834 54.5864 66.7427 53.8247C67.4017 53.0635 67.7646 52.0899 67.7654 51.0829V35.2645C67.7667 34.1514 67.3262 33.0833 66.5407 32.2945C65.7555 31.5056 64.6895 31.0605 63.5761 31.0567ZM49.1407 45.5909H55.9564V46.5967H49.1407V45.5909ZM49.1407 47.5171H55.9564V48.5212H49.1407V47.5171ZM53.8392 52.372H51.1551V51.3662H53.8392V52.372ZM55.9749 50.447H49.1592V49.4417H55.9749V50.447Z" fill="#FDBA12"/>
<path d="M49.0385 36.0012L52.9453 34.4025L49.5895 33.3784L51.9474 31.2176L52.1049 31.0565H44.3301V31.2176C44.3837 32.1856 44.5387 36.9779 49.3495 38.779L49.4422 38.8127L50.0105 43.299H52.041V37.9981L53.1177 37.1138L49.0385 36.0012Z" fill="#FDBA12"/>
<path d="M53.5339 31.056L53.3966 31.2183L51.6519 32.8869L56.1459 34.1472L52.1277 35.7983L55.2828 36.6826L53.0881 38.4724V43.2998H54.9393L55.5801 38.7822L55.6651 38.7459C57.164 38.1296 58.4502 37.0889 59.3665 35.7516C60.2824 34.4144 60.7875 32.8388 60.8205 31.2183V31.056H53.5339Z" fill="#FDBA12"/>
<path d="M100.976 31.0564H92.5904C96.2861 33.8141 98.3744 36.6793 98.8003 39.5744C98.9389 40.8197 98.8193 42.08 98.4486 43.2767C98.0779 44.4738 97.4643 45.581 96.6461 46.5299L96.5748 46.6223C93.3599 50.7216 86.7991 53.819 84.1261 54.9592C83.8238 55.0519 83.5199 55.1423 83.2144 55.2305H100.976C102.087 55.2268 103.15 54.7831 103.934 53.9963C104.717 53.2095 105.156 52.1443 105.155 51.0338V35.253C105.156 34.1426 104.717 33.0772 103.934 32.2905C103.15 31.5037 102.087 31.0599 100.976 31.0564Z" fill="#B22C1B"/>
<path d="M90.5324 31.2311L90.339 31.0825H78.8181C77.7076 31.0863 76.6441 31.5304 75.8606 32.3173C75.0771 33.1043 74.6379 34.1698 74.6392 35.2803V51.0585C74.6375 52.1695 75.0767 53.235 75.8602 54.0223C76.6437 54.8095 77.7076 55.254 78.8181 55.2577H78.8796L79.3567 55.099C90.0767 51.5534 97.1241 46.1522 97.4701 41.0465C97.8235 35.907 91.2618 31.697 90.5324 31.2311Z" fill="#B22C1B"/>
<path d="M99.7855 11.3932C99.8997 10.7319 99.9579 10.0621 99.9591 9.39105C99.9987 7.88379 99.6461 6.39208 98.9356 5.06214C98.2251 3.73223 97.1814 2.60977 95.9063 1.80477C94.1026 0.656718 92.0152 0.0323167 89.8774 0.00122094C87.7397 -0.0298748 85.635 0.533555 83.7987 1.62866C82.4659 2.50046 81.3847 3.70636 80.663 5.12619C79.9414 6.54602 79.6045 8.13019 79.6857 9.72078C79.6898 10.5023 79.7541 11.2823 79.8783 12.0539C80.4605 15.8226 82.4898 19.2155 85.5348 21.5112C83.936 21.0778 81.8478 20.8704 80.9434 22.3367C80.8329 22.4764 80.7525 22.6374 80.7071 22.8096C80.6618 22.9819 80.6523 23.1616 80.6795 23.3376C80.7071 23.5136 80.7702 23.6821 80.8659 23.8325C80.9612 23.9828 81.0869 24.1119 81.2346 24.2115C82.3974 25.0458 85.2238 24.8247 86.9311 23.848L85.7595 26.577H93.623L92.0506 23.4308C93.9529 24.2264 96.1587 24.9446 97.35 24.2177C97.5921 24.0668 97.7909 23.8562 97.9278 23.6062C98.0647 23.3562 98.1352 23.0752 98.1319 22.7901C98.1678 22.4868 98.122 22.1793 97.9991 21.8996C97.8766 21.6199 97.6812 21.378 97.4337 21.1989C96.5339 20.7313 95.4911 20.619 94.5125 20.8842C94.6511 20.7705 94.7834 20.6569 94.9158 20.5407C97.5438 18.1432 99.2638 14.9121 99.7855 11.3932ZM81.8139 23.4059C81.7005 23.3247 81.5603 23.2235 81.788 22.8563C82.4684 21.7472 84.7455 22.1731 86.5962 22.9088C85.884 23.3359 85.0865 23.6017 84.2601 23.6876C83.4341 23.7735 82.5991 23.6773 81.8139 23.4059ZM96.863 22.0082C96.9735 22.0909 97.0585 22.2031 97.108 22.332C97.1574 22.4608 97.1694 22.601 97.1426 22.7364C97.15 22.8599 97.1253 22.9832 97.0713 23.0945C97.0172 23.2058 96.9356 23.3014 96.8341 23.3722C96.3847 23.6469 95.2341 23.7006 92.3216 22.4716C94.0977 21.8796 96.1137 21.48 96.863 22.0082ZM91.0729 21.8659C90.9542 21.9134 90.8642 21.9483 90.8218 21.9658L90.4758 22.0857L90.3096 22.1669L90.3158 22.1769L89.7426 22.4142L90.6304 22.8113L92.0193 25.5866H87.2647L88.6333 22.3929L88.1352 22.0969C86.2218 21.068 84.5706 19.6132 83.3092 17.8448C82.0473 16.0764 81.209 14.0417 80.8585 11.8978C80.743 11.1824 80.6832 10.4592 80.6799 9.73456C80.6016 8.30849 80.8977 6.8868 81.5393 5.6108C82.181 4.33485 83.1455 3.24915 84.3368 2.46174C86.0102 1.46678 87.9265 0.955835 89.8729 0.985827C91.8189 1.01582 93.7187 1.58556 95.3603 2.6316C96.4968 3.35169 97.4263 4.35447 98.0585 5.54173C98.6911 6.72903 99.004 8.06016 98.9673 9.40482C98.9653 10.016 98.9121 10.626 98.8078 11.2283C98.5051 13.5049 97.6391 15.6699 96.2882 17.5274C94.9376 19.3849 93.1451 20.876 91.0729 21.8659Z" fill="#B22C1B"/>
<path d="M92.17 30.8612L92.1028 30.8137C92.1016 30.8125 92.0904 30.8075 92.0715 30.795C91.3267 30.3312 90.688 29.716 90.1964 28.9894C89.7045 28.2628 89.3713 27.441 89.2175 26.5772H88.1494C88.3193 28.2092 89.1012 29.7161 90.3375 30.795C90.3638 30.8175 90.3927 30.8387 90.4212 30.8612C90.4624 30.8937 90.5024 30.9274 90.5436 30.9586H92.1387L92.3098 30.9574L92.17 30.8612Z" fill="#B22C1B"/>
<path d="M1.00987 67.3076H2.41008V75.4639H1.00987V67.3076ZM1.6985 65.8767C1.53017 65.8767 1.37204 65.8561 1.22411 65.8156C1.08129 65.7748 0.958863 65.7158 0.856842 65.6396C0.754826 65.5629 0.673209 65.4738 0.612001 65.3715C0.55589 65.2697 0.527832 65.1575 0.527832 65.035C0.527832 64.9076 0.558438 64.7876 0.619651 64.6754C0.680863 64.5633 0.762475 64.4664 0.864496 64.3847C0.971618 64.3031 1.09659 64.2391 1.23942 64.1934C1.38224 64.1476 1.53527 64.1245 1.6985 64.1245C1.86173 64.1245 2.01221 64.1476 2.14994 64.1934C2.29276 64.2391 2.41518 64.3031 2.5172 64.3847C2.62432 64.4664 2.70849 64.5633 2.7697 64.6754C2.83091 64.7876 2.86151 64.9076 2.86151 65.035C2.86151 65.1575 2.83091 65.2697 2.7697 65.3715C2.71359 65.4738 2.63452 65.5629 2.5325 65.6396C2.43049 65.7158 2.30806 65.7748 2.16524 65.8156C2.02241 65.8561 1.86683 65.8767 1.6985 65.8767ZM1.00987 67.3076H2.41008V75.4639H1.00987V67.3076ZM10.9567 70.0239H9.6177C9.53609 69.5187 9.34991 69.1006 9.05918 68.769C8.76842 68.4321 8.30166 68.2639 7.65894 68.2639C6.78158 68.2639 6.15419 68.6923 5.77671 69.5492C5.53184 70.1055 5.40945 70.7913 5.40945 71.6074C5.40945 72.4288 5.58285 73.12 5.92974 73.6812C6.27659 74.242 6.8224 74.5229 7.56714 74.5229C8.13844 74.5229 8.58986 74.3492 8.92145 74.0024C9.25811 73.6507 9.4902 73.1711 9.6177 72.5641H10.9567C10.8037 73.6507 10.4211 74.4462 9.809 74.9513C9.19688 75.4511 8.41391 75.701 7.46001 75.701C6.38883 75.701 5.5344 75.3109 4.89679 74.5303C4.25918 73.7447 3.94036 72.7653 3.94036 71.5921C3.94036 70.1538 4.28978 69.0342 4.98863 68.2334C5.68743 67.4325 6.57754 67.0321 7.65894 67.0321C8.58224 67.0321 9.33205 67.2565 9.90846 67.7055C10.49 68.1542 10.8394 68.927 10.9567 70.0239ZM18.0343 71.3167C18.0343 70.6639 17.9399 70.1026 17.7512 69.6334C17.3941 68.7307 16.7412 68.2791 15.7924 68.2791C14.8385 68.2791 14.1856 68.7563 13.8337 69.7101C13.6449 70.2202 13.5506 70.868 13.5506 71.6536C13.5506 72.2862 13.6449 72.8243 13.8337 73.268C14.1907 74.1146 14.8436 74.5381 15.7924 74.5381C16.4351 74.5381 16.9682 74.2701 17.3916 73.7348C17.8201 73.1938 18.0343 72.388 18.0343 71.3167ZM12.2269 67.3076H13.5659V68.3938C13.8413 68.0214 14.1422 67.7336 14.4687 67.5295C14.9329 67.2235 15.4787 67.0705 16.1061 67.0705C17.0345 67.0705 17.8226 67.4272 18.4704 68.1414C19.1182 68.8507 19.4422 69.8655 19.4422 71.1868C19.4422 72.9719 18.9754 74.2474 18.0419 75.0123C17.4502 75.4969 16.7616 75.7394 15.9761 75.7394C15.3588 75.7394 14.8411 75.6041 14.4228 75.334C14.1779 75.1806 13.9051 74.9179 13.6041 74.5455V78.7311H12.2269V67.3076ZM27.5144 70.0239H26.1754C26.0938 69.5187 25.9076 69.1006 25.6168 68.769C25.3261 68.4321 24.8594 68.2639 24.2166 68.2639C23.3393 68.2639 22.7118 68.6923 22.3344 69.5492C22.0895 70.1055 21.9671 70.7913 21.9671 71.6074C21.9671 72.4288 22.1405 73.12 22.4874 73.6812C22.8343 74.242 23.3801 74.5229 24.1248 74.5229C24.6961 74.5229 25.1476 74.3492 25.4791 74.0024C25.8158 73.6507 26.0478 73.1711 26.1754 72.5641H27.5144C27.3614 73.6507 26.9788 74.4462 26.3667 74.9513C25.7546 75.4511 24.9716 75.701 24.0177 75.701C22.9465 75.701 22.0921 75.3109 21.4544 74.5303C20.8168 73.7447 20.498 72.7653 20.498 71.5921C20.498 70.1538 20.8474 69.0342 21.5463 68.2334C22.2451 67.4325 23.1352 67.0321 24.2166 67.0321C25.1399 67.0321 25.8897 67.2565 26.4662 67.7055C27.0476 68.1542 27.3971 68.927 27.5144 70.0239ZM30.0164 75.5022C29.848 75.5022 29.6899 75.4816 29.542 75.4408C29.3992 75.4 29.2768 75.3414 29.1747 75.2651C29.0727 75.1884 28.9911 75.0993 28.9299 74.9971C28.8738 74.8952 28.8457 74.7831 28.8457 74.6606C28.8457 74.5332 28.8763 74.4132 28.9375 74.301C28.9988 74.1888 29.0804 74.0919 29.1824 74.0103C29.2895 73.9286 29.4145 73.8647 29.5573 73.8189C29.7001 73.7728 29.8532 73.7501 30.0164 73.7501C30.1796 73.7501 30.3301 73.7728 30.4678 73.8189C30.6106 73.8647 30.7331 73.9286 30.8351 74.0103C30.9422 74.0919 31.0264 74.1888 31.0876 74.301C31.1488 74.4132 31.1794 74.5332 31.1794 74.6606C31.1794 74.7831 31.1488 74.8952 31.0876 74.9971C31.0315 75.0993 30.9524 75.1884 30.8504 75.2651C30.7484 75.3414 30.6259 75.4 30.4831 75.4408C30.3403 75.4816 30.1847 75.5022 30.0164 75.5022ZM33.8957 64.7674C34.217 64.2981 34.8368 64.0635 35.755 64.0635C35.8417 64.0635 35.9309 64.0659 36.0228 64.0709C36.1146 64.0758 36.2191 64.0837 36.3365 64.094V65.3488C36.1937 65.3385 36.0891 65.3336 36.0228 65.3336C35.9615 65.3282 35.9029 65.3257 35.8468 65.3257C35.4285 65.3257 35.1786 65.4354 35.097 65.6548C35.0153 65.8688 34.9745 66.4198 34.9745 67.3076H36.3365V68.3938H34.9592V75.4639H33.5972V68.3938H32.4572V67.3076H33.5972V66.0222C33.6177 65.4507 33.7171 65.0325 33.8957 64.7674ZM43.2535 71.2325C43.2535 70.4676 43.131 69.8453 42.8861 69.3657C42.4984 68.6107 41.83 68.2334 40.8814 68.2334C40.0398 68.2334 39.4276 68.5546 39.0451 69.1975C38.6625 69.84 38.4712 70.6156 38.4712 71.5233C38.4712 72.3958 38.6625 73.1224 39.0451 73.7039C39.4276 74.2857 40.0346 74.5765 40.8661 74.5765C41.7793 74.5765 42.404 74.2321 42.7405 73.5435C43.0824 72.8495 43.2535 72.0796 43.2535 71.2325ZM44.6918 71.1942C44.6918 72.5154 44.3706 73.607 43.7277 74.4692C43.0848 75.3311 42.0877 75.7624 40.736 75.7624C39.6087 75.7624 38.7135 75.3822 38.0504 74.6222C37.3873 73.8573 37.0557 72.8317 37.0557 71.5464C37.0557 70.169 37.4051 69.0725 38.1039 68.2561C38.8028 67.44 39.7413 67.0321 40.9197 67.0321C41.9756 67.0321 42.8683 67.3839 43.5978 68.0878C44.3269 68.7917 44.6918 69.8272 44.6918 71.1942ZM47.7141 67.2693V72.7093C47.7141 73.1278 47.7805 73.4693 47.9129 73.7348C48.1578 74.2243 48.6143 74.4692 49.2828 74.4692C50.2415 74.4692 50.8947 74.0408 51.2415 73.1839C51.43 72.7245 51.5244 72.0948 51.5244 71.294V67.2693H52.9017V75.4639H51.6011L51.6164 74.2548C51.4378 74.5662 51.216 74.8288 50.9508 75.0429C50.4254 75.4717 49.7875 75.6857 49.0378 75.6857C47.8696 75.6857 47.0741 75.2956 46.6506 74.515C46.4209 74.0969 46.3063 73.5381 46.3063 72.8396V67.2693H47.7141ZM55.0597 67.2693H56.3677V68.4321C56.7553 67.9525 57.1661 67.6086 57.5999 67.3991C58.0333 67.1901 58.5153 67.0857 59.0461 67.0857C60.209 67.0857 60.9945 67.4911 61.4024 68.3022C61.6271 68.7459 61.7393 69.381 61.7393 70.2074V75.4639H60.3389V70.2994C60.3389 69.7991 60.265 69.3963 60.117 69.0903C59.872 68.5802 59.4283 68.3249 58.7859 68.3249C58.4593 68.3249 58.1916 68.3583 57.9822 68.4247C57.6048 68.5369 57.2733 68.7612 56.9875 69.0977C56.7582 69.3682 56.6077 69.6486 56.5364 69.9398C56.47 70.2251 56.4366 70.6358 56.4366 71.1715V75.4639H55.0597V67.2693ZM67.0032 74.5534C67.6411 74.5534 68.164 74.2804 68.5718 73.7348C68.985 73.1839 69.1916 72.3958 69.1916 71.3703C69.1916 70.3348 68.9801 69.5699 68.5566 69.075C68.1331 68.5752 67.6102 68.3249 66.9879 68.3249C66.2943 68.3249 65.7306 68.5905 65.2972 69.1208C64.8687 69.6515 64.6543 70.4317 64.6543 71.4622C64.6543 72.3398 64.8407 73.0742 65.2131 73.6659C65.5854 74.2577 66.1822 74.5534 67.0032 74.5534ZM68.3042 67.5216C68.5488 67.6746 68.8271 67.9427 69.138 68.3249V64.1855H70.4617V75.4639H69.2222V74.3237C68.9009 74.8288 68.5207 75.1934 68.0824 75.4181C67.6436 75.6424 67.1409 75.7546 66.5747 75.7546C65.6617 75.7546 64.8712 75.3719 64.2028 74.607C63.5347 73.8367 63.2007 72.814 63.2007 71.5385C63.2007 70.3451 63.5042 69.3121 64.1112 68.44C64.7232 67.5624 65.5953 67.1237 66.7277 67.1237C67.3553 67.1237 67.8807 67.2565 68.3042 67.5216ZM75.0296 74.5686C75.5141 74.5686 75.9834 74.4565 76.4374 74.2321C77.2028 73.8598 77.5854 73.2503 77.5854 72.4033V71.294C77.4168 71.4008 77.2003 71.4903 76.9347 71.5616C76.6696 71.633 76.4094 71.6841 76.1545 71.7146L75.3203 71.8218C74.8205 71.8882 74.4457 71.9925 74.1958 72.1356C73.7723 72.3752 73.5607 72.7579 73.5607 73.2833C73.5607 73.6812 73.7059 73.995 73.9966 74.2243C74.2873 74.454 74.6316 74.5686 75.0296 74.5686ZM76.8968 70.4981C77.2131 70.4573 77.4246 70.3245 77.5318 70.1002C77.5929 69.9777 77.6234 69.802 77.6234 69.5723C77.6234 69.1031 77.4551 68.7637 77.1186 68.5546C76.7871 68.3406 76.31 68.2334 75.6877 68.2334C74.9685 68.2334 74.4584 68.4272 74.1574 68.8148C73.9892 69.0293 73.8795 69.348 73.8283 69.7711H72.543C72.5685 68.7612 72.8951 68.0598 73.5224 67.6672C74.1549 67.2692 74.8869 67.0705 75.7182 67.0705C76.6824 67.0705 77.4655 67.254 78.0671 67.621C78.6642 67.9884 78.9624 68.5596 78.9624 69.3352V74.0561C78.9624 74.1987 78.9904 74.3138 79.0465 74.4004C79.1079 74.487 79.2329 74.5303 79.4217 74.5303C79.4828 74.5303 79.5516 74.5278 79.6283 74.5229C79.7046 74.5125 79.7863 74.4998 79.8729 74.4845V75.5022C79.6589 75.5633 79.4956 75.6016 79.3834 75.6169C79.2712 75.6321 79.1182 75.64 78.9244 75.64C78.4498 75.64 78.1054 75.4717 77.8914 75.1348C77.7793 74.9563 77.7001 74.7039 77.6543 74.3773C77.3735 74.7447 76.9706 75.0635 76.4452 75.334C75.9199 75.6041 75.3409 75.7394 74.7083 75.7394C73.9483 75.7394 73.3261 75.5097 72.8415 75.0507C72.3619 74.5864 72.1219 74.0074 72.1219 73.3138C72.1219 72.5538 72.3595 71.9645 72.8337 71.5464C73.3079 71.1282 73.9306 70.8705 74.7005 70.7736L76.8968 70.4981ZM81.503 64.9814H82.8951V67.2693H84.2036V68.3938H82.8951V73.7422C82.8951 74.028 82.9925 74.2193 83.1863 74.3163C83.2931 74.3723 83.4716 74.4004 83.7215 74.4004C83.7879 74.4004 83.8593 74.4004 83.936 74.4004C84.0123 74.3954 84.1017 74.3876 84.2036 74.3773V75.4639C84.0457 75.5097 83.8799 75.5431 83.7063 75.5633C83.538 75.5839 83.3545 75.5938 83.1553 75.5938C82.5129 75.5938 82.0766 75.4309 81.8469 75.1043C81.6176 74.7728 81.503 74.3443 81.503 73.8189V68.3938H80.3933V67.2693H81.503V64.9814ZM85.5887 67.3076H86.9887V75.4639H85.5887V67.3076ZM86.2774 65.8767C86.1087 65.8767 85.9508 65.8561 85.8028 65.8156C85.6601 65.7748 85.5376 65.7158 85.4358 65.6396C85.3335 65.5629 85.2518 65.4738 85.1908 65.3715C85.1347 65.2697 85.1067 65.1575 85.1067 65.035C85.1067 64.9076 85.1372 64.7876 85.1982 64.6754C85.2597 64.5633 85.3413 64.4664 85.4432 64.3847C85.5504 64.3031 85.6753 64.2391 85.818 64.1934C85.9611 64.1476 86.1141 64.1245 86.2774 64.1245C86.4403 64.1245 86.5908 64.1476 86.7285 64.1934C86.8716 64.2391 86.9941 64.3031 87.096 64.3847C87.2032 64.4664 87.2873 64.5633 87.3483 64.6754C87.4098 64.7876 87.4403 64.9076 87.4403 65.035C87.4403 65.1575 87.4098 65.2697 87.3483 65.3715C87.2923 65.4738 87.2135 65.5629 87.1112 65.6396C87.0094 65.7158 86.8869 65.7748 86.7438 65.8156C86.6011 65.8561 86.4457 65.8767 86.2774 65.8767ZM85.5887 67.3076H86.9887V75.4639H85.5887V67.3076ZM94.7166 71.2325C94.7166 70.4676 94.5945 69.8453 94.3496 69.3657C93.9619 68.6107 93.2935 68.2334 92.345 68.2334C91.5034 68.2334 90.891 68.5546 90.5083 69.1975C90.1261 69.84 89.9347 70.6156 89.9347 71.5233C89.9347 72.3958 90.1261 73.1224 90.5083 73.7039C90.891 74.2857 91.498 74.5765 92.3294 74.5765C93.2428 74.5765 93.8675 74.2321 94.204 73.5435C94.5459 72.8495 94.7166 72.0796 94.7166 71.2325ZM96.1553 71.1942C96.1553 72.5154 95.8337 73.607 95.1912 74.4692C94.5483 75.3311 93.5512 75.7624 92.1995 75.7624C91.072 75.7624 90.1768 75.3822 89.5137 74.6222C88.8506 73.8573 88.5191 72.8317 88.5191 71.5464C88.5191 70.169 88.8688 69.0725 89.5673 68.2561C90.2663 67.44 91.2048 67.0321 92.383 67.0321C93.4391 67.0321 94.3318 67.3839 95.0609 68.0878C95.7904 68.7917 96.1553 69.8272 96.1553 71.1942ZM97.8003 67.2693H99.1087V68.4321C99.4964 67.9525 99.9071 67.6086 100.34 67.3991C100.774 67.1901 101.256 67.0857 101.787 67.0857C102.95 67.0857 103.735 67.4911 104.143 68.3022C104.368 68.7459 104.48 69.381 104.48 70.2074V75.4639H103.08V70.2994C103.08 69.7991 103.006 69.3963 102.858 69.0903C102.613 68.5802 102.169 68.3249 101.526 68.3249C101.2 68.3249 100.932 68.3583 100.723 68.4247C100.346 68.5369 100.014 68.7612 99.7285 69.0977C99.4988 69.3682 99.3483 69.6486 99.277 69.9398C99.2106 70.2251 99.1776 70.6358 99.1776 71.1715V75.4639H97.8003V67.2693Z" fill="#4C83C3"/>
</g>
<defs>
<clipPath id="clip0_217_2031">
<rect width="105.567" height="80" fill="white"/>
</clipPath>
</defs>
</svg>
