<svg width="422" height="400" viewBox="0 0 422 400" fill="none" xmlns="http://www.w3.org/2000/svg">
<path d="M31.3545 28.5316H32.633V32.4177C32.9368 32.038 33.2026 31.7722 33.4431 31.6076C33.8608 31.3418 34.3672 31.2025 34.9874 31.2025C36.0887 31.2025 36.8355 31.5823 37.2279 32.3544C37.4431 32.7722 37.5444 33.3544 37.5444 34.1013V38.9747H36.2406V34.1899C36.2406 33.6329 36.1646 33.2152 36.0254 32.962C35.7975 32.5443 35.3545 32.3418 34.7216 32.3418C34.1899 32.3418 33.7089 32.519 33.2785 32.8861C32.8482 33.2532 32.633 33.9367 32.633 34.9494V38.9873H31.3545V28.5443V28.5316Z" fill="#4C83C3"/>
<path d="M46.0256 35.0253C46.0256 36.2532 45.7218 37.2658 45.1268 38.0633C44.5319 38.8608 43.6079 39.2658 42.342 39.2658C41.2914 39.2658 40.4686 38.9114 39.8484 38.2025C39.2281 37.4937 38.9243 36.5443 38.9243 35.3544C38.9243 34.076 39.2534 33.0633 39.899 32.3038C40.5446 31.5443 41.418 31.1646 42.5193 31.1646C43.4939 31.1646 44.3294 31.4937 45.0129 32.1392C45.6965 32.7975 46.0256 33.7468 46.0256 35.0253ZM44.6838 35.0633C44.6838 34.3544 44.5699 33.7722 44.342 33.3291C43.975 32.6329 43.3547 32.2785 42.4813 32.2785C41.6965 32.2785 41.1268 32.5823 40.7724 33.1772C40.418 33.7722 40.2408 34.4937 40.2408 35.3291C40.2408 36.1646 40.418 36.8101 40.7724 37.3544C41.1268 37.8987 41.6965 38.1646 42.4686 38.1646C43.3167 38.1646 43.899 37.8481 44.2155 37.2025C44.5319 36.557 44.6838 35.8481 44.6838 35.0633Z" fill="#4C83C3"/>
<path d="M48.2407 36.5949C48.2786 37.0127 48.3799 37.3418 48.5571 37.5696C48.8736 37.9873 49.4305 38.1899 50.228 38.1899C50.6964 38.1899 51.1141 38.0886 51.4812 37.8861C51.8482 37.6835 52.0255 37.3544 52.0255 36.9241C52.0255 36.5949 51.8862 36.3544 51.5951 36.1899C51.4052 36.0886 51.0508 35.962 50.5065 35.8228L49.4938 35.5696C48.8483 35.4051 48.3672 35.2278 48.0634 35.038C47.5191 34.6962 47.2407 34.2152 47.2407 33.6076C47.2407 32.8861 47.5065 32.3165 48.0255 31.8608C48.5445 31.4177 49.2407 31.1899 50.1267 31.1899C51.2786 31.1899 52.1014 31.5316 52.6077 32.2025C52.9242 32.6203 53.0761 33.0886 53.0634 33.5696H51.8609C51.8356 33.2785 51.7343 33.0253 51.5571 32.7848C51.266 32.443 50.7596 32.2785 50.0255 32.2785C49.5445 32.2785 49.1774 32.3671 48.9242 32.557C48.671 32.7468 48.5571 32.9873 48.5571 33.2911C48.5571 33.6203 48.7217 33.8861 49.0508 34.0886C49.2407 34.2025 49.5191 34.3038 49.8862 34.3924L50.7343 34.6076C51.6457 34.8354 52.266 35.0506 52.5824 35.2532C53.0761 35.5823 53.3293 36.1013 53.3293 36.7975C53.3293 37.4937 53.0761 38.0506 52.5571 38.5443C52.0381 39.038 51.266 39.2785 50.2153 39.2785C49.0888 39.2785 48.2786 39.0253 47.8103 38.5063C47.3419 38 47.0888 37.3544 47.0508 36.6076H48.2786L48.2407 36.5949Z" fill="#4C83C3"/>
<path d="M54.975 29.2658H56.2662V31.3797H57.4814V32.4304H56.2662V37.3797C56.2662 37.6456 56.3548 37.8228 56.532 37.9114C56.6333 37.962 56.7978 37.9873 57.0257 37.9873C57.0889 37.9873 57.1522 37.9873 57.2282 37.9873C57.3041 37.9873 57.3801 37.9873 57.4814 37.9747V38.9747C57.3295 39.0253 57.1776 39.0506 57.0257 39.0633C56.8611 39.076 56.6965 39.0886 56.5067 39.0886C55.9117 39.0886 55.5067 38.9367 55.2915 38.6329C55.0763 38.3291 54.975 37.9367 54.975 37.443V32.4177H53.9497V31.3671H54.975V29.2532V29.2658Z" fill="#4C83C3"/>
<path d="M64.456 32.5823C64.7092 32.962 64.8864 33.4177 64.9623 33.9241C65.0383 34.2785 65.0762 34.8354 65.0762 35.5949H59.494C59.5193 36.3671 59.6965 36.9873 60.0383 37.4557C60.38 37.9241 60.9117 38.1519 61.6206 38.1519C62.2914 38.1519 62.8231 37.9367 63.2155 37.4937C63.4433 37.2405 63.6079 36.9367 63.6965 36.6076H64.9497C64.9117 36.8861 64.8104 37.2025 64.6206 37.5443C64.4307 37.8861 64.2281 38.1646 63.9876 38.3797C63.5952 38.7595 63.1142 39.0127 62.5446 39.1519C62.2408 39.2279 61.8864 39.2658 61.494 39.2658C60.5446 39.2658 59.7471 38.9241 59.0889 38.2405C58.4307 37.557 58.1016 36.5949 58.1016 35.3544C58.1016 34.1139 58.4307 33.1392 59.1016 32.3797C59.7598 31.6203 60.6332 31.2405 61.7092 31.2405C62.2535 31.2405 62.7724 31.3671 63.2788 31.6203C63.7851 31.8734 64.1775 32.2025 64.4433 32.6076L64.456 32.5823ZM63.7724 34.5823C63.7218 34.0253 63.5952 33.5823 63.4054 33.2532C63.0509 32.6456 62.4687 32.3291 61.6459 32.3291C61.0636 32.3291 60.5699 32.5443 60.1649 32.962C59.7725 33.3798 59.5573 33.9241 59.5319 34.5696H63.7598L63.7724 34.5823Z" fill="#4C83C3"/>
<path d="M70.8484 31.6203C71.0762 31.7595 71.3294 32.0127 71.6205 32.3671V28.5316H72.8484V38.9747H71.6965V37.9114C71.3927 38.3797 71.0509 38.7215 70.6332 38.9367C70.2281 39.1392 69.7598 39.2405 69.2281 39.2405C68.38 39.2405 67.6458 38.8861 67.0256 38.1772C66.4053 37.4684 66.0889 36.519 66.0889 35.3418C66.0889 34.2278 66.3673 33.2785 66.937 32.4684C67.5066 31.6582 68.3167 31.2532 69.3673 31.2532C69.9496 31.2532 70.4433 31.3797 70.8357 31.6203H70.8484ZM69.6458 38.1392C70.2408 38.1392 70.7218 37.8861 71.1015 37.3797C71.4813 36.8734 71.6711 36.1392 71.6711 35.1899C71.6711 34.2405 71.4686 33.519 71.0762 33.0633C70.6838 32.6076 70.2028 32.3797 69.6205 32.3797C68.9749 32.3797 68.456 32.6203 68.0509 33.1139C67.6458 33.6076 67.456 34.3291 67.456 35.2785C67.456 36.0886 67.6332 36.7722 67.9749 37.3291C68.3167 37.8734 68.8737 38.1519 69.6332 38.1519L69.6458 38.1392Z" fill="#4C83C3"/>
<path d="M78.6962 28.5316H79.9368V32.3038C80.2152 31.9367 80.5444 31.6709 80.9368 31.481C81.3292 31.2911 81.7469 31.1899 82.2026 31.1899C83.1519 31.1899 83.9241 31.519 84.5064 32.1646C85.1013 32.8101 85.3924 33.7722 85.3924 35.038C85.3924 36.2405 85.1013 37.2278 84.519 38.0253C83.9368 38.8228 83.1266 39.2152 82.0887 39.2152C81.5064 39.2152 81.0254 39.0759 80.6203 38.7975C80.3798 38.6329 80.1266 38.3671 79.8608 38.0127V38.9873H78.6836V28.5443L78.6962 28.5316ZM84.0887 35.0886C84.0887 34.2911 83.9114 33.6329 83.5697 33.1013C83.2279 32.5696 82.7216 32.3165 82.0507 32.3165C81.4684 32.3165 80.9621 32.5316 80.519 32.962C80.076 33.3924 79.8608 34.1013 79.8608 35.0886C79.8608 35.8101 79.9494 36.3797 80.1266 36.8228C80.4684 37.6582 81.0887 38.0759 82.0127 38.0759C82.7089 38.0759 83.2279 37.7975 83.5697 37.2532C83.9114 36.7089 84.0887 35.9873 84.0887 35.0759V35.0886Z" fill="#4C83C3"/>
<path d="M91.4051 31.3924H92.8228C92.6456 31.8734 92.2406 32.9873 91.6203 34.7215C91.1519 36.0253 90.7722 37.0886 90.4557 37.9114C89.7216 39.8481 89.1899 41.0253 88.8861 41.4557C88.5823 41.8861 88.0633 42.0886 87.3165 42.0886C87.1393 42.0886 87 42.0886 86.8988 42.0633C86.7975 42.0506 86.6836 42.0253 86.5444 41.9873V40.8101C86.7722 40.8734 86.9241 40.9114 87.0254 40.9241C87.1266 40.9367 87.2152 40.9494 87.2912 40.9494C87.5317 40.9494 87.7089 40.9114 87.8102 40.8354C87.9241 40.7595 88.0127 40.6582 88.0887 40.5443C88.114 40.5063 88.2026 40.3165 88.3418 39.962C88.4811 39.6076 88.595 39.3544 88.6583 39.1772L85.8481 31.3797H87.3038L89.3418 37.557L91.3925 31.3797L91.4051 31.3924Z" fill="#4C83C3"/>
<path d="M31.519 48.038H32.8988V52.8734L37.9874 48.038H39.9368L35.595 52.038L40.0633 57.962H38.2279L34.5697 52.9873L32.8988 54.5063V57.962H31.519V48.038Z" fill="#4C83C3" stroke="#4C83C3" stroke-width="0.3" stroke-miterlimit="10"/>
<path d="M45.3293 53.5696C45.6204 53.5316 45.823 53.4177 45.9242 53.2278C45.9749 53.1139 46.0128 52.962 46.0128 52.7722C46.0128 52.3544 45.861 52.0506 45.5445 51.8608C45.228 51.6709 44.785 51.5823 44.2154 51.5823C43.5445 51.5823 43.0761 51.7468 42.7977 52.0886C42.6458 52.2785 42.5445 52.557 42.4939 52.9367H41.304C41.3293 52.0506 41.6331 51.4304 42.2154 51.0759C42.7977 50.7342 43.4812 50.557 44.2534 50.557C45.1521 50.557 45.8736 50.7215 46.4306 51.038C46.9875 51.3671 47.266 51.8734 47.266 52.557V56.7215C47.266 56.8481 47.2913 56.9494 47.342 57.0253C47.3926 57.1013 47.5065 57.1392 47.6837 57.1392C47.7344 57.1392 47.8103 57.1392 47.8736 57.1392C47.9496 57.1392 48.0255 57.1266 48.1015 57.1013V58C47.8989 58.0506 47.747 58.0886 47.6458 58.1013C47.5445 58.1139 47.4053 58.1266 47.2154 58.1266C46.7723 58.1266 46.4559 57.9747 46.2534 57.6835C46.1521 57.5316 46.0761 57.3038 46.0382 57.0127C45.7723 57.3418 45.4053 57.6203 44.9116 57.8608C44.4179 58.1013 43.8863 58.2152 43.304 58.2152C42.5951 58.2152 42.0255 58.0127 41.5698 57.6076C41.1141 57.2025 40.8989 56.6962 40.8989 56.0759C40.8989 55.4051 41.1141 54.8861 41.5572 54.519C42.0002 54.1519 42.5698 53.924 43.2913 53.8354L45.3293 53.5823V53.5696ZM43.5951 57.1772C44.0508 57.1772 44.4812 57.076 44.8989 56.8734C45.6078 56.5443 45.9622 56.0127 45.9622 55.2658V54.2911C45.8103 54.3797 45.6078 54.4684 45.3546 54.5316C45.1141 54.5949 44.8609 54.6456 44.6331 54.6709L43.8609 54.7595C43.3926 54.8101 43.0508 54.9114 42.8103 55.038C42.4179 55.2532 42.2154 55.5823 42.2154 56.0506C42.2154 56.4051 42.3546 56.6835 42.6204 56.8861C42.8863 57.0886 43.2154 57.1899 43.5825 57.1899L43.5951 57.1772Z" fill="#4C83C3" stroke="#4C83C3" stroke-width="0.3" stroke-miterlimit="10"/>
<path d="M49.2534 57L53.7724 51.8101H49.5952V50.7342H55.4939V51.7215L51.0129 56.8861H55.6332V57.962H49.2661V57H49.2534Z" fill="#4C83C3" stroke="#4C83C3" stroke-width="0.3" stroke-miterlimit="10"/>
<path d="M61.3801 53.5696C61.6712 53.5316 61.8738 53.4177 61.975 53.2278C62.0257 53.1139 62.0636 52.962 62.0636 52.7722C62.0636 52.3544 61.9117 52.0506 61.5953 51.8608C61.2788 51.6709 60.8358 51.5823 60.2662 51.5823C59.5953 51.5823 59.1269 51.7468 58.8484 52.0886C58.6965 52.2785 58.5953 52.557 58.5446 52.9367H57.3548C57.3801 52.0506 57.6839 51.4304 58.2662 51.0759C58.8484 50.7342 59.532 50.557 60.3041 50.557C61.2029 50.557 61.9244 50.7215 62.4814 51.038C63.0383 51.3671 63.3168 51.8734 63.3168 52.557V56.7215C63.3168 56.8481 63.3421 56.9494 63.3927 57.0253C63.4434 57.1013 63.5573 57.1392 63.7345 57.1392C63.7852 57.1392 63.8611 57.1392 63.9244 57.1392C64.0003 57.1392 64.0763 57.1266 64.1522 57.1013V58C63.9497 58.0506 63.7978 58.0886 63.6965 58.1013C63.5953 58.1139 63.456 58.1266 63.2662 58.1266C62.8231 58.1266 62.5067 57.9747 62.3041 57.6835C62.2029 57.5316 62.1269 57.3038 62.0889 57.0127C61.8231 57.3418 61.456 57.6203 60.9624 57.8608C60.4687 58.1013 59.9371 58.2152 59.3548 58.2152C58.6459 58.2152 58.0763 58.0127 57.6206 57.6076C57.1649 57.2025 56.9497 56.6962 56.9497 56.0759C56.9497 55.4051 57.1649 54.8861 57.6079 54.519C58.051 54.1519 58.6206 53.924 59.3421 53.8354L61.3801 53.5823V53.5696ZM59.6459 57.1772C60.1016 57.1772 60.532 57.076 60.9497 56.8734C61.6586 56.5443 62.013 56.0127 62.013 55.2658V54.2911C61.8611 54.3797 61.6586 54.4684 61.4054 54.5316C61.1649 54.5949 60.9117 54.6456 60.6839 54.6709L59.9117 54.7595C59.4434 54.8101 59.1016 54.9114 58.8611 55.038C58.4687 55.2532 58.2662 55.5823 58.2662 56.0506C58.2662 56.4051 58.4054 56.6835 58.6712 56.8861C58.937 57.0886 59.2662 57.1899 59.6332 57.1899L59.6459 57.1772Z" fill="#4C83C3" stroke="#4C83C3" stroke-width="0.3" stroke-miterlimit="10"/>
<path d="M65.6079 48.038H66.8357V53.7975L70.1142 50.7215H71.7471L68.8357 53.4304L71.9117 57.9494H70.2788L67.899 54.3038L66.8231 55.2405V57.962H65.5952V48.038H65.6079Z" fill="#4C83C3" stroke="#4C83C3" stroke-width="0.3" stroke-miterlimit="10"/>
<path d="M73.228 48.0127H74.5065V51.7089C74.8103 51.3418 75.0761 51.0886 75.3166 50.9367C75.7344 50.6835 76.2407 50.557 76.8609 50.557C77.9622 50.557 78.709 50.9241 79.1014 51.6582C79.3166 52.0506 79.4179 52.6076 79.4179 53.3165V57.962H78.1141V53.4051C78.1141 52.8734 78.0382 52.481 77.8989 52.2278C77.6711 51.8354 77.228 51.6329 76.5951 51.6329C76.0635 51.6329 75.5825 51.8101 75.1521 52.1519C74.7217 52.4937 74.5065 53.1519 74.5065 54.1139V57.962H73.228V48.0127Z" fill="#4C83C3" stroke="#4C83C3" stroke-width="0.3" stroke-miterlimit="10"/>
<path d="M82.3163 55.6962C82.3543 56.1013 82.4556 56.4051 82.6328 56.6329C82.9492 57.0253 83.5062 57.2279 84.3037 57.2279C84.772 57.2279 85.1898 57.1266 85.5568 56.9367C85.9239 56.7468 86.1011 56.4304 86.1011 56.0253C86.1011 55.7215 85.9619 55.481 85.6708 55.3165C85.4809 55.2152 85.1265 55.1013 84.5822 54.9747L83.5695 54.7342C82.9239 54.5823 82.4429 54.4177 82.1391 54.2279C81.5948 53.8987 81.3163 53.443 81.3163 52.8608C81.3163 52.1772 81.5822 51.6203 82.1011 51.2025C82.6201 50.7848 83.3163 50.5696 84.2024 50.5696C85.3543 50.5696 86.1771 50.8861 86.6834 51.5316C86.9999 51.9367 87.1518 52.3671 87.1391 52.8354H85.9366C85.9113 52.557 85.81 52.3165 85.6328 52.0886C85.3417 51.7722 84.8353 51.6076 84.1011 51.6076C83.6201 51.6076 83.253 51.6962 82.9999 51.8734C82.7467 52.0506 82.6328 52.2785 82.6328 52.5696C82.6328 52.8861 82.7974 53.1392 83.1265 53.3291C83.3163 53.443 83.5948 53.5317 83.9619 53.6203L84.81 53.8228C85.7214 54.038 86.3416 54.2405 86.6581 54.4304C87.1518 54.7468 87.4049 55.2279 87.4049 55.8987C87.4049 56.5696 87.1518 57.0886 86.6328 57.557C86.1138 58.0253 85.3417 58.2658 84.291 58.2658C83.1644 58.2658 82.3543 58.0253 81.886 57.5317C81.4176 57.038 81.1644 56.443 81.1265 55.7215H82.3543L82.3163 55.6962Z" fill="#4C83C3" stroke="#4C83C3" stroke-width="0.3" stroke-miterlimit="10"/>
<path d="M89.3417 48.7089H90.6329V50.7215H91.8481V51.7215H90.6329V56.4304C90.6329 56.6835 90.7215 56.8481 90.8987 56.9367C91 56.9873 91.1645 57.0127 91.3924 57.0127C91.4556 57.0127 91.5189 57.0127 91.5949 57.0127C91.6708 57.0127 91.7468 57.0127 91.8481 57V57.962C91.6962 58 91.5443 58.038 91.3924 58.0506C91.2278 58.0633 91.0632 58.076 90.8734 58.076C90.2784 58.076 89.8734 57.9367 89.6582 57.6456C89.443 57.3544 89.3417 56.9747 89.3417 56.519V51.7342H88.3164V50.7342H89.3417V48.7215V48.7089Z" fill="#4C83C3" stroke="#4C83C3" stroke-width="0.3" stroke-miterlimit="10"/>
<path d="M97.4939 53.5696C97.785 53.5316 97.9875 53.4177 98.0888 53.2278C98.1394 53.1139 98.1774 52.962 98.1774 52.7722C98.1774 52.3544 98.0255 52.0506 97.709 51.8608C97.3926 51.6709 96.9495 51.5823 96.3799 51.5823C95.709 51.5823 95.2407 51.7468 94.9622 52.0886C94.8103 52.2785 94.709 52.557 94.6584 52.9367H93.4685C93.4939 52.0506 93.7977 51.4304 94.3799 51.0759C94.9622 50.7342 95.6458 50.557 96.4179 50.557C97.3166 50.557 98.0382 50.7215 98.5951 51.038C99.1521 51.3671 99.4306 51.8734 99.4306 52.557V56.7215C99.4306 56.8481 99.4559 56.9494 99.5065 57.0253C99.5571 57.1013 99.6711 57.1392 99.8483 57.1392C99.8989 57.1392 99.9749 57.1392 100.038 57.1392C100.114 57.1392 100.19 57.1266 100.266 57.1013V58C100.063 58.0506 99.9116 58.0886 99.8103 58.1013C99.709 58.1139 99.5698 58.1266 99.3799 58.1266C98.9369 58.1266 98.6204 57.9747 98.4179 57.6835C98.3166 57.5316 98.2407 57.3038 98.2027 57.0127C97.9369 57.3418 97.5698 57.6203 97.0761 57.8608C96.5825 58.1013 96.0508 58.2152 95.4685 58.2152C94.7597 58.2152 94.1901 58.0127 93.7344 57.6076C93.2787 57.2025 93.0635 56.6962 93.0635 56.0759C93.0635 55.4051 93.2787 54.8861 93.7217 54.519C94.1647 54.1519 94.7344 53.924 95.4559 53.8354L97.4939 53.5823V53.5696ZM95.7597 57.1772C96.2154 57.1772 96.6458 57.076 97.0635 56.8734C97.7723 56.5443 98.1268 56.0127 98.1268 55.2658V54.2911C97.9749 54.3797 97.7723 54.4684 97.5192 54.5316C97.2787 54.5949 97.0255 54.6456 96.7976 54.6709L96.0255 54.7595C95.5571 54.8101 95.2154 54.9114 94.9749 55.038C94.5825 55.2532 94.3799 55.5823 94.3799 56.0506C94.3799 56.4051 94.5192 56.6835 94.785 56.8861C95.0508 57.0886 95.3799 57.1899 95.747 57.1899L95.7597 57.1772Z" fill="#4C83C3" stroke="#4C83C3" stroke-width="0.3" stroke-miterlimit="10"/>
<path d="M101.734 50.7342H102.95V51.7595C103.317 51.3418 103.696 51.038 104.101 50.8481C104.507 50.6582 104.95 50.5696 105.443 50.5696C106.519 50.5696 107.253 50.9241 107.633 51.6456C107.848 52.038 107.95 52.5949 107.95 53.3291V57.9747H106.646V53.4177C106.646 52.9747 106.582 52.6203 106.443 52.3544C106.215 51.8987 105.798 51.6836 105.203 51.6836C104.899 51.6836 104.646 51.7089 104.456 51.7722C104.101 51.8734 103.798 52.076 103.532 52.3671C103.317 52.6076 103.177 52.8481 103.114 53.1013C103.051 53.3544 103.013 53.7215 103.013 54.1899V57.9747H101.734V50.7468V50.7342Z" fill="#4C83C3" stroke="#4C83C3" stroke-width="0.3" stroke-miterlimit="10"/>
<path d="M40.2153 66.4304H38.8356C38.6837 65.7975 38.3672 65.2911 37.8988 64.9114C37.4305 64.5316 36.7723 64.3544 35.9368 64.3544C34.9115 64.3544 34.0761 64.6962 33.4431 65.3798C32.8102 66.0633 32.4938 67.1139 32.4938 68.5316C32.4938 69.6962 32.7849 70.6329 33.3545 71.3544C33.9242 72.076 34.7723 72.443 35.9115 72.443C36.9495 72.443 37.7469 72.0633 38.2913 71.3038C38.5824 70.9114 38.7976 70.3798 38.9368 69.7215H40.3166C40.19 70.7595 39.7849 71.6456 39.0887 72.3544C38.2533 73.2025 37.1394 73.6203 35.7343 73.6203C34.5191 73.6203 33.5064 73.2658 32.671 72.5696C31.5824 71.6456 31.0381 70.2279 31.0381 68.2911C31.0381 66.8228 31.4432 65.6203 32.2533 64.6835C33.1394 63.6582 34.3545 63.1519 35.8988 63.1519C37.2153 63.1519 38.2533 63.481 38.9748 64.1519C39.6963 64.8228 40.114 65.5696 40.19 66.4051L40.2153 66.4304Z" fill="#4C83C3" stroke="#4C83C3" stroke-width="0.3" stroke-miterlimit="10"/>
<path d="M48.7849 69.6076C48.7849 70.7721 48.4811 71.7342 47.8861 72.4937C47.2912 73.2532 46.3671 73.6329 45.1013 73.6329C44.0507 73.6329 43.2279 73.2911 42.6076 72.6202C41.9874 71.9494 41.6836 71.0506 41.6836 69.9114C41.6836 68.6962 42.0127 67.7215 42.6583 67C43.3038 66.2785 44.1773 65.924 45.2785 65.924C46.2532 65.924 47.0887 66.2405 47.7722 66.8607C48.4557 67.481 48.7849 68.3924 48.7849 69.6076ZM47.4431 69.6456C47.4431 68.962 47.3292 68.4177 47.1013 68C46.7342 67.3291 46.114 67 45.2406 67C44.4557 67 43.8861 67.2785 43.5317 67.8481C43.1773 68.4177 43 69.1013 43 69.8987C43 70.6962 43.1773 71.3038 43.5317 71.8228C43.8861 72.3418 44.4557 72.5949 45.2279 72.5949C46.076 72.5949 46.6583 72.2911 46.9747 71.6835C47.2912 71.0759 47.4431 70.3924 47.4431 69.6456Z" fill="#4C83C3" stroke="#4C83C3" stroke-width="0.3" stroke-miterlimit="10"/>
<path d="M50.5444 66.1519H51.8103V67.1772C52.1141 66.8228 52.3925 66.5696 52.633 66.4051C53.0508 66.1266 53.5318 65.9873 54.0761 65.9873C54.6837 65.9873 55.1773 66.1266 55.5444 66.4177C55.7596 66.5823 55.9368 66.8101 56.1141 67.1266C56.3925 66.7468 56.7343 66.4557 57.1141 66.2658C57.4938 66.0759 57.9242 65.9873 58.4052 65.9873C59.4305 65.9873 60.1267 66.3418 60.4938 67.038C60.6963 67.4177 60.7976 67.924 60.7976 68.5696V73.3797H59.4685V68.3544C59.4685 67.8734 59.3419 67.5443 59.0887 67.3671C58.8356 67.1899 58.5318 67.1013 58.1647 67.1013C57.6584 67.1013 57.228 67.2658 56.8735 67.5823C56.5065 67.8987 56.3292 68.4304 56.3292 69.1772V73.3797H55.0254V68.6582C55.0254 68.1646 54.9622 67.8101 54.8356 67.5823C54.6457 67.2405 54.2786 67.0759 53.747 67.0759C53.266 67.0759 52.8229 67.2532 52.4305 67.6076C52.0381 67.962 51.8356 68.6076 51.8356 69.5316V73.3671H50.5571V66.1392L50.5444 66.1519Z" fill="#4C83C3" stroke="#4C83C3" stroke-width="0.3" stroke-miterlimit="10"/>
<path d="M62.8354 66.1772H64.0759V67.1392C64.329 66.8101 64.6075 66.557 64.9113 66.3797C65.3417 66.1139 65.848 65.9747 66.4303 65.9747C67.2911 65.9747 68.0252 66.2911 68.6202 66.9114C69.2278 67.5443 69.5189 68.4304 69.5189 69.6076C69.5189 71.1772 69.0885 72.3038 68.2151 72.9873C67.6708 73.4177 67.0252 73.6329 66.2911 73.6329C65.7215 73.6329 65.2404 73.519 64.848 73.2785C64.6202 73.1392 64.367 72.9114 64.0885 72.5823V76.2785H62.8101V66.1899L62.8354 66.1772ZM68.2278 69.7215C68.2278 69.1519 68.1392 68.6582 67.962 68.2405C67.6328 67.443 67.0252 67.0506 66.1392 67.0506C65.2531 67.0506 64.6455 67.4684 64.3164 68.3165C64.1392 68.7722 64.0506 69.3418 64.0506 70.0253C64.0506 70.5823 64.1392 71.0633 64.3164 71.443C64.6455 72.1899 65.2531 72.5696 66.1392 72.5696C66.7341 72.5696 67.2278 72.3291 67.6328 71.8608C68.0252 71.3924 68.2278 70.6709 68.2278 69.7342V69.7215Z" fill="#4C83C3" stroke="#4C83C3" stroke-width="0.3" stroke-miterlimit="10"/>
<path d="M77.2407 67.2785C77.4938 67.6456 77.671 68.0633 77.747 68.557C77.8229 68.8861 77.8609 69.4177 77.8609 70.1519H72.2786C72.304 70.8861 72.4812 71.481 72.8229 71.9241C73.1647 72.3671 73.6964 72.5823 74.4052 72.5823C75.0761 72.5823 75.6077 72.3797 76.0002 71.962C76.228 71.7215 76.3926 71.4304 76.4812 71.1139H77.7343C77.6964 71.3797 77.5951 71.6709 77.4052 72C77.2153 72.3291 77.0128 72.5949 76.7723 72.7975C76.3799 73.1519 75.8989 73.4051 75.3293 73.5316C75.0255 73.6076 74.671 73.6329 74.2786 73.6329C73.3293 73.6329 72.5318 73.3038 71.8736 72.6582C71.2153 72.0127 70.8862 71.0886 70.8862 69.9114C70.8862 68.7342 71.2153 67.8101 71.8862 67.0886C72.5445 66.3671 73.4179 66 74.4938 66C75.0381 66 75.5571 66.1139 76.0634 66.3544C76.5698 66.5949 76.9622 66.9114 77.228 67.2911L77.2407 67.2785ZM76.5571 69.1899C76.5065 68.6582 76.3799 68.2405 76.19 67.9241C75.8356 67.3418 75.2533 67.0506 74.4305 67.0506C73.8483 67.0506 73.3546 67.2532 72.9495 67.6582C72.5445 68.0633 72.3419 68.5696 72.3166 69.1899H76.5445H76.5571Z" fill="#4C83C3" stroke="#4C83C3" stroke-width="0.3" stroke-miterlimit="10"/>
<path d="M79.8481 64.1266H81.1392V66.1392H82.3544V67.1392H81.1392V71.8481C81.1392 72.1013 81.2278 72.2658 81.405 72.3544C81.5063 72.4051 81.6709 72.4304 81.8987 72.4304C81.962 72.4304 82.0253 72.4304 82.1012 72.4304C82.1772 72.4304 82.2531 72.4304 82.3544 72.4177V73.3798C82.2025 73.4177 82.0506 73.4557 81.8987 73.4684C81.7341 73.481 81.5696 73.4937 81.3797 73.4937C80.7848 73.4937 80.3797 73.3544 80.1645 73.0633C79.9493 72.7722 79.8481 72.3924 79.8481 71.9367V67.1519H78.8228V66.1519H79.8481V64.1392V64.1266Z" fill="#4C83C3" stroke="#4C83C3" stroke-width="0.3" stroke-miterlimit="10"/>
<path d="M84.4558 64.9241C84.3039 64.9241 84.152 64.8987 84.0255 64.8734C83.8989 64.8481 83.7723 64.7848 83.6837 64.7215C83.5951 64.6582 83.5191 64.5823 83.4558 64.481C83.4052 64.3924 83.3799 64.2911 83.3799 64.1772C83.3799 64.0633 83.4052 63.962 83.4685 63.8608C83.5318 63.7595 83.6077 63.6835 83.6963 63.6076C83.7976 63.5316 83.9115 63.481 84.0381 63.443C84.1647 63.4051 84.3166 63.3797 84.4685 63.3797C84.6204 63.3797 84.7596 63.4051 84.8862 63.443C85.0128 63.481 85.1267 63.5443 85.228 63.6076C85.3292 63.6835 85.4052 63.7722 85.4558 63.8608C85.5065 63.9494 85.5444 64.0633 85.5444 64.1772C85.5444 64.2911 85.5191 64.3797 85.4685 64.481C85.4179 64.5696 85.3419 64.6456 85.2406 64.7215C85.152 64.7848 85.0381 64.8354 84.8989 64.8734C84.7723 64.9114 84.6204 64.9241 84.4685 64.9241H84.4558ZM83.8103 66.1772H85.1141V73.3797H83.8103V66.1772ZM83.8103 66.1772H85.1141V73.3797H83.8103V66.1772Z" fill="#4C83C3" stroke="#4C83C3" stroke-width="0.3" stroke-miterlimit="10"/>
<path d="M87.5444 64.1266H88.8355V66.1392H90.0507V67.1392H88.8355V71.8481C88.8355 72.1013 88.9241 72.2658 89.1013 72.3544C89.2026 72.4051 89.3671 72.4304 89.595 72.4304C89.6583 72.4304 89.7216 72.4304 89.7975 72.4304C89.8735 72.4304 89.9494 72.4304 90.0507 72.4177V73.3798C89.8988 73.4177 89.7469 73.4557 89.595 73.4684C89.4304 73.481 89.2659 73.4937 89.076 73.4937C88.4811 73.4937 88.076 73.3544 87.8608 73.0633C87.6456 72.7722 87.5444 72.3924 87.5444 71.9367V67.1519H86.519V66.1519H87.5444V64.1392V64.1266Z" fill="#4C83C3" stroke="#4C83C3" stroke-width="0.3" stroke-miterlimit="10"/>
<path d="M92.1521 64.9241C92.0002 64.9241 91.8483 64.8987 91.7217 64.8734C91.5952 64.8481 91.4686 64.7848 91.38 64.7215C91.2914 64.6582 91.2154 64.5823 91.1521 64.481C91.1015 64.3924 91.0762 64.2911 91.0762 64.1772C91.0762 64.0633 91.1015 63.962 91.1648 63.8608C91.2281 63.7595 91.304 63.6835 91.3926 63.6076C91.4939 63.5316 91.6078 63.481 91.7344 63.443C91.861 63.4051 92.0129 63.3797 92.1648 63.3797C92.3167 63.3797 92.4559 63.4051 92.5825 63.443C92.7091 63.481 92.823 63.5443 92.9243 63.6076C93.0255 63.6835 93.1015 63.7722 93.1521 63.8608C93.2028 63.9494 93.2407 64.0633 93.2407 64.1772C93.2407 64.2911 93.2154 64.3797 93.1648 64.481C93.1141 64.5696 93.0382 64.6456 92.9369 64.7215C92.8483 64.7848 92.7344 64.8354 92.5952 64.8734C92.4686 64.9114 92.3167 64.9241 92.1648 64.9241H92.1521ZM91.5065 66.1772H92.8103V73.3797H91.5065V66.1772ZM91.5065 66.1772H92.8103V73.3797H91.5065V66.1772Z" fill="#4C83C3" stroke="#4C83C3" stroke-width="0.3" stroke-miterlimit="10"/>
<path d="M95.6583 66.1519L97.6962 72.038L99.8228 66.1519H101.228L98.3545 73.3797H96.9874L94.1772 66.1519H95.6583Z" fill="#4C83C3" stroke="#4C83C3" stroke-width="0.3" stroke-miterlimit="10"/>
<path d="M108.19 67.2785C108.443 67.6456 108.62 68.0633 108.696 68.557C108.772 68.8861 108.81 69.4177 108.81 70.1519H103.228C103.253 70.8861 103.43 71.481 103.772 71.9241C104.114 72.3671 104.646 72.5823 105.354 72.5823C106.025 72.5823 106.557 72.3797 106.949 71.962C107.177 71.7215 107.342 71.4304 107.43 71.1139H108.684C108.646 71.3797 108.544 71.6709 108.354 72C108.165 72.3291 107.962 72.5949 107.722 72.7975C107.329 73.1519 106.848 73.4051 106.278 73.5316C105.975 73.6076 105.62 73.6329 105.228 73.6329C104.278 73.6329 103.481 73.3038 102.823 72.6582C102.165 72.0127 101.835 71.0886 101.835 69.9114C101.835 68.7342 102.165 67.8101 102.835 67.0886C103.494 66.3671 104.367 66 105.443 66C105.987 66 106.506 66.1139 107.013 66.3544C107.519 66.5949 107.911 66.9114 108.177 67.2911L108.19 67.2785ZM107.494 69.1899C107.443 68.6582 107.316 68.2405 107.127 67.9241C106.772 67.3418 106.19 67.0506 105.367 67.0506C104.785 67.0506 104.291 67.2532 103.886 67.6582C103.481 68.0633 103.278 68.5696 103.253 69.1899H107.481H107.494Z" fill="#4C83C3" stroke="#4C83C3" stroke-width="0.3" stroke-miterlimit="10"/>
<path d="M31.6582 78.8734H36.3544C37.2784 78.8734 38.0379 79.1266 38.5949 79.6202C39.1645 80.1139 39.443 80.8101 39.443 81.7215C39.443 82.4937 39.1898 83.1772 38.6835 83.7468C38.1772 84.3165 37.3923 84.6076 36.3417 84.6076H33.0632V88.7975H31.6455V78.8734H31.6582ZM37.1772 80.2405C36.8607 80.1013 36.4303 80.038 35.886 80.038H33.0759V83.4684H35.886C36.5189 83.4684 37.0379 83.3418 37.4303 83.0886C37.8227 82.8354 38.0253 82.3797 38.0253 81.7342C38.0253 81 37.7468 80.5063 37.1772 80.2532V80.2405Z" fill="#4C83C3" stroke="#4C83C3" stroke-width="0.3" stroke-miterlimit="10"/>
<path d="M41.1392 81.5696H42.3544V82.8101C42.4556 82.5696 42.6961 82.2785 43.0885 81.9241C43.4809 81.5823 43.924 81.4051 44.4303 81.4051C44.4556 81.4051 44.4936 81.4051 44.5569 81.4051C44.6075 81.4051 44.7088 81.4177 44.848 81.4304V82.7089C44.7721 82.6962 44.6961 82.6835 44.6328 82.6835C44.5695 82.6835 44.4936 82.6835 44.4176 82.6835C43.7721 82.6835 43.2784 82.8861 42.9366 83.2785C42.5949 83.6709 42.4176 84.1266 42.4176 84.6456V88.8101H41.1392V81.5823V81.5696Z" fill="#4C83C3" stroke="#4C83C3" stroke-width="0.3" stroke-miterlimit="10"/>
<path d="M52.7595 85.038C52.7595 86.2025 52.4557 87.1646 51.8607 87.9241C51.2658 88.6835 50.3417 89.0633 49.0759 89.0633C48.0253 89.0633 47.2025 88.7215 46.5823 88.0506C45.962 87.3797 45.6582 86.481 45.6582 85.3418C45.6582 84.1266 45.9873 83.1519 46.6329 82.4304C47.2785 81.7089 48.1519 81.3544 49.2531 81.3544C50.2278 81.3544 51.0633 81.6709 51.7468 82.2911C52.4304 82.9114 52.7595 83.8228 52.7595 85.038ZM51.4177 85.0633C51.4177 84.3797 51.3038 83.8354 51.0759 83.4177C50.7088 82.7468 50.0886 82.4177 49.2152 82.4177C48.4304 82.4177 47.8607 82.6962 47.5063 83.2658C47.1519 83.8354 46.9747 84.519 46.9747 85.3165C46.9747 86.1139 47.1519 86.7215 47.5063 87.2405C47.8607 87.7595 48.4304 88.0127 49.2025 88.0127C50.0506 88.0127 50.6329 87.7089 50.9493 87.1013C51.2658 86.4937 51.4177 85.8101 51.4177 85.0633Z" fill="#4C83C3" stroke="#4C83C3" stroke-width="0.3" stroke-miterlimit="10"/>
<path d="M58.8357 81.8481C59.0762 82.0127 59.3167 82.2405 59.5698 82.5316V81.6203H60.7471V88.1899C60.7471 89.1139 60.6078 89.8354 60.3167 90.3671C59.785 91.3544 58.785 91.8355 57.304 91.8355C56.4812 91.8355 55.7977 91.6582 55.2407 91.3165C54.6838 90.962 54.3673 90.4177 54.304 89.6835H55.6078C55.6711 90.0127 55.7977 90.2658 55.9749 90.443C56.266 90.7089 56.7217 90.8481 57.342 90.8481C58.3167 90.8481 58.9623 90.519 59.266 89.8608C59.4433 89.4684 59.5319 88.7722 59.5192 87.7848C59.266 88.1519 58.9496 88.4304 58.5952 88.6076C58.2281 88.7848 57.7597 88.8734 57.1648 88.8734C56.342 88.8734 55.6205 88.5949 55.0002 88.038C54.38 87.481 54.0762 86.5696 54.0762 85.2785C54.0762 84.0633 54.3926 83.1139 55.0129 82.443C55.6331 81.7722 56.3926 81.4304 57.266 81.4304C57.861 81.4304 58.38 81.5696 58.8357 81.8481ZM57.5066 82.519C56.6078 82.519 55.9876 82.9241 55.6585 83.7215C55.4812 84.1519 55.3926 84.7089 55.3926 85.3924C55.3926 86.2025 55.5698 86.8228 55.9116 87.2532C56.266 87.6836 56.7344 87.8861 57.3167 87.8861C58.2407 87.8861 58.8863 87.4937 59.266 86.6962C59.4812 86.2532 59.5825 85.7342 59.5825 85.1393C59.5825 84.2405 59.3926 83.5823 59.0002 83.1519C58.6078 82.7215 58.1142 82.5063 57.5066 82.5063V82.519Z" fill="#4C83C3" stroke="#4C83C3" stroke-width="0.3" stroke-miterlimit="10"/>
<path d="M62.9116 81.5696H64.1268V82.8101C64.2281 82.5696 64.4686 82.2785 64.861 81.9241C65.2534 81.5823 65.6964 81.4051 66.2028 81.4051C66.2281 81.4051 66.2661 81.4051 66.3293 81.4051C66.38 81.4051 66.4812 81.4177 66.6205 81.4304V82.7089C66.5445 82.6962 66.4686 82.6835 66.4053 82.6835C66.342 82.6835 66.2661 82.6835 66.1901 82.6835C65.5445 82.6835 65.0509 82.8861 64.7091 83.2785C64.3673 83.6709 64.1901 84.1266 64.1901 84.6456V88.8101H62.9116V81.5823V81.5696Z" fill="#4C83C3" stroke="#4C83C3" stroke-width="0.3" stroke-miterlimit="10"/>
<path d="M71.9875 84.4177C72.2786 84.3797 72.4812 84.2658 72.5824 84.0759C72.6331 83.962 72.6711 83.8101 72.6711 83.6202C72.6711 83.2025 72.5192 82.8987 72.2027 82.7089C71.8862 82.519 71.4432 82.4304 70.8736 82.4304C70.2027 82.4304 69.7343 82.5949 69.4559 82.9367C69.304 83.1266 69.2027 83.4051 69.1521 83.7848H67.9622C67.9875 82.8987 68.2913 82.2785 68.8736 81.9241C69.4559 81.5823 70.1394 81.4051 70.9116 81.4051C71.8103 81.4051 72.5318 81.5696 73.0888 81.8861C73.6457 82.2152 73.9242 82.7215 73.9242 83.4051V87.5696C73.9242 87.6962 73.9495 87.7975 74.0002 87.8734C74.0508 87.9494 74.1647 87.9873 74.3419 87.9873C74.3926 87.9873 74.4685 87.9873 74.5318 87.9873C74.6078 87.9873 74.6837 87.9747 74.7597 87.9494V88.8481C74.5571 88.8987 74.4052 88.9367 74.304 88.9494C74.2027 88.962 74.0635 88.9747 73.8736 88.9747C73.4305 88.9747 73.1141 88.8228 72.9116 88.5316C72.8103 88.3797 72.7343 88.1519 72.6964 87.8608C72.4305 88.1899 72.0635 88.4684 71.5698 88.7089C71.0761 88.9494 70.5445 89.0633 69.9622 89.0633C69.2533 89.0633 68.6837 88.8608 68.228 88.4557C67.7723 88.0506 67.5571 87.5443 67.5571 86.924C67.5571 86.2532 67.7723 85.7342 68.2154 85.3671C68.6584 85 69.228 84.7722 69.9495 84.6835L71.9875 84.4304V84.4177ZM70.2533 88.0127C70.709 88.0127 71.1394 87.9114 71.5571 87.7089C72.266 87.3797 72.6204 86.8481 72.6204 86.1013V85.1266C72.4685 85.2152 72.266 85.3038 72.0128 85.3671C71.7723 85.4304 71.5192 85.481 71.2913 85.5063L70.5192 85.5949C70.0508 85.6456 69.709 85.7468 69.4685 85.8734C69.0761 86.0886 68.8736 86.4177 68.8736 86.8861C68.8736 87.2405 69.0128 87.519 69.2786 87.7215C69.5445 87.9241 69.8736 88.0253 70.2407 88.0253L70.2533 88.0127Z" fill="#4C83C3" stroke="#4C83C3" stroke-width="0.3" stroke-miterlimit="10"/>
<path d="M76.228 81.5696H77.4939V82.5949C77.7976 82.2405 78.0761 81.9873 78.3166 81.8228C78.7344 81.5443 79.2154 81.4051 79.7597 81.4051C80.3673 81.4051 80.8609 81.5443 81.228 81.8354C81.4432 82 81.6204 82.2278 81.7976 82.5443C82.0761 82.1646 82.4179 81.8734 82.7977 81.6835C83.1774 81.4937 83.6078 81.4051 84.0888 81.4051C85.1141 81.4051 85.8103 81.7595 86.1774 82.4557C86.3799 82.8354 86.4812 83.3418 86.4812 83.9873V88.7975H85.1521V83.7722C85.1521 83.2911 85.0255 82.962 84.7723 82.7848C84.5192 82.6076 84.2154 82.519 83.8483 82.519C83.342 82.519 82.9116 82.6835 82.5571 83C82.1901 83.3165 82.0128 83.8481 82.0128 84.5949V88.7975H80.709V84.0759C80.709 83.5823 80.6457 83.2278 80.5192 83C80.3293 82.6582 79.9622 82.4937 79.4306 82.4937C78.9495 82.4937 78.5065 82.6709 78.1141 83.0253C77.7217 83.3797 77.5192 84.0253 77.5192 84.9494V88.7848H76.2407V81.557L76.228 81.5696Z" fill="#4C83C3" stroke="#4C83C3" stroke-width="0.3" stroke-miterlimit="10"/>
<path d="M88.5698 81.5696H89.8356V82.5949C90.1394 82.2405 90.4179 81.9873 90.6584 81.8228C91.0762 81.5443 91.5572 81.4051 92.1015 81.4051C92.7091 81.4051 93.2027 81.5443 93.5698 81.8354C93.785 82 93.9622 82.2278 94.1394 82.5443C94.4179 82.1646 94.7597 81.8734 95.1394 81.6835C95.5192 81.4937 95.9496 81.4051 96.4306 81.4051C97.4559 81.4051 98.1521 81.7595 98.5192 82.4557C98.7217 82.8354 98.823 83.3418 98.823 83.9873V88.7975H97.4939V83.7722C97.4939 83.2911 97.3673 82.962 97.1141 82.7848C96.861 82.6076 96.5572 82.519 96.1901 82.519C95.6838 82.519 95.2534 82.6835 94.8989 83C94.5318 83.3165 94.3546 83.8481 94.3546 84.5949V88.7975H93.0508V84.0759C93.0508 83.5823 92.9875 83.2278 92.861 83C92.6711 82.6582 92.304 82.4937 91.7724 82.4937C91.2913 82.4937 90.8483 82.6709 90.4559 83.0253C90.0635 83.3797 89.861 84.0253 89.861 84.9494V88.7848H88.5825V81.557L88.5698 81.5696Z" fill="#4C83C3" stroke="#4C83C3" stroke-width="0.3" stroke-miterlimit="10"/>
<path d="M101.532 80.3418C101.38 80.3418 101.228 80.3165 101.102 80.2911C100.975 80.2658 100.848 80.2025 100.76 80.1392C100.671 80.076 100.595 80 100.532 79.8987C100.481 79.8101 100.456 79.7089 100.456 79.5949C100.456 79.481 100.481 79.3797 100.545 79.2785C100.608 79.1772 100.684 79.1013 100.773 79.0253C100.874 78.9494 100.988 78.8987 101.114 78.8608C101.241 78.8228 101.393 78.7975 101.545 78.7975C101.697 78.7975 101.836 78.8228 101.962 78.8608C102.089 78.8987 102.203 78.962 102.304 79.0253C102.405 79.1013 102.481 79.1899 102.532 79.2785C102.583 79.3671 102.621 79.481 102.621 79.5949C102.621 79.7089 102.595 79.7975 102.545 79.8987C102.494 79.9873 102.418 80.0633 102.317 80.1392C102.228 80.2025 102.114 80.2532 101.975 80.2911C101.848 80.3291 101.697 80.3418 101.545 80.3418H101.532ZM100.886 81.5949H102.19V88.7975H100.886V81.5949ZM100.886 81.5949H102.19V88.7975H100.886V81.5949Z" fill="#4C83C3" stroke="#4C83C3" stroke-width="0.3" stroke-miterlimit="10"/>
<path d="M104.342 81.5696H105.557V82.5949C105.924 82.1772 106.304 81.8734 106.709 81.6835C107.114 81.4937 107.557 81.4051 108.051 81.4051C109.127 81.4051 109.861 81.7595 110.241 82.481C110.456 82.8734 110.557 83.4304 110.557 84.1646V88.8101H109.253V84.2532C109.253 83.8101 109.19 83.4557 109.051 83.1899C108.823 82.7342 108.405 82.519 107.81 82.519C107.506 82.519 107.253 82.5443 107.063 82.6076C106.709 82.7089 106.405 82.9114 106.139 83.2025C105.924 83.443 105.785 83.6835 105.722 83.9367C105.658 84.1899 105.62 84.557 105.62 85.0253V88.8101H104.342V81.5823V81.5696Z" fill="#4C83C3" stroke="#4C83C3" stroke-width="0.3" stroke-miterlimit="10"/>
<path d="M116.988 81.8481C117.228 82.0127 117.469 82.2405 117.722 82.5316V81.6203H118.899V88.1899C118.899 89.1139 118.76 89.8354 118.469 90.3671C117.937 91.3544 116.937 91.8355 115.456 91.8355C114.633 91.8355 113.95 91.6582 113.393 91.3165C112.836 90.962 112.519 90.4177 112.456 89.6835H113.76C113.823 90.0127 113.95 90.2658 114.127 90.443C114.418 90.7089 114.874 90.8481 115.494 90.8481C116.469 90.8481 117.114 90.519 117.418 89.8608C117.595 89.4684 117.684 88.7722 117.671 87.7848C117.418 88.1519 117.101 88.4304 116.747 88.6076C116.38 88.7848 115.912 88.8734 115.317 88.8734C114.494 88.8734 113.772 88.5949 113.152 88.038C112.532 87.481 112.228 86.5696 112.228 85.2785C112.228 84.0633 112.544 83.1139 113.165 82.443C113.785 81.7722 114.544 81.4304 115.418 81.4304C116.013 81.4304 116.532 81.5696 116.988 81.8481ZM115.646 82.519C114.747 82.519 114.127 82.9241 113.798 83.7215C113.62 84.1519 113.532 84.7089 113.532 85.3924C113.532 86.2025 113.709 86.8228 114.051 87.2532C114.405 87.6836 114.874 87.8861 115.456 87.8861C116.38 87.8861 117.025 87.4937 117.405 86.6962C117.62 86.2532 117.722 85.7342 117.722 85.1393C117.722 84.2405 117.532 83.5823 117.139 83.1519C116.747 82.7215 116.253 82.5063 115.646 82.5063V82.519Z" fill="#4C83C3" stroke="#4C83C3" stroke-width="0.3" stroke-miterlimit="10"/>
<path d="M31.6582 94.2911H38.8987V95.5063H33.0632V98.519H38.1898V99.6962H33.0632V104.215H31.6455V94.2911H31.6582Z" fill="#4C83C3" stroke="#4C83C3" stroke-width="0.3" stroke-miterlimit="10"/>
<path d="M46.1518 98.1139C46.405 98.481 46.5822 98.8987 46.6581 99.3924C46.7341 99.7215 46.772 100.253 46.772 100.987H41.1898C41.2151 101.722 41.3923 102.316 41.7341 102.76C42.0758 103.203 42.6075 103.418 43.3163 103.418C43.9872 103.418 44.5189 103.215 44.9113 102.797C45.1391 102.557 45.3037 102.266 45.3923 101.949H46.6455C46.6075 102.215 46.5062 102.506 46.3164 102.835C46.1265 103.165 45.9239 103.43 45.6834 103.633C45.291 103.987 44.81 104.241 44.2404 104.367C43.9366 104.443 43.5822 104.468 43.1898 104.468C42.2404 104.468 41.4429 104.139 40.7847 103.494C40.1265 102.848 39.7974 101.924 39.7974 100.747C39.7974 99.5696 40.1265 98.6456 40.7974 97.9241C41.4556 97.2025 42.329 96.8354 43.405 96.8354C43.9493 96.8354 44.4682 96.9494 44.9746 97.1899C45.4809 97.4304 45.8733 97.7468 46.1391 98.1266L46.1518 98.1139ZM45.4556 100.025C45.405 99.4937 45.2784 99.076 45.0885 98.7595C44.7341 98.1772 44.1518 97.8861 43.329 97.8861C42.7467 97.8861 42.2531 98.0886 41.848 98.4937C41.4429 98.8987 41.2404 99.4051 41.2151 100.025H45.4429H45.4556Z" fill="#4C83C3" stroke="#4C83C3" stroke-width="0.3" stroke-miterlimit="10"/>
<path d="M52.8357 97.2152C53.0635 97.3418 53.3167 97.5823 53.6078 97.9241V94.2658H54.8357V104.215H53.6838V103.203C53.38 103.658 53.0382 103.975 52.6205 104.177C52.2154 104.38 51.7471 104.468 51.2154 104.468C50.3673 104.468 49.6331 104.127 49.0129 103.456C48.3926 102.772 48.0762 101.873 48.0762 100.759C48.0762 99.7089 48.3547 98.7848 48.9243 98.0127C49.4939 97.2405 50.304 96.8608 51.3547 96.8608C51.9369 96.8608 52.4306 96.9747 52.823 97.2025L52.8357 97.2152ZM51.6331 103.418C52.2281 103.418 52.7091 103.177 53.0888 102.696C53.4686 102.215 53.6585 101.519 53.6585 100.608C53.6585 99.6962 53.4559 99.0127 53.0635 98.5823C52.6711 98.1519 52.1901 97.9241 51.6078 97.9241C50.9622 97.9241 50.4433 98.1519 50.0382 98.6203C49.6331 99.0886 49.4433 99.7722 49.4433 100.684C49.4433 101.456 49.6205 102.114 49.9622 102.633C50.304 103.152 50.861 103.418 51.6205 103.418H51.6331Z" fill="#4C83C3" stroke="#4C83C3" stroke-width="0.3" stroke-miterlimit="10"/>
<path d="M62.8989 98.1139C63.152 98.481 63.3292 98.8987 63.4052 99.3924C63.4811 99.7215 63.5191 100.253 63.5191 100.987H57.9368C57.9622 101.722 58.1394 102.316 58.4811 102.76C58.8229 103.203 59.3546 103.418 60.0634 103.418C60.7343 103.418 61.266 103.215 61.6584 102.797C61.8862 102.557 62.0508 102.266 62.1394 101.949H63.3925C63.3546 102.215 63.2533 102.506 63.0634 102.835C62.8735 103.165 62.671 103.43 62.4305 103.633C62.0381 103.987 61.5571 104.241 60.9875 104.367C60.6837 104.443 60.3292 104.468 59.9368 104.468C58.9875 104.468 58.19 104.139 57.5318 103.494C56.8735 102.848 56.5444 101.924 56.5444 100.747C56.5444 99.5696 56.8735 98.6456 57.5444 97.9241C58.2027 97.2025 59.0761 96.8354 60.152 96.8354C60.6963 96.8354 61.2153 96.9494 61.7216 97.1899C62.228 97.4304 62.6204 97.7468 62.8862 98.1266L62.8989 98.1139ZM62.2027 100.025C62.152 99.4937 62.0254 99.076 61.8356 98.7595C61.4811 98.1772 60.8989 97.8861 60.0761 97.8861C59.4938 97.8861 59.0001 98.0886 58.5951 98.4937C58.19 98.8987 57.9875 99.4051 57.9622 100.025H62.19H62.2027Z" fill="#4C83C3" stroke="#4C83C3" stroke-width="0.3" stroke-miterlimit="10"/>
<path d="M65.3291 96.9873H66.5443V98.2278C66.6456 97.9873 66.8861 97.6962 67.2785 97.3418C67.6709 97 68.1139 96.8228 68.6202 96.8228C68.6456 96.8228 68.6835 96.8228 68.7468 96.8228C68.7975 96.8228 68.8987 96.8354 69.038 96.8481V98.1266C68.962 98.1139 68.8861 98.1013 68.8228 98.1013C68.7595 98.1013 68.6835 98.1013 68.6076 98.1013C67.962 98.1013 67.4683 98.3038 67.1266 98.6962C66.7848 99.0886 66.6076 99.5443 66.6076 100.063V104.228H65.3291V97V96.9873Z" fill="#4C83C3" stroke="#4C83C3" stroke-width="0.3" stroke-miterlimit="10"/>
<path d="M74.405 99.8354C74.6961 99.7975 74.8987 99.6835 74.9999 99.4937C75.0506 99.3797 75.0885 99.2278 75.0885 99.038C75.0885 98.6203 74.9366 98.3165 74.6202 98.1266C74.3037 97.9367 73.8607 97.8481 73.2911 97.8481C72.6202 97.8481 72.1518 98.0127 71.8733 98.3544C71.7214 98.5443 71.6202 98.8228 71.5695 99.2025H70.3797C70.405 98.3165 70.7088 97.6962 71.2911 97.3418C71.8733 97 72.5569 96.8228 73.329 96.8228C74.2278 96.8228 74.9493 96.9873 75.5063 97.3038C76.0632 97.6329 76.3417 98.1392 76.3417 98.8228V102.987C76.3417 103.114 76.367 103.215 76.4176 103.291C76.4683 103.367 76.5822 103.405 76.7594 103.405C76.8101 103.405 76.886 103.405 76.9493 103.405C77.0252 103.405 77.1012 103.392 77.1771 103.367V104.266C76.9746 104.316 76.8227 104.354 76.7214 104.367C76.6202 104.38 76.4809 104.392 76.2911 104.392C75.848 104.392 75.5316 104.241 75.329 103.949C75.2278 103.797 75.1518 103.57 75.1139 103.278C74.848 103.608 74.4809 103.886 73.9873 104.127C73.4936 104.367 72.962 104.481 72.3797 104.481C71.6708 104.481 71.1012 104.278 70.6455 103.873C70.1898 103.468 69.9746 102.962 69.9746 102.342C69.9746 101.671 70.1898 101.152 70.6328 100.785C71.0759 100.418 71.6455 100.19 72.367 100.101L74.405 99.8481V99.8354ZM72.6708 103.43C73.1265 103.43 73.5569 103.329 73.9746 103.127C74.6835 102.797 75.0379 102.266 75.0379 101.519V100.544C74.886 100.633 74.6835 100.722 74.4303 100.785C74.1898 100.848 73.9366 100.899 73.7088 100.924L72.9366 101.013C72.4683 101.063 72.1265 101.165 71.886 101.291C71.4936 101.506 71.2911 101.835 71.2911 102.304C71.2911 102.658 71.4303 102.937 71.6961 103.139C71.962 103.342 72.2911 103.443 72.6582 103.443L72.6708 103.43Z" fill="#4C83C3" stroke="#4C83C3" stroke-width="0.3" stroke-miterlimit="10"/>
<path d="M78.7978 94.9747H80.0889V96.9873H81.3041V97.9873H80.0889V102.696C80.0889 102.949 80.1775 103.114 80.3547 103.203C80.456 103.253 80.6206 103.278 80.8484 103.278C80.9117 103.278 80.975 103.278 81.0509 103.278C81.1269 103.278 81.2028 103.278 81.3041 103.266V104.228C81.1522 104.266 81.0003 104.304 80.8484 104.316C80.6839 104.329 80.5193 104.342 80.3294 104.342C79.7345 104.342 79.3294 104.203 79.1142 103.911C78.899 103.62 78.7978 103.241 78.7978 102.785V98H77.7725V97H78.7978V94.9873V94.9747Z" fill="#4C83C3" stroke="#4C83C3" stroke-width="0.3" stroke-miterlimit="10"/>
<path d="M83.405 95.7595C83.2532 95.7595 83.1013 95.7342 82.9747 95.7089C82.8481 95.6835 82.7215 95.6202 82.6329 95.5569C82.5443 95.4937 82.4683 95.4177 82.4051 95.3164C82.3544 95.2278 82.3291 95.1266 82.3291 95.0126C82.3291 94.8987 82.3544 94.7975 82.4177 94.6962C82.481 94.5949 82.5569 94.519 82.6456 94.443C82.7468 94.3671 82.8608 94.3164 82.9873 94.2785C83.1139 94.2405 83.2658 94.2152 83.4177 94.2152C83.5696 94.2152 83.7089 94.2405 83.8354 94.2785C83.962 94.3164 84.0759 94.3797 84.1772 94.443C84.2785 94.519 84.3544 94.6076 84.4051 94.6962C84.4557 94.7848 84.4937 94.8987 84.4937 95.0126C84.4937 95.1266 84.4683 95.2152 84.4177 95.3164C84.3671 95.4051 84.2911 95.481 84.1899 95.5569C84.1013 95.6202 83.9873 95.6709 83.8481 95.7089C83.7215 95.7468 83.5696 95.7595 83.4177 95.7595H83.405ZM82.7721 97.0126H84.0759V104.215H82.7721V97.0126ZM82.7721 97.0126H84.0759V104.215H82.7721V97.0126Z" fill="#4C83C3" stroke="#4C83C3" stroke-width="0.3" stroke-miterlimit="10"/>
<path d="M92.8229 100.456C92.8229 101.62 92.5192 102.582 91.9242 103.342C91.3293 104.101 90.4052 104.481 89.1394 104.481C88.0888 104.481 87.266 104.139 86.6457 103.468C86.0255 102.797 85.7217 101.899 85.7217 100.759C85.7217 99.5443 86.0508 98.5696 86.6964 97.8481C87.3419 97.1266 88.2154 96.7722 89.3166 96.7722C90.2913 96.7722 91.1267 97.0886 91.8103 97.7089C92.4938 98.3291 92.8229 99.2405 92.8229 100.456ZM91.4938 100.481C91.4938 99.7975 91.3799 99.2532 91.1521 98.8355C90.785 98.1646 90.1647 97.8355 89.2913 97.8355C88.5065 97.8355 87.9369 98.1139 87.5824 98.6836C87.228 99.2532 87.0508 99.9367 87.0508 100.734C87.0508 101.532 87.228 102.139 87.5824 102.658C87.9369 103.177 88.5065 103.43 89.2786 103.43C90.1267 103.43 90.709 103.127 91.0255 102.519C91.3419 101.911 91.4938 101.228 91.4938 100.481Z" fill="#4C83C3" stroke="#4C83C3" stroke-width="0.3" stroke-miterlimit="10"/>
<path d="M94.5952 96.9873H95.8104V98.0127C96.1775 97.5949 96.5572 97.2911 96.9623 97.1013C97.3674 96.9114 97.8104 96.8228 98.3041 96.8228C99.38 96.8228 100.114 97.1772 100.494 97.8987C100.709 98.2911 100.81 98.8481 100.81 99.5823V104.228H99.5066V99.6709C99.5066 99.2278 99.4433 98.8734 99.3041 98.6076C99.0762 98.1519 98.6585 97.9367 98.0636 97.9367C97.7598 97.9367 97.5066 97.962 97.3167 98.0253C96.9623 98.1266 96.6585 98.3291 96.3927 98.6203C96.1775 98.8608 96.0382 99.1013 95.975 99.3544C95.9117 99.6076 95.8737 99.9747 95.8737 100.443V104.228H94.5952V97V96.9873Z" fill="#4C83C3" stroke="#4C83C3" stroke-width="0.3" stroke-miterlimit="10"/>
<path d="M292.76 381.013H125.671C119.063 381.013 113.696 375.633 113.696 369.038V349.532C113.696 342.924 119.076 337.557 125.671 337.557H292.76C299.367 337.557 304.734 342.937 304.734 349.532V369.038C304.734 375.646 299.355 381.013 292.76 381.013ZM125.671 338.722C119.709 338.722 114.861 343.57 114.861 349.532V369.038C114.861 375 119.709 379.848 125.671 379.848H292.76C298.722 379.848 303.57 375 303.57 369.038V349.532C303.57 343.57 298.722 338.722 292.76 338.722H125.671Z" fill="#4C83C3"/>
<path d="M129.633 351.57C128.557 351.57 127.772 351 127.772 350.215C127.772 349.43 128.595 348.772 129.633 348.772C130.671 348.772 131.494 349.405 131.494 350.215C131.494 351.025 130.709 351.57 129.633 351.57Z" fill="#B22C1B"/>
<path d="M128.494 353.734H130.759V366.266H128.494V353.734Z" fill="#B22C1B"/>
<path d="M142.367 354.342C143.304 355.038 143.874 356.215 144.063 357.899H141.899C141.772 357.127 141.469 356.481 141 355.962C140.532 355.443 139.772 355.19 138.734 355.19C137.317 355.19 136.304 355.848 135.684 357.165C135.291 358.013 135.089 359.076 135.089 360.329C135.089 361.582 135.367 362.646 135.937 363.506C136.494 364.367 137.38 364.797 138.582 364.797C139.506 364.797 140.241 364.532 140.785 364C141.329 363.468 141.696 362.734 141.912 361.797H144.076C143.823 363.468 143.203 364.684 142.215 365.456C141.228 366.228 139.962 366.62 138.418 366.62C136.684 366.62 135.304 366.013 134.266 364.81C133.228 363.608 132.722 362.101 132.722 360.304C132.722 358.089 133.291 356.367 134.418 355.139C135.544 353.911 136.987 353.291 138.747 353.291C140.241 353.291 141.456 353.633 142.393 354.329L142.367 354.342Z" fill="#B22C1B"/>
<path d="M146.102 353.734H148.279V355.405C148.722 354.835 149.215 354.392 149.747 354.076C150.507 353.608 151.38 353.367 152.405 353.367C153.912 353.367 155.19 353.911 156.241 355.013C157.291 356.101 157.823 357.671 157.823 359.696C157.823 362.443 157.064 364.405 155.545 365.57C154.583 366.316 153.469 366.684 152.19 366.684C151.19 366.684 150.342 366.481 149.671 366.063C149.279 365.823 148.836 365.43 148.342 364.848V371.278H146.114V353.722L146.102 353.734ZM154.494 363.608C155.19 362.785 155.532 361.544 155.532 359.899C155.532 358.899 155.38 358.038 155.076 357.316C154.494 355.924 153.431 355.241 151.899 355.241C150.367 355.241 149.291 355.975 148.722 357.443C148.418 358.228 148.266 359.228 148.266 360.43C148.266 361.405 148.418 362.228 148.722 362.911C149.304 364.215 150.367 364.861 151.899 364.861C152.937 364.861 153.81 364.443 154.507 363.62L154.494 363.608Z" fill="#B22C1B"/>
<path d="M169.165 354.342C170.101 355.038 170.671 356.215 170.861 357.899H168.696C168.57 357.127 168.266 356.481 167.798 355.962C167.329 355.443 166.57 355.19 165.532 355.19C164.114 355.19 163.101 355.848 162.481 357.165C162.089 358.013 161.886 359.076 161.886 360.329C161.886 361.582 162.165 362.646 162.734 363.506C163.291 364.367 164.177 364.797 165.38 364.797C166.304 364.797 167.038 364.532 167.582 364C168.127 363.468 168.494 362.734 168.709 361.797H170.873C170.62 363.468 170 364.684 169.013 365.456C168.025 366.228 166.76 366.62 165.215 366.62C163.481 366.62 162.101 366.013 161.063 364.81C160.025 363.608 159.519 362.101 159.519 360.304C159.519 358.089 160.089 356.367 161.215 355.139C162.342 353.911 163.785 353.291 165.544 353.291C167.038 353.291 168.253 353.633 169.19 354.329L169.165 354.342Z" fill="#B22C1B"/>
<path d="M174.582 366.316C173.506 366.316 172.722 365.747 172.722 364.962C172.722 364.177 173.544 363.519 174.582 363.519C175.62 363.519 176.443 364.152 176.443 364.962C176.443 365.772 175.658 366.316 174.582 366.316Z" fill="#B22C1B"/>
<path d="M261.988 351.532C260.912 351.532 260.127 350.962 260.127 350.177C260.127 349.392 260.95 348.734 261.988 348.734C263.026 348.734 263.848 349.367 263.848 350.177C263.848 350.987 263.064 351.532 261.988 351.532Z" fill="#B22C1B"/>
<path d="M260.848 353.722H263.114V366.253H260.848V353.722Z" fill="#B22C1B"/>
<path d="M180.114 349.81C180.62 349.089 181.595 348.734 183.025 348.734C183.165 348.734 183.304 348.734 183.443 348.734C183.582 348.734 183.747 348.76 183.937 348.772V350.696C183.709 350.684 183.544 350.671 183.443 350.671C183.342 350.671 183.241 350.671 183.152 350.671C182.494 350.671 182.089 350.835 181.962 351.165C181.835 351.494 181.772 352.342 181.772 353.709H183.937V355.38H181.772V366.253H179.633V355.38H177.848V353.709H179.633V351.734C179.658 350.861 179.823 350.215 180.101 349.81H180.114Z" fill="#B22C1B"/>
<path d="M195.101 354.911C196.241 355.987 196.81 357.582 196.81 359.684C196.81 361.785 196.304 363.392 195.304 364.709C194.304 366.038 192.747 366.696 190.646 366.696C188.886 366.696 187.494 366.114 186.456 364.937C185.418 363.759 184.912 362.19 184.912 360.215C184.912 358.101 185.456 356.418 186.545 355.165C187.633 353.911 189.101 353.278 190.937 353.278C192.582 353.278 193.975 353.823 195.114 354.899L195.101 354.911ZM193.76 363.278C194.291 362.215 194.545 361.038 194.545 359.734C194.545 358.557 194.355 357.608 193.975 356.873C193.38 355.709 192.342 355.139 190.861 355.139C189.557 355.139 188.608 355.633 188.013 356.62C187.418 357.608 187.127 358.797 187.127 360.19C187.127 361.582 187.418 362.646 188.013 363.544C188.608 364.443 189.545 364.886 190.836 364.886C192.253 364.886 193.228 364.354 193.747 363.291L193.76 363.278Z" fill="#B22C1B"/>
<path d="M201.633 353.646V362.013C201.633 362.658 201.734 363.177 201.937 363.595C202.317 364.354 203.013 364.722 204.026 364.722C205.494 364.722 206.494 364.063 207.013 362.747C207.304 362.038 207.443 361.076 207.443 359.835V353.646H209.608V366.24H207.57L207.595 364.38C207.317 364.861 206.975 365.266 206.57 365.595C205.76 366.253 204.785 366.582 203.62 366.582C201.823 366.582 200.595 365.987 199.95 364.785C199.595 364.139 199.418 363.278 199.418 362.203V353.633H201.633V353.646Z" fill="#B22C1B"/>
<path d="M213.013 353.646H215.063V355.43C215.671 354.696 216.317 354.165 217 353.848C217.684 353.532 218.43 353.367 219.266 353.367C221.089 353.367 222.316 353.987 222.962 355.241C223.316 355.924 223.494 356.899 223.494 358.165V366.24H221.291V358.304C221.291 357.532 221.177 356.911 220.949 356.443C220.57 355.658 219.873 355.266 218.861 355.266C218.354 355.266 217.924 355.316 217.595 355.418C217 355.595 216.481 355.937 216.038 356.456C215.684 356.873 215.443 357.304 215.342 357.747C215.228 358.19 215.177 358.823 215.177 359.646V366.24H213.013V353.646Z" fill="#B22C1B"/>
<path d="M233.912 354.038C234.291 354.278 234.734 354.684 235.215 355.278V348.911H237.291V366.253H235.342V364.506C234.836 365.278 234.241 365.848 233.557 366.19C232.874 366.532 232.089 366.709 231.203 366.709C229.772 366.709 228.545 366.114 227.494 364.937C226.443 363.759 225.924 362.19 225.924 360.228C225.924 358.392 226.405 356.797 227.355 355.456C228.304 354.114 229.671 353.443 231.443 353.443C232.418 353.443 233.241 353.646 233.912 354.051V354.038ZM229.089 363.481C229.671 364.392 230.608 364.848 231.886 364.848C232.886 364.848 233.696 364.43 234.342 363.582C234.988 362.734 235.304 361.532 235.304 359.949C235.304 358.367 234.975 357.177 234.317 356.418C233.658 355.658 232.836 355.266 231.874 355.266C230.785 355.266 229.912 355.671 229.241 356.494C228.57 357.304 228.228 358.506 228.228 360.089C228.228 361.443 228.519 362.57 229.102 363.481H229.089Z" fill="#B22C1B"/>
<path d="M247.367 358.62C247.861 358.557 248.19 358.354 248.367 358.013C248.469 357.823 248.506 357.557 248.506 357.203C248.506 356.481 248.241 355.949 247.722 355.62C247.203 355.291 246.456 355.127 245.481 355.127C244.355 355.127 243.557 355.43 243.089 356.025C242.823 356.354 242.658 356.848 242.57 357.506H240.557C240.595 355.949 241.114 354.861 242.101 354.253C243.089 353.646 244.228 353.342 245.532 353.342C247.038 353.342 248.266 353.62 249.215 354.19C250.152 354.759 250.62 355.633 250.62 356.823V364.076C250.62 364.291 250.671 364.468 250.76 364.608C250.848 364.747 251.051 364.81 251.342 364.81C251.443 364.81 251.544 364.81 251.671 364.797C251.798 364.797 251.924 364.772 252.051 364.747V366.316C251.709 366.405 251.456 366.468 251.279 366.494C251.101 366.519 250.861 366.532 250.557 366.532C249.81 366.532 249.279 366.279 248.937 365.76C248.76 365.481 248.633 365.101 248.57 364.595C248.127 365.165 247.494 365.646 246.671 366.063C245.848 366.481 244.937 366.684 243.95 366.684C242.76 366.684 241.785 366.329 241.025 365.62C240.266 364.911 239.886 364.025 239.886 362.962C239.886 361.797 240.253 360.886 241 360.253C241.747 359.608 242.722 359.215 243.924 359.063L247.367 358.646V358.62ZM242.823 364.342C243.279 364.696 243.823 364.873 244.443 364.873C245.203 364.873 245.937 364.696 246.646 364.354C247.848 363.785 248.443 362.848 248.443 361.544V359.835C248.177 360 247.836 360.139 247.431 360.253C247.013 360.367 246.608 360.443 246.203 360.494L244.899 360.658C244.114 360.76 243.532 360.924 243.139 361.139C242.468 361.506 242.139 362.089 242.139 362.899C242.139 363.506 242.367 363.987 242.823 364.342Z" fill="#B22C1B"/>
<path d="M254.392 350.139H256.582V353.658H258.633V355.392H256.582V363.62C256.582 364.063 256.734 364.354 257.038 364.506C257.202 364.595 257.481 364.633 257.873 364.633C257.975 364.633 258.089 364.633 258.215 364.633C258.329 364.633 258.481 364.62 258.633 364.595V366.278C258.38 366.354 258.127 366.405 257.861 366.43C257.595 366.456 257.304 366.481 256.987 366.481C255.975 366.481 255.291 366.228 254.937 365.722C254.582 365.215 254.392 364.557 254.392 363.747V355.405H252.646V353.671H254.392V350.152V350.139Z" fill="#B22C1B"/>
<path d="M275.81 354.911C276.949 355.987 277.519 357.582 277.519 359.684C277.519 361.785 277.013 363.392 276.013 364.709C275.013 366.038 273.456 366.696 271.354 366.696C269.595 366.696 268.202 366.114 267.164 364.937C266.126 363.759 265.62 362.19 265.62 360.215C265.62 358.101 266.164 356.418 267.253 355.165C268.342 353.911 269.81 353.278 271.645 353.278C273.291 353.278 274.683 353.823 275.823 354.899L275.81 354.911ZM274.468 363.278C275 362.215 275.253 361.038 275.253 359.734C275.253 358.557 275.063 357.608 274.683 356.873C274.088 355.709 273.051 355.139 271.57 355.139C270.266 355.139 269.316 355.633 268.721 356.62C268.126 357.608 267.835 358.797 267.835 360.19C267.835 361.582 268.126 362.646 268.721 363.544C269.316 364.443 270.253 364.886 271.544 364.886C272.962 364.886 273.937 364.354 274.456 363.291L274.468 363.278Z" fill="#B22C1B"/>
<path d="M280.19 353.646H282.241V355.43C282.848 354.696 283.494 354.165 284.177 353.848C284.861 353.532 285.608 353.367 286.443 353.367C288.266 353.367 289.494 353.987 290.139 355.241C290.494 355.924 290.671 356.899 290.671 358.165V366.24H288.468V358.304C288.468 357.532 288.354 356.911 288.127 356.443C287.747 355.658 287.051 355.266 286.038 355.266C285.532 355.266 285.101 355.316 284.772 355.418C284.177 355.595 283.658 355.937 283.215 356.456C282.861 356.873 282.62 357.304 282.519 357.747C282.405 358.19 282.354 358.823 282.354 359.646V366.24H280.19V353.646Z" fill="#B22C1B"/>
<path d="M85.1392 227.734C79.9999 227.734 75.8101 231.203 75.8101 235.468C75.8101 239.734 79.9873 243.203 85.1392 243.203C90.2911 243.203 94.4683 239.734 94.4683 235.468C94.4683 231.203 90.2911 227.734 85.1392 227.734ZM91.4809 235.468C91.4809 238.089 88.6328 240.228 85.1265 240.228C81.6202 240.228 78.7721 238.089 78.7721 235.468C78.7721 232.848 81.6202 230.709 85.1265 230.709C88.6328 230.709 91.4809 232.848 91.4809 235.468Z" fill="#4C83C3"/>
<path d="M66.633 235.241C62.1646 235.241 58.519 238.494 58.519 242.506C58.519 246.519 61.9241 249.177 66.633 249.177C71.3418 249.177 74.7469 246.367 74.7469 242.506C74.7469 238.646 71.1013 235.241 66.633 235.241ZM71.7722 242.506C71.7722 245.038 69.114 246.203 66.633 246.203C64.152 246.203 61.4937 245.051 61.4937 242.506C61.4937 240.139 63.7975 238.215 66.633 238.215C69.4684 238.215 71.7722 240.139 71.7722 242.506Z" fill="#4C83C3"/>
<path d="M49.9243 241.595C45.8104 241.595 43.2534 243.506 43.2534 246.57C43.2534 249.633 45.8104 251.557 49.9243 251.557C54.0382 251.557 56.5952 249.646 56.5952 246.57C56.5952 243.494 54.0382 241.595 49.9243 241.595ZM53.6205 246.57C53.6205 248.228 51.6079 248.582 49.9243 248.582C48.2408 248.582 46.2281 248.228 46.2281 246.57C46.2281 244.911 48.2408 244.57 49.9243 244.57C51.6079 244.57 53.6205 244.911 53.6205 246.57Z" fill="#4C83C3"/>
<path d="M34.418 245.81C30.0636 245.81 29.5952 248.582 29.5952 249.785C29.5952 250.987 30.0636 253.759 34.418 253.759C37.7091 253.759 39.8357 252.203 39.8357 249.785C39.8357 247.367 37.7091 245.81 34.418 245.81ZM34.418 251.367C31.9876 251.367 31.9876 250.291 31.9876 249.785C31.9876 249.278 31.9876 248.203 34.418 248.203C34.7218 248.203 37.4433 248.253 37.4433 249.785C37.4433 251.316 34.7218 251.367 34.418 251.367Z" fill="#4C83C3"/>
<path d="M115.747 127.722H36.5315C28.0252 127.722 21.1265 134.633 21.1265 143.152V199.835C21.1265 208.354 28.0252 215.266 36.5315 215.266H45.8986L45.6328 214.633C43.6201 208.861 47.4049 202.165 48.7087 200.114C41.5948 197.241 37.9113 193.823 37.7467 189.975C37.4809 183.835 46.2657 178.759 48.5568 177.544C46.886 174.038 46.6201 170.785 47.772 167.899C49.8227 162.722 55.6201 160.595 55.8733 160.506C60.8606 158.203 65.3796 157.835 69.2657 159.418C73.886 161.304 76.2277 165.367 76.9999 166.987C80.9872 164.278 84.4936 163.392 87.4176 164.354C90.2531 165.278 91.7341 167.658 92.3417 168.937C106.709 155.747 126 168.418 130.544 171.747L130.57 171.861L131.164 172.253V143.139C131.164 134.62 124.266 127.709 115.759 127.709L115.747 127.722Z" fill="#4C83C3"/>
<path d="M131.152 176.595C130.975 176.481 130.861 176.418 130.848 176.405L130.557 176.241V176.177C120.848 168.481 111.987 165.291 104.279 166.709C95.747 168.278 91.6204 175.089 91.5824 175.152L90.747 176.57L90.4938 174.937C89.4179 167.924 85.8609 167.443 85.7217 167.418C81.747 166.595 76.0508 172.354 75.9875 172.418L75.266 173.152L75.0001 172.152C72.3166 162.152 65.5065 162 65.228 161.987C56.1267 162.722 52.671 166.886 52.6331 166.937C47.8736 172.291 53.2786 178.063 53.5065 178.304L54.0888 178.911L53.3166 179.253C40.4052 184.848 41.3546 189.633 41.3799 189.684C41.8862 193.582 50.4938 196.949 53.7723 197.924L54.5698 198.165L54.0761 198.835C46.8609 208.671 48.9369 213.595 49.5444 214.658H49.5571L49.7217 214.937C49.7976 215.063 49.9115 215.139 50.0001 215.253H115.747C124.253 215.253 131.152 208.329 131.152 199.785V198.81L130.861 198.696L131.152 198.443V176.595Z" fill="#4C83C3"/>
<path d="M141.62 186.291C141.329 181.329 138 176.696 131.747 172.532C131.646 172.468 131.57 172.405 131.468 172.342L131.152 172.139V176.595C131.291 176.684 131.519 176.835 131.734 177C133.506 178.266 137.443 181.532 137.899 186.177C138.279 190.013 136.19 193.962 131.734 197.924C131.684 197.975 131.633 198.025 131.57 198.076L131.139 198.443L130.848 198.696L131.139 198.81L131.722 199.051C131.785 199.076 138.241 201.797 135.165 211.354C135.127 211.506 130.709 226.177 112.747 226.177H112.595C112.494 226.19 101.544 226.747 86.9874 218.506L86.595 218.278L86.2786 218.608C86.2153 218.684 79.1646 225.911 71.1393 225.747C71.0381 225.759 63.9874 226.291 59.3925 217.025L59.1646 216.557L58.671 216.722C58.671 216.722 53.3165 218.494 50.4938 215.848C50.3039 215.671 50.1393 215.481 49.9748 215.266H49.19H46.4684H45.8608L45.8988 215.418C45.8988 215.418 45.9621 215.608 46.0634 215.861C46.6583 217.278 49.1773 221.797 57.2532 220.772C58.2659 222.443 62.9115 229.253 71.114 229.253C71.4051 229.278 78.3672 229.861 87.1013 222.734C89.3292 223.886 101.203 229.759 111.595 229.759C112.557 229.759 113.506 229.709 114.418 229.595C114.671 229.595 131.025 229.722 138.051 213.861C138.101 213.772 142.367 205.089 136.215 198.38C137.658 197 141.937 192.392 141.57 186.316L141.62 186.291Z" fill="#4C83C3"/>
<path d="M348.646 128.316L347.873 127.734H306.241C297.734 127.734 290.835 134.658 290.835 143.203V200.063C290.835 208.608 297.734 215.544 306.241 215.544H306.532L308.291 214.962C347.051 202.139 371.924 182.658 373.19 164.114C374.481 145.266 350.646 129.608 348.646 128.329V128.316Z" fill="#B22C1B"/>
<path d="M385.468 127.722H354.215C354.481 127.911 354.722 128.114 354.987 128.304C368.253 138.203 375.759 148.456 377.278 158.81C378.481 167.051 375.899 175.392 369.595 183.608L369.342 183.937C357.949 198.468 335.089 209.405 324.633 213.873C322.81 214.43 320.937 214.975 319 215.519H385.481C393.987 215.519 400.886 208.595 400.886 200.038V143.177C400.886 134.633 393.987 127.709 385.481 127.709L385.468 127.722Z" fill="#B22C1B"/>
<path d="M381.089 57.4051C381.506 54.962 381.722 52.5443 381.722 50.2025C381.722 38.6456 376.684 29.2152 367.152 22.9367C354.405 14.5316 336.101 14.2658 323.633 22.3038C313.962 28.5443 308.848 38.5949 308.848 51.3924C308.848 54.0633 309.076 56.8861 309.544 59.7722C311.734 73.481 318.57 84.8987 329.873 93.7721C324.127 92.2152 316.62 91.4683 313.367 96.7342C311.772 99.3291 312.165 101.848 314.418 103.468C318.595 106.468 328.76 105.671 334.886 102.165L330.684 111.975H358.949L353.291 100.658C360.127 103.519 368.051 106.101 372.342 103.494C374.089 102.43 375.025 100.709 375.152 98.3544C375.316 95.2025 373.873 93.5063 372.646 92.6329C370.494 91.1139 366.962 90.7215 362.152 91.5063C362.646 91.1013 363.127 90.6962 363.595 90.2785C370 84.5696 378.241 74.2405 381.101 57.4051H381.089ZM316.494 100.582C316.089 100.291 315.582 99.9241 316.392 98.6076C318.835 94.6203 327.025 96.1519 333.684 98.7975C328.57 102.203 319.139 102.494 316.494 100.582ZM370.582 95.557C371.089 95.924 371.671 96.5443 371.582 98.1772C371.519 99.3165 371.165 100.038 370.468 100.456C368.848 101.443 364.722 101.633 354.253 97.2152C360.633 95.0886 367.886 93.6582 370.57 95.5443L370.582 95.557ZM349.772 95.038C349.342 95.2025 349.025 95.3291 348.873 95.3924L347.62 95.8228L347.025 96.1139L347.051 96.1519L344.987 97L348.177 98.4304L353.177 108.405H336.089L341.013 96.924L339.215 95.8608C324.329 87.0253 315.532 74.6962 313.063 59.2025C312.646 56.5316 312.418 53.924 312.418 51.4304C312.418 39.8734 316.962 30.8354 325.557 25.2911C336.886 17.9873 353.557 18.2405 365.177 25.8987C373.658 31.4937 378.139 39.9114 378.139 50.2405C378.139 52.3418 377.949 54.5443 377.57 56.7975C372.987 83.7848 353.633 93.3671 349.772 95.0253V95.038Z" fill="#B22C1B"/>
<path d="M353.469 127.203C353.469 127.203 353.418 127.177 353.355 127.139C352.342 126.557 344.734 121.785 343.102 111.975H339.266C339.456 114.063 340.621 121.633 347.127 127.139C347.367 127.342 347.621 127.532 347.874 127.722H354.216L353.469 127.203Z" fill="#B22C1B"/>
<path d="M200.734 155.696L201.064 155.823L201.114 156.177L203.114 172.076H210.405V152.873L214.279 149.671L199.621 145.633L213.659 139.835L199.076 136.127L207.545 128.304L208.102 127.722H181.431V128.304C181.621 131.81 183.443 149.165 200.734 155.696Z" fill="#FDBA12"/>
<path d="M206.494 134.354L225.165 138.924L210.721 144.911L222.063 148.114L214.165 154.595V172.076H220.823L223.127 155.709L223.43 155.582C240.696 148.316 241.899 131.658 241.962 128.316V127.734H213.24L212.747 128.316L206.481 134.354H206.494Z" fill="#FDBA12"/>
<path d="M250.608 127.722H246.101V128.304H246.089C245.734 140.582 240.43 148.165 236.013 152.38C231.823 156.38 227.721 158.139 226.519 158.608L224.038 175.823H200L197.658 158.481C179.304 151.443 177.38 132.139 177.177 128.367C177.164 128.051 177.152 127.772 177.152 127.709H171.38C162.873 127.709 155.975 134.646 155.975 143.19V200.051C155.975 208.595 162.873 215.532 171.38 215.532H250.608C259.114 215.532 266.013 208.608 266.013 200.051V143.19C266.013 134.646 259.114 127.722 250.608 127.722ZM200.392 194.139V190.506H224.19V194.139H200.392ZM216.506 196.835V200.468H207.582V196.835H216.506ZM224.19 187.835H200.392V184.329H224.19V187.835ZM200.329 178.734H200.911H223.532H224.114V181.646H200.316V178.734H200.329Z" fill="#FDBA12"/>
<path d="M212.785 62.924H209.215V93.4937H212.785V62.924Z" fill="#FDBA12"/>
<path d="M154.579 100.59L152.99 103.772L177.915 116.221L179.504 113.039L154.579 100.59Z" fill="#FDBA12"/>
<path d="M165.786 82.9063L163.426 85.5679L185.808 105.411L188.168 102.75L165.786 82.9063Z" fill="#FDBA12"/>
<path d="M187.583 69L187.342 68.4684L184.076 69.8734L195.646 96.6582L195.886 97.2025L199.152 95.7848L187.583 69Z" fill="#FDBA12"/>
<path d="M267.412 100.59L242.492 113.048L244.082 116.229L269.003 103.772L267.412 100.59Z" fill="#FDBA12"/>
<path d="M256.186 82.8952L233.825 102.762L236.188 105.421L258.548 85.5543L256.186 82.8952Z" fill="#FDBA12"/>
<path d="M234.653 68.4537L222.843 95.7834L226.12 97.1994L237.93 69.8696L234.653 68.4537Z" fill="#FDBA12"/>
<path d="M278.734 253.759H276.316V307.937H278.734V253.759Z" fill="#FDBA12"/>
<path d="M34.3797 245.076C31.0632 245.076 28.4683 247.089 28.4683 249.658C28.4683 252.228 30.9493 253.937 34.3797 253.937C37.81 253.937 40.2784 252.139 40.2784 249.658C40.2784 247.177 37.6835 245.076 34.3797 245.076Z" fill="#4C83C3"/>
<path d="M30.7852 261.367H37.975V301.139H30.7852V261.367Z" fill="#4C83C3"/>
<path d="M74.7978 263.304C77.7725 265.494 79.5573 269.266 80.1649 274.608H73.2915C72.8738 272.152 71.9117 270.101 70.4181 268.468C68.9244 266.835 66.532 266.025 63.2282 266.025C58.7219 266.025 55.494 268.114 53.5573 272.291C52.3041 275 51.6712 278.342 51.6712 282.316C51.6712 286.291 52.5573 289.684 54.3421 292.418C56.1269 295.152 58.9244 296.519 62.7472 296.519C65.6839 296.519 68.0003 295.671 69.7219 293.975C71.4434 292.278 72.6206 289.949 73.2788 287.013H80.1522C79.3674 292.304 77.4054 296.19 74.2535 298.633C71.1143 301.089 67.0889 302.304 62.1902 302.304C56.6839 302.304 52.3041 300.392 49.0257 296.582C45.7472 292.759 44.1143 288 44.1143 282.278C44.1143 275.266 45.9117 269.81 49.494 265.899C53.0889 262 57.6586 260.038 63.2029 260.038C67.9497 260.038 71.7978 261.127 74.7725 263.316L74.7978 263.304Z" fill="#4C83C3"/>
<path d="M86.6455 261.367H93.5569V266.658C94.9746 264.848 96.5189 263.443 98.2025 262.443C100.595 260.949 103.405 260.203 106.633 260.203C111.418 260.203 115.468 261.937 118.81 265.405C122.152 268.873 123.81 273.835 123.81 280.266C123.81 288.975 121.405 295.19 116.595 298.924C113.544 301.291 109.987 302.468 105.949 302.468C102.772 302.468 100.101 301.81 97.9366 300.494C96.6708 299.747 95.2658 298.468 93.7215 296.646V317.051H86.6455V261.354V261.367ZM113.266 292.684C115.456 290.063 116.557 286.139 116.557 280.911C116.557 277.734 116.076 274.987 115.101 272.709C113.266 268.304 109.899 266.101 105.013 266.101C100.127 266.101 96.7341 268.43 94.924 273.076C93.9493 275.557 93.4683 278.722 93.4683 282.557C93.4683 285.646 93.9493 288.266 94.924 290.43C96.7594 294.557 100.127 296.62 105.013 296.62C108.329 296.62 111.076 295.304 113.278 292.684H113.266Z" fill="#4C83C3"/>
<path d="M159.798 263.304C162.772 265.494 164.557 269.266 165.165 274.608H158.291C157.874 272.152 156.912 270.101 155.418 268.468C153.924 266.835 151.532 266.025 148.228 266.025C143.722 266.025 140.494 268.114 138.557 272.291C137.304 275 136.671 278.342 136.671 282.316C136.671 286.291 137.557 289.684 139.342 292.418C141.127 295.152 143.924 296.519 147.747 296.519C150.684 296.519 153 295.671 154.722 293.975C156.443 292.278 157.621 289.949 158.279 287.013H165.152C164.367 292.304 162.405 296.19 159.254 298.633C156.114 301.089 152.089 302.304 147.19 302.304C141.684 302.304 137.304 300.392 134.026 296.582C130.747 292.759 129.114 288 129.114 282.278C129.114 275.266 130.912 269.81 134.494 265.899C138.089 262 142.659 260.038 148.203 260.038C152.95 260.038 156.798 261.127 159.772 263.316L159.798 263.304Z" fill="#4C83C3"/>
<path d="M187.089 253.873L191.456 272.709L196.684 253.873H200.089L205.316 272.709L209.684 253.873H213.114L207.025 277.025H203.734L198.392 257.823L193.013 277.025H189.722L183.671 253.873H187.076H187.089Z" fill="#4C83C3"/>
<path d="M227.95 268.228C227.95 270.949 227.291 273.203 225.962 274.975C224.633 276.747 222.582 277.633 219.798 277.633C217.481 277.633 215.633 276.848 214.266 275.278C212.899 273.709 212.215 271.595 212.215 268.949C212.215 266.114 212.937 263.848 214.38 262.177C215.823 260.494 217.76 259.658 220.177 259.658C222.355 259.658 224.19 260.38 225.696 261.835C227.203 263.291 227.95 265.418 227.95 268.241V268.228ZM224.987 268.304C224.987 266.722 224.734 265.443 224.228 264.456C223.431 262.899 222.051 262.127 220.089 262.127C218.355 262.127 217.089 262.785 216.304 264.114C215.519 265.443 215.114 267.038 215.114 268.911C215.114 270.785 215.506 272.203 216.304 273.405C217.089 274.608 218.342 275.203 220.063 275.203C221.95 275.203 223.241 274.494 223.937 273.063C224.633 271.646 224.987 270.051 224.987 268.316V268.304Z" fill="#4C83C3"/>
<path d="M230.279 260.152H232.975V263.063C233.19 262.494 233.734 261.81 234.595 260.987C235.456 260.165 236.443 259.772 237.57 259.772C237.621 259.772 237.709 259.772 237.836 259.785C237.962 259.797 238.178 259.81 238.481 259.848V262.848C238.317 262.823 238.152 262.797 238.013 262.785C237.874 262.785 237.722 262.772 237.545 262.772C236.114 262.772 235.013 263.228 234.253 264.152C233.481 265.076 233.102 266.127 233.102 267.329V277.038H230.266V260.165L230.279 260.152Z" fill="#4C83C3"/>
<path d="M240.823 253.873H243.658V277.025H240.823V253.873Z" fill="#4C83C3"/>
<path d="M256.519 260.671C257.025 260.987 257.595 261.544 258.241 262.329V253.797H260.962V277.025H258.405V274.671C257.747 275.709 256.962 276.468 256.051 276.924C255.139 277.38 254.114 277.62 252.949 277.62C251.063 277.62 249.443 276.835 248.063 275.253C246.684 273.671 246 271.57 246 268.937C246 266.481 246.633 264.354 247.886 262.544C249.139 260.747 250.937 259.835 253.266 259.835C254.557 259.835 255.646 260.114 256.506 260.658L256.519 260.671ZM253.835 275.152C255.152 275.152 256.228 274.582 257.076 273.456C257.924 272.329 258.342 270.709 258.342 268.595C258.342 266.481 257.911 264.886 257.038 263.861C256.165 262.835 255.089 262.329 253.81 262.329C252.38 262.329 251.228 262.873 250.329 263.962C249.443 265.051 249 266.658 249 268.785C249 270.595 249.38 272.101 250.152 273.329C250.924 274.544 252.152 275.152 253.835 275.152Z" fill="#4C83C3"/>
<path d="M185.861 284.253H201.924V287.089H189V294.114H200.367V296.873H189V307.405H185.861V284.253Z" fill="#4C83C3"/>
<path d="M206.038 287.658C205.696 287.658 205.367 287.62 205.063 287.532C204.759 287.443 204.506 287.329 204.304 287.165C204.101 287 203.924 286.823 203.81 286.608C203.696 286.392 203.633 286.165 203.633 285.911C203.633 285.658 203.696 285.405 203.823 285.165C203.949 284.924 204.114 284.734 204.329 284.57C204.544 284.405 204.797 284.266 205.089 284.177C205.38 284.089 205.696 284.038 206.038 284.038C206.38 284.038 206.683 284.089 206.975 284.177C207.266 284.278 207.519 284.405 207.734 284.57C207.949 284.734 208.126 284.937 208.253 285.165C208.38 285.392 208.443 285.646 208.443 285.911C208.443 286.177 208.38 286.392 208.266 286.608C208.139 286.823 207.975 287 207.772 287.165C207.57 287.329 207.304 287.443 207.013 287.532C206.721 287.62 206.392 287.658 206.051 287.658H206.038ZM204.62 290.608H207.519V307.405H204.62V290.608ZM204.62 290.608H207.519V307.405H204.62V290.608Z" fill="#4C83C3"/>
<path d="M210.772 290.532H213.469V292.924C214.266 291.937 215.114 291.228 216.013 290.797C216.912 290.367 217.899 290.152 219 290.152C221.405 290.152 223.026 290.987 223.861 292.658C224.329 293.57 224.557 294.886 224.557 296.582V307.405H221.659V296.772C221.659 295.747 221.507 294.911 221.203 294.278C220.696 293.228 219.785 292.696 218.456 292.696C217.785 292.696 217.228 292.759 216.798 292.899C216.013 293.127 215.342 293.595 214.747 294.291C214.279 294.848 213.962 295.418 213.823 296.013C213.684 296.608 213.608 297.456 213.608 298.557V307.405H210.772V290.532Z" fill="#4C83C3"/>
<path d="M236.582 297.177C237.228 297.089 237.671 296.823 237.886 296.354C238.013 296.101 238.076 295.734 238.076 295.266C238.076 294.304 237.734 293.595 237.038 293.165C236.355 292.734 235.367 292.506 234.089 292.506C232.608 292.506 231.557 292.911 230.937 293.709C230.595 294.152 230.367 294.81 230.253 295.684H227.608C227.658 293.608 228.329 292.152 229.633 291.342C230.937 290.532 232.431 290.114 234.152 290.114C236.139 290.114 237.747 290.494 238.988 291.253C240.215 292.013 240.836 293.19 240.836 294.785V304.506C240.836 304.797 240.899 305.038 241.013 305.215C241.127 305.392 241.393 305.481 241.772 305.481C241.899 305.481 242.038 305.481 242.203 305.456C242.355 305.443 242.532 305.418 242.709 305.38V307.481C242.266 307.608 241.937 307.684 241.696 307.722C241.456 307.759 241.152 307.772 240.747 307.772C239.772 307.772 239.063 307.43 238.62 306.734C238.393 306.367 238.228 305.848 238.127 305.177C237.544 305.937 236.722 306.595 235.633 307.152C234.557 307.709 233.355 307.987 232.051 307.987C230.481 307.987 229.203 307.506 228.215 306.557C227.228 305.608 226.722 304.418 226.722 302.987C226.722 301.418 227.215 300.203 228.19 299.342C229.165 298.481 230.456 297.949 232.038 297.747L236.557 297.177H236.582ZM232.734 305.557C233.734 305.557 234.696 305.329 235.633 304.861C237.215 304.089 238 302.835 238 301.089V298.797C237.658 299.013 237.203 299.203 236.658 299.354C236.114 299.506 235.582 299.608 235.051 299.671L233.329 299.886C232.304 300.025 231.532 300.24 231.013 300.532C230.139 301.025 229.709 301.81 229.709 302.899C229.709 303.722 230.013 304.367 230.608 304.835C231.203 305.304 231.912 305.544 232.734 305.544V305.557Z" fill="#4C83C3"/>
<path d="M244.405 284.203H247.241V307.354H244.405V284.203Z" fill="#4C83C3"/>
<path d="M251.823 302.063C251.912 303.013 252.14 303.734 252.532 304.241C253.241 305.152 254.481 305.608 256.241 305.608C257.291 305.608 258.215 305.38 259.013 304.924C259.81 304.468 260.203 303.76 260.203 302.81C260.203 302.089 259.886 301.532 259.241 301.152C258.836 300.924 258.026 300.658 256.81 300.342L254.557 299.772C253.114 299.418 252.051 299.013 251.38 298.57C250.165 297.797 249.557 296.747 249.557 295.392C249.557 293.797 250.14 292.506 251.291 291.519C252.443 290.532 254 290.038 255.937 290.038C258.481 290.038 260.317 290.785 261.443 292.278C262.152 293.228 262.494 294.241 262.469 295.342H259.785C259.734 294.696 259.507 294.114 259.102 293.595C258.456 292.848 257.317 292.481 255.709 292.481C254.633 292.481 253.823 292.684 253.279 293.101C252.722 293.506 252.456 294.051 252.456 294.722C252.456 295.456 252.823 296.051 253.545 296.481C253.962 296.747 254.583 296.975 255.405 297.177L257.279 297.633C259.317 298.127 260.684 298.608 261.367 299.063C262.469 299.785 263.013 300.924 263.013 302.481C263.013 304.038 262.443 305.278 261.304 306.38C260.165 307.468 258.431 308.013 256.102 308.013C253.595 308.013 251.823 307.443 250.772 306.304C249.722 305.165 249.165 303.747 249.089 302.076H251.81L251.823 302.063Z" fill="#4C83C3"/>
<path d="M298.203 267.886L301.228 266.139C302.582 265.354 303.532 264.684 304.076 264.127C304.937 263.253 305.367 262.253 305.367 261.127C305.367 259.81 304.975 258.772 304.19 258C303.405 257.228 302.355 256.835 301.038 256.835C299.089 256.835 297.747 257.57 297 259.038C296.595 259.823 296.38 260.924 296.342 262.316H293.456C293.494 260.354 293.848 258.747 294.544 257.506C295.772 255.316 297.95 254.228 301.051 254.228C303.633 254.228 305.519 254.924 306.722 256.329C307.912 257.722 308.507 259.278 308.507 261C308.507 262.81 307.874 264.354 306.595 265.633C305.861 266.38 304.544 267.278 302.646 268.342L300.481 269.544C299.456 270.114 298.646 270.658 298.051 271.165C297 272.076 296.342 273.089 296.063 274.203H308.393V276.886H292.899C293 274.937 293.405 273.253 294.101 271.81C294.798 270.367 296.165 269.063 298.19 267.886H298.203Z" fill="#B22C1B"/>
<path d="M324.367 257.924C325.38 259.785 325.886 262.329 325.886 265.57C325.886 268.633 325.43 271.177 324.519 273.177C323.19 276.051 321.025 277.494 318.025 277.494C315.316 277.494 313.291 276.316 311.975 273.962C310.873 272 310.316 269.354 310.316 266.051C310.316 263.481 310.646 261.291 311.304 259.443C312.544 256.013 314.785 254.304 318.038 254.304C320.962 254.304 323.076 255.506 324.367 257.911V257.924ZM322.823 265.684C322.823 263.114 322.506 261.013 321.873 259.354C321.24 257.696 320.025 256.873 318.202 256.873C316.532 256.873 315.304 257.658 314.532 259.228C313.759 260.797 313.367 263.114 313.367 266.165C313.367 268.468 313.62 270.316 314.114 271.709C314.873 273.848 316.165 274.911 317.987 274.911C319.456 274.911 320.633 274.266 321.506 272.962C322.38 271.658 322.81 269.228 322.81 265.684H322.823Z" fill="#B22C1B"/>
<path d="M332.861 267.886L335.886 266.139C337.241 265.354 338.19 264.684 338.734 264.127C339.595 263.253 340.025 262.253 340.025 261.127C340.025 259.81 339.633 258.772 338.848 258C338.063 257.228 337.013 256.835 335.696 256.835C333.747 256.835 332.405 257.57 331.658 259.038C331.253 259.823 331.038 260.924 331 262.316H328.114C328.152 260.354 328.507 258.747 329.203 257.506C330.431 255.316 332.608 254.228 335.709 254.228C338.291 254.228 340.177 254.924 341.38 256.329C342.57 257.722 343.165 259.278 343.165 261C343.165 262.81 342.532 264.354 341.253 265.633C340.519 266.38 339.203 267.278 337.304 268.342L335.139 269.544C334.114 270.114 333.304 270.658 332.709 271.165C331.658 272.076 331 273.089 330.722 274.203H343.051V276.886H327.557C327.658 274.937 328.063 273.253 328.76 271.81C329.456 270.367 330.823 269.063 332.848 267.886H332.861Z" fill="#B22C1B"/>
<path d="M353.697 276.886V271.367H343.798V268.595L354.14 254.253H356.545V268.899H359.874V271.367H356.545V276.886H353.697ZM353.646 268.899V258.671L346.418 268.899H353.646Z" fill="#B22C1B"/>
<path d="M301.089 284.114H304.633L313.038 307.266H309.608L307.253 300.329H298.101L295.595 307.266H292.38L301.101 284.114H301.089ZM306.241 297.772L302.722 287.544L298.987 297.772H306.241Z" fill="#B22C1B"/>
<path d="M316.519 301.975C316.608 302.924 316.836 303.646 317.228 304.152C317.937 305.063 319.178 305.519 320.937 305.519C321.988 305.519 322.912 305.291 323.709 304.835C324.507 304.38 324.899 303.671 324.899 302.722C324.899 302 324.583 301.443 323.937 301.063C323.532 300.835 322.722 300.57 321.507 300.253L319.254 299.684C317.81 299.329 316.747 298.924 316.076 298.481C314.861 297.709 314.254 296.658 314.254 295.304C314.254 293.709 314.836 292.418 315.988 291.43C317.14 290.443 318.697 289.949 320.633 289.949C323.178 289.949 325.013 290.696 326.14 292.19C326.848 293.139 327.19 294.152 327.165 295.253H324.481C324.431 294.608 324.203 294.025 323.798 293.506C323.152 292.759 322.013 292.392 320.405 292.392C319.329 292.392 318.519 292.595 317.975 293.013C317.418 293.418 317.152 293.962 317.152 294.633C317.152 295.367 317.519 295.962 318.241 296.392C318.659 296.658 319.279 296.886 320.102 297.089L321.975 297.544C324.013 298.038 325.38 298.519 326.064 298.975C327.165 299.696 327.709 300.835 327.709 302.392C327.709 303.949 327.14 305.19 326 306.291C324.861 307.38 323.127 307.924 320.798 307.924C318.291 307.924 316.519 307.354 315.469 306.215C314.418 305.076 313.861 303.658 313.785 301.987H316.507L316.519 301.975Z" fill="#B22C1B"/>
<path d="M330.836 285.671H333.709V290.38H336.405V292.696H333.709V303.709C333.709 304.304 333.912 304.696 334.304 304.886C334.519 305 334.886 305.063 335.405 305.063C335.544 305.063 335.684 305.063 335.848 305.063C336 305.063 336.19 305.051 336.405 305.025V307.266C336.076 307.354 335.734 307.43 335.393 307.468C335.038 307.506 334.658 307.532 334.253 307.532C332.924 307.532 332.025 307.19 331.557 306.519C331.089 305.835 330.848 304.962 330.848 303.873V292.696H328.557V290.38H330.848V285.671H330.836Z" fill="#B22C1B"/>
<path d="M347.709 297.038C348.354 296.949 348.798 296.684 349.013 296.215C349.139 295.962 349.203 295.595 349.203 295.127C349.203 294.165 348.861 293.456 348.165 293.025C347.481 292.595 346.494 292.367 345.215 292.367C343.734 292.367 342.684 292.772 342.063 293.57C341.722 294.013 341.494 294.671 341.38 295.544H338.734C338.785 293.468 339.456 292.013 340.76 291.203C342.063 290.392 343.557 289.975 345.279 289.975C347.266 289.975 348.873 290.354 350.114 291.114C351.342 291.873 351.962 293.051 351.962 294.646V304.367C351.962 304.658 352.025 304.899 352.139 305.076C352.253 305.253 352.519 305.342 352.899 305.342C353.025 305.342 353.165 305.342 353.329 305.316C353.481 305.304 353.658 305.278 353.835 305.241V307.342C353.392 307.468 353.063 307.544 352.823 307.582C352.582 307.62 352.279 307.633 351.873 307.633C350.899 307.633 350.19 307.291 349.747 306.595C349.519 306.228 349.354 305.709 349.253 305.038C348.671 305.797 347.848 306.456 346.76 307.013C345.684 307.57 344.481 307.848 343.177 307.848C341.608 307.848 340.329 307.367 339.342 306.418C338.355 305.468 337.848 304.278 337.848 302.848C337.848 301.278 338.342 300.063 339.317 299.203C340.291 298.342 341.582 297.81 343.165 297.608L347.684 297.038H347.709ZM343.861 305.418C344.861 305.418 345.823 305.19 346.76 304.722C348.342 303.949 349.127 302.696 349.127 300.949V298.658C348.785 298.873 348.329 299.063 347.785 299.215C347.241 299.367 346.709 299.468 346.177 299.532L344.456 299.747C343.43 299.886 342.658 300.101 342.139 300.392C341.266 300.886 340.836 301.671 340.836 302.759C340.836 303.582 341.139 304.228 341.734 304.696C342.329 305.165 343.038 305.405 343.861 305.405V305.418Z" fill="#B22C1B"/>
<path d="M355.899 290.392H358.595V292.785C359.393 291.797 360.241 291.089 361.139 290.658C362.038 290.228 363.026 290.013 364.127 290.013C366.532 290.013 368.152 290.848 368.988 292.519C369.456 293.43 369.684 294.747 369.684 296.443V307.266H366.785V296.633C366.785 295.608 366.633 294.772 366.329 294.139C365.823 293.089 364.912 292.557 363.582 292.557C362.912 292.557 362.355 292.62 361.924 292.759C361.139 292.987 360.469 293.456 359.874 294.152C359.405 294.709 359.089 295.278 358.95 295.873C358.81 296.468 358.734 297.316 358.734 298.418V307.266H355.899V290.392Z" fill="#B22C1B"/>
<path d="M382.076 297.038C382.722 296.949 383.165 296.684 383.38 296.215C383.506 295.962 383.57 295.595 383.57 295.127C383.57 294.165 383.228 293.456 382.532 293.025C381.848 292.595 380.861 292.367 379.582 292.367C378.101 292.367 377.051 292.772 376.431 293.57C376.089 294.013 375.861 294.671 375.747 295.544H373.101C373.152 293.468 373.823 292.013 375.127 291.203C376.431 290.392 377.924 289.975 379.646 289.975C381.633 289.975 383.241 290.354 384.481 291.114C385.709 291.873 386.329 293.051 386.329 294.646V304.367C386.329 304.658 386.393 304.899 386.506 305.076C386.62 305.253 386.886 305.342 387.266 305.342C387.393 305.342 387.532 305.342 387.696 305.316C387.848 305.304 388.025 305.278 388.203 305.241V307.342C387.76 307.468 387.431 307.544 387.19 307.582C386.95 307.62 386.646 307.633 386.241 307.633C385.266 307.633 384.557 307.291 384.114 306.595C383.886 306.228 383.722 305.709 383.62 305.038C383.038 305.797 382.215 306.456 381.127 307.013C380.051 307.57 378.848 307.848 377.544 307.848C375.975 307.848 374.696 307.367 373.709 306.418C372.722 305.468 372.215 304.278 372.215 302.848C372.215 301.278 372.709 300.063 373.684 299.203C374.658 298.342 375.95 297.81 377.532 297.608L382.051 297.038H382.076ZM378.228 305.418C379.228 305.418 380.19 305.19 381.127 304.722C382.709 303.949 383.494 302.696 383.494 300.949V298.658C383.152 298.873 382.696 299.063 382.152 299.215C381.608 299.367 381.076 299.468 380.544 299.532L378.823 299.747C377.798 299.886 377.025 300.101 376.506 300.392C375.633 300.886 375.203 301.671 375.203 302.759C375.203 303.582 375.506 304.228 376.101 304.696C376.696 305.165 377.405 305.405 378.228 305.405V305.418Z" fill="#B22C1B"/>
</svg>
