<svg width="196" height="42" viewBox="0 0 196 42" fill="none" xmlns="http://www.w3.org/2000/svg">
<path d="M57.1567 26.6372C57.1567 27.1933 57.037 27.684 56.8085 28.1092C56.5691 28.5453 56.2426 28.8724 55.8181 29.1123C55.3828 29.3522 54.904 29.4612 54.3489 29.4612H51.6064V33.4628H54.9366C56.1881 33.4628 57.3091 33.1793 58.3103 32.6232C59.3115 32.0671 60.0951 31.2821 60.661 30.3008C61.2269 29.3086 61.5208 28.2073 61.5208 26.9643V13.793H57.1785V26.6372H57.1567ZM68.8558 25.4488H77.954V21.7634H68.8558V17.5874H78.9117V13.793H64.6224V33.4628H79.1946V29.6684H68.8558V25.4379V25.4488ZM80.555 17.6964H86.3773V33.4628H90.7196V17.6964H96.5093V13.793H80.5441V17.6964H80.555ZM111.365 23.6061C111.027 23.4207 110.657 23.2899 110.265 23.1809C110.559 23.0936 110.842 22.9955 111.103 22.8647C111.822 22.4939 112.387 21.9706 112.79 21.2946C113.193 20.6186 113.4 19.8553 113.4 18.9721C113.4 17.969 113.128 17.0749 112.583 16.2899C112.039 15.5048 111.277 14.8943 110.298 14.4472C109.319 14.0111 108.198 13.7821 106.946 13.7821H98.218V33.4519H107.109C108.426 33.4519 109.601 33.2229 110.635 32.7541C111.669 32.2852 112.464 31.6528 113.04 30.8242C113.606 29.9955 113.889 29.0578 113.889 28.0002C113.889 27.0298 113.672 26.1575 113.215 25.3833C112.768 24.6092 112.148 24.0204 111.343 23.5952L111.365 23.6061ZM102.451 17.0967H106.304C106.837 17.0967 107.305 17.1949 107.719 17.3802C108.132 17.5656 108.448 17.8491 108.676 18.2089C108.905 18.5578 109.025 18.983 109.025 19.4628C109.025 19.9425 108.905 20.3896 108.676 20.7603C108.448 21.131 108.132 21.4145 107.719 21.6217C107.305 21.8288 106.837 21.927 106.304 21.927H102.451V17.1076V17.0967ZM109.101 29.0033C108.851 29.374 108.502 29.6684 108.056 29.8647C107.599 30.0718 107.088 30.17 106.489 30.17H102.462V25.1217H106.489C107.066 25.1217 107.588 25.2307 108.045 25.4488C108.491 25.6668 108.851 25.9612 109.101 26.3538C109.351 26.7463 109.482 27.1933 109.482 27.6949C109.482 28.1964 109.362 28.6326 109.112 29.0033H109.101ZM128.483 25.5142C129.572 24.9908 130.41 24.2494 131.019 23.3008C131.618 22.3522 131.922 21.2509 131.922 19.9971C131.922 18.7432 131.629 17.6855 131.041 16.7369C130.453 15.7992 129.615 15.0687 128.538 14.5562C127.46 14.0438 126.22 13.7821 124.794 13.7821H116.197V33.4519H120.55V26.2883H123.379L127.362 33.4519H132.325L127.841 25.7541C128.059 25.6777 128.287 25.5905 128.494 25.4924L128.483 25.5142ZM127.079 21.5017C126.84 21.9161 126.492 22.2323 126.046 22.4503C125.599 22.6684 125.066 22.7883 124.457 22.7883H120.539V17.3475H124.457C125.066 17.3475 125.588 17.4566 126.046 17.6746C126.492 17.8927 126.84 18.2089 127.079 18.6123C127.319 19.0157 127.449 19.5064 127.449 20.0516C127.449 20.5967 127.33 21.0874 127.079 21.4908V21.5017ZM140.563 13.793L133.555 33.4628H137.973L139.366 29.1232H146.647L148.138 33.4628H152.469L145.287 13.793H140.574H140.563ZM140.346 25.8413L142.598 18.8958L142.871 17.631L143.143 18.8958L145.559 25.8413H140.357H140.346ZM153.906 33.4737H158.39V13.8039H153.906V33.4737ZM174.224 27.1061L165.779 13.793H161.546V33.4628H165.518V20.1497L173.92 33.4628H178.196V13.793H174.224V27.1061ZM194.88 24.9036C194.456 24.0858 193.857 23.3989 193.095 22.8428C192.333 22.2868 191.452 21.9161 190.462 21.7307L187.12 21.0438C186.598 20.9238 186.185 20.7058 185.88 20.3896C185.575 20.0734 185.412 19.6809 185.412 19.2229C185.412 18.7977 185.521 18.427 185.749 18.1217C185.967 17.8055 186.293 17.5656 186.696 17.3911C187.099 17.2167 187.567 17.1295 188.1 17.1295C188.633 17.1295 189.123 17.2167 189.526 17.402C189.928 17.5874 190.255 17.8382 190.483 18.1762C190.712 18.5142 190.832 18.8849 190.832 19.3101H195.185C195.163 18.1653 194.836 17.1513 194.238 16.279C193.639 15.3958 192.801 14.7089 191.724 14.2182C190.657 13.7167 189.428 13.4768 188.056 13.4768C186.685 13.4768 185.477 13.7276 184.411 14.2509C183.344 14.7634 182.517 15.483 181.918 16.3989C181.32 17.3148 181.026 18.3506 181.026 19.5282C181.026 20.4768 181.211 21.3273 181.603 22.0905C181.984 22.8538 182.528 23.4862 183.224 23.9877C183.932 24.4893 184.737 24.8491 185.662 25.0453L189.199 25.7759C189.776 25.9176 190.233 26.1684 190.57 26.5391C190.908 26.9098 191.071 27.3569 191.071 27.902C191.071 28.3382 190.951 28.7416 190.701 29.0905C190.451 29.4394 190.102 29.7011 189.667 29.8974C189.232 30.0936 188.699 30.1809 188.1 30.1809C187.501 30.1809 186.935 30.0718 186.446 29.8647C185.956 29.6575 185.575 29.3522 185.314 28.9597C185.042 28.5781 184.911 28.1201 184.911 27.6186H180.558C180.58 28.8506 180.906 29.9301 181.548 30.8678C182.191 31.8055 183.072 32.536 184.193 33.0594C185.314 33.5827 186.598 33.8444 188.046 33.8444C189.493 33.8444 190.799 33.5718 191.92 33.0376C193.052 32.5033 193.922 31.7619 194.554 30.8242C195.185 29.8865 195.5 28.8179 195.5 27.6295C195.5 26.659 195.283 25.765 194.858 24.9363H194.869L194.88 24.9036Z" fill="#010101"/>
<path d="M13.8207 2.39875L2.89425 13.3458C1.35976 14.8832 0.5 16.9657 0.5 19.1464V38.7181C0.5 40.528 1.9692 42 3.77577 42H23.3106C25.4872 42 27.5658 41.1386 29.1003 39.6012L40.0268 28.6542C41.5612 27.1168 42.421 25.0343 42.421 22.8536V3.28193C42.421 1.47196 40.9518 0 39.1452 0H19.6104C17.4338 0 15.3552 0.861369 13.8207 2.39875Z" fill="url(#paint0_linear_217_312)"/>
<path d="M31.9409 10.5002H5.73486V36.7557H31.9409V10.5002Z" fill="#010101"/>
<path d="M20.1547 30.8459H9.02148V33.4737H20.1547V30.8459Z" fill="white"/>
<defs>
<linearGradient id="paint0_linear_217_312" x1="1.05503" y1="41.1713" x2="41.5928" y2="1.26477" gradientUnits="userSpaceOnUse">
<stop stop-color="#F79322"/>
<stop offset="0.43" stop-color="#ED202A"/>
<stop offset="0.99" stop-color="#A9519F"/>
</linearGradient>
</defs>
</svg>
