<svg width="43" height="84" viewBox="0 0 43 84" fill="none" xmlns="http://www.w3.org/2000/svg">
<path d="M17.196 16.8192V15.7449H13.9933C10.6964 16.89 7.72922 18.7789 5.31543 21.199L6.65775 22.5448C9.49543 19.6997 13.1337 17.6691 17.2078 16.8192H17.196Z" fill="#FDBA12" stroke="#231F20" stroke-width="0.45" stroke-miterlimit="10"/>
<path d="M36.3536 22.533L37.696 21.1872C34.5168 17.9998 30.4075 15.7449 25.8154 14.8713V16.8074C29.8894 17.6574 33.5278 19.6879 36.3654 22.533H36.3536Z" fill="#FDBA12" stroke="#231F20" stroke-width="0.45" stroke-miterlimit="10"/>
<path d="M36.3536 22.533C33.5159 19.6879 29.8776 17.6574 25.8036 16.8074V25.5433C27.5463 26.1808 29.124 27.1961 30.4075 28.4829C32.6917 30.7731 34.0929 33.9252 34.0929 37.4195C34.0929 40.9139 32.68 44.066 30.4075 46.3562C30.2191 46.5451 30.0307 46.7222 29.8305 46.8993H30.9491V52.1644H12.0509V46.8993H13.1694C12.9692 46.7222 12.7809 46.5451 12.5925 46.3562C10.3082 44.066 8.90701 40.9139 8.90701 37.4195C8.90701 33.9252 10.32 30.7731 12.5925 28.4829C13.8759 27.1961 15.4537 26.1808 17.1964 25.5433V16.8074C13.1224 17.6574 9.48399 19.6879 6.64631 22.533C2.84311 26.3461 0.5 31.6113 0.5 37.4195C0.5 43.2278 2.85489 48.493 6.64631 52.3061C7.82377 53.4866 9.14256 54.5255 10.5791 55.3991C13.7582 57.347 17.5025 58.4685 21.5059 58.4685C25.5092 58.4685 29.2182 57.3588 32.3856 55.4227C33.8339 54.5373 35.1644 53.4867 36.3536 52.2943C40.1568 48.4812 42.5 43.216 42.5 37.4077C42.5 31.5995 40.145 26.3343 36.3536 22.5212V22.533Z" fill="#FDBA12" stroke="#231F20" stroke-width="0.45" stroke-miterlimit="10"/>
<path d="M37.6836 53.652L36.3413 52.3062C35.1521 53.4985 33.8216 54.5492 32.3733 55.4346C29.1941 57.3707 25.4734 58.4804 21.4936 58.4804C17.5137 58.4804 13.7577 57.3589 10.5668 55.411C9.13025 54.5374 7.82324 53.4985 6.63401 52.318L5.29168 53.6638L2.46582 56.4971C3.97297 58.0081 5.65669 59.3422 7.49353 60.4637C11.5675 62.9546 16.3481 64.3949 21.4701 64.3949C26.592 64.3949 31.3371 62.9664 35.3994 60.4991C37.248 59.3776 38.9553 58.0318 40.4742 56.4971L37.6483 53.6638L37.6836 53.652Z" fill="#FDBA12" stroke="#231F20" stroke-width="0.45" stroke-miterlimit="10"/>
<path d="M21.5055 64.3714C16.3836 64.3714 11.6031 62.9311 7.52907 60.4402L6.55176 62.0575C10.9084 64.7255 16.0303 66.2602 21.5173 66.2602C27.0043 66.2602 32.0791 64.7373 36.4239 62.0929L35.4467 60.4756C31.3844 62.9429 26.6157 64.3714 21.5173 64.3714H21.5055Z" fill="#FDBA12" stroke="#231F20" stroke-width="0.45" stroke-miterlimit="10"/>
<path d="M21.5057 66.2835C19.7984 66.2835 18.1146 66.13 16.4897 65.8467L17.9027 81.9492C17.9027 81.9492 18.9271 82.9999 21.5057 82.9999C23.79 82.9999 24.991 81.9492 24.991 81.9492L26.5217 65.8467C24.8968 66.13 23.2131 66.2835 21.5057 66.2835Z" fill="#FDBA12" stroke="#231F20" stroke-width="0.45" stroke-miterlimit="10"/>
<path d="M29.8304 46.8992H27.2282H25.8035V44.55V41.7403V33.1106V25.5551V16.8192V14.8831V10.7866H21.5058H18.3502L13.4166 15.7449H13.9935H17.1963V16.8192V25.5551V33.1106V41.7403V44.5146V46.8992H15.748H13.1693H12.0508V52.1644H12.5453H21.5058H30.4074H30.949V46.8992H29.8304Z" fill="#FDBA12" stroke="#231F20" stroke-width="0.45" stroke-miterlimit="10"/>
<path d="M21.5063 1C18.8923 1 16.7847 3.12497 16.7847 5.73395C16.7847 6.90268 17.2086 7.97697 17.9033 8.80335C18.7746 9.83041 20.058 10.4797 21.5063 10.4797C22.9546 10.4797 24.238 9.83041 25.1093 8.80335C25.8158 7.97697 26.2279 6.90268 26.2279 5.73395C26.2279 3.11316 24.1085 1 21.5063 1ZM21.5063 9.11029C20.8822 9.11029 20.2935 8.93321 19.7872 8.63807C18.8099 8.0478 18.1506 6.97352 18.1506 5.74576C18.1506 3.88051 19.6577 2.38123 21.5063 2.38123C23.3549 2.38123 24.862 3.89231 24.862 5.74576C24.862 6.97352 24.2027 8.0478 23.2254 8.63807C22.7191 8.94501 22.1304 9.11029 21.5063 9.11029Z" fill="#FDBA12" stroke="#231F20" stroke-width="0.45" stroke-miterlimit="10"/>
<path d="M8.41223 55.3164L8.27094 55.34L7.89414 55.8831L6.22217 58.2796L6.24567 58.4212L6.63425 58.6927L6.77554 58.6573L8.44759 56.2726L8.82431 55.7296L8.80081 55.5761L8.41223 55.3164Z" fill="black"/>
<path d="M10.4849 56.6504L10.3436 56.6976L10.0139 57.2761L8.62451 59.826L8.65987 59.9677L9.07195 60.2038L9.21324 60.1566L10.6144 57.6184L10.9324 57.0164L10.897 56.8747L10.4849 56.6504Z" fill="black"/>
<path d="M12.6512 57.7249L12.5099 57.7839L12.2391 58.4214L11.1323 61.0776L11.1912 61.2192L11.6268 61.3963L11.7681 61.3373L12.8632 58.6811L13.134 58.0436L13.0869 57.9019L12.6512 57.7249Z" fill="black"/>
<path d="M14.8769 58.5513L14.7474 58.6221L14.559 59.295L13.7466 62.0575L13.8172 62.1873L14.2646 62.3172L14.3942 62.2464L15.2066 59.4957L15.4068 58.8228L15.3361 58.6929L14.8769 58.5513Z" fill="black"/>
<path d="M21.5056 59.5667H21.2818L21.1759 59.6611L21.1641 60.3694L21.1523 63.2381L21.2466 63.3444H21.5056L21.7175 63.3562L21.8235 63.2499L21.847 60.3694L21.8588 59.6729L21.7529 59.5667H21.5056Z" fill="black"/>
<path d="M28.2291 58.6692L28.0996 58.5984L27.6404 58.7401L27.5815 58.8699L27.7699 59.5074L28.6059 62.2935L28.7354 62.3643L29.1829 62.2226L29.2535 62.0928L28.4175 59.3067L28.2291 58.6692Z" fill="black"/>
<path d="M30.4663 57.7839L30.325 57.7249L29.9011 57.9137L29.8423 58.0436L30.1131 58.6929L31.2435 61.3373L31.373 61.3963L31.8086 61.2074L31.8675 61.0776L30.7372 58.4214L30.4663 57.7839Z" fill="black"/>
<path d="M32.6327 56.6976L32.4914 56.6504L32.091 56.8747L32.0439 57.0164L32.3736 57.6184L33.7866 60.1448L33.9279 60.192L34.34 59.9559L34.3871 59.8142L32.9741 57.2879L32.6327 56.6976Z" fill="black"/>
<path d="M35.1056 55.8832L34.7053 55.3166L34.564 55.293L34.1872 55.5645L34.1519 55.718L34.5522 56.2728L36.2242 58.6339L36.3655 58.6575L36.7541 58.386L36.7776 58.2443L35.1056 55.8832Z" fill="black"/>
<path d="M19.7984 60.334C19.7395 60.2277 19.6806 60.1333 19.61 60.0388C19.2803 59.6256 18.8329 59.3659 18.2677 59.2951C18.1499 59.2833 18.044 59.2715 17.938 59.2715H17.9262C17.5023 59.2715 17.1255 59.4013 16.7958 59.6493C16.7134 59.7083 16.631 59.7791 16.5603 59.8618C16.2777 60.1569 16.1129 60.5229 16.0423 60.9597C15.9716 61.5027 16.0893 61.9867 16.4073 62.3999C16.7252 62.8131 17.1609 63.061 17.7143 63.1436C17.832 63.1554 17.9498 63.1673 18.0675 63.1673H18.0793C18.5032 63.1673 18.8917 63.0374 19.2332 62.8013C19.6689 62.4944 19.9279 62.0576 19.9986 61.5145C20.0574 61.0895 19.9985 60.6999 19.8101 60.3458L19.7984 60.334ZM17.8202 62.5534C17.4317 62.4943 17.1373 62.3291 16.9136 62.0457C16.6898 61.7624 16.6075 61.4319 16.6663 61.0541C16.7252 60.6645 16.8901 60.3576 17.1844 60.1451C17.2433 60.0979 17.3021 60.0624 17.3728 60.027C17.5494 59.9326 17.7614 59.8854 17.9733 59.8854C18.0557 59.8854 18.1264 59.8854 18.2088 59.8972C18.5032 59.9444 18.7622 60.0624 18.9624 60.2513C19.0213 60.3104 19.0684 60.3576 19.1037 60.4048C19.3274 60.6881 19.4098 61.0305 19.3627 61.3965C19.3038 61.7742 19.139 62.0812 18.8446 62.2937C18.5503 62.518 18.2088 62.6006 17.832 62.5416L17.8202 62.5534Z" fill="#231F20"/>
<path d="M26.9696 60.9006C26.9107 60.4875 26.7459 60.1333 26.4751 59.85C26.3926 59.7555 26.2984 59.6847 26.1924 59.602C25.8509 59.3541 25.4742 59.2361 25.0503 59.2361H25.0385C24.9325 59.2361 24.8148 59.2361 24.6971 59.2597C24.1319 59.3423 23.6845 59.5902 23.3665 60.0152C23.2959 60.1097 23.237 60.2159 23.1781 60.3222C23.0015 60.6645 22.9544 61.0659 23.0133 61.4909C23.0957 62.034 23.3429 62.4589 23.7668 62.7659C24.0965 63.002 24.4733 63.1319 24.8972 63.1319H24.909C25.015 63.1319 25.121 63.1319 25.2269 63.1082C25.8039 63.0256 26.2631 62.7659 26.581 62.3527C26.9107 61.9395 27.0284 61.4437 26.946 60.9006H26.9696ZM24.1672 62.2937C23.8728 62.0812 23.708 61.786 23.6491 61.4083C23.5902 61.0187 23.6727 60.6763 23.8846 60.393C23.9199 60.3458 23.9552 60.3104 24.0023 60.2632C24.2025 60.0507 24.4733 59.9208 24.803 59.8736C24.8854 59.8736 24.9561 59.8618 25.0267 59.8618C25.2504 59.8618 25.4624 59.9208 25.6626 60.027C25.7097 60.0507 25.7568 60.0861 25.8039 60.1215C26.0983 60.334 26.2749 60.6291 26.322 60.9951C26.3808 61.3729 26.2984 61.7152 26.0747 62.0103C25.851 62.3055 25.5566 62.4826 25.168 62.5416C24.7795 62.6006 24.4498 62.518 24.1554 62.3055L24.1672 62.2937Z" fill="#231F20"/>
<path d="M17.9854 40.4298C18.374 40.4298 18.6331 40.3589 18.7508 40.2527C18.8685 40.1346 18.9274 39.9103 18.9274 39.568V35.2708C18.9274 34.9403 18.8685 34.716 18.739 34.6097C18.6095 34.5035 18.3622 34.4326 17.9736 34.4208V34.2319H25.0031V34.4208C24.6145 34.4326 24.3673 34.5035 24.2377 34.6097C24.1082 34.7278 24.0494 34.9403 24.0494 35.2708V39.568C24.0494 39.9103 24.1082 40.1346 24.2259 40.2527C24.3437 40.3589 24.6028 40.4298 24.9913 40.4298V40.6186H22.0595V40.4298C22.4362 40.4298 22.6952 40.3589 22.8248 40.2409C22.9543 40.1228 23.0132 39.8985 23.0132 39.568V35.4361C23.0132 35.0937 22.9425 34.8576 22.813 34.7514C22.6835 34.6451 22.3891 34.5743 21.9535 34.5743H21.0468C20.6111 34.5743 20.3168 34.6333 20.1755 34.7514C20.0342 34.8694 19.9753 35.0937 19.9753 35.4361V39.568C19.9753 39.8985 20.0342 40.1228 20.1637 40.2409C20.2932 40.3589 20.5405 40.4179 20.9291 40.4298V40.6186H17.9854V40.4298Z" fill="#231F20"/>
<path d="M7.91786 34.4091C7.72947 34.4327 7.56459 34.4917 7.43507 34.5862C7.30554 34.6806 7.15251 34.8813 6.95234 35.1883L5.37451 37.75V39.6979C5.37451 39.9694 5.43341 40.1583 5.55116 40.2646C5.6689 40.3708 5.90437 40.4298 6.25761 40.4298V40.6187H3.4906V40.4298H3.53767C3.85559 40.4298 4.06752 40.3708 4.18526 40.2528C4.30301 40.1347 4.36191 39.9222 4.36191 39.6271V37.8445L2.39557 34.9285C2.27783 34.7515 2.14829 34.6216 2.00699 34.539C1.86569 34.4563 1.68905 34.4209 1.46533 34.4091V34.2202H4.27948V34.4091C3.98511 34.4327 3.79674 34.4681 3.71432 34.5035C3.6319 34.539 3.58482 34.6098 3.58482 34.7042C3.58482 34.7633 3.58478 34.8105 3.62011 34.8695C3.64365 34.9285 3.69074 34.9994 3.74961 35.1056L5.139 37.2542L6.32825 35.2945C6.50487 34.9876 6.59911 34.7987 6.59911 34.716C6.59911 34.6334 6.56375 34.5626 6.48133 34.5153C6.41068 34.4799 6.23404 34.4445 5.95145 34.4091V34.2202H7.88251V34.4091H7.91786Z" fill="#231F20"/>
<path d="M35.5059 40.6305V40.4416C35.8591 40.4416 36.0945 40.3708 36.2005 40.2764C36.3065 40.1701 36.3654 39.9458 36.3654 39.5917V35.2827C36.3654 34.9403 36.3065 34.716 36.2005 34.598C36.0945 34.4799 35.8591 34.4327 35.5176 34.4091V34.2202H40.5454L40.616 35.6251H40.3688C40.2981 35.2001 40.1921 34.9285 40.0391 34.7869C39.8978 34.657 39.6152 34.5862 39.2148 34.5862H37.743C37.5899 34.5862 37.484 34.6098 37.4369 34.657C37.3898 34.7042 37.3663 34.8341 37.3663 35.0466V36.7702C37.3663 36.9 37.3662 36.9827 37.4016 37.0181C37.4251 37.0535 37.4957 37.0771 37.6017 37.0771H38.7674C39.2149 37.0771 39.4974 37.0181 39.6152 36.9C39.7329 36.782 39.8154 36.5341 39.8389 36.1799H40.0979V38.3875H39.8389C39.8154 38.0097 39.7329 37.7618 39.6152 37.6438C39.4857 37.5257 39.2031 37.4549 38.7674 37.4549H37.59C37.4958 37.4549 37.4369 37.4667 37.4016 37.5021C37.3662 37.5375 37.3545 37.6202 37.3545 37.7618V39.6743C37.3545 39.9222 37.378 40.0757 37.4251 40.1465C37.4722 40.2173 37.5782 40.2528 37.7313 40.2528H39.0853C39.6152 40.2528 39.992 40.1701 40.2157 40.0167C40.4394 39.8632 40.6631 39.509 40.8869 38.966L41.0988 39.084L40.6514 40.6423H35.5059V40.6305Z" fill="#231F20"/>
</svg>
