<svg width="246" height="56" viewBox="0 0 246 56" fill="none" xmlns="http://www.w3.org/2000/svg">
<path d="M61.075 8.97923V18.4232C61.075 22.3947 61.7856 23.0002 63.4414 23.1583L63.7575 23.1844C63.969 23.2116 64.0208 23.3413 64.0208 23.5267V23.7366C64.0208 23.9725 63.9429 24.0516 63.6524 24.0516H57.6043C57.2616 24.0516 57.1553 23.9725 57.1553 23.7108V23.5267C57.1553 23.2895 57.2862 23.2116 57.577 23.1844L57.866 23.1583C59.2324 23.052 60.0766 22.1848 60.0766 18.4232V10.1373C60.0766 7.42711 59.0225 6.53381 57.5237 6.53381H57.341C57.0763 6.53381 56.9984 6.42791 56.9984 6.21763V5.9805C56.9984 5.74413 57.1281 5.63784 57.5237 5.63784H60.9426C61.8113 5.63784 61.9683 5.74413 62.4429 6.32239L73.0435 19.5007V10.6622C73.0435 7.53224 72.2292 6.66505 70.6241 6.53381L70.3091 6.50695C70.0443 6.47933 69.9407 6.40143 69.9407 6.16583V5.9805C69.9407 5.71573 70.0443 5.63784 70.3609 5.63784H76.4106C76.7528 5.63784 76.858 5.71573 76.858 5.9544V6.16583C76.858 6.37572 76.7528 6.47933 76.5157 6.50695L76.2007 6.53381C74.728 6.63742 74.0446 7.55834 74.0446 10.6895V23.8417C74.0446 24.1049 73.9394 24.263 73.6747 24.263H73.5972C73.36 24.263 73.2549 24.1583 73.0707 23.9219L61.075 8.97923Z" fill="#5D5C51"/>
<path d="M82.6198 16.476H88.4853L85.4865 8.69039L82.6198 16.476ZM95.3522 23.1572H95.5606C95.7981 23.1845 95.8511 23.2635 95.8511 23.5256V23.7109C95.8511 23.9742 95.7736 24.0532 95.5088 24.0532H88.5386C88.2999 24.0532 88.1963 23.9742 88.1963 23.737V23.5256C88.1963 23.2896 88.3272 23.1845 88.5904 23.1572H88.8264C90.4848 23.1054 90.7465 22.3158 90.2216 20.9478L88.8264 17.3708H82.3048L81.1195 20.5794C80.5658 22.0798 80.8839 23.1054 82.4617 23.1572L82.6716 23.1845C82.9878 23.1845 83.0929 23.2896 83.0929 23.5256V23.7109C83.0929 23.9742 83.0139 24.0532 82.7506 24.0532H77.384C77.0951 24.0532 76.937 23.9742 76.937 23.7109V23.5525C76.937 23.2896 77.0417 23.1572 77.331 23.1572H77.4634C78.6472 23.1572 79.4871 22.0268 80.0393 20.528L84.9862 7.53234L84.881 7.29635C84.7759 6.95446 84.7498 6.79599 85.0391 6.6118C85.4604 6.3762 86.0648 5.79641 86.381 5.45375C86.5122 5.32175 86.5897 5.27148 86.7478 5.27148C86.932 5.27148 87.011 5.3747 87.0644 5.53279L93.1658 21.1074C93.642 22.2897 94.2445 23.1054 95.3522 23.1572Z" fill="#5D5C51"/>
<path d="M108.877 7.08537C109.114 6.74425 109.035 6.53321 108.691 6.53321H104.458C102.431 6.53321 101.142 7.29719 99.9863 8.97978C99.7487 9.24301 99.0653 10.3477 98.801 10.7951C98.6713 11.0307 98.5638 11.0568 98.3536 11.005L98.1694 10.926C97.9595 10.8726 97.9077 10.7418 97.9595 10.5058L99.2756 6.34902C99.4322 5.77077 99.6164 5.63838 100.222 5.63838H112.27C112.507 5.63838 112.586 5.71781 112.586 5.90161V6.00675C112.586 6.21818 112.559 6.34902 112.428 6.53321L101.8 22.6328C101.564 22.9478 101.669 23.1577 102.011 23.1577H107.141C109.666 23.1577 110.981 22.0802 111.929 20.5803C112.14 20.2909 112.664 19.4222 112.875 18.9748C112.98 18.712 113.085 18.6598 113.322 18.712L113.479 18.7649C113.716 18.8179 113.742 18.8973 113.665 19.1605L112.559 23.3158C112.402 23.9213 112.297 24.0525 111.559 24.0525H98.3536C98.1176 24.0525 98.0401 23.9735 98.0401 23.7889V23.6841C98.0401 23.4743 98.0646 23.3415 98.1966 23.1577L108.877 7.08537Z" fill="#5D5C51"/>
<path d="M120.764 16.476H126.63L123.632 8.69039L120.764 16.476ZM133.495 23.1572H133.707C133.943 23.1845 133.996 23.2635 133.996 23.5256V23.7109C133.996 23.9742 133.918 24.0532 133.653 24.0532H126.683C126.446 24.0532 126.341 23.9742 126.341 23.737V23.5256C126.341 23.2896 126.473 23.1845 126.735 23.1572H126.972C128.629 23.1054 128.891 22.3158 128.365 20.9478L126.972 17.3708H120.449L119.264 20.5794C118.712 22.0798 119.028 23.1054 120.606 23.1572L120.816 23.1845C121.132 23.1845 121.237 23.2896 121.237 23.5256V23.7109C121.237 23.9742 121.158 24.0532 120.895 24.0532H115.528C115.24 24.0532 115.083 23.9742 115.083 23.7109V23.5525C115.083 23.2896 115.187 23.1572 115.477 23.1572H115.608C116.793 23.1572 117.633 22.0268 118.185 20.528L123.131 7.53234L123.026 7.29635C122.92 6.95446 122.895 6.79599 123.184 6.6118C123.605 6.3762 124.209 5.79641 124.527 5.45375C124.656 5.32175 124.736 5.27148 124.894 5.27148C125.078 5.27148 125.157 5.3747 125.21 5.53279L131.312 21.1074C131.786 22.2897 132.39 23.1054 133.495 23.1572Z" fill="#5D5C51"/>
<path d="M141.348 14.3985H143.4C146.16 14.3985 147.685 12.7934 147.685 10.5322C147.685 8.21685 146.478 6.53349 143.662 6.53349H142.058C141.452 6.53349 141.348 6.69043 141.348 7.27022V14.3985ZM141.348 15.2918V21.0007C141.348 22.6588 141.795 23.158 143.4 23.158H143.61C143.926 23.158 144.03 23.2631 144.03 23.5263V23.7362C144.03 23.9737 143.951 24.0528 143.584 24.0528H136.323C136.007 24.0528 135.903 23.9737 135.903 23.7105V23.4745C135.903 23.2359 136.007 23.158 136.349 23.158H136.559C138.137 23.158 138.586 22.6848 138.586 21.0007V8.68959C138.586 7.00661 138.137 6.53349 136.481 6.53349H136.323C136.007 6.53349 135.903 6.42835 135.903 6.16551V5.95523C135.903 5.71656 135.981 5.63905 136.349 5.63905H144.504C148.027 5.63905 150.475 7.19118 150.475 10.2674C150.475 12.6626 148.791 14.3985 145.95 14.8732C146.398 15.1621 146.74 15.5305 147.108 16.0554L150.764 21.3169C151.581 22.5007 152.264 23.158 153.71 23.158C153.973 23.158 154.08 23.2631 154.08 23.5006V23.7362C154.08 23.9737 153.973 24.0528 153.686 24.0528H150.134C149.424 24.0528 149.214 23.9204 148.898 23.4473L144.19 16.4771C143.557 15.5823 143.163 15.2918 142.111 15.2918H141.348Z" fill="#5D5C51"/>
<path d="M161.432 14.8987V20.4749C161.432 22.4744 162.089 23.1574 163.904 23.1574H164.587C166.929 23.1574 168.111 21.1859 168.111 18.7911C168.111 15.8979 166.456 14.7663 163.274 14.8454L161.432 14.8987ZM161.432 14.0039L163.457 13.9521C166.061 13.9248 167.245 12.1356 167.245 10.1103C167.245 7.61194 166.061 6.53293 163.641 6.53293H162.116C161.564 6.53293 161.432 6.63845 161.432 7.21747V14.0039ZM155.987 23.71V23.4744C155.987 23.2365 156.065 23.1574 156.433 23.1574H156.59C158.221 23.1574 158.67 22.6574 158.67 21.0013V8.68902C158.67 7.00643 158.221 6.53293 156.54 6.53293H156.407C156.091 6.53293 155.987 6.42817 155.987 6.16494V5.95467C155.987 5.71753 156.065 5.63849 156.433 5.63849H164.43C168.324 5.63849 170.087 7.40051 170.087 9.87279C170.087 11.9514 168.613 13.5837 166.456 14.1086C169.033 14.3979 171.033 16.0552 171.033 18.6322C171.033 21.7898 168.797 24.0522 164.587 24.0522H156.407C156.091 24.0522 155.987 23.9732 155.987 23.71Z" fill="#5D5C51"/>
<path d="M177.862 16.476H183.728L180.729 8.69039L177.862 16.476ZM190.593 23.1572H190.803C191.04 23.1845 191.092 23.2635 191.092 23.5256V23.7109C191.092 23.9742 191.014 24.0532 190.75 24.0532H183.781C183.542 24.0532 183.438 23.9742 183.438 23.737V23.5256C183.438 23.2896 183.569 23.1845 183.833 23.1572H184.07C185.728 23.1054 185.99 22.3158 185.464 20.9478L184.07 17.3708H177.547L176.361 20.5794C175.808 22.0798 176.126 23.1054 177.704 23.1572L177.914 23.1845C178.23 23.1845 178.335 23.2896 178.335 23.5256V23.7109C178.335 23.9742 178.256 24.0532 177.993 24.0532H172.626C172.337 24.0532 172.179 23.9742 172.179 23.7109V23.5525C172.179 23.2896 172.284 23.1572 172.573 23.1572H172.706C173.889 23.1572 174.731 22.0268 175.283 20.528L180.228 7.53234L180.123 7.29635C180.018 6.95446 179.992 6.79599 180.281 6.6118C180.703 6.3762 181.307 5.79641 181.623 5.45375C181.754 5.32175 181.832 5.27148 181.992 5.27148C182.174 5.27148 182.254 5.3747 182.307 5.53279L188.409 21.1074C188.883 22.2897 189.487 23.1054 190.593 23.1572Z" fill="#5D5C51"/>
<path d="M192.831 8.53261C192.042 7.16466 191.543 6.55916 190.412 6.50736C190.122 6.50736 190.018 6.40222 190.018 6.16508V5.95481C190.018 5.71767 190.122 5.63863 190.385 5.63863H196.961C197.197 5.63863 197.303 5.71767 197.303 5.92795V6.1129C197.303 6.37498 197.224 6.47973 196.934 6.47973H196.698C195.514 6.53307 195.304 7.37455 195.829 8.24329L199.802 15.0036L203.379 9.08478C204.222 7.74292 204.011 6.53307 202.721 6.47973H202.434C202.143 6.47973 202.064 6.40222 202.064 6.13938V5.95481C202.064 5.71767 202.195 5.63863 202.434 5.63863H207.641C208.035 5.63863 208.114 5.71767 208.114 5.9809V6.13938C208.114 6.40222 208.009 6.47973 207.72 6.50736C206.404 6.55916 205.564 7.55874 204.458 9.3223L200.249 16.0304V21.0014C200.249 22.6583 200.698 23.1575 202.328 23.1575H202.513C202.827 23.1575 202.959 23.2642 202.959 23.5259V23.7358C202.959 23.9733 202.855 24.0524 202.513 24.0524H195.225C194.936 24.0524 194.804 23.9733 194.804 23.7101V23.4741C194.804 23.2366 194.936 23.1575 195.278 23.1575H195.462C197.04 23.1575 197.487 22.6844 197.487 21.0014V16.2925L192.831 8.53261Z" fill="#5D5C51"/>
<path d="M216.085 6.53345C215.559 6.53345 215.454 6.69154 215.454 7.16505V14.0834H218.189C219.82 14.0834 220.478 13.1096 220.531 11.6096V11.3733C220.531 11.1104 220.662 11.0314 220.899 11.0314H221.135C221.372 11.0314 221.451 11.1361 221.451 11.4527V17.37C221.451 17.6861 221.372 17.7656 221.135 17.7656H220.927C220.689 17.7656 220.557 17.6604 220.557 17.3443L220.531 17.1083C220.451 15.6356 219.795 14.9779 218.11 14.9779H215.454V21.1066C215.454 22.6058 215.796 23.1579 217.216 23.1579H219.216C221.794 23.1579 223.16 22.3698 224.213 20.818C224.423 20.5272 225.001 19.4482 225.134 19.0272C225.266 18.7652 225.345 18.7118 225.608 18.7652L225.818 18.8442C226.03 18.8964 226.054 19.0272 226.001 19.2901L225.239 23.3694C225.134 23.8943 224.924 24.0524 224.372 24.0524H210.43C210.113 24.0524 210.008 23.9733 210.008 23.7105V23.473C210.008 23.237 210.087 23.1579 210.455 23.1579H210.692C212.245 23.1579 212.693 22.6587 212.693 21.0018V8.69108C212.693 7.00811 212.245 6.53345 210.587 6.53345H210.43C210.113 6.53345 210.008 6.4287 210.008 6.16508V5.95519C210.008 5.71805 210.087 5.63901 210.455 5.63901H223.844C224.318 5.63901 224.503 5.71805 224.555 6.21842L225.055 9.8476C225.082 10.0575 225.029 10.1638 224.845 10.216L224.687 10.2428C224.451 10.295 224.372 10.2428 224.213 9.97845C224.055 9.63618 223.634 8.87527 223.477 8.66384C222.451 7.11171 221.372 6.53345 218.611 6.53345H216.085Z" fill="#5D5C51"/>
<path d="M236.913 23.8943C236.809 24.1836 236.703 24.316 236.466 24.316H236.387C236.124 24.316 236.02 24.1836 235.914 23.8943L230.074 9.05907C229.469 7.55913 228.995 6.66584 227.837 6.53346L227.601 6.50621C227.338 6.48012 227.259 6.3769 227.259 6.13823V5.9552C227.259 5.74492 227.364 5.63748 227.601 5.63748H234.467C234.73 5.63748 234.836 5.71653 234.836 5.9552V6.13823C234.836 6.40261 234.756 6.48012 234.467 6.48012H234.231C232.521 6.55916 232.443 7.79511 233.021 9.24326L237.307 20.3702L241.203 9.45315C241.779 7.84807 241.384 6.53346 240.045 6.48012H239.782C239.517 6.48012 239.439 6.3769 239.439 6.13823V5.9552C239.439 5.71653 239.544 5.63748 239.806 5.63748H244.99C245.357 5.63748 245.489 5.71653 245.489 5.98091V6.13823C245.489 6.40261 245.382 6.50621 245.014 6.50621L244.857 6.53346C243.594 6.58526 242.963 7.79511 242.385 9.32115L236.913 23.8943Z" fill="#5D5C51"/>
<path d="M66.915 50.7289C62.6803 50.7289 59.4701 48.9941 59.4701 44.2302V34.9977C59.4701 33.368 59.0488 32.8416 57.6275 32.8416H57.3919C57.0765 32.8416 56.9702 32.7625 56.9702 32.5008V32.289C56.9702 32.0277 57.0496 31.9487 57.4188 31.9487H64.4166C64.7316 31.9487 64.8379 32.0277 64.8379 32.289V32.5265C64.8379 32.7364 64.7589 32.8416 64.4684 32.8416H64.3115C62.7839 32.8416 62.3108 33.289 62.3108 34.9977V44.1788C62.3108 47.5202 63.9953 49.5451 67.1782 49.5451C71.0963 49.5451 72.6757 47.4147 72.6757 42.9433V35.8936C72.6757 33.8945 72.1508 32.8416 70.5181 32.8416H70.4129C70.0967 32.8416 69.9928 32.7364 69.9928 32.5008V32.289C69.9928 32.0519 70.0967 31.9487 70.3857 31.9487H76.0413C76.359 31.9487 76.4902 32.0277 76.4902 32.2633V32.5265C76.4902 32.7107 76.4369 32.8416 76.1491 32.8416H75.9895C74.4634 32.8416 73.8852 33.7103 73.8852 35.9715V42.7587C73.8852 47.8621 71.7552 50.7289 66.915 50.7289Z" fill="#5D5C51"/>
<path d="M82.3176 35.2881V44.7306C82.3176 48.7036 83.0282 49.3091 84.6835 49.4656L85.0001 49.4933C85.21 49.5205 85.2618 49.6502 85.2618 49.8355V50.0454C85.2618 50.2814 85.1843 50.3605 84.895 50.3605H78.8438C78.503 50.3605 78.3967 50.2814 78.3967 50.0197V49.8355C78.3967 49.598 78.5287 49.5205 78.8181 49.4933L79.107 49.4656C80.4734 49.3609 81.318 48.4937 81.318 44.7306V36.4462C81.318 33.736 80.2651 32.8427 78.7663 32.8427H78.5821C78.3173 32.8427 78.2398 32.7364 78.2398 32.5265V32.2894C78.2398 32.053 78.3707 31.9467 78.7663 31.9467H82.1852C83.0524 31.9467 83.2108 32.053 83.6851 32.6313L94.2845 45.8111V36.9711C94.2845 33.8411 93.4702 32.9739 91.8652 32.8427L91.5501 32.8158C91.2869 32.7894 91.1822 32.7103 91.1822 32.4747V32.2894C91.1822 32.0258 91.2869 31.9467 91.6035 31.9467H97.6531C97.9954 31.9467 98.099 32.0258 98.099 32.2633V32.4747C98.099 32.6846 97.9954 32.7894 97.7567 32.8158L97.4429 32.8427C95.969 32.9463 95.2856 33.8672 95.2856 36.9983V50.149C95.2856 50.4138 95.182 50.5719 94.9172 50.5719H94.8397C94.6011 50.5719 94.4975 50.4656 94.3117 50.2296L82.3176 35.2881Z" fill="#5D5C51"/>
<path d="M102.824 34.9991C102.824 33.2889 102.378 32.8415 100.694 32.8415H100.561C100.246 32.8415 100.141 32.7367 100.141 32.4731V32.2632C100.141 32.0272 100.22 31.947 100.588 31.947H107.874C108.164 31.947 108.269 32.0272 108.269 32.2893V32.5265C108.269 32.764 108.191 32.8415 107.822 32.8415H107.665C106.06 32.8415 105.587 33.3422 105.587 34.9991V47.3099C105.587 48.9668 106.034 49.466 107.638 49.466H107.849C108.164 49.466 108.269 49.5723 108.269 49.8343V50.0458C108.269 50.2814 108.191 50.3604 107.822 50.3604H100.561C100.246 50.3604 100.141 50.2814 100.141 50.0197V49.7821C100.141 49.5465 100.246 49.466 100.588 49.466H100.8C102.378 49.466 102.824 48.9928 102.824 47.3099V34.9991Z" fill="#5D5C51"/>
<path d="M119.824 50.2027C119.719 50.4921 119.613 50.6244 119.377 50.6244H119.298C119.034 50.6244 118.929 50.4921 118.825 50.2027L112.983 35.3679C112.379 33.8676 111.906 32.9743 110.748 32.8419L110.512 32.8151C110.249 32.789 110.17 32.6838 110.17 32.4467V32.2637C110.17 32.0522 110.275 31.9475 110.512 31.9475H117.378C117.641 31.9475 117.746 32.0265 117.746 32.2637V32.4467C117.746 32.7111 117.666 32.789 117.378 32.789H117.14C115.431 32.868 115.354 34.1036 115.931 35.5517L120.218 46.6787L124.112 35.7605C124.69 34.1569 124.294 32.8419 122.955 32.789H122.692C122.428 32.789 122.35 32.6838 122.35 32.4467V32.2637C122.35 32.0265 122.455 31.9475 122.717 31.9475H127.899C128.267 31.9475 128.399 32.0265 128.399 32.2897V32.4467C128.399 32.7111 128.293 32.8151 127.925 32.8151L127.767 32.8419C126.504 32.8941 125.874 34.1036 125.295 35.6296L119.824 50.2027Z" fill="#5D5C51"/>
<path d="M136.369 32.8419C135.843 32.8419 135.738 33.0004 135.738 33.4735V40.3919H138.473C140.104 40.3919 140.762 39.4184 140.814 37.9181V37.6837C140.814 37.4193 140.946 37.3414 141.183 37.3414H141.419C141.657 37.3414 141.736 37.445 141.736 37.7612V43.6788C141.736 43.995 141.657 44.0741 141.419 44.0741H141.211C140.973 44.0741 140.841 43.9678 140.841 43.6528L140.814 43.4171C140.735 41.9425 140.079 41.2852 138.393 41.2852H135.738V47.4155C135.738 48.9143 136.08 49.4664 137.5 49.4664H139.501C142.078 49.4664 143.444 48.6771 144.498 47.125C144.707 46.8361 145.285 45.7586 145.418 45.3369C145.549 45.074 145.629 45.0207 145.892 45.074L146.102 45.1515C146.314 45.2064 146.338 45.3369 146.285 45.6001L145.523 49.6767C145.418 50.2032 145.206 50.3613 144.656 50.3613H130.714C130.397 50.3613 130.292 50.2822 130.292 50.019V49.7815C130.292 49.5455 130.371 49.4664 130.74 49.4664H130.977C132.529 49.4664 132.976 48.9672 132.976 47.3103V34.9996C132.976 33.3151 132.529 32.8419 130.87 32.8419H130.714C130.397 32.8419 130.292 32.7372 130.292 32.474V32.2637C130.292 32.0265 130.371 31.949 130.74 31.949H144.128C144.602 31.949 144.787 32.0265 144.84 32.5273L145.339 36.1561C145.366 36.3664 145.313 36.4727 145.129 36.5245L144.97 36.5502C144.735 36.6035 144.656 36.5502 144.498 36.2873C144.339 35.9447 143.918 35.1838 143.761 34.9723C142.735 33.4206 141.657 32.8419 138.895 32.8419H136.369Z" fill="#5D5C51"/>
<path d="M153.76 40.707H155.811C158.572 40.707 160.098 39.103 160.098 36.8395C160.098 34.5253 158.891 32.8423 156.073 32.8423H154.471C153.864 32.8423 153.76 32.9989 153.76 33.5787V40.707ZM153.76 41.6003V47.3092C153.76 48.9661 154.206 49.4668 155.811 49.4668H156.021C156.338 49.4668 156.442 49.5719 156.442 49.8348V50.0451C156.442 50.2822 156.362 50.3613 155.995 50.3613H148.734C148.418 50.3613 148.315 50.2822 148.315 50.0194V49.783C148.315 49.5443 148.418 49.4668 148.761 49.4668H148.971C150.55 49.4668 150.997 48.9937 150.997 47.3092V34.9984C150.997 33.3155 150.55 32.8423 148.893 32.8423H148.734C148.418 32.8423 148.315 32.7372 148.315 32.474V32.2641C148.315 32.0266 148.392 31.9475 148.761 31.9475H156.915C160.44 31.9475 162.887 33.4996 162.887 36.5763C162.887 38.9722 161.204 40.707 158.363 41.1816C158.809 41.4709 159.151 41.8389 159.519 42.3639L163.175 47.6254C163.992 48.8091 164.676 49.4668 166.123 49.4668C166.386 49.4668 166.491 49.5719 166.491 49.8091V50.0451C166.491 50.2822 166.386 50.3613 166.097 50.3613H162.546C161.835 50.3613 161.625 50.2289 161.309 49.7557L156.601 42.784C155.97 41.8911 155.574 41.6003 154.522 41.6003H153.76Z" fill="#5D5C51"/>
<path d="M171.181 35.4197C171.181 37.4725 172.971 38.2603 175.6 39.4717C178.389 40.7334 180.913 41.9685 180.913 45.4941C180.913 48.73 178.363 50.7023 175.101 50.7023C173.181 50.7023 171.813 50.1517 170.734 49.5976C170.471 49.4667 170.287 49.3877 170.156 49.3877C169.998 49.3877 169.917 49.4928 169.84 49.7027L169.628 50.1774C169.576 50.3355 169.525 50.3873 169.339 50.3873H169.024C168.867 50.3873 168.814 50.2806 168.814 50.0983L168.761 45.232C168.761 44.9416 168.839 44.8625 169.051 44.8625H169.392C169.576 44.8625 169.655 44.9174 169.707 45.1273C170.313 48.3102 172.312 49.7818 174.995 49.7818C177.338 49.7818 178.573 48.4672 178.573 46.547C178.573 44.3648 176.942 43.4171 174.496 42.3381C171.233 40.8915 168.998 39.8124 168.998 36.4453C168.998 33.3415 171.55 31.6067 174.652 31.6067C176.283 31.6067 177.415 32.0269 178.363 32.5272C178.599 32.6585 178.757 32.7099 178.862 32.7099C179.019 32.7099 179.098 32.632 179.177 32.4739L179.415 32.0269C179.467 31.8684 179.547 31.8427 179.676 31.8427H179.94C180.098 31.8427 180.151 31.8956 180.151 32.1059L180.23 36.4453C180.23 36.7086 180.178 36.8122 179.94 36.8122H179.599C179.389 36.8122 179.309 36.7347 179.256 36.4987C178.678 33.9197 177.126 32.5272 174.602 32.5272C172.522 32.5272 171.181 33.5774 171.181 35.4197Z" fill="#5D5C51"/>
<path d="M185.69 34.9991C185.69 33.2889 185.243 32.8415 183.56 32.8415H183.428C183.111 32.8415 183.008 32.7367 183.008 32.4731V32.2632C183.008 32.0272 183.087 31.947 183.454 31.947H190.74C191.031 31.947 191.135 32.0272 191.135 32.2893V32.5265C191.135 32.764 191.057 32.8415 190.688 32.8415H190.53C188.925 32.8415 188.452 33.3422 188.452 34.9991V47.3099C188.452 48.9668 188.901 49.466 190.503 49.466H190.714C191.031 49.466 191.135 49.5723 191.135 49.8343V50.0458C191.135 50.2814 191.057 50.3604 190.688 50.3604H183.428C183.111 50.3604 183.008 50.2814 183.008 50.0197V49.7821C183.008 49.5465 183.111 49.466 183.454 49.466H183.665C185.243 49.466 185.69 48.9928 185.69 47.3099V34.9991Z" fill="#5D5C51"/>
<path d="M198.767 32.8419C197.031 32.8419 195.584 33.3945 194.664 34.8933C194.507 35.1565 194.032 35.9719 193.874 36.313C193.717 36.5759 193.612 36.6035 193.401 36.5502L193.191 36.4727C192.954 36.3936 192.929 36.234 193.033 35.919L194.032 31.9748C194.111 31.7376 194.19 31.6064 194.401 31.6064C194.796 31.6064 195.69 31.949 196.847 31.949H208.396C209.736 31.949 210.552 31.6064 210.947 31.6064C211.13 31.6064 211.236 31.7376 211.29 31.949L212.156 35.8929C212.235 36.1833 212.21 36.313 211.999 36.3936L211.813 36.4454C211.579 36.5245 211.446 36.4454 211.29 36.1561C211.183 35.8929 210.843 35.2874 210.683 35.0241C209.736 33.4735 208.422 32.8419 206.422 32.8419H204.738C204.16 32.8419 204.027 33.0261 204.027 33.632V47.3103C204.027 48.9672 204.477 49.4664 206.08 49.4664H206.29C206.607 49.4664 206.711 49.5719 206.711 49.8348V50.0447C206.711 50.2822 206.634 50.3613 206.266 50.3613H199.005C198.688 50.3613 198.584 50.2822 198.584 50.019V49.7815C198.584 49.5455 198.688 49.4664 199.031 49.4664H199.242C200.82 49.4664 201.266 48.9933 201.266 47.3103V33.6577C201.266 33.0261 201.161 32.8419 200.557 32.8419H198.767Z" fill="#5D5C51"/>
<path d="M216.555 34.8411C215.767 33.4735 215.267 32.8676 214.136 32.8162C213.845 32.8162 213.742 32.7107 213.742 32.4735V32.2636C213.742 32.0277 213.845 31.9486 214.109 31.9486H220.686C220.922 31.9486 221.027 32.0277 221.027 32.2376V32.4217C221.027 32.6838 220.949 32.7886 220.659 32.7886H220.421C219.238 32.8419 219.028 33.683 219.554 34.5521L223.525 41.312L227.103 35.3932C227.946 34.0514 227.734 32.8419 226.445 32.7886H226.156C225.867 32.7886 225.789 32.7107 225.789 32.4478V32.2636C225.789 32.0277 225.92 31.9486 226.156 31.9486H231.365C231.759 31.9486 231.839 32.0277 231.839 32.2897V32.4478C231.839 32.7107 231.734 32.7886 231.445 32.8162C230.129 32.8676 229.288 33.8676 228.181 35.6308L223.973 42.3393V47.3103C223.973 48.9668 224.421 49.4664 226.052 49.4664H226.235C226.552 49.4664 226.683 49.5727 226.683 49.8344V50.0447C226.683 50.2818 226.579 50.3608 226.235 50.3608H218.948C218.659 50.3608 218.529 50.2818 218.529 50.0189V49.7826C218.529 49.5454 218.659 49.4664 219.002 49.4664H219.186C220.765 49.4664 221.211 48.9933 221.211 47.3103V42.5998L216.555 34.8411Z" fill="#5D5C51"/>
<path d="M19.1693 45.2736C14.5651 45.2736 11.442 41.0681 11.442 37.2071C11.4355 32.7065 11.4489 32.8704 11.442 28.3709H0.767789V34.5806C0.767789 37.4374 0.77201 40.1092 0.945066 42.6229C1.24245 46.9309 3.14337 49.4907 5.45794 51.7028C8.64662 54.7506 14.0087 56 19.5265 56C25.0459 56 30.4056 54.7506 33.5939 51.7028C35.9085 49.4907 37.8094 46.9309 38.1079 42.6229C38.2829 40.1092 38.2852 37.4374 38.2852 34.5806V28.3709H27.5976C27.5922 32.8704 27.6056 32.7065 27.5987 37.2071C27.5949 39.5885 25.8874 45.2736 19.1693 45.2736Z" fill="#E0B259"/>
<path d="M0.767578 0H11.4648L27.5943 14.1138L27.5985 0H38.285V27.0658H27.5985L11.4253 13.7363L11.4364 27.0658H0.767578V0Z" fill="#E0B259"/>
<path d="M13.1696 39.1203C12.7276 37.8352 12.7126 36.4799 12.7548 34.9524C12.7794 33.523 12.7548 20.2672 12.7441 16.5033C12.7441 16.5033 19.3858 21.7648 15.5137 28.3709C16.5559 27.6142 17.7915 27.0658 19.7196 27.0658C22.0653 27.0658 23.8423 27.6982 25.3576 29.6022C26.2344 30.8351 26.701 31.8907 26.701 33.5038C26.701 35.8537 25.9684 37.608 23.8791 38.6372C22.3615 39.2906 21.314 39.3681 19.8167 38.9073C18.4434 38.4027 17.4162 37.0609 17.4162 35.2321C17.4273 33.4578 18.532 32.147 20.0335 32.1593C21.3888 32.2057 22.1854 33.0679 22.1581 34.5187C22.1405 35.4094 21.6766 35.8963 21.1597 36.4212C22.8112 36.5601 23.8902 34.9236 23.8423 33.5572C23.6884 30.9467 21.6167 30.1521 19.6187 30.2844C17.501 30.4817 15.8042 32.0081 15.5997 34.2966C15.4063 36.2274 15.6231 37.5532 16.5463 38.9591C18.7377 41.8846 22.3968 41.9348 25.8499 39.9384C21.8159 46.6879 14.3848 43.386 13.1915 39.1487L13.1696 39.1203Z" fill="#E0B259"/>
<path d="M26.2879 2.85633e-05V11.3603C26.2879 11.3603 21.3959 7.51855 22.8417 1.83841C21.8226 2.3499 17.8991 4.21399 12.9664 2.85633e-05H26.2879Z" fill="#E0B259"/>
</svg>
