<svg width="113" height="72" viewBox="0 0 113 72" fill="none" xmlns="http://www.w3.org/2000/svg">
<path d="M0.926261 6.1874C0.907527 0.656151 0.907527 0.393651 1.26348 0.206151C1.48829 0.0749012 3.68019 0.0186512 13.2346 0.0936511L13.2908 6.05615C13.3283 11.5687 13.3096 12.0187 13.0098 12.1499C12.8225 12.2249 10.1809 12.2812 7.14601 12.2812C4.11107 12.2812 1.46955 12.2249 1.30094 12.1499C0.982464 12.0187 0.96373 11.5312 0.926261 6.1874Z" fill="#FE0100"/>
<path d="M25.693 12.375V6.1875V0H87.3285V12.375H62.5994V72H50.2348V12.375H25.693Z" fill="black"/>
<path d="M99.693 59.625V29.8125V0H112.058L111.964 71.9062L74.9639 72V24.5625L87.2348 24.6562L87.3285 59.625H99.693Z" fill="black"/>
<path d="M0.926441 48.4125C0.907707 35.4375 0.963909 24.75 1.05758 24.6937C1.15125 24.6187 3.92391 24.5812 13.2348 24.6562L13.3285 72H0.963909L0.926441 48.4125Z" fill="black"/>
<path d="M25.6556 48.3937C25.6181 27.9187 25.6556 24.7687 25.8991 24.6937C26.0302 24.6375 28.8216 24.6 37.9639 24.6562L38.0576 72H25.693L25.6556 48.3937Z" fill="black"/>
</svg>
