<svg width="142" height="72" viewBox="0 0 142 72" fill="none" xmlns="http://www.w3.org/2000/svg">
<g clip-path="url(#clip0_228_342)">
<path d="M20.5726 64.5029C19.3024 63.7905 18.0794 63.0131 16.8841 62.1881C16.6228 62.0057 16.355 61.8297 15.9288 61.8341C15.2027 62.0896 14.7293 62.7056 14.4208 63.4137C14.1553 64.0233 14.6608 64.3708 15.0934 64.6897C16.3487 65.6133 17.6874 66.4096 19.0518 67.1745C19.7822 67.5827 20.3563 67.6184 20.8275 66.7929C21.5494 65.5277 21.5472 65.0497 20.5726 64.5029Z" fill="#1385E5"/>
<path d="M61.6617 57.3833C60.5789 57.654 59.7669 58.1953 59.4962 59.5487C59.2672 60.2568 58.7768 60.4549 58.1986 60.8864C57.346 61.5192 56.5063 62.1667 55.6364 62.7762C54.5014 63.5704 54.4136 64.0587 55.2509 65.2946C55.8421 66.1662 56.1274 66.1159 57.3909 65.4099C59.2716 64.3559 59.8395 63.0372 61.9323 62.2555C64.0977 62.2555 64.6792 59.965 64.3684 59.0073C64.0333 57.975 62.7444 57.1126 61.6617 57.3833Z" fill="#157FDF"/>
<path d="M51.4189 65.1942C50.4743 65.603 49.5383 66.0388 48.5744 66.395C42.6647 68.5804 36.6029 69.0958 30.3911 67.96C29.1038 67.7234 28.7953 68.0082 28.4612 69.5148C28.2106 70.6457 28.9924 70.7989 29.7999 70.9434C32.0833 71.3559 34.3816 71.6179 36.1809 71.5302C42.3734 71.5887 47.7283 70.355 52.8155 67.9329C53.7045 67.5074 53.9486 66.9731 53.486 66.0972C52.8691 64.9328 52.4664 64.7417 51.4189 65.1942Z" fill="#001C46"/>
<path d="M45.0787 62.7012C45.2821 63.3043 45.2971 64.0692 46.3039 64.1342C47.5355 63.7715 48.7864 63.2729 50.0031 62.6866C50.71 62.3472 50.9263 61.834 50.545 61.1443C50.1616 60.453 49.8703 59.5522 48.7564 59.9479C47.6855 60.3274 46.638 60.7697 45.5884 61.2055C44.8559 61.507 44.8709 62.0895 45.0787 62.7012Z" fill="#1581E1"/>
<path d="M31.1922 62.2232C30.0719 62.2172 30.1748 63.3086 29.9927 64.0356C29.8299 64.6934 30.3183 64.9889 30.8923 65.0896C31.974 65.2802 33.06 65.4686 34.1524 65.5839C35.4205 65.7203 35.7439 65.3998 35.7589 64.0984C35.7289 63.5706 35.8767 62.8246 35.0949 62.6779C33.8097 62.437 32.4945 62.2297 31.1922 62.2232Z" fill="#1483E3"/>
<path d="M37.762 58.2616C37.7513 59.1143 38.0426 59.6107 39.1435 59.5208C41.1142 59.3026 41.6754 59.2842 41.6882 58.3434C41.7032 57.2163 41.0628 56.3804 40.2295 56.4053C38.1068 56.466 37.7813 56.728 37.762 58.2616Z" fill="#1385E5"/>
<path d="M52.4386 53.9581C52.6935 53.7506 52.8713 53.495 52.8306 53.0194C52.6657 52.4097 52.143 51.8378 51.5004 51.6283C50.2473 51.2218 49.6883 52.4831 48.7994 52.965C48.3902 53.1871 48.311 53.6102 48.4716 54.0691C49.0157 55.605 49.8597 55.8811 51.1856 54.9321C51.6161 54.6241 52.0274 54.2912 52.4386 53.9581Z" fill="#1286E6"/>
<path d="M46.9766 50.3231C47.6277 50.2833 48.5445 49.4536 48.5123 48.9361C48.4759 48.3621 47.2914 47.2558 46.7302 47.3543C46.0191 47.478 45.4472 47.8383 45.4857 48.6617C45.5222 49.4411 46.3768 50.3629 46.9766 50.3231Z" fill="#0F89E8"/>
<path d="M44.5175 50.939C44.0056 49.6778 43.3888 49.2734 42.4056 49.6484C41.3024 50.0675 40.1736 50.3629 39.0105 50.5557C37.5561 50.7966 36.1017 50.7169 34.6409 50.6394C33.6706 50.587 33.2357 51.138 33.1393 52.3826C33.0708 53.2709 33.7113 53.4113 34.3838 53.4657C35.1635 53.5286 35.9475 53.5454 36.7314 53.581C39.1198 53.6208 41.4181 53.2185 43.6136 52.2946C44.1984 52.0495 44.8732 51.8148 44.5175 50.939Z" fill="#001C46"/>
<path d="M27.7609 48.159C27.204 48.113 26.1287 49.282 26.1309 49.8666C26.1309 50.405 27.0712 51.1656 27.7267 51.1572C28.3114 51.1467 29.1061 50.0405 29.0739 49.1605C28.9476 48.555 28.4485 48.2177 27.7609 48.159Z" fill="#098CEA"/>
<path d="M18.7774 39.1915C18.8117 39.3424 18.8545 39.5456 18.9017 39.7509C19.6021 42.7763 20.9815 45.4518 23.1749 47.7082C23.6419 48.188 24.0788 48.7872 24.8585 48.1209C25.9316 47.2033 26.1094 46.5642 25.364 45.7618C23.5712 43.8322 22.3931 41.6009 21.7805 39.0721C21.7398 38.9024 21.6948 38.7243 21.6005 38.5818C21.0694 37.7689 20.2704 38.1084 19.5635 38.1838C19.0473 38.2403 18.7517 38.5902 18.7774 39.1915Z" fill="#001C46"/>
<path d="M25.5612 53.6084C22.3611 51.6327 19.8121 49.0578 17.9701 45.8229C17.7259 45.3955 17.5288 44.9451 17.2739 44.5281C16.8969 43.9122 16.3378 43.9897 15.7702 44.2181C15.2004 44.4486 14.4614 44.4988 14.4443 45.4793C14.5321 45.6951 14.6264 46.0366 14.7977 46.3363C15.3354 47.279 15.858 48.2344 16.4685 49.1312C18.4541 52.0496 21.0159 54.3899 24.0661 56.2208C24.5502 56.5104 25.0622 56.8412 25.6405 56.4178C26.7115 55.6367 26.6815 54.3017 25.5612 53.6084Z" fill="#001C46"/>
<path d="M15.9884 40.9538C15.8641 40.4111 15.7742 39.8559 15.5836 39.3363C15.2044 38.3013 14.3026 38.712 13.5722 38.7308C12.9104 38.7476 12.6554 39.1707 12.6919 40.0025C12.7518 40.3021 12.8397 40.8154 12.9532 41.3246C13.2916 42.8456 13.7157 43.0321 15.1723 42.4266C15.8856 42.1312 16.149 41.6702 15.9884 40.9538Z" fill="#179CFB"/>
<path d="M9.57315 40.1075C9.42536 39.4181 9.03126 39.0683 8.35007 39.1479C6.67074 39.1584 6.30879 39.5711 6.6172 41.1194C6.78642 41.9742 6.98564 42.8248 7.21052 43.6671C7.38402 44.3186 7.56825 44.9974 8.53429 44.8047C9.88589 44.5344 10.4 44.0064 10.205 42.9673C10.0272 42.0077 9.77876 41.0628 9.57315 40.1075Z" fill="#199DFE"/>
<path d="M12.96 54.5824C13.6818 55.4393 14.4529 56.2562 15.2198 57.0737C15.5903 57.4672 16.053 57.8657 16.6099 57.5241C17.2397 57.1386 17.7302 56.5767 17.9401 55.8351C17.893 55.6884 17.8887 55.5254 17.803 55.4328C16.9055 54.4503 16.0766 53.386 15.0612 52.5375C14.3394 51.9321 13.6818 52.6821 13.1099 53.1116C12.5594 53.5222 12.5466 54.0879 12.96 54.5824Z" fill="#0A8CEA"/>
<path d="M3.61213 40.8636C3.46648 40.0004 3.03808 39.6296 2.22627 39.7217C0.649769 39.7469 0.309193 40.0926 0.566231 41.5739C1.92425 49.3509 5.46067 56.0198 11.259 61.5259C11.893 62.1268 12.4714 62.496 13.2296 61.6618C14.2471 60.5433 14.3135 60.1703 13.4053 59.3009C8.08461 54.197 4.81164 48.0541 3.61213 40.8636Z" fill="#001C46"/>
<path d="M39.0192 3.01949C46.4562 3.67107 53.0557 6.26696 58.7211 11.069C59.61 11.8211 60.028 11.6954 61.0197 10.629C61.7116 9.8852 61.4328 9.32371 60.7777 8.7685C54.5229 3.46994 47.253 0.58077 39.2141 0.0171801C38.1624 -0.0833861 37.7704 0.300022 37.7147 1.12969C37.6227 2.55437 37.8261 2.91683 39.0192 3.01949Z" fill="#001C46"/>
<path d="M38.7345 20.9223C41.3991 21.3078 43.8024 22.2904 45.9723 23.8533C46.8205 24.4651 47.4309 24.2263 48.2577 23.1389C48.864 22.3386 48.2792 21.93 47.7287 21.5194C45.2075 19.64 42.3673 18.5045 39.2336 18.052C37.9934 17.8738 37.5971 18.2091 37.5971 19.529C37.5414 20.2518 37.852 20.7945 38.7345 20.9223Z" fill="#001C46"/>
<path d="M51.8626 17.0339C48.1848 14.2097 44.0294 12.5273 39.3749 12.0203C38.0018 11.8715 37.7062 12.0957 37.7148 13.5477C37.6955 14.193 37.8069 14.8299 38.7815 14.9388C43.0698 15.4081 46.9125 16.9313 50.2647 19.6088C50.646 19.9126 51.0529 20.0698 51.5434 19.8226C53.0428 19.0662 53.1692 18.0375 51.8626 17.0339Z" fill="#001C46"/>
<path d="M56.7397 14.8189C57.4186 14.0773 57.1598 13.5116 56.4956 12.9606C51.5604 8.86671 45.8649 6.56001 39.5782 5.9859C38.8735 6.02152 38.248 5.81202 37.8689 6.40913C37.2091 7.45882 37.8432 8.7808 39.092 8.9673C39.621 9.04482 40.1544 9.07622 40.6834 9.15374C45.8456 9.91846 50.423 11.9508 54.4286 15.2296C55.3452 15.9776 55.795 15.8519 56.7397 14.8189Z" fill="#001C46"/>
<path d="M30.3332 3.56836C31.6741 3.3798 33.0107 3.14514 34.3601 3.04877C35.4354 2.97335 35.8231 2.48309 35.7095 1.61571C35.7031 0.182643 35.3819 -0.116959 34.026 0.0359845C32.6101 0.195214 31.1964 0.375394 29.7891 0.589095C29.0373 0.702233 28.2448 0.850986 28.4375 1.92369C28.7031 3.40284 29.0951 3.74226 30.3332 3.56836Z" fill="#5396FF"/>
<path d="M33.8441 6.00703C32.8438 6.03637 31.8628 6.20609 30.886 6.41353C30.1663 6.56852 29.8129 6.95613 30.0314 7.68523C30.2498 8.41226 30.1706 9.43889 31.3787 9.34041C32.5118 9.24822 33.6342 9.03449 34.763 8.88156C35.4014 8.79565 35.6605 8.42899 35.7098 7.81932C35.8362 6.26055 35.5127 5.93162 33.8441 6.00703Z" fill="#47C2FF"/>
<path d="M34.1866 12.0056C33.799 12.0538 33.407 12.0747 33.0214 12.1313C32.2696 12.2424 31.4792 12.3052 31.5841 13.3842C31.7212 14.7858 32.1582 15.2237 33.3984 15.1106C33.7176 15.0834 34.0303 14.9849 34.3473 14.9765C35.4611 14.9493 35.8702 14.3731 35.7353 13.4806C35.7182 12.1292 35.4033 11.8569 34.1866 12.0056Z" fill="#3DB9FF"/>
<path d="M35.731 19.401C35.7525 18.6384 35.6603 17.924 34.6279 18.0141C33.9767 18.0706 33.1799 18.0643 33.1328 19.0029C33.0814 20.0777 33.7154 20.9598 34.4737 20.943C35.399 20.9263 35.7353 20.5114 35.731 19.401Z" fill="#35B3FF"/>
<path d="M26.0175 21.71C25.9938 22.3448 27.127 23.5704 27.716 23.4573C28.3993 23.3295 28.967 22.988 29.0698 22.3343C29.0612 21.402 28.2665 20.3021 27.7096 20.3251C27.0927 20.3523 26.0367 21.2155 26.0175 21.71Z" fill="#34B1FF"/>
<path d="M15.5986 29.3007C14.1805 28.3139 13.3045 28.624 12.9339 30.2623C12.8804 30.5012 12.8226 30.738 12.7754 30.9768C12.4884 32.4601 12.8311 32.8645 14.4762 32.9064C14.911 32.9504 15.3779 32.8456 15.5343 32.3302C15.7464 31.6325 15.892 30.9118 16.0227 30.1932C16.0869 29.8329 15.9284 29.5312 15.5986 29.3007Z" fill="#2DACFF"/>
<path d="M8.69494 26.8242C7.9345 26.5896 7.45259 26.9143 7.26836 27.656C7.0306 28.603 6.77573 29.5458 6.58934 30.5012C6.3152 31.907 6.64288 32.282 8.08234 32.3218C8.67139 32.3491 9.30109 32.3679 9.4832 31.6723C9.77878 30.5263 10.0615 29.3698 10.2307 28.2028C10.3892 27.1238 9.41678 27.0442 8.69494 26.8242Z" fill="#30AEFF"/>
<path d="M1.63083 31.8022C2.36124 31.8693 3.27802 32.1312 3.48793 31.136C3.84136 29.4704 4.25905 27.8173 4.58463 26.1517C4.7924 25.0957 3.68714 25.0769 3.01027 24.8045C2.37838 24.551 1.86217 24.7626 1.65225 25.4058C1.10818 27.0631 0.761185 28.7643 0.516998 30.4781C0.397047 31.3224 0.81045 31.7289 1.63083 31.8022Z" fill="#37B4FF"/>
<path d="M4.71962 23.357C5.52072 23.4261 5.7949 23.0259 6.0284 22.5713C6.54247 21.574 7.00938 20.5516 7.57488 19.5836C10.6958 14.2452 15.0204 10.0865 20.4932 7.0611C21.5642 6.46816 21.5642 6.10361 20.8209 4.72294C20.3132 3.77594 19.7007 3.98964 18.9681 4.394C11.936 8.27417 6.70953 13.7864 3.34446 20.9664C2.65046 22.4477 3.21166 23.2731 4.71962 23.357Z" fill="#001C46"/>
<path d="M9.03768 22.942C8.21087 24.5993 8.87278 25.0476 10.6592 25.3744C11.1625 25.3933 11.4367 25.1021 11.6402 24.6998C11.9894 24.0105 12.3192 23.3128 12.7048 22.6466C15.1831 18.3579 18.6059 14.9722 22.937 12.4643C23.3954 12.1982 23.9224 11.9803 23.8988 11.3309C23.8409 9.74063 22.6907 9.08906 21.3156 9.88523C15.8856 13.0321 11.8073 17.3857 9.03768 22.942Z" fill="#001C46"/>
<path d="M14.8766 25.0013C14.1033 26.4741 14.6003 27.3017 16.3117 27.4442C16.8815 27.4923 17.0957 27.3477 17.5413 26.493C19.3919 22.9292 22.0373 20.0777 25.4987 17.9469C26.7025 17.2053 26.7582 16.7423 25.9507 15.4663C25.2695 14.3915 24.5391 15.0117 23.8687 15.4202C19.9681 17.7961 16.9779 21.0058 14.8766 25.0013Z" fill="#001C46"/>
<path d="M23.282 28.3641C23.387 27.7628 22.241 26.6901 21.5213 26.6586C20.988 26.6356 20.2661 27.5344 20.234 28.2593C20.2083 28.8816 21.0437 29.4724 22.2603 29.5604C22.8901 29.5751 23.1664 29.0115 23.282 28.3641Z" fill="#2EACFF"/>
<path d="M27.7031 35.7283C27.716 40.6099 31.7087 44.4984 36.6974 44.4817C41.6924 44.467 45.6273 40.5889 45.6209 35.6822C45.6166 30.7628 41.6968 26.9455 36.6524 26.9497C31.653 26.9539 27.6924 30.8382 27.7031 35.7283Z" fill="#001C46"/>
<path d="M66.3366 28.5433L65.3514 25.6303C65.2783 25.4454 65.2003 25.2288 65.1175 24.9806C65.0347 24.7275 64.9524 24.4549 64.8696 24.1629C64.7965 24.4598 64.7185 24.7348 64.6357 24.9879C64.5529 25.241 64.4749 25.46 64.4024 25.6449L63.4236 28.5433H66.3366ZM70.2571 32.6098H68.3445C68.1301 32.6098 67.9574 32.5612 67.8264 32.4638C67.6949 32.3616 67.5953 32.2326 67.5271 32.0769L66.8991 30.2224H62.8547L62.2267 32.0769C62.1731 32.2131 62.0756 32.3372 61.9343 32.4492C61.7985 32.5563 61.6279 32.6098 61.4233 32.6098H59.4961L63.6136 21.9727H66.1396L70.2571 32.6098Z" fill="#001C46"/>
<path d="M76.5355 24.1338C76.4624 24.2506 76.3844 24.3382 76.3016 24.3966C76.2236 24.455 76.1219 24.4842 75.9952 24.4842C75.8831 24.4842 75.7613 24.4502 75.6298 24.382C75.5036 24.309 75.3575 24.2287 75.1918 24.1411C75.0316 24.0535 74.8464 23.9756 74.6369 23.9075C74.428 23.8345 74.1892 23.798 73.9218 23.798C73.4595 23.798 73.1136 23.8977 72.8851 24.0973C72.661 24.292 72.5489 24.5573 72.5489 24.8931C72.5489 25.1072 72.6171 25.2849 72.7536 25.426C72.89 25.5672 73.0675 25.6888 73.2863 25.7911C73.5104 25.8933 73.7637 25.9882 74.0458 26.0758C74.3327 26.1585 74.625 26.2534 74.9217 26.3605C75.2189 26.4627 75.5085 26.5844 75.7905 26.7255C76.078 26.8667 76.3308 27.0468 76.5501 27.2658C76.7736 27.4848 76.9539 27.7525 77.0903 28.0689C77.2262 28.3804 77.2944 28.7576 77.2944 29.2005C77.2944 29.6921 77.2094 30.152 77.0389 30.5804C76.8689 31.0086 76.6204 31.3834 76.2945 31.7046C75.973 32.021 75.574 32.2717 75.0971 32.4566C74.625 32.6367 74.0869 32.7268 73.4838 32.7268C73.1525 32.7268 72.8142 32.6927 72.4688 32.6245C72.1283 32.5564 71.797 32.4615 71.476 32.3398C71.1549 32.2132 70.8529 32.0648 70.5708 31.8944C70.2882 31.7241 70.0425 31.5343 69.8335 31.325L70.5632 30.1715C70.6217 30.0888 70.6969 30.0206 70.7895 29.9671C70.887 29.9086 70.9914 29.8795 71.1035 29.8795C71.2497 29.8795 71.3958 29.9257 71.5415 30.0182C71.6925 30.1107 71.8603 30.2129 72.0455 30.3248C72.2349 30.4367 72.452 30.5389 72.6951 30.6315C72.9387 30.7239 73.2256 30.7702 73.5564 30.7702C74.0046 30.7702 74.3522 30.6728 74.6007 30.4781C74.8486 30.2785 74.9731 29.9646 74.9731 29.5364C74.9731 29.2881 74.9049 29.0861 74.7685 28.9304C74.6321 28.7746 74.4523 28.6457 74.2282 28.5435C74.0095 28.4412 73.7589 28.3512 73.4763 28.2733C73.1942 28.1954 72.9046 28.1103 72.6074 28.0178C72.3107 27.9204 72.0211 27.8036 71.7385 27.6673C71.4565 27.5262 71.2031 27.3437 70.9795 27.1198C70.7603 26.891 70.5827 26.6088 70.4463 26.2729C70.3104 25.9322 70.2422 25.5136 70.2422 25.0172C70.2422 24.6181 70.3223 24.2287 70.4831 23.8491C70.6434 23.4695 70.8799 23.1312 71.1912 22.8343C71.5025 22.5374 71.8847 22.3013 72.3373 22.1261C72.7898 21.946 73.3084 21.856 73.8926 21.856C74.2185 21.856 74.5351 21.8828 74.8416 21.9363C75.1528 21.985 75.4473 22.0604 75.725 22.1626C76.0022 22.26 76.2604 22.3792 76.4986 22.5204C76.7422 22.6566 76.9588 22.8124 77.1488 22.9876L76.5355 24.1338Z" fill="#001C46"/>
<path d="M85.9489 23.9293H82.9558V32.6098H80.4878V23.9293H77.4946V21.9727H85.9489V23.9293Z" fill="#001C46"/>
<path d="M91.3454 28.5433L90.3602 25.6303C90.2871 25.4454 90.2091 25.2288 90.1263 24.9806C90.0435 24.7275 89.9612 24.4549 89.8784 24.1629C89.8053 24.4598 89.7273 24.7348 89.6445 24.9879C89.5617 25.241 89.4837 25.46 89.4112 25.6449L88.4324 28.5433H91.3454ZM95.2659 32.6098H93.3533C93.1389 32.6098 92.9662 32.5612 92.8352 32.4638C92.7037 32.3616 92.6035 32.2326 92.5359 32.0769L91.9079 30.2224H87.8634L87.2355 32.0769C87.1819 32.2131 87.0844 32.3372 86.9431 32.4492C86.8073 32.5563 86.6367 32.6098 86.4321 32.6098H84.5049L88.6224 21.9727H91.1484L95.2659 32.6098Z" fill="#001C46"/>
<path d="M104.953 21.9727V32.6098H103.668C103.478 32.6098 103.318 32.5806 103.186 32.5222C103.06 32.4589 102.934 32.3519 102.807 32.201L97.7913 25.8567C97.8108 26.0465 97.8227 26.2314 97.8276 26.4115C97.8373 26.5867 97.8422 26.7522 97.8422 26.908V32.6098H95.6665V21.9727H96.9663C97.0735 21.9727 97.1634 21.9775 97.2364 21.9873C97.3095 21.997 97.375 22.0165 97.4335 22.0457C97.492 22.07 97.5477 22.1065 97.6013 22.1552C97.6549 22.2039 97.7161 22.2696 97.7837 22.3523L102.843 28.7404C102.819 28.536 102.802 28.3389 102.792 28.1491C102.783 27.9544 102.778 27.7719 102.778 27.6015V21.9727H104.953Z" fill="#001C46"/>
<path d="M112.2 28.5433L111.215 25.6303C111.142 25.4454 111.064 25.2288 110.981 24.9806C110.898 24.7275 110.816 24.4549 110.733 24.1629C110.66 24.4598 110.582 24.7348 110.499 24.9879C110.417 25.241 110.339 25.46 110.266 25.6449L109.287 28.5433H112.2ZM116.121 32.6098H114.208C113.994 32.6098 113.821 32.5612 113.69 32.4638C113.558 32.3616 113.459 32.2326 113.39 32.0769L112.763 30.2224H108.718L108.09 32.0769C108.037 32.2131 107.939 32.3372 107.798 32.4492C107.662 32.5563 107.492 32.6098 107.287 32.6098H105.36L109.477 21.9727H112.003L116.121 32.6098Z" fill="#001C46"/>
<path d="M121.446 32.6098H118.964V21.9727H121.446V32.6098Z" fill="#001C46"/>
<path d="M130.704 23.9293H127.711V32.6098H125.243V23.9293H122.25V21.9727H130.704V23.9293Z" fill="#001C46"/>
<path d="M64.181 47.2088C64.5118 47.2088 64.8063 47.1553 65.0639 47.0482C65.327 46.9363 65.5485 46.7781 65.7287 46.5737C65.9085 46.3693 66.0449 46.121 66.1374 45.829C66.2349 45.5321 66.2836 45.1963 66.2836 44.8215V38.521H68.7511V44.8215C68.7511 45.4737 68.6439 46.0723 68.4295 46.6175C68.2206 47.1626 67.9185 47.6322 67.5244 48.0265C67.1303 48.4207 66.6507 48.7273 66.086 48.9464C65.5214 49.1654 64.8864 49.2749 64.181 49.2749C63.4702 49.2749 62.8325 49.1654 62.2679 48.9464C61.7032 48.7273 61.2241 48.4207 60.8295 48.0265C60.4354 47.6322 60.1338 47.1626 59.9243 46.6175C59.7154 46.0723 59.6104 45.4737 59.6104 44.8215V38.521H62.0784V44.8142C62.0784 45.189 62.1244 45.5248 62.217 45.8217C62.3144 46.1137 62.453 46.3644 62.6327 46.5737C62.813 46.7781 63.0322 46.9363 63.2899 47.0482C63.553 47.1553 63.8497 47.2088 64.181 47.2088Z" fill="#001C46"/>
<path d="M79.5276 38.521V49.1581H78.2424C78.0529 49.1581 77.8922 49.1289 77.7606 49.0705C77.6339 49.0072 77.5078 48.9001 77.3811 48.7493L72.3655 42.4049C72.385 42.5948 72.3969 42.7797 72.4018 42.9598C72.4115 43.135 72.4164 43.3005 72.4164 43.4562V49.1581H70.2412V38.521H71.5405C71.6476 38.521 71.7375 38.5259 71.8106 38.5356C71.8837 38.5453 71.9492 38.5648 72.0076 38.594C72.0661 38.6183 72.1219 38.6548 72.1755 38.7035C72.2291 38.7522 72.2902 38.8179 72.3584 38.9006L77.4174 45.2887C77.393 45.0843 77.3762 44.8872 77.3665 44.6973C77.3568 44.5027 77.3519 44.3202 77.3519 44.1498V38.521H79.5276Z" fill="#001C46"/>
<path d="M83.6354 49.1581H81.1533V38.521H83.6354V49.1581Z" fill="#001C46"/>
<path d="M94.7913 38.521L90.5276 49.1581H88.294L84.0303 38.521H86.016C86.2303 38.521 86.403 38.5721 86.534 38.6743C86.6656 38.7716 86.7657 38.8982 86.8334 39.0539L88.8922 44.7485C88.9896 44.9967 89.0849 45.2693 89.1769 45.5662C89.2695 45.8582 89.3572 46.1648 89.44 46.486C89.5082 46.1648 89.5835 45.8582 89.6663 45.5662C89.754 45.2693 89.8466 44.9967 89.9435 44.7485L91.9882 39.0539C92.0412 38.9176 92.1365 38.7959 92.2724 38.6889C92.4137 38.577 92.5864 38.521 92.791 38.521H94.7913Z" fill="#001C46"/>
<path d="M97.674 40.4191V42.9014H101.018V44.7266H97.674V47.2599H102.04V49.1581H95.1919V38.521H102.04V40.4191H97.674Z" fill="#001C46"/>
<path d="M106.585 43.522C106.92 43.522 107.205 43.4806 107.439 43.3978C107.677 43.3102 107.872 43.191 108.023 43.0401C108.174 42.8892 108.284 42.714 108.352 42.5144C108.419 42.31 108.454 42.091 108.454 41.8574C108.454 41.3902 108.3 41.0251 107.994 40.7623C107.692 40.4995 107.223 40.368 106.585 40.368H105.592V43.522H106.585ZM111.827 49.1581H109.593C109.179 49.1581 108.882 49.0024 108.702 48.6909L106.935 45.6027C106.852 45.4713 106.76 45.3764 106.658 45.318C106.556 45.2547 106.409 45.223 106.22 45.223H105.592V49.1581H103.125V38.521H106.585C107.354 38.521 108.009 38.6013 108.549 38.7619C109.094 38.9176 109.537 39.1367 109.877 39.4189C110.223 39.7013 110.474 40.0347 110.629 40.4191C110.785 40.8037 110.863 41.2222 110.863 41.6749C110.863 42.0205 110.817 42.3465 110.725 42.6532C110.632 42.9598 110.496 43.2445 110.315 43.5073C110.136 43.7653 109.911 43.9965 109.644 44.2009C109.381 44.4053 109.077 44.5733 108.731 44.7047C108.892 44.7874 109.043 44.8921 109.184 45.0186C109.325 45.1403 109.451 45.2863 109.563 45.4567L111.827 49.1581Z" fill="#001C46"/>
<path d="M118.159 40.6821C118.087 40.7989 118.009 40.8865 117.926 40.9449C117.848 41.0033 117.746 41.0326 117.619 41.0326C117.508 41.0326 117.386 40.9985 117.254 40.9304C117.128 40.8573 116.982 40.777 116.816 40.6894C116.656 40.6018 116.471 40.5239 116.261 40.4558C116.052 40.3828 115.814 40.3463 115.546 40.3463C115.084 40.3463 114.738 40.4461 114.509 40.6456C114.286 40.8403 114.173 41.1055 114.173 41.4414C114.173 41.6556 114.242 41.8332 114.378 41.9744C114.514 42.1155 114.692 42.2372 114.911 42.3394C115.135 42.4416 115.388 42.5365 115.67 42.6241C115.957 42.7069 116.25 42.8018 116.546 42.9088C116.843 43.0111 117.133 43.1327 117.415 43.2739C117.702 43.415 117.955 43.5951 118.174 43.8141C118.398 44.0331 118.578 44.3008 118.714 44.6172C118.851 44.9287 118.919 45.3059 118.919 45.7488C118.919 46.2404 118.834 46.7003 118.663 47.1286C118.493 47.557 118.245 47.9317 117.919 48.2529C117.598 48.5693 117.199 48.82 116.722 49.0049C116.25 49.185 115.711 49.2751 115.108 49.2751C114.777 49.2751 114.439 49.241 114.093 49.1728C113.752 49.1047 113.422 49.0098 113.101 48.8881C112.779 48.7616 112.477 48.6131 112.195 48.4428C111.913 48.2724 111.667 48.0826 111.458 47.8733L112.188 46.7198C112.246 46.637 112.322 46.5689 112.414 46.5154C112.512 46.457 112.616 46.4277 112.728 46.4277C112.874 46.4277 113.02 46.474 113.166 46.5665C113.317 46.659 113.485 46.7612 113.67 46.8731C113.86 46.9851 114.076 47.0873 114.32 47.1797C114.563 47.2722 114.85 47.3184 115.181 47.3184C115.629 47.3184 115.977 47.2211 116.225 47.0264C116.473 46.8269 116.597 46.513 116.597 46.0846C116.597 45.8364 116.529 45.6345 116.393 45.4787C116.257 45.323 116.076 45.194 115.853 45.0917C115.634 44.9895 115.383 44.8995 115.101 44.8216C114.818 44.7438 114.529 44.6586 114.232 44.5661C113.935 44.4688 113.646 44.3519 113.363 44.2157C113.081 44.0745 112.828 43.892 112.604 43.6681C112.385 43.4394 112.207 43.1571 112.071 42.8212C111.934 42.4805 111.866 42.062 111.866 41.5655C111.866 41.1664 111.947 40.777 112.107 40.3974C112.268 40.0177 112.504 39.6795 112.816 39.3826C113.127 39.0857 113.509 38.8496 113.962 38.6744C114.414 38.4943 114.933 38.4043 115.517 38.4043C115.843 38.4043 116.159 38.431 116.466 38.4846C116.777 38.5332 117.072 38.6087 117.349 38.7109C117.627 38.8083 117.884 38.9275 118.123 39.0686C118.367 39.205 118.583 39.3607 118.773 39.5359L118.159 40.6821Z" fill="#001C46"/>
<path d="M122.412 49.1581H119.93V38.521H122.412V49.1581Z" fill="#001C46"/>
<path d="M131.67 40.4776H128.676V49.1581H126.209V40.4776H123.216V38.521H131.67V40.4776Z" fill="#001C46"/>
<path d="M137.582 45.1135V49.1581H135.114V45.1135L131.259 38.521H133.435C133.649 38.521 133.817 38.5721 133.938 38.6743C134.065 38.7716 134.17 38.8982 134.252 39.0539L135.756 42.1494C135.883 42.3928 135.997 42.6215 136.1 42.8357C136.202 43.045 136.292 43.2518 136.37 43.4562C136.443 43.247 136.526 43.0377 136.618 42.8284C136.715 42.6142 136.827 42.3879 136.954 42.1494L138.443 39.0539C138.477 38.9907 138.519 38.9274 138.567 38.8641C138.616 38.8008 138.672 38.7448 138.735 38.6962C138.803 38.6426 138.879 38.6013 138.962 38.5721C139.049 38.538 139.144 38.521 139.246 38.521H141.436L137.582 45.1135Z" fill="#001C46"/>
</g>
<defs>
<clipPath id="clip0_228_342">
<rect width="141.293" height="72" fill="white" transform="translate(0.48877)"/>
</clipPath>
</defs>
</svg>
