<svg width="241" height="56" viewBox="0 0 241 56" fill="none" xmlns="http://www.w3.org/2000/svg">
<path d="M192.153 51.5133V54.9425L193.861 55.1588V55.7472H187.911V55.1588L189.619 54.9425V51.5599L186.346 45.78L185.136 45.572V44.9917H190.67V45.572L189.225 45.78L191.68 50.2929L194.053 45.78L192.736 45.572V44.9917H196.392V45.572L195.254 45.78L192.153 51.5133ZM176.381 55.7472V55.1588L178.089 54.9425V45.8456H177.681C176.458 45.8456 175.596 45.8974 175.1 46.0043L174.881 47.9995H174.153V44.9917H184.6V47.9995H183.863L183.647 46.0043C183.201 45.9086 182.325 45.8619 181.017 45.8619H180.623V54.9425L182.331 55.1588V55.7472H176.381ZM171.964 54.9425L173.343 55.1504V55.7472H168.059V55.1504L169.438 54.9425V45.7964L168.059 45.5801V44.9917H173.343V45.5801L171.964 45.7964V54.9425ZM159.246 52.4549H159.952L160.314 54.1819C160.538 54.4445 160.877 54.6661 161.332 54.8413C161.786 55.0191 162.257 55.1068 162.741 55.1068C164.277 55.1068 165.043 54.4746 165.043 53.2102C165.043 52.8134 164.895 52.4794 164.605 52.2059C164.315 51.9349 163.855 51.6913 163.231 51.4778C162.311 51.1712 161.649 50.9249 161.247 50.7361C160.845 50.5445 160.503 50.3229 160.226 50.0657C159.947 49.8083 159.725 49.4965 159.558 49.1297C159.394 48.7656 159.312 48.3141 159.312 47.7804C159.312 46.8336 159.632 46.1138 160.278 45.6184C160.921 45.123 161.863 44.8767 163.102 44.8767C164 44.8767 164.994 44.9917 166.085 45.2216V47.7776H165.371L165.01 46.3054C164.465 45.9113 163.83 45.7142 163.102 45.7142C162.446 45.7142 161.939 45.8347 161.589 46.0782C161.236 46.3218 161.058 46.6939 161.058 47.1948C161.058 47.5533 161.206 47.8598 161.499 48.1117C161.794 48.366 162.254 48.5932 162.878 48.7904C164.101 49.19 164.942 49.5401 165.398 49.8358C165.855 50.1341 166.206 50.5009 166.444 50.9388C166.685 51.3767 166.805 51.8938 166.805 52.4877C166.805 54.7703 165.461 55.9113 162.774 55.9113C162.158 55.9113 161.531 55.8593 160.894 55.7555C160.256 55.6514 159.706 55.5118 159.246 55.3421V52.4549ZM154.145 48.0187C154.145 47.2167 153.98 46.6611 153.649 46.3465C153.318 46.0344 152.711 45.8783 151.829 45.8783H150.707V50.3121H151.87C152.691 50.3121 153.277 50.1396 153.625 49.7975C153.972 49.4554 154.145 48.8643 154.145 48.0187ZM150.707 51.1987V54.9425L152.087 55.1588V55.7472H146.898V55.1588L148.173 54.9425V45.78L146.794 45.572V44.9917H151.933C153.515 44.9917 154.697 45.2352 155.477 45.7225C156.257 46.2096 156.646 46.9705 156.646 48.002C156.646 49.5457 155.926 50.5364 154.484 50.9744L157.352 54.9425L158.515 55.1588V55.7472H155.034L152.037 51.1987H150.707ZM135.844 55.1588L137.221 54.9425V45.78L135.844 45.572V44.9917H144.998V47.7257H144.271L144.013 45.9907C143.414 45.9166 142.549 45.8783 141.416 45.8783H139.746V49.8194H142.563L142.812 48.6371H143.523V51.9349H142.812L142.563 50.7225H139.746V54.8605H141.777C143.157 54.8605 144.06 54.8166 144.487 54.732L144.944 52.7476H145.672L145.521 55.7472H135.844V55.1588ZM135.376 44.9917V45.5801L134.358 45.7964L130.203 55.9935H129.139L124.771 45.7964L123.887 45.5801V44.9917H128.561V45.5801L127.447 45.7964L130.469 52.8435L133.29 45.7964L132.209 45.5801V44.9917H135.376ZM121.771 54.9425L123.151 55.1504V55.7472H117.866V55.1504L119.245 54.9425V45.7964L117.866 45.5801V44.9917H123.151V45.5801L121.771 45.7964V54.9425ZM114.713 45.78L113.271 45.572V44.9917H117.094V45.572L115.715 45.78V55.7472H114.776L108.147 47.099V54.9425L109.592 55.1588V55.7472H105.767V55.1588L107.146 54.9425V45.78L105.767 45.572V44.9917H109.447L114.713 51.8665V45.78ZM100.314 54.7619C101.114 54.7619 101.735 54.5375 102.173 54.0886C102.611 53.6398 102.83 52.9776 102.83 52.1073V45.78L101.388 45.572V44.9917H105.044V45.572L103.823 45.78V52.0443C103.823 53.2841 103.467 54.2366 102.75 54.9016C102.033 55.5639 101.01 55.8949 99.6795 55.8949C98.2427 55.8949 97.1398 55.5583 96.3736 54.8878C95.6073 54.2174 95.224 53.2486 95.224 51.9815V45.78L94.0034 45.572V44.9917H99.1267V45.572L97.7473 45.78V52.0909C97.7473 52.9529 97.9662 53.6126 98.4016 54.0722C98.8367 54.532 99.4743 54.7619 100.314 54.7619ZM187.944 27.3862L186.283 27.5943V36.7075H188.472C189.611 36.7075 190.448 36.6528 190.982 36.5462L191.639 34.3128H192.361L192.057 37.5614H182.38V36.973L183.757 36.7567V27.5943L182.386 27.3862V26.8059H187.944V27.3862ZM175.379 28.344L173.606 33.0951H177.101L175.379 28.344ZM173.671 36.973V37.5614H170.401V36.973L171.2 36.7567L175.026 26.7239H177.35L181.157 36.7567L181.975 36.973V37.5614H177.188V36.973L178.431 36.7567L177.404 33.9818H173.277L172.292 36.7567L173.671 36.973ZM164.914 37.7255C163.113 37.7255 161.709 37.2467 160.696 36.2888C159.686 35.3335 159.183 34.0063 159.183 32.3124C159.183 30.4732 159.664 29.0774 160.631 28.1224C161.594 27.1672 163.02 26.6909 164.906 26.6909C166.151 26.6909 167.442 26.8689 168.778 27.2274L168.825 29.811H168.105L167.88 28.251C167.174 27.7692 166.353 27.5285 165.42 27.5285C164.18 27.5285 163.274 27.9144 162.702 28.6889C162.13 29.4605 161.846 30.6621 161.846 32.2876C161.846 33.793 162.144 34.9368 162.743 35.7251C163.34 36.5103 164.21 36.9047 165.354 36.9047C165.959 36.9047 166.487 36.8253 166.939 36.6637C167.39 36.5023 167.743 36.3135 168.001 36.0944L168.255 34.3267H168.986L168.939 37.0524C168.458 37.2385 167.831 37.3973 167.062 37.5287C166.293 37.6599 165.576 37.7255 164.914 37.7255ZM156.449 36.7567L157.828 36.9646V37.5614H152.543V36.9646L153.923 36.7567V27.6106L152.543 27.3944V26.8059H157.828V27.3944L156.449 27.6106V36.7567ZM149.391 27.5943L147.948 27.3862V26.8059H151.771V27.3862L150.392 27.5943V37.5614H149.453L142.825 28.9132V36.7567L144.27 36.973V37.5614H140.444V36.973L141.823 36.7567V27.5943L140.444 27.3862V26.8059H144.125L149.391 33.6807V27.5943ZM127.641 37.5614V36.9646L129.021 36.7567V27.6106L127.641 27.3944V26.8059H132.923V27.3944L131.544 27.6106V31.5842H135.942V27.6106L134.563 27.3944V26.8059H139.861V27.3944L138.473 27.6106V36.7567L139.861 36.9646V37.5614H134.563V36.9646L135.942 36.7567V32.4709H131.544V36.7567L132.923 36.9646V37.5614H127.641ZM122.034 37.7255C120.232 37.7255 118.829 37.2467 117.816 36.2888C116.806 35.3335 116.303 34.0063 116.303 32.3124C116.303 30.4732 116.784 29.0774 117.75 28.1224C118.714 27.1672 120.139 26.6909 122.025 26.6909C123.271 26.6909 124.562 26.8689 125.898 27.2274L125.944 29.811H125.225L125 28.251C124.294 27.7692 123.473 27.5285 122.54 27.5285C121.3 27.5285 120.394 27.9144 119.822 28.6889C119.25 29.4605 118.965 30.6621 118.965 32.2876C118.965 33.793 119.264 34.9368 119.863 35.7251C120.46 36.5103 121.33 36.9047 122.474 36.9047C123.079 36.9047 123.607 36.8253 124.059 36.6637C124.51 36.5023 124.863 36.3135 125.121 36.0944L125.375 34.3267H126.106L126.059 37.0524C125.578 37.2385 124.951 37.3973 124.182 37.5287C123.413 37.6599 122.696 37.7255 122.034 37.7255ZM104.83 36.973L106.207 36.7567V27.5943L104.83 27.3862V26.8059H113.985V29.5399H113.257L112.999 27.805C112.4 27.7309 111.535 27.6926 110.402 27.6926H108.733V31.6337H111.549L111.798 30.4514H112.51V33.7491H111.798L111.549 32.5367H108.733V36.6748H110.763C112.143 36.6748 113.046 36.6309 113.473 36.5462L113.93 34.5618H114.658L114.507 37.5614H104.83V36.973ZM96.0807 37.5614V36.973L97.7884 36.7567V27.6598H97.3806C96.1573 27.6598 95.2952 27.7117 94.7998 27.8186L94.5809 29.8138H93.8529V26.8059H104.3V29.8138H103.563L103.347 27.8186C102.901 27.7228 102.025 27.6762 100.717 27.6762H100.323V36.7567L102.031 36.973V37.5614H96.0807ZM228.012 19.3756V18.7789L229.392 18.5712V9.42488L228.012 9.20859V8.62018H233.295V9.20859L231.915 9.42488V13.3985H236.313V9.42488L234.934 9.20859V8.62018H240.232V9.20859L238.845 9.42488V18.5712L240.232 18.7789V19.3756H234.934V18.7789L236.313 18.5712V14.2852H231.915V18.5712L233.295 18.7789V19.3756H228.012ZM219.471 16.0834H220.177L220.539 17.8104C220.763 18.073 221.102 18.2944 221.557 18.4698C222.011 18.6476 222.481 18.7353 222.966 18.7353C224.501 18.7353 225.267 18.1031 225.267 16.8385C225.267 16.4416 225.12 16.1078 224.83 15.8341C224.54 15.5634 224.08 15.3198 223.456 15.1062C222.536 14.7999 221.874 14.5534 221.472 14.3646C221.069 14.1729 220.727 13.9514 220.451 13.6942C220.172 13.4368 219.95 13.125 219.783 12.7581C219.619 12.3941 219.537 11.9426 219.537 11.4089C219.537 10.4621 219.857 9.7423 220.503 9.24692C221.146 8.75145 222.087 8.50519 223.327 8.50519C224.225 8.50519 225.218 8.62018 226.31 8.85009V11.4064H225.596L225.235 9.93386C224.69 9.53979 224.055 9.3427 223.327 9.3427C222.67 9.3427 222.164 9.46295 221.814 9.70646C221.461 9.95024 221.283 10.3223 221.283 10.8233C221.283 11.1817 221.431 11.4883 221.723 11.7399C222.019 11.9945 222.479 12.2217 223.103 12.4188C224.326 12.8182 225.166 13.1686 225.623 13.4643C226.08 13.7623 226.431 14.1294 226.669 14.5673C226.91 15.0052 227.03 15.5223 227.03 16.1162C227.03 18.3988 225.686 19.5397 222.999 19.5397C222.383 19.5397 221.756 19.4878 221.119 19.384C220.481 19.2796 219.931 19.1404 219.471 18.9705V16.0834ZM216.666 18.5712L218.045 18.7789V19.3756H212.76V18.7789L214.14 18.5712V9.42488L212.76 9.20859V8.62018H218.045V9.20859L216.666 9.42488V18.5712ZM203.74 19.3756V18.7872L205.448 18.5712V9.47406H205.04C203.816 9.47406 202.954 9.52591 202.459 9.63281L202.24 11.6278H201.512V8.62018H211.958V11.6278H211.222L211.006 9.63281C210.56 9.53703 209.684 9.49043 208.376 9.49043H207.982V18.5712L209.69 18.7872V19.3756H203.74ZM199.323 18.5712L200.702 18.7789V19.3756H195.417V18.7789L196.797 18.5712V9.42488L195.417 9.20859V8.62018H200.702V9.20859L199.323 9.42488V18.5712ZM190.636 11.6469C190.636 10.8449 190.472 10.2896 190.141 9.97496C189.809 9.66288 189.202 9.50705 188.321 9.50705H187.198V13.9405H188.362C189.183 13.9405 189.768 13.7681 190.116 13.4258C190.464 13.0839 190.636 12.4925 190.636 11.6469ZM187.198 14.8272V18.5712L188.578 18.7872V19.3756H183.389V18.7872L184.664 18.5712V9.40852L183.285 9.20024V8.62018H188.425C190.007 8.62018 191.189 8.86369 191.969 9.35071C192.749 9.83808 193.138 10.5989 193.138 11.6308C193.138 13.1739 192.417 14.1649 190.975 14.6026L193.843 18.5712L195.007 18.7872V19.3756H191.525L188.528 14.8272H187.198ZM172.327 19.3756V18.7872L173.712 18.5712V9.40852L172.327 9.20024V8.62018H177.546C178.972 8.62018 180.025 8.81176 180.704 9.19498C181.383 9.57812 181.722 10.1963 181.722 11.0532C181.722 11.6963 181.522 12.2489 181.123 12.7143C180.72 13.1797 180.184 13.486 179.511 13.6285C180.51 13.7324 181.265 14.0033 181.78 14.4438C182.291 14.8847 182.549 15.484 182.549 16.242C182.549 17.2847 182.163 18.0756 181.394 18.6148C180.624 19.154 179.522 19.4251 178.082 19.4251L174.426 19.3756H172.327ZM179.902 16.242C179.902 15.5333 179.724 15.0052 179.368 14.6573C179.016 14.3099 178.433 14.1375 177.625 14.1375H176.238V18.489C177.01 18.5218 177.614 18.5381 178.058 18.5381C178.685 18.5381 179.147 18.3493 179.451 17.9689C179.752 17.5912 179.902 17.0167 179.902 16.242ZM179.092 11.2776C179.092 10.6534 178.958 10.2021 178.687 9.92302C178.419 9.64643 177.973 9.50705 177.354 9.50705H176.238V13.2508H177.417C177.989 13.2508 178.411 13.1003 178.685 12.8021C178.958 12.5038 179.092 11.9945 179.092 11.2776ZM154.093 19.3756V18.7789L155.472 18.5712V9.42488L154.093 9.20859V8.62018H159.375V9.20859L157.995 9.42488V13.3985H162.393V9.42488L161.014 9.20859V8.62018H166.312V9.20859L164.925 9.42488V18.5712L166.312 18.7789V19.3756H161.014V18.7789L162.393 18.5712V14.2852H157.995V18.5712L159.375 18.7789V19.3756H154.093ZM152.82 8.62018V9.20024L151.504 9.40852L147.951 12.5449L152.684 18.5712L153.685 18.7872V19.3756H150.174L146.156 14.1949L145.223 14.9969V18.5712L146.772 18.7872V19.3756H141.32V18.7872L142.699 18.5712V9.40852L141.32 9.20024V8.62018H146.61V9.20024L145.223 9.40852V13.7926L150.124 9.40852L149.139 9.20024V8.62018H152.82ZM134.319 10.1583L132.546 14.9092H136.041L134.319 10.1583ZM132.612 18.7872V19.3756H129.341V18.7872L130.14 18.5712L133.966 8.53792H136.29L140.097 18.5712L140.915 18.7872V19.3756H136.128V18.7872L137.371 18.5712L136.345 15.796H132.217L131.232 18.5712L132.612 18.7872ZM119.012 18.459L124.962 9.47406H123.038C121.823 9.47406 120.969 9.52876 120.471 9.63539L120.222 11.327H119.51V8.62018H127.817V9.47406L121.826 18.5381H124.073C124.68 18.5381 125.282 18.5079 125.871 18.4507C126.462 18.3904 126.889 18.3329 127.151 18.2726L127.625 16.2201H128.345L128.128 19.3756H119.012V18.459ZM111.508 10.1583L109.734 14.9092H113.23L111.508 10.1583ZM109.8 18.7872V19.3756H106.53V18.7872L107.329 18.5712L111.155 8.53792H113.478L117.285 18.5712L118.103 18.7872V19.3756H113.317V18.7872L114.559 18.5712L113.533 15.796H109.406L108.421 18.5712L109.8 18.7872ZM105.378 8.62018V9.20024L104.061 9.40852L100.509 12.5449L105.241 18.5712L106.242 18.7872V19.3756H102.731L98.7135 14.1949L97.7804 14.9969V18.5712L99.3293 18.7872V19.3756H93.8775V18.7872L95.2571 18.5712V9.40852L93.8775 9.20024V8.62018H99.1679V9.20024L97.7804 9.40852V13.7926L102.682 9.40852L101.697 9.20024V8.62018H105.378ZM167.186 16.2083V14.8123H171.451V16.2083H167.186Z" fill="#172E65"/>
<path d="M20.8326 37.2206V38.2196L18.5654 38.5779L12.4468 43.98L20.5968 54.3596L22.322 54.7319V55.7454H16.2745L9.35478 46.8222L7.74734 48.2035V54.3596L10.4151 54.7319V55.7454H1.02551V54.7319L3.40137 54.3596V38.5779L1.02551 38.2196V37.2206H10.1373V38.2196L7.74734 38.5779V46.1294L16.1896 38.5779L14.4926 38.2196V37.2206H20.8326ZM34.6625 41.7975C34.6625 40.7228 34.4315 39.9451 33.9649 39.464C33.503 38.988 32.7346 38.7476 31.6695 38.7476H29.7462V45.1961H31.7779C32.7628 45.1961 33.4886 44.9369 33.9603 44.4229C34.4315 43.9092 34.6625 43.0326 34.6625 41.7975ZM36.0578 50.3481C36.0578 49.1272 35.7513 48.2176 35.1387 47.6188C34.5306 47.0203 33.5265 46.7231 32.1362 46.7231H29.7462V54.2182C31.0752 54.2746 32.117 54.3031 32.8808 54.3031C33.9603 54.3031 34.757 53.9777 35.2799 53.3224C35.7987 52.672 36.0578 51.6822 36.0578 50.3481ZM23.0102 55.7454V54.7319L25.3954 54.3596V38.5779L23.0102 38.2196V37.2206H31.9992C34.455 37.2206 36.2698 37.5505 37.4388 38.2103C38.6079 38.8704 39.1922 39.9355 39.1922 41.4108C39.1922 42.5185 38.8484 43.471 38.1601 44.2722C37.4671 45.0733 36.5434 45.6015 35.3837 45.8465C37.1041 46.0258 38.4052 46.4924 39.2913 47.2513C40.1729 48.0101 40.6159 49.0425 40.6159 50.3481C40.6159 52.1441 39.9514 53.5062 38.6267 54.435C37.3022 55.3635 35.4026 55.8301 32.9232 55.8301L26.6256 55.7454H23.0102ZM45.6832 55.7454V54.7319L48.6245 54.3596V38.6911H47.9223C45.8152 38.6911 44.3303 38.7805 43.4773 38.9644L43.1001 42.4008H41.8462V37.2206H59.8386V42.4008H58.5704L58.1981 38.9644C57.4299 38.7995 55.9214 38.7194 53.6683 38.7194H52.9897V54.3596L55.931 54.7319V55.7454H45.6832ZM71.8399 54.0485C73.2161 54.0485 74.2863 53.662 75.0404 52.8888C75.7947 52.1159 76.1719 50.9751 76.1719 49.4761V38.5779L73.6876 38.2196V37.2206H79.9851V38.2196L77.8828 38.5779V49.3676C77.8828 51.503 77.27 53.1432 76.0352 54.2888C74.7998 55.4295 73.0372 56 70.7463 56C68.2714 56 66.3718 55.4202 65.0523 54.2653C63.7323 53.1105 63.0723 51.4417 63.0723 49.2592V38.5779L60.9698 38.2196V37.2206H69.7941V38.2196L67.4183 38.5779V49.4479C67.4183 50.9327 67.7955 52.0685 68.5449 52.8605C69.2944 53.6524 70.3926 54.0485 71.8399 54.0485Z" fill="#172E65"/>
<path fill-rule="evenodd" clip-rule="evenodd" d="M1.99661 11.5405H14.144V8.50368H1.99661V11.5405ZM3.21121 12.1479H14.144V27.3318H3.21121V12.1479ZM65.164 7.28854H67.5935V2.42949H62.1266V0H18.3957V2.42949H12.9291V7.28854H15.3586V27.3318H19.6103V7.28854H60.912V27.3318H65.164V7.28854ZM22.0399 10.3254H24.4694V27.3318H22.0399V10.3254ZM22.0399 7.89588H24.4694V9.71802H22.0399V7.89588ZM0.781738 30.9759H79.7406V27.9393H0.781738V30.9759ZM26.8989 10.3254H29.3284V27.3318H26.8989V10.3254ZM26.8989 7.89588H29.3284V9.71802H26.8989V7.89588ZM31.758 10.3254H34.1875V27.3318H31.758V10.3254ZM31.758 7.89588H34.1875V9.71802H31.758V7.89588ZM36.617 10.3254H39.0465V27.3318H36.617V10.3254ZM36.617 7.89588H39.0465V9.71802H36.617V7.89588ZM41.4761 10.3254H43.9053V27.3318H41.4761V10.3254ZM41.4761 7.89588H43.9053V9.71802H41.4761V7.89588ZM46.3349 10.3254H48.7646V27.3318H46.3349V10.3254ZM46.3349 7.89588H48.7646V9.71802H46.3349V7.89588ZM51.1939 10.3254H53.6234V27.3318H51.1939V10.3254ZM51.1939 7.89588H53.6234V9.71802H51.1939V7.89588ZM56.053 10.3254H58.4825V27.3318H56.053V10.3254ZM56.053 7.89588H58.4825V9.71802H56.053V7.89588ZM78.526 11.5405H66.3783V8.50368H78.526V11.5405ZM77.3111 12.1479H66.3783V27.3318H77.3111V12.1479Z" fill="#172E65"/>
</svg>
