<svg width="97" height="96" viewBox="0 0 97 96" fill="none" xmlns="http://www.w3.org/2000/svg">
<path d="M18.0457 93.4509C18.0457 95.1738 17.3489 95.3945 16.7421 95.3945C16.0964 95.3945 15.2373 95.193 15.2373 93.4509V91.6159C15.2373 90.8145 15.1563 90.1011 15.1527 90.0711L15.1303 89.8755L14.0542 89.8762L14.1266 90.1534C14.1277 90.158 14.2486 90.6339 14.2486 91.6155L14.2459 93.4509C14.2459 95.118 15.0751 95.9989 16.643 95.9989C18.2516 95.9989 19.0338 95.1654 19.0338 93.4509V89.8755H18.0457V93.4509Z" fill="#2F345C"/>
<path d="M26.25 93.9209C25.6612 93.0657 24.7643 91.7604 24.4389 91.2743C23.9783 90.5865 23.506 89.968 23.5011 89.9617L23.4353 89.8755H22.7158L22.4316 89.9045L22.5166 90.1891C22.538 90.2376 22.728 90.6884 22.728 91.6159V94.0959C22.728 94.929 22.597 95.5635 22.596 95.5698L22.5398 95.8366H23.6308L23.5746 95.5694C23.5735 95.5632 23.4419 94.929 23.4419 94.0959V91.6242C23.683 91.949 23.8751 92.2179 24.0158 92.4278L26.3542 95.8369H26.9611V91.6162C26.9611 90.7125 27.0938 90.1555 27.0952 90.15L27.1617 89.8759H26.25V93.9209Z" fill="#2F345C"/>
<path d="M31.5888 89.8755L30.5259 89.8759L30.5866 90.1454C30.5876 90.1511 30.711 90.7097 30.711 91.6155V95.8363H31.7017V91.618C31.7017 90.8016 31.6407 90.261 31.6144 90.0669L31.5888 89.8755Z" fill="#2F345C"/>
<path d="M39.5653 90.1422C39.5656 90.144 39.5954 90.2997 39.5624 90.5571C39.5313 90.8043 39.4516 91.0697 39.304 91.4178C38.6552 92.9438 38.2647 93.857 38.0338 94.3944C37.696 93.6153 37.0622 92.1463 36.7994 91.5296C36.4689 90.7523 36.3181 90.1628 36.3101 90.0857L36.2987 89.8765H34.9731L35.119 90.1915C35.1194 90.1922 35.4667 90.9394 35.7827 91.6679C35.8423 91.8048 36.0914 92.3865 36.3909 93.0852C36.8254 94.0996 37.3657 95.3603 37.5851 95.8677L37.6427 96H38.1209L39.9818 91.5914C40.3772 90.657 40.609 90.2037 40.6115 90.1991L40.7771 89.8765L39.5132 89.8782L39.5653 90.1422Z" fill="#2F345C"/>
<path d="M47.4049 95.0685L47.3806 94.7759L47.1079 94.8803C47.0989 94.8842 46.184 95.2309 45.2996 95.2309H44.7104V93.2408H46.3247L46.4224 92.635H44.7104V91.6181C44.7104 91.1177 44.6893 90.7553 44.665 90.4822H45.1541C46.0343 90.4822 46.8233 90.8059 46.831 90.8094L47.1044 90.9232L47.1332 90.6268C47.1616 90.3349 47.1339 90.0828 47.1329 90.0719L47.111 89.876L43.519 89.8774L43.5862 90.1515C43.5876 90.1568 43.72 90.707 43.72 91.616V95.8371H47.391L47.4076 95.6339C47.4294 95.3706 47.4059 95.0808 47.4049 95.0685Z" fill="#2F345C"/>
<path d="M52.1525 93.4415H52.1518C51.8788 93.4415 51.6705 93.3535 51.5617 93.2945L51.5641 91.6184C51.5641 91.0761 51.5301 90.6064 51.5069 90.3495C51.6185 90.3337 51.7717 90.318 51.9443 90.318C52.9022 90.318 53.5457 90.9529 53.5457 91.8978C53.5457 92.314 53.4035 92.7027 53.1454 92.9921C52.8872 93.282 52.5345 93.4415 52.1525 93.4415ZM54.552 95.0209C54.4429 94.9211 54.3222 94.7384 54.2058 94.5614C54.1344 94.4531 54.0627 94.3453 53.991 94.2489C53.8347 94.0408 53.6691 93.8732 53.4944 93.7475C54.1652 93.3752 54.5769 92.6849 54.5769 91.8806C54.5769 90.6854 53.6544 89.7744 52.4163 89.7223V89.7129H52.3109V89.7146C51.658 89.7212 51.0592 89.7691 50.6228 89.8505L50.4434 89.9133V90.0973L50.4506 90.1539C50.452 90.1588 50.5733 90.6347 50.5733 91.6164V95.837H51.5614V93.9576C51.753 93.9989 52.0219 94.0415 52.3109 94.0415C52.54 94.0415 52.6769 94.0973 52.7995 94.2408C52.9181 94.3798 53.0168 94.5391 53.1218 94.7077C53.3089 95.0087 53.521 95.3499 53.9009 95.6649C54.158 95.8775 54.5052 95.9998 54.8532 96.0001C55.1315 96.0001 55.3893 95.9327 55.5986 95.806L55.7047 95.7095V95.3582L55.4801 95.3635C55.4749 95.3649 54.9387 95.374 54.552 95.0209Z" fill="#2F345C"/>
<path d="M60.7716 92.3398C60.023 92.0329 59.559 91.7399 59.559 91.2311C59.559 90.7108 60.0431 90.3187 60.6845 90.3187C61.0845 90.3187 61.3396 90.4388 61.5935 90.7479L61.9294 91.1547L61.981 90.6281C62.0094 90.3369 61.9817 90.084 61.9806 90.0736L61.9643 89.929L61.8264 89.8867C61.6559 89.8347 61.2037 89.7139 60.6845 89.7139C59.2322 89.7139 58.5709 90.5003 58.5709 91.2315C58.5709 92.13 59.0152 92.6957 60.0562 93.1231L60.1478 93.1608C60.7694 93.4139 61.5433 93.7299 61.5433 94.385C61.5433 94.7146 61.2668 95.3953 60.4121 95.3953C59.9696 95.3953 59.4962 95.1903 58.923 94.7496L58.6035 94.5041L58.5713 94.9075C58.5703 94.9196 58.5474 95.2085 58.5685 95.4721L58.5779 95.5877L58.6773 95.6453C58.9792 95.822 59.6325 96.0001 60.4114 96.0001C61.868 96.0001 62.5313 95.1159 62.5313 94.2943C62.5313 93.0619 61.6178 92.687 60.7716 92.3398Z" fill="#2F345C"/>
<path d="M66.7397 89.8755L65.6772 89.8759L65.7379 90.1458C65.7392 90.1514 65.8623 90.7097 65.8623 91.6155V95.8363H66.8527V91.618C66.8527 90.7953 66.7921 90.259 66.7658 90.0665L66.7397 89.8755Z" fill="#2F345C"/>
<path d="M74.4466 89.8764L70.2638 89.876L70.2398 90.0695C70.2384 90.0792 70.21 90.3132 70.2391 90.6065L70.2665 90.8852L70.5292 90.7937C70.5362 90.7913 71.19 90.5657 71.861 90.5214L71.8589 95.8403L72.849 95.8364V90.521C73.5549 90.5632 74.1697 90.7899 74.1766 90.7923L74.4431 90.8918L74.4711 90.6069C74.5003 90.3136 74.4715 90.0796 74.4704 90.0698L74.4466 89.8764Z" fill="#2F345C"/>
<path d="M81.2396 89.8788L81.2354 90.0954C81.2354 90.0999 81.2208 90.5633 80.7626 91.5201C80.6296 91.7983 80.2293 92.6389 79.9833 93.1571L79.1966 91.5204C78.8078 90.7117 78.6685 90.2173 78.649 90.0688L78.6241 89.8765H77.2993L77.4632 90.1984C77.4632 90.1984 77.8666 90.9921 78.2021 91.7103L79.3363 94.1456V95.8368H80.3267V94.145L81.4343 91.7087C81.6339 91.2708 81.7965 90.9313 81.9236 90.6872C82.0851 90.3775 82.1839 90.2246 82.1877 90.2189L82.4108 89.8765L81.2396 89.8788Z" fill="#2F345C"/>
<path d="M9.4835 76.8802C9.48144 76.8798 9.47908 76.8798 9.47663 76.8795C3.96168 76.1035 1.0181 69.8345 1.0181 69.8345C1.0181 69.8345 0.232422 72.0717 0.232422 75.3415C0.232422 75.3415 1.58992 76.6989 3.94154 77.8799C5.78067 77.525 7.62816 77.1913 9.4835 76.8802Z" fill="#2F345C"/>
<path d="M44.5607 47.9258C39.0277 47.9258 35.2153 48.8263 35.2153 48.8263C35.2153 48.8263 36.5648 51.4063 36.5648 56.6347V69.4379C36.5648 73.1163 35.6059 73.9719 35.6059 73.9719L35.6679 74.0008C37.3802 73.9097 39.098 73.8391 40.8208 73.7854C40.8208 73.7847 40.8208 73.7836 40.8208 73.7829V57.1208C40.8208 53.6966 40.39 51.4415 40.0355 50.8318C40.0355 50.8318 41.6833 50.4704 44.4498 50.4704C51.6123 50.4704 57.0592 53.8495 57.0592 62.1572C57.0592 68.3383 52.8733 72.3215 48.2323 73.6188V73.6673C49.9657 73.6673 51.6937 73.6883 53.4177 73.726C53.4192 73.7253 53.4208 73.7246 53.4226 73.7239C57.8844 72.0143 61.2494 67.9762 61.2494 62.3193C61.2494 53.1878 53.3918 47.9258 44.5607 47.9258Z" fill="#2F345C"/>
<path d="M78.7376 69.8655L78.7448 48.2279C77.0499 48.1938 75.3501 48.162 73.645 48.1333C73.785 48.6777 74.4892 51.6958 74.4892 57.3105V67.8495C74.4892 71.0275 75.2111 73.5082 76.4389 75.361C78.2329 75.5775 80.0208 75.8146 81.801 76.072C79.9598 74.9078 78.7376 72.7648 78.7376 69.8655Z" fill="#2F345C"/>
<path d="M91.9762 48.5552V69.8651C91.9762 73.6873 89.854 76.1974 86.9863 76.8794C88.6074 77.1514 90.2217 77.4415 91.8303 77.7468C94.5008 75.8464 96.2322 72.5454 96.2322 67.8495V48.6872C94.8172 48.6414 93.3991 48.597 91.9762 48.5552Z" fill="#2F345C"/>
<path d="M12.5355 61.8982C7.58467 59.4552 5.58541 58.1293 5.58541 55.4325C5.58541 52.9386 7.99981 50.9395 11.5488 50.9395C17.1304 50.9395 19.2182 55.1326 19.2182 55.1326C19.2182 52.1508 18.5456 50.0518 18.5456 50.0518C18.5456 50.0518 16.4736 48.3809 11.5488 48.3809C6.33435 48.3809 1.82227 51.6367 1.82227 56.141C1.82227 60.6453 4.73294 63.0872 9.71979 65.4774C14.7065 67.8674 17.3202 69.5302 17.3202 72.1596C17.3202 73.8763 16.4642 75.2214 14.6348 76.074C14.6321 76.0755 14.6289 76.0765 14.6262 76.0779C16.395 75.8219 18.1696 75.5835 19.9519 75.3677C20.8407 74.091 21.3363 72.616 21.3363 71.0719C21.3363 66.6864 17.4979 64.3471 12.5355 61.8982Z" fill="#2F345C"/>
<path d="M39.9097 80.1081C39.9031 80.2816 39.9001 80.5638 39.9001 80.6284V83.7369H40.4857L40.484 80.6284C40.484 79.8133 40.4999 79.499 40.4999 79.4917V79.3968L40.3426 79.395L40.3187 79.416C40.3159 79.4181 40.056 79.644 39.6536 79.9586L39.6211 79.9838V80.1531H39.7049C39.7291 80.1531 39.7978 80.1381 39.9097 80.1081Z" fill="#DD9775"/>
<path d="M43.9139 81.8378C43.6887 81.6129 43.5698 81.2672 43.5698 80.8387C43.5698 80.0475 43.9472 79.575 44.5796 79.575C45.2135 79.575 45.5916 80.1473 45.5916 81.1063C45.5909 81.6321 45.1178 82.0972 44.5793 82.1022C44.3207 82.099 44.0889 82.0128 43.9139 81.8378ZM44.58 82.3941C45.0114 82.3941 45.2648 82.2931 45.4412 82.18C45.1366 83.0984 44.3388 83.5775 43.6543 83.5775H43.5705V83.662C43.5705 83.7371 43.5792 83.7982 43.5792 83.7982L43.5896 83.8708H43.6623C45.0648 83.8708 46.2059 82.6305 46.2059 81.1066C46.2059 80.0157 45.5524 79.2827 44.5796 79.2827C43.6529 79.2827 42.9536 79.9518 42.9536 80.8387C42.9536 81.6115 43.5123 82.3941 44.58 82.3941Z" fill="#DD9775"/>
<path d="M50.1602 82.1016C49.9038 82.1016 49.6775 82.0105 49.5042 81.8373C49.2789 81.6127 49.1601 81.2671 49.1601 80.8385C49.1601 80.047 49.5375 79.5745 50.1699 79.5745C50.8037 79.5745 51.1818 80.1471 51.1818 81.1061C51.1811 81.6316 50.7081 82.0967 50.1692 82.1016H50.1602ZM50.1703 82.3936C50.6018 82.3936 50.8551 82.2926 51.0314 82.1795C50.7268 83.0983 49.929 83.5773 49.2446 83.5773H49.1608V83.6618C49.1608 83.7369 49.1694 83.7977 49.1694 83.7977L49.1798 83.8703H49.2526C50.6551 83.8703 51.7963 82.6303 51.7963 81.1061C51.7963 80.0152 51.1427 79.2822 50.1699 79.2822C49.2433 79.2822 48.5439 79.9513 48.5439 80.8385C48.5439 81.6113 49.1026 82.3936 50.1703 82.3936Z" fill="#DD9775"/>
<path d="M54.748 82.0469C54.749 81.521 55.2224 81.0559 55.7609 81.0514H55.7704C56.0265 81.0514 56.2531 81.1425 56.426 81.3153C56.6509 81.5402 56.7701 81.8856 56.7701 82.3144C56.7701 83.106 56.3927 83.5785 55.7606 83.5785H55.7602C55.1264 83.5785 54.748 83.0058 54.748 82.0469ZM55.7602 80.7598C55.3288 80.7598 55.0752 80.8607 54.8994 80.9739C55.2034 80.0551 56.0015 79.576 56.6859 79.576H56.7728L56.7698 79.4887C56.7669 79.4094 56.7614 79.3577 56.7614 79.3577L56.7528 79.2827H56.6779C55.2755 79.2827 54.1343 80.523 54.1343 82.0469C54.1343 83.1377 54.7878 83.8707 55.7606 83.8707C56.6877 83.8707 57.3866 83.2017 57.3866 82.3148C57.3866 81.542 56.828 80.7598 55.7602 80.7598Z" fill="#DD9775"/>
<path d="M14.0542 83.8528C21.2305 82.8835 28.4515 82.2602 35.6826 81.9372L35.6548 81.4141C28.4251 81.8813 21.2131 82.6481 14.0542 83.76V83.8528Z" fill="#DD9775"/>
<path d="M82.4106 83.8528C75.2343 82.8835 68.0132 82.2602 60.7822 81.9372L60.8099 81.4141C68.0395 81.8813 75.2516 82.6481 82.4106 83.76V83.8528Z" fill="#DD9775"/>
<path d="M48.2325 13.8779L50.2143 10.4191L48.2325 6.95996L46.2505 10.4191L48.2325 13.8779Z" fill="#F8A46F"/>
<path d="M47.113 27.983C47.3088 28.1747 47.5316 28.3964 47.7597 28.6248C47.5188 28.8675 47.289 29.0979 47.1005 29.2873C46.8749 29.0599 46.6548 28.8382 46.4607 28.6426C46.6465 28.4545 46.8735 28.225 47.113 27.983ZM48.232 26.8572C48.4239 27.0493 48.6455 27.2721 48.8735 27.5014C48.6814 27.6956 48.46 27.9191 48.232 28.1489C48.004 27.9191 47.7829 27.6956 47.5909 27.5014C47.8189 27.2721 48.0403 27.0493 48.232 26.8572ZM48.232 30.4274C48.0417 30.2357 47.8169 30.009 47.5808 29.7712C47.7669 29.5767 47.9932 29.3445 48.232 29.1018C48.4711 29.3445 48.697 29.5767 48.8832 29.7712C48.6475 30.009 48.4223 30.2357 48.232 30.4274ZM50.0031 28.6426C49.8094 28.8382 49.5894 29.0599 49.3638 29.2873C49.1749 29.0979 48.9456 28.8675 48.7043 28.6248C48.9324 28.3964 49.1555 28.1747 49.3514 27.983C49.5908 28.225 49.8178 28.4545 50.0031 28.6426ZM57.001 22.6533C54.8881 24.2571 52.6917 25.9339 50.5799 28.062C50.5559 28.086 50.5278 28.1143 50.497 28.1454C50.3137 27.9614 50.0905 27.7372 49.8549 27.5C49.8701 27.4865 49.8843 27.4732 49.8974 27.4613C53.9652 23.8064 55.6069 22.2974 56.3717 21.5272C59.7922 18.0834 62.6886 14.0872 62.6886 10.419C62.6886 8.36465 61.7096 6.11088 60.9472 5.34306C60.9472 5.34306 61.0788 6.01556 61.0788 6.95977C61.0788 10.419 61.0788 13.9307 55.6855 20.2991C54.9328 21.1873 53.2146 23.051 49.3808 26.9857C49.3752 26.9913 49.3687 26.9983 49.3625 27.0042C49.1364 26.7762 48.9175 26.5549 48.7279 26.3631C48.729 26.362 48.7303 26.3603 48.7317 26.3593C51.0054 24.1198 53.2465 21.7115 55.0323 19.13C58.6301 13.9286 59.4692 10.419 59.4692 6.95977C59.4692 2.77155 57.0534 0 56.1859 0C56.8745 1.98938 57.1906 4.51961 57.1906 6.95977C57.1906 10.419 56.3775 14.0513 54.2346 17.702C52.5216 20.6203 50.5792 23.4561 48.232 25.8596C45.8852 23.4561 43.9424 20.6203 42.2298 17.702C40.0867 14.0513 39.2737 10.419 39.2737 6.95977C39.2737 4.51961 39.5895 1.98938 40.278 0C39.4106 0 36.9952 2.77155 36.9952 6.95977C36.9952 10.419 37.8341 13.9286 41.432 19.13C43.2178 21.7115 45.4589 24.1198 47.7326 26.3593C47.7336 26.3603 47.7354 26.362 47.7364 26.3631C47.5469 26.5549 47.3274 26.7762 47.1015 27.0042C47.0956 26.9983 47.089 26.9913 47.0835 26.9857C43.2494 23.051 41.5312 21.1873 40.7788 20.2991C35.3854 13.9307 35.3854 10.419 35.3854 6.95977C35.3854 6.01556 35.5168 5.34306 35.5168 5.34306C34.7548 6.11088 33.7754 8.36465 33.7754 10.419C33.7754 14.0872 36.6722 18.0834 40.0922 21.5272C40.8575 22.2974 42.4991 23.8064 46.5668 27.4613C46.5796 27.4732 46.5942 27.4865 46.6095 27.5C46.3738 27.7372 46.1506 27.9614 45.9673 28.1454C45.9365 28.1143 45.9084 28.086 45.8845 28.062C43.7726 25.9339 41.5761 24.2571 39.4633 22.6533C36.9952 20.7798 35.3854 18.8687 33.7754 15.8318C33.7754 18.8687 35.3854 21.6899 38.8489 23.7525C40.6433 24.821 42.6152 26.045 45.3653 28.4995C45.3864 28.5183 45.4298 28.5599 45.4905 28.6189C44.1164 29.9653 42.6034 31.1788 41.0169 32.2932C41.1919 32.6336 41.3897 32.9597 41.6085 33.2705C43.1374 31.9718 44.5991 30.5534 45.995 29.1189C46.1867 29.31 46.4057 29.5296 46.6303 29.7555C44.6965 31.6677 43.2735 33.0502 42.2256 34.0474C42.4807 34.3303 42.7552 34.5943 43.0462 34.8391C43.9671 33.8216 45.2631 32.3675 47.1296 30.259C47.3611 30.4926 47.5801 30.7151 47.7624 30.9012C46.2861 32.3926 45.0289 33.9252 43.861 35.4411C44.1458 35.6261 44.4418 35.7955 44.7495 35.9447C45.5917 34.6449 46.6544 33.1825 48.2288 31.3911C48.2299 31.3901 48.2313 31.3887 48.232 31.3876C48.2331 31.3887 48.2344 31.3901 48.2351 31.3911C49.8098 33.1825 50.8723 34.6449 51.7148 35.9447C52.0225 35.7955 52.3181 35.6261 52.6033 35.4411C51.4355 33.9252 50.1782 32.3926 48.7019 30.9012C48.8839 30.7151 49.1032 30.4926 49.3347 30.259C51.2012 32.3675 52.4973 33.8216 53.418 34.8391C53.7091 34.5943 53.9836 34.3303 54.2383 34.0474C53.1903 33.0502 51.7678 31.6677 49.8341 29.7555C50.0586 29.5296 50.2773 29.31 50.469 29.1189C51.8652 30.5534 53.3269 31.9718 54.8555 33.2705C55.0742 32.9597 55.2721 32.6336 55.4471 32.2932C53.861 31.1788 52.3479 29.9653 50.9739 28.6189C51.0342 28.5599 51.0778 28.5183 51.0989 28.4995C53.8492 26.045 55.8207 24.821 57.6151 23.7525C61.0788 21.6899 62.6886 18.8687 62.6886 15.8318C61.0788 18.8687 59.4692 20.7798 57.001 22.6533Z" fill="#2F345C"/>
</svg>
