<svg width="172" height="68" viewBox="0 0 172 68" fill="none" xmlns="http://www.w3.org/2000/svg">
<path d="M5.07422 1.69092L19.6964 3.25251L37.3399 2.47172L39.2138 16.7235L38.3331 51.1935L33.1236 61.0316L26.4562 65.7163H18.587L11.5736 63.3739L5.07422 58.6892L2.9086 50.8812L2.04785 22.1478L2.9086 3.56483L5.07422 1.69092Z" fill="white"/>
<path d="M57.4158 32.4473C54.8154 32.4473 53.6792 29.8969 53.2757 28.3572L52.543 28.534C52.6948 29.7458 53.0227 31.917 53.2245 32.4473C53.4512 32.5735 53.831 32.7503 54.4606 32.9776C55.0921 33.1538 55.901 33.3562 56.9354 33.3562C60.2941 33.3562 62.5403 31.2349 62.5403 28.5839C62.5403 25.7568 60.1423 24.57 58.1735 23.5606C56.1784 22.5249 54.9672 21.6667 54.9672 19.824C54.9672 18.4604 55.8254 17.0469 57.7687 17.0469C59.9655 17.0469 60.6214 18.789 61.0762 20.4049L61.8082 20.2531C61.6065 18.6628 61.4797 17.6784 61.3791 16.7689C60.4197 16.4659 59.359 16.188 58.1978 16.188C54.941 16.188 52.9971 18.2587 52.9971 20.6829C52.9971 23.535 55.5462 24.7974 57.1622 25.6562C59.0561 26.6657 60.4447 27.5495 60.4447 29.4178C60.4447 31.2611 59.3084 32.4473 57.4158 32.4473Z" fill="black"/>
<path d="M69.4304 32.2712C67.5365 32.0938 67.3097 31.8414 67.865 30.2511C68.193 29.1911 68.5715 28.1304 68.9756 26.9942H74.3531C74.9091 28.5346 75.4131 29.8975 75.7417 30.8826C76.0703 31.867 75.8429 32.0688 74.2519 32.2712V32.9776H80.4365V32.2712C78.7956 32.1194 78.4682 31.8926 77.6606 29.7208C76.0453 25.3277 74.3531 20.5305 72.7878 16.188L72.0045 16.4153L66.7794 29.6702C65.8949 31.892 65.542 32.0432 63.9517 32.2712V32.9776H69.4304V32.2712ZM71.7284 19.4704H71.779L74.0002 25.9086H69.3542C70.1125 23.8385 70.9201 21.6417 71.7284 19.4704Z" fill="black"/>
<path d="M81.4686 18.2336C81.7965 17.6527 82.3012 17.4509 84.3969 17.4509H85.9616V29.8725C85.9616 31.867 85.7605 32.1193 83.463 32.2705V32.9776H90.7095V32.2705C88.3103 32.1193 88.1079 31.867 88.1079 29.8725V17.4509H89.9006C91.7951 17.4509 92.2242 17.6277 92.6271 18.2336C92.9307 18.6371 93.1581 19.2686 93.436 20.4798L94.1675 20.4048C94.0413 18.9401 93.9158 17.0974 93.9158 15.9355H93.3854C92.9813 16.4153 92.7789 16.5671 92.0968 16.5671H82.1251C81.418 16.5671 81.09 16.5165 80.7359 15.9355H80.2306C80.18 17.3241 80.0538 18.9657 79.9282 20.4798H80.6597C80.9645 19.3692 81.1656 18.6627 81.4686 18.2336Z" fill="black"/>
<path d="M106.233 31.9678C107.722 31.1352 108.655 29.8472 108.655 28.155C108.655 25.6303 106.687 24.5197 104.187 24.1411V24.0649C105.602 23.687 107.595 22.7013 107.595 20.3033C107.595 19.1421 107.09 18.0309 106.182 17.4256C105.399 16.8703 104.288 16.5674 102.395 16.5674H95.906V17.2738C97.9248 17.4256 98.0266 17.5768 98.0266 19.6725V29.8478C98.0266 31.9685 97.8749 32.1196 95.7036 32.2714V32.9779H101.283C103.278 32.9779 104.944 32.6749 106.233 31.9678ZM100.148 18.8898C100.148 18.0571 100.249 17.7792 100.475 17.6274C100.728 17.4762 101.284 17.375 101.915 17.375C104.313 17.375 105.273 18.8898 105.273 20.6069C105.273 22.7276 104.112 23.8382 101.334 23.8382H100.148V18.8898ZM100.148 29.8222V24.6714H101.308C104.389 24.6714 106.156 25.807 106.156 28.408C106.156 31.0334 104.313 32.0934 102.243 32.119C100.627 32.1196 100.148 31.6399 100.148 29.8222Z" fill="black"/>
<path d="M115.015 32.2712C113.121 32.0938 112.894 31.8414 113.45 30.2511C113.777 29.1911 114.156 28.1304 114.56 26.9942H119.938C120.493 28.5346 120.998 29.8975 121.326 30.8826C121.655 31.867 121.427 32.0688 119.837 32.2712V32.9776H126.021V32.2712C124.38 32.1194 124.053 31.8926 123.245 29.7208C121.629 25.3277 119.938 20.5305 118.372 16.188L117.589 16.4153L112.363 29.6702C111.479 31.892 111.127 32.0432 109.536 32.2712V32.9776H115.014L115.015 32.2712ZM117.312 19.4704H117.363L119.584 25.9086H114.939C115.696 23.8385 116.503 21.6417 117.312 19.4704Z" fill="black"/>
<path d="M127.66 19.4197C129.05 21.7678 129.958 23.4093 130.841 24.9747C131.27 25.7317 131.371 25.9591 131.371 26.4638V29.8219C131.371 31.9681 131.145 32.1193 128.898 32.2704V32.9775H136.042V32.2704C133.719 32.1193 133.517 31.9425 133.517 29.8219V26.3876C133.517 25.7317 133.593 25.4538 133.92 24.7973C135.132 22.5754 135.992 21.1113 137.128 19.2686C138.112 17.7289 138.39 17.4759 140.132 17.2741V16.567H134.552V17.2741C136.521 17.4759 136.596 17.6776 136.017 18.94C135.31 20.4798 133.947 22.954 133.012 24.6205C131.927 22.7272 130.689 20.6565 129.629 18.6365C129.149 17.8038 129.098 17.5002 130.891 17.2735V16.5664H124.857V17.2735C126.372 17.4259 126.65 17.7032 127.66 19.4197Z" fill="black"/>
<path d="M154.265 28.9889L153.508 28.8871C153.18 29.8972 152.699 30.756 152.271 31.2607C151.715 31.9172 151.008 32.1196 149.089 32.1196C147.827 32.1196 146.943 32.094 146.464 31.7911C146.009 31.4631 145.858 30.9328 145.858 29.7466V24.975H148.257C150.452 24.975 150.63 25.1262 150.958 26.9439H151.69V22.0967H150.958C150.63 23.7882 150.503 23.99 148.232 23.99H145.858V18.2589C145.858 17.5012 145.909 17.4513 146.69 17.4513H148.61C150.428 17.4513 151.109 17.628 151.462 18.1577C151.79 18.7136 152.043 19.2689 152.27 20.329L153.003 20.2028C152.927 18.9148 152.8 17.1983 152.8 16.5674H141.541V17.2738C143.51 17.4506 143.713 17.5256 143.713 19.7986V29.8472C143.713 31.8916 143.51 32.0934 141.213 32.2708V32.9773H153.381C153.609 32.1952 154.114 29.8222 154.265 28.9889Z" fill="black"/>
<path d="M166.178 16.5679V17.2743C168.224 17.5261 168.375 17.7291 167.895 19.1676C167.087 21.6924 165.168 26.6158 163.907 29.7715H163.855C162.164 25.429 160.321 20.5568 159.664 18.7641C159.261 17.6535 159.362 17.4767 161.155 17.2743V16.5679H154.969V17.2993C156.458 17.4261 156.863 17.6273 157.594 19.5212C159.06 23.1815 161.13 28.6096 162.821 33.2301H163.603C165.497 28.0294 168.173 21.6168 168.854 19.9753C169.814 17.7035 170.142 17.4767 171.86 17.2743V16.5679H166.178Z" fill="black"/>
<path d="M61.4881 39.4689C62.9529 39.5732 63.392 39.8243 63.5175 40.6407C63.6018 41.2897 63.6637 42.1685 63.6637 44.0943V45.6853C63.6637 49.1383 62.7217 51.6505 59.7079 51.6505C57.1131 51.6505 55.7733 49.7254 55.7733 46.3549V41.5826C55.7733 39.6981 55.9407 39.5725 57.5941 39.4682V38.8823H52.1729V39.4682C53.8263 39.6144 53.993 39.6981 53.993 41.5826V46.8146C53.993 49.2638 54.5796 50.8335 55.8357 51.7973C56.7564 52.5088 57.9707 52.8011 59.1844 52.8011C60.5655 52.8011 61.9678 52.362 62.931 51.357C64.1447 50.0802 64.5213 48.3006 64.5213 45.8308V44.0937C64.5213 42.1679 64.5638 41.2684 64.6263 40.7031C64.7306 39.8443 65.2122 39.5513 66.4677 39.4676V38.8823H61.4868V39.4689H61.4881Z" fill="black"/>
<path d="M76.9934 39.4689C78.4382 39.5526 78.9398 39.8243 79.0441 40.7662C79.1078 41.3521 79.1902 42.3153 79.1902 44.2411V49.3906H79.1272L70.401 38.8823H67.3027V39.4682C68.2859 39.5519 68.7469 39.7187 69.1648 40.2422C69.5421 40.745 69.5839 40.8281 69.5839 42.3566V46.9614C69.5839 48.8871 69.5208 49.8909 69.4584 50.5399C69.3534 51.5656 68.8306 51.8379 67.6163 51.9004V52.4869H72.5772V51.9004C71.1536 51.8173 70.6714 51.5656 70.5677 50.4987C70.5046 49.8909 70.4422 48.8871 70.4422 46.9614V41.7076H70.4834L79.3995 52.6756H80.0485V44.2405C80.0485 42.2935 80.0903 41.3521 80.1747 40.7244C80.2577 39.803 80.7606 39.5313 81.9318 39.4682V38.8823H76.9927V39.4689H76.9934Z" fill="black"/>
<path d="M83.2261 39.4689C84.942 39.5944 85.11 39.7193 85.11 41.4989V49.8709C85.11 51.6505 84.942 51.7761 83.2261 51.901V52.4876H88.7722V51.901C87.057 51.7761 86.8883 51.6712 86.8883 49.8709V41.4989C86.8883 39.7193 87.057 39.5944 88.7722 39.4689V38.8823H83.2261V39.4689Z" fill="black"/>
<path d="M99.2374 39.4689C100.932 39.6781 101.058 39.8455 100.66 41.0386C99.99 43.1317 98.3997 47.2131 97.3528 49.8297H97.3103C95.9087 46.2293 94.3808 42.1904 93.8361 40.7044C93.5013 39.7824 93.5856 39.6369 95.0717 39.4689V38.8823H89.9434V39.4895C91.1789 39.5944 91.5137 39.7624 92.1202 41.3309C93.3339 44.3666 95.0504 48.8665 96.4527 52.6962H97.1011C98.6721 48.3856 100.89 43.068 101.456 41.7076C102.251 39.8236 102.524 39.6363 103.946 39.4682V38.8823H99.2374V39.4689Z" fill="black"/>
<path d="M114.052 51.0646C113.591 51.6081 113.005 51.7761 111.414 51.7761C110.367 51.7761 109.635 51.7549 109.238 51.5038C108.861 51.2308 108.734 50.7917 108.734 49.8085V45.852H110.724C112.545 45.852 112.691 45.9776 112.963 47.4842H113.57V43.4653H112.963C112.691 44.8682 112.586 45.0356 110.703 45.0356H108.735V40.2846C108.735 39.6569 108.777 39.615 109.426 39.615H111.016C112.524 39.615 113.088 39.7618 113.382 40.2009C113.654 40.6607 113.864 41.1223 114.052 42.0005L114.659 41.8956C114.596 40.8287 114.491 39.4058 114.491 38.8823H105.156V39.4682C106.788 39.6144 106.956 39.6775 106.956 41.5614V49.8916C106.956 51.5875 106.788 51.7542 104.884 51.901V52.4876H114.972C115.162 51.8386 115.579 49.871 115.705 49.1801L115.078 49.0958C114.806 49.9347 114.408 50.6455 114.052 51.0646Z" fill="black"/>
<path d="M127.862 51.1281C127.359 50.584 126.92 50.0387 126.167 48.9512C125.539 48.0093 124.66 46.607 124.304 45.9167C125.852 45.2465 126.963 44.1365 126.963 42.3375C126.963 41.0814 126.418 40.1395 125.58 39.5954C124.785 39.072 123.76 38.8833 122.232 38.8833H117.041V39.4692C118.674 39.6154 118.841 39.6785 118.841 41.4574V49.8719C118.841 51.6522 118.653 51.7771 116.936 51.902V52.4886H122.441V51.902C120.766 51.7771 120.579 51.6522 120.579 49.8719V46.5439H121.249C122.337 46.5439 122.693 46.795 123.048 47.3821C123.677 48.4072 124.43 49.7052 125.163 50.7308C126.105 52.0913 126.983 52.551 128.554 52.6354C128.804 52.656 129.035 52.656 129.286 52.656L129.37 52.1119C128.909 51.9857 128.427 51.7552 127.862 51.1281ZM123.865 45.2671C123.341 45.6856 122.65 45.853 121.583 45.853H120.579V40.7048C120.579 40.1395 120.663 39.8877 120.809 39.7834C120.976 39.6579 121.332 39.5735 121.939 39.5735C123.53 39.5735 125.016 40.4118 125.016 42.6717C125.015 43.8011 124.68 44.6387 123.865 45.2671Z" fill="black"/>
<path d="M134.702 44.6793C133.05 43.8217 132.045 43.1103 132.045 41.5824C132.045 40.4518 132.756 39.2793 134.368 39.2793C136.189 39.2793 136.733 40.7241 137.11 42.0634L137.717 41.9378C137.55 40.6192 137.445 39.8028 137.362 39.0489C136.566 38.7984 135.686 38.5679 134.724 38.5679C132.024 38.5679 130.412 40.2838 130.412 42.2932C130.412 44.6581 132.527 45.705 133.867 46.4165C135.436 47.2541 136.587 47.9868 136.587 49.5353C136.587 51.0638 135.645 52.0469 134.075 52.0469C131.919 52.0469 130.977 49.9332 130.642 48.6558L130.035 48.8019C130.161 49.807 130.433 51.6066 130.6 52.0463C130.788 52.1513 131.103 52.2974 131.625 52.4861C132.149 52.6322 132.819 52.7996 133.676 52.7996C136.461 52.7996 138.323 51.0419 138.323 48.8444C138.324 46.5008 136.336 45.517 134.702 44.6793Z" fill="black"/>
<path d="M139.619 39.4689C141.336 39.5944 141.503 39.7193 141.503 41.4989V49.8709C141.503 51.6505 141.336 51.7761 139.619 51.901V52.4876H145.166V51.901C143.449 51.7761 143.281 51.6712 143.281 49.8709V41.4989C143.281 39.7193 143.449 39.5944 145.166 39.4689V38.8823H139.619V39.4689Z" fill="black"/>
<path d="M157.702 38.359C157.367 38.7569 157.199 38.8825 156.635 38.8825H148.366C147.78 38.8825 147.509 38.8406 147.215 38.359H146.797C146.755 39.5102 146.65 40.8707 146.545 42.1262H147.153C147.403 41.2049 147.571 40.6196 147.822 40.2642C148.095 39.7826 148.513 39.6152 150.251 39.6152H151.549V49.913C151.549 51.5664 151.38 51.7756 149.477 51.9012V52.4877H155.483V51.9012C153.495 51.7763 153.328 51.567 153.328 49.913V39.6152H154.814C156.383 39.6152 156.739 39.762 157.074 40.2642C157.325 40.599 157.514 41.1218 157.744 42.1262L158.351 42.0638C158.247 40.8495 158.141 39.321 158.141 38.3584H157.702V38.359Z" fill="black"/>
<path d="M167.1 39.4689C168.733 39.6369 168.796 39.8037 168.314 40.8499C167.728 42.1267 166.598 44.178 165.823 45.5597C164.924 43.9894 163.898 42.2735 163.019 40.5995C162.621 39.9092 162.58 39.6575 164.066 39.4689V38.8823H159.062V39.4682C160.319 39.5938 160.549 39.8236 161.387 41.2478C162.537 43.1936 163.291 44.5547 164.023 45.852C164.379 46.4804 164.464 46.6691 164.464 47.0876V49.8709C164.464 51.6505 164.274 51.7761 162.412 51.901V52.4876H168.336V51.901C166.41 51.7761 166.242 51.6299 166.242 49.8709V47.0245C166.242 46.4804 166.305 46.2499 166.577 45.7059C167.581 43.8638 168.293 42.6495 169.235 41.1216C170.052 39.8449 170.282 39.6363 171.726 39.4689V38.8823H167.1V39.4689Z" fill="black"/>
<path d="M36.1727 0H22.9534C21.0689 0 20.6211 1.62656 20.6211 1.62656C20.6211 1.62656 20.1832 0 18.2887 0H5.06943L0.747559 4.32188V48.1271C0.747559 59.7941 9.6624 68 20.6204 68C31.5785 68 40.4945 59.7941 40.4945 48.1271V4.32188L36.1727 0ZM36.1727 48.1271C36.1727 56.724 29.1961 63.6781 20.6211 63.6781C12.046 63.6781 5.07006 56.724 5.07006 48.1271V4.32188H36.1727V48.1271Z" fill="#005DAC"/>
<path d="M13.7198 6.14464L13.9497 6.15838C14.0228 6.16338 14.0465 6.17025 14.0496 6.17025C14.0578 6.18462 14.0627 6.2377 14.0627 6.32703V8.04229C14.0627 8.31713 14.0628 8.32212 13.7417 8.34524C13.683 8.34898 13.6368 8.39833 13.6368 8.4583V8.60197C13.6368 8.66506 13.6874 8.71565 13.7498 8.71565H15.1178C15.1809 8.71565 15.2308 8.66506 15.2308 8.60197V8.4583C15.2308 8.39833 15.1846 8.34961 15.1259 8.34524C14.8105 8.32337 14.8105 8.31838 14.8105 8.04229V5.66616L14.7649 5.5756L14.6643 5.55811C14.2708 5.67741 13.9759 5.75049 13.7086 5.79609C13.6542 5.80546 13.6143 5.85231 13.6143 5.9079V6.0322C13.6136 6.09154 13.6599 6.14089 13.7198 6.14464Z" fill="#005DAC"/>
<path d="M18.4596 7.63354C18.5608 7.63354 18.6564 7.60543 18.7794 7.54172L18.7994 7.53172C18.6114 7.98771 18.1991 8.31252 17.6738 8.40184L17.6001 8.44807L17.5814 8.53302L17.6088 8.69043L17.7207 8.78412H17.7238C17.9137 8.77788 18.2835 8.70979 18.4977 8.62734C19.2485 8.32502 19.6964 7.65291 19.6964 6.83151C19.6964 6.06633 19.2585 5.55225 18.6076 5.55225C17.8362 5.55225 17.4771 6.21124 17.4771 6.65598C17.4771 7.2219 17.8906 7.63354 18.4596 7.63354ZM18.529 5.95513C18.9012 5.95513 18.9194 6.66535 18.9194 6.80715C18.9194 6.89897 18.915 6.98141 18.9056 7.06074C18.8388 7.0901 18.7688 7.10509 18.6995 7.10509C18.3978 7.10509 18.2397 6.79028 18.2397 6.47921C18.2397 6.29806 18.3003 5.95513 18.529 5.95513Z" fill="#005DAC"/>
<path d="M22.3843 8.28857C22.1513 8.28857 21.9695 8.12929 21.8683 8.04121C21.7815 7.96938 21.6728 7.97 21.581 8.04371C21.5423 8.07244 21.4155 8.17738 21.4067 8.32355C21.4067 8.42099 21.4523 8.51031 21.5479 8.59277C21.6522 8.67459 21.864 8.76954 22.1163 8.76954C22.448 8.76954 23.4912 8.4085 23.4912 7.57024C23.4912 7.22606 23.2894 6.94497 22.9602 6.80943C23.0227 6.76508 23.0745 6.72572 23.1189 6.68512C23.2338 6.57518 23.2969 6.4334 23.2969 6.28473C23.2969 5.84624 22.9583 5.55078 22.4536 5.55078C22.1775 5.55078 21.9158 5.66571 21.7284 5.87622L21.511 6.17604L21.5248 6.32471L21.636 6.43089L21.7247 6.46213L21.8059 6.41528C21.962 6.19853 22.0995 6.10608 22.2637 6.10608C22.3531 6.10608 22.5623 6.13606 22.5623 6.4184C22.5623 6.55519 22.4986 6.7582 21.9514 6.93497C21.8958 6.95246 21.8627 7.00994 21.8758 7.06678L21.9077 7.21419L21.9589 7.28665L22.0464 7.29977C22.1157 7.28228 22.2057 7.26228 22.2825 7.26228C22.4518 7.26228 22.7378 7.36472 22.7378 7.7495C22.7378 7.95188 22.6916 8.28857 22.3843 8.28857Z" fill="#005DAC"/>
<path d="M25.3981 7.90571H26.4681V8.08249C26.4681 8.31923 26.4681 8.31923 26.1514 8.34422C26.0927 8.34859 26.0471 8.39793 26.0471 8.45728V8.60094C26.0471 8.66403 26.0977 8.71463 26.1608 8.71463H27.4688C27.5319 8.71463 27.5818 8.66403 27.5818 8.60094V8.45728C27.5818 8.39918 27.5375 8.34984 27.4794 8.34422C27.2033 8.31923 27.2033 8.31923 27.2033 8.09748V7.90571H27.5156C27.5787 7.90571 27.6287 7.85512 27.6287 7.79203V7.54217C27.6287 7.47971 27.5787 7.42849 27.5156 7.42849H27.2033V5.68825C27.2033 5.62579 27.1527 5.5752 27.0903 5.5752H26.8129L26.7242 5.6183C26.3076 6.14487 25.8304 6.79636 25.3057 7.55592L25.2857 7.62025V7.79203C25.2844 7.85512 25.335 7.90571 25.3981 7.90571ZM26.4681 6.61584V7.42911H25.9265C26.1314 7.10618 26.3163 6.83259 26.4681 6.61584Z" fill="#005DAC"/>
<path d="M0.743164 4.32178H5.0744V6.36372L0.743164 4.32178Z" fill="#004483"/>
<path d="M40.4994 4.32178H36.1675V6.36372L40.4994 4.32178Z" fill="#004483"/>
<path d="M25.2652 35.1369L24.7162 34.5923H24.7149L17.5984 27.6032C15.8063 25.6918 14.439 23.533 14.439 20.8296C14.439 17.1111 17.3442 13.5669 21.8647 13.5669C27.5814 13.5669 29.7414 19.1756 28.2479 22.2026C27.4027 23.9147 25.0809 24.8373 23.7961 24.3907C23.6661 24.3451 23.6593 24.1477 23.7817 24.0833C24.7867 23.5524 25.5906 22.4905 25.5956 20.937C25.6019 19.145 24.2926 17.4128 21.9846 17.4128C19.3761 17.4128 16.5453 20.7753 20.4774 24.7861C23.1158 27.477 28.9918 32.7121 31.2324 36.6242C31.3067 36.7547 31.4691 36.7354 31.5266 36.5961C32.9582 33.1344 31.3348 29.0486 28.5858 27.4539C28.4765 27.3902 28.4634 27.2471 28.5677 27.1747C30.8588 25.5956 31.5697 23.1651 31.7971 22.0195C33.18 15.0505 26.1734 8.70599 18.804 10.0265C14.8481 10.7354 11.0316 13.169 9.54243 18.7739C8.6848 22.0027 9.44998 25.1046 10.9316 27.858C11.9217 29.6982 14.0473 32.3242 15.9762 34.1288L16.5253 34.6735H16.5259L23.6424 41.6619C25.4345 43.5739 26.8024 45.7333 26.8024 48.4367C26.8024 52.1546 23.8979 55.6994 19.3767 55.6994C13.6594 55.6994 11.5001 50.0908 12.9936 47.0632C13.8387 45.3516 16.1611 44.4284 17.4454 44.8757C17.5753 44.9207 17.5822 45.1187 17.4597 45.183C16.4547 45.7139 15.6508 46.7764 15.6458 48.3287C15.6402 50.1208 16.9488 51.8529 19.2568 51.8529C21.8653 51.8529 24.6962 48.4904 20.7647 44.4803C18.1262 41.7887 12.2496 36.5542 10.0097 32.6421C9.93534 32.5122 9.77292 32.5303 9.71483 32.6696C8.28316 36.132 9.90722 40.2177 12.6556 41.8124C12.7656 41.8762 12.7787 42.0192 12.6737 42.0917C10.3832 43.6701 9.67175 46.1012 9.445 47.2474C8.06205 54.2159 15.0686 60.5603 22.4381 59.2398C26.3939 58.5309 30.2111 56.0973 31.6996 50.4924C32.5566 47.263 31.7914 44.1611 30.3098 41.4083C29.3197 39.5669 27.1941 36.9415 25.2652 35.1369Z" fill="#005DAC"/>
</svg>
